<svg width="39" height="39" xmlns="http://www.w3.org/2000/svg">
  <g id="Page-1" stroke="none" stroke-width="1" fill="none" fill-rule="evenodd">
    <path d="M18.8.4A19.2 19.2 0 0 0-.4 19.5a19.2 19.2 0 0 0 38.4 0C38 9 29.4.4 18.8.4Zm0 .6C29 1 37.3 9.3 37.4 19.5a18.6 18.6 0 0 1-37.2 0C.2 9.3 8.5 1 18.8 1Zm6 3.5c-.4-.1-1.3.6-3.1 3.7a11 11 0 0 0-1.1 2.7l-.2.8c0 .2-.4 2.9.2 3.5.5.6 1 0 1.3-.3l.3-.5.8-2 .2-.8.4-1.2v1.2l-.2.8c-.1.4-.2 1 0 1 .2.1.5-.3.6-.5.4-.6.7-2 .7-2.1.3-1.8.3-3 .4-4.1v-.1c0-1 0-2-.4-2.1ZM16.8 7c-.9-.8-2.6-1.9-3.2-1.7-.2.3.3 1.2.6 1.8l.3.5c.5 1 .9 2.2 1 3.3l.3 1.2c.3 1 .9 2.4 1.4 2.4.3 0 .5-.1.6-.5.2-.8-.4-2.8-.5-3.1-.2-.6-.5-1-.4-1.2 0-.1 1 1.8 1.2 2.8l.3 1.3c.1.4.4.6.7.6.3 0 .4-.6.4-1l-.1-2A8 8 0 0 0 16.9 7Zm-4 4.5h-.4c-.1.2.2.6.3.6l1.6 2.4c.4.6.6.7.7.7l.6-.3c.1 0 .4-.2.4-.4 0-.5-.2-1-.5-1.3h-.1a6 6 0 0 0-2.6-1.7Zm-6.9 1c-.3 0-1-.2-1 0 0 .4.3.7.6.9l3 2.1c.4.3 1.6 1 2.5 1.9l.2.1c1.2 1 1.7 1 2 .8.3-.2.4-.5.1-1-.3-.6-.7-1.1-1.3-1.4l-.7-.5s-.8-.3-.7-.4l1.2.4 1 .5c.1.2.6.4.8.4.2 0 .4-.4.4-.7-.1-.4-.3-1-1.2-1.5-2.4-1.2-5.3-1.4-6.9-1.6Zm8.5 5.7c.2.3.4.4.7.4.5 0 1-.3 1.1-.6l.4-.6s.1-.8-.2-1.3a.9.9 0 0 0-.8-.4c-.5 0-1.2.2-1.4 1.1v.1c-.2.7 0 1.2.2 1.3Zm2.6-.2c-.4.3-.6.8-.6 1.3a2 2 0 0 0 1.9 2c.5 0 1-.2 1.4-.6.3-.3.5-.8.5-1.3 0-.2 0-.4-.2-.7a2 2 0 0 0-1.7-1.1c-.5 0-1 0-1.4.4Zm-1.6 1.4a.9.9 0 0 0-.9.1c-.3.2-.5.6-.5 1v.2c0 .6.4 1.3 1.1 1.3.6 0 1-.5 1-1.1 0-.7-.2-1.2-.7-1.5Zm-4.1.4c-.6.3-1.3.7-2 1.4l-1.8 1.9-2.2 2c-.7.5-1.2 1-1 1.3 0 .3.7.2 1.8 0 1.7-.4 2.7-.7 3.3-.7.6-.1 2-.5 3.3-1l1-.7s.5-.5.4-1.4c0-.8-.4-.9-.6-.8-.2 0-.7.5-1.6 1l-.6.3-1.1.4.9-.5.7-.5c.6-.4 1-1 1.5-1.5.3-.5.2-.8 0-1 0 0-.4-1-2-.2ZM15 26c0 1.3-.1 3.8-.8 5.3l-.6 1.4c-.2.3-.6.8-.4 1 0 .1.3 0 .5-.2a9.9 9.9 0 0 0 4.3-3.3 7 7 0 0 0 1.2-2.3H19l-.4-.2c-.2-.2-.2-.6-.1-1.4v-.2l-.1-1c-.1-.2-.2 0-.3.3l-.8 2.3c-.2.4-1 1.8-1.1 1.7l.7-1.6.5-1.5c0-.5.4-1.6 0-1.7-.3 0-.5.3-1.3.8-.3.2-.7.5-1.2.6Zm11.4 6.2c1 .2 1.1.2 1.1.1 0 0 0-.4-1-1.4a17 17 0 0 1-2.4-4.4l-.9-1.8c-.4-.9-.8-1.2-1-1.2-.1 0-.7 0-.8.7-.1.7.4 1.7.6 2.1l.2.6 1 1.4-1-1-.7-1c-.1-.1-.4-.4-.6-.3-.3.1-.5.7-.5 1.2 0 .4.2.8.4 1a11.6 11.6 0 0 0 5.6 4Zm-1-6.4c.8.3 1.8.7 2.8.7.7 0 1 0 1-.2l-.3-.6c-.6-.9-2.6-3-4.8-4-.2-.2-.7-.3-.9-.1-.1 0-.3.2-.2.6.2.6 1.8 1.6 1.8 1.6s1 .6 1 .8l-1.4-.8c-.4-.2-1-.5-1-.3v.7c.6.7 1.2 1.2 2 1.6Zm3-1.5c1.2.2 3.2.1 3.9 0 1.4 0 1.4-.4 1.4-.6 0-.3-1-.9-1.5-1.1l-.8-.5-2.5-1.6-.4-.2-.4-.3-.1-.1c-.4-.2-.7-.2-1-.2l-1 .3-.3.3c0 .2 0 .4.3.6 0 0 1 .7 2.3 1.3l.7.2.7.3-.9-.1-1.4-.5-1.4-.7c-.4-.2-.9-.5-1-.3 0 .1 0 .3.3.5l.2.2a17 17 0 0 1 3 2.5Zm-8.3-2.5c0 .5.2 1 .6 1.1.4.2 1 .2 1.5-.2.2-.3.4-.7.4-1 0-.5-.1-1-.4-1.3a1 1 0 0 0-1-.2c-.5.1-1 .6-1.1 1.6Zm-3.4 1.1v.1c0 .5.5.8 1 1 .6 0 1.2-.2 1.5-.6.1 0 .2-.3.2-.7 0-.3-.3-.6-.6-.8-.3-.2-.7-.2-1-.2-.6.1-1.2.6-1.1 1.2Zm-.5 1.8c.6-.5 0-1.2-.3-1.5-.6-.6-.9 0-.9 0-.1.6-.4 1.1-.8 1.6-.4.4-.4.7-.4.8h1l1.3-.8Zm2.8 0 .1 1v1.4l.1.2c.1 0 .3 0 .5-.2.3-.3.7-1 .9-2 0-.6 0-1.3-.2-1.5-.2 0-.5.4-.9.6l-.5.5Zm5.8-4.3c.1-.1 1.4-1 1.5-1.3 0-.3-.5-.5-.7-.5L25 18c-.4-.3-.7-.5-1-.3-.3.1-.5.4-.6.7-.3.9-.5 2 0 2.3.5.2 1.3-.3 1.5-.4Zm-2.2-5.2-.5.7c0 .2.2.3.3.4.1 0 .4 0 .6-.3l.6-.6.4-.4.7-.5-.4.6s-1.2 1.4-1 1.8c0 .4.3.4.5.4a50.8 50.8 0 0 0 2.7-3.5c.7-1 .9-1.2.8-1.4h-.4c-.9 0-1.6.4-2.3 1a12 12 0 0 0-2 1.8Zm-1.3 1.4c-.6.2-1 .7-.9 1.3 0 .3.1.6.3.8.3.5.7.9 1.4.6.7-.3.7-1 .7-1.3 0-.5-.3-1-.7-1.3a1 1 0 0 0-.8-.1Zm-2.5.6c.7 0 1.2-.6 1.2-1.1 0-.3 0-.5-.4-.7a2 2 0 0 0-2-.1c-.2.1-.4.4-.4.8 0 .7.6 1.1 1.6 1.1Zm7.8 1.3c.5.2 1 0 1.4-.3h.2c2-1.4 4-4 4.4-4.7l.2-.2c.4-.7.6-1 .4-1.2-.1-.1-.7-.2-1.6.2l-2.7 1.2-1.4.8c-.5.2-1 .6-1.2 1h-.1c-.1.2-.2.5 0 .6l.8-.1 1.4-.7c.3-.2.8-.5.9-.4 0 0-1.3 1-1.8 1.2L25.7 17c-.2.1-.3.4-.3.6 0 .2.1.3.3.4l1 .5Z" transform="rotate(90 19.3 19.6)" id="Shape" fill="#007956" fill-rule="nonzero"/>
  </g>
</svg>
