<svg fill="none" xmlns="http://www.w3.org/2000/svg" viewBox="0 0 32 32">
  <path fill="#007956" d="M29.683 10.318v.14c0 .07-.072.14-.215.14-.071 0-.143-.07-.071-.21.071-.07.143-.14.286-.07zm0 0v-.14c0-.14.071-.21.143-.21h.143c.143 0 .215-.07.215-.14s.071-.21.214-.28c.215-.14.358-.21.43-.21.07.07.142 0 .142-.07.072-.14 0-.21-.071-.21-.143 0-.215-.07-.286-.07-.072-.14-.072-.21 0-.42.071-.21.071-.35.071-.42s-.071-.07-.214-.07c-.072 0-.143.07-.358.28l-.215-.07c-.214-.07-.286 0-.214.07v.35c0 .21-.143.35-.358.35-.143 0-.357.07-.572.14-.071-.07-.358-.14-.715-.14-.072 0-.143-.07-.143-.14-.072-.14-.143-.21-.286-.21s-.215.07-.286.14c-.072.07-.143.14-.358.14s-.358.07-.43.21h-.857l-.144-.14h-1l-.072.14c0 .07-.215.14-.716.14-.071 0-.214.07-.357.21-.143.14-.286.21-.43.14-.071 0-.142.07-.142.14s0 .14-.072.14h-.787c-.071 0-.071.07-.143.14 0 .14 0 .21-.071.21h-.43c-.071 0-.071.07-.071.21-.072.07-.143.14-.215.14-.071 0-.143-.07-.143-.14 0-.14-.071-.21-.143-.21-.214 0-.357-.07-.357-.21 0-.07 0-.14-.072-.14-.071-.14-.071-.14-.071-.21l-.072-.07c-.071-.07-.143-.35-.143-.77 0-.07-.071-.14-.358-.21-.143-.14-.357-.28-.429-.35-.071-.07-.071-.21.072-.42.071-.07.071-.21-.072-.28-.071-.07-.143-.21-.143-.28 0-.07-.071-.21-.143-.35-.143-.07-.214-.21-.214-.28v-.28c0-.07-.072-.07-.143-.14-.072-.07-.144-.07-.144-.14v-.28c0-.07-.071-.14-.214-.21-.072-.07-.143-.14-.143-.35 0-.14-.072-.28-.143-.35v-.56c.071-.07.071-.28 0-.49-.143-.21-.286-.35-.358-.28h-.071c-.072-.07-.072-.14-.072-.21-.071-.14-.071-.21-.143-.21v-.42c0-.07-.071-.14-.071-.21-.143-.07-.143-.07-.143-.14s-.072-.07-.144-.07c-.071-.07-.143-.14-.143-.21 0-.07-.071-.14-.143-.14h-.143c-.143 0-.214-.07-.214-.21v-.14c0-.21-.143-.28-.358-.28-.071 0-.143-.14-.286-.49 0-.35-.072-.49-.143-.49-.286 0-.5-.07-.572-.28h-.93c-.072-.14-.143-.21-.286-.14-.215.07-.215.28 0 .49h-.215c-.071 0-.214 0-.286-.07-.071 0-.143 0-.143.07v.42c0 .07-.071.14-.143.14-.143 0-.215.21-.215.56 0 .07.072.07.072.07.143.07.143.07.215 0 .071 0 .071-.07.071-.14.072-.14.143-.21.215-.14l.071-.07c.143 0 .286.14.358.35h.286c.071 0 .143-.07.214-.14 0-.07.072-.14.144-.14h.214c.072.07 0 .14-.071.35l-.143.14v.07l-.072.07c-.072 0-.143.07-.215.21-.071.07-.143.14-.214.14-.072 0-.143-.07-.143-.14v-.49h-.215c-.071 0-.071.07-.143.14 0 .07 0 .14-.071.14h-.787c-.072.07-.143.21 0 .21l.214.28c0 .07.072.14.144.14.214.07.286.14.214.28a.985.985 0 01-.286.21c-.072.07-.143.14-.072.28.072.14 0 .21-.143.21-.071 0-.143-.07-.143-.14v-.21c0-.07-.071-.14-.143-.14-.071 0-.214.07-.429.28-.071.07-.071.14.072.21 0 .14.143.28.214.42.072.21.143.28.143.35 0 .07-.071.07-.214.14-.358-.14-.5-.14-.5.07 0 .07-.072.14-.144.14-.143.07-.215.14-.143.35.071.21 0 .28-.215.28-.071 0-.143.07-.143.14v.42c0 .07.072.07.143.07.143 0 .215.07.215.14s-.072.14-.215.14c-.143.07-.214.14-.143.28l-.071.07h-.43c.144.28.215.49.144.56-.072.07-.143.07-.215-.07-.143 0-.286 0-.357.07.071.07.143.28.143.56 0 .07 0 .07.071.14.072.07.072.21.072.42l-.573.28c-.06 0-.07.049-.07.146l-.001.064c0 .14 0 .21.071.28.072.07.143.14.072.28l-.143.14v.63c0 .07-.072.14-.143.21-.072.14-.072.28.071.35.072.07.072.21-.071.35-.143.07-.215.21-.215.28 0 .07-.071.14-.071.28-.143.07-.143.14-.143.21-.072.07 0 .07.071.07l.143.14c.143.14.143.21.072.21h-.215c-.071 0-.214.07-.214.21-.143.14-.215.21-.358.21-.5 0-.715.14-.715.49 0 .07-.072.14-.143.14-.072 0-.143.07-.215.14-.071.14-.071.21-.143.21h-.572l-.072.14c0 .14-.143.21-.357.21-.072 0-.072-.07-.143-.14-.072-.14-.143-.21-.215-.21-.071 0-.143.07-.143.14s-.071.14-.143.21c-.072 0-.143.07-.143.14s-.072.14-.215.14c-.071.07-.143.14-.143.21 0 .07-.071.14-.143.14H3.862c-.071 0-.071.07-.071.14s-.143.14-.358.21c-.214.07-.357.14-.357.35 0 .14-.072.28-.143.35-.072.07-.144.21-.144.28h-.071l-.072.07a.547.547 0 00-.286.14c-.071 0-.214.07-.286.21-.06 0-.169.05-.328.106l-.1.035c-.215.07-.359.14-.43.14-.072 0-.072.07-.072.14.072.07-.071.14-.214.21-.286.07-.358.07-.43.14 0 .07 0 .07-.07.14-.287-.07-.43.35-.43 1.19 0 .056.046.067.1.07h.544c.071 0 .143.07.143.14 0 .28.214.49.572.56.072 0 .072.07.072.14s.071.14.143.14h.357c.072 0 .215 0 .286.07.072.07.143.07.215.07h.143c.071-.07.143 0 .214.14 0 .14.072.21.144.21.071 0 .214-.07.429-.14.214.21.643.28 1.144.28.072 0 .072 0 .143.07.063.123.235.191.516.207l.128.003c.357 0 .572.07.644.21h.429c.071 0 .143.07.214.21.072.07.072.14.143.14h.43c.071 0 .071 0 .214.07 0 .07.072.07.143.07.057 0 .16 0 .273.036l.085.034c.143.07.286.07.357.07h.286c.072 0 .072.07.144.14.071.14.071.21.143.21h.286c.071 0 .143.07.143.14.071.07.071.14.143.14h.787c.071 0 .071-.07.143-.14.071-.07.143-.14.214-.14h.286c.072 0 .143.07.143.14 0 .49-.143.77-.357.77h-.072c-.143 0-.214.07-.214.28v.49c0 .07.071.14.143.21.071 0 .143.07.143.14v.21c0 .07-.072.14-.143.14-.072 0-.143.07-.143.14v1.19c0 .07-.072.21-.072.35-.143.14-.143.21-.143.28v.56c-.071.07-.143.35-.143.77 0 .07 0 .07.072.14.214.21.286.28.214.35-.43.42-.5.84-.143 1.19.072.07 0 .21 0 .42-.143.28-.143.42-.215.49-.071.07-.143.21-.071.21 0 .14 0 .21.071.28a.52.52 0 01.072.28v1.12c0 .07 0 .14-.072.21.072 0 .072.14.072.491l-.215.14c-.071.07-.143.14-.143.21 0 .07.072.14.143.14h.716c.143 0 .286 0 .357-.07.215-.07.286-.14.358-.14l.071-.07v-.21c0-.07.072-.14.143-.21.144-.07.215-.07.215-.14.072-.07.215-.14.5-.07.287 0 .43-.14.43-.42 0-.07-.072-.14-.143-.14-.215 0-.215-.07-.072-.21.143-.14.286-.14.358-.07h.358c.071 0 .214-.07.357-.14.072-.14.215-.21.286-.21v-.35c.072-.07.072-.14.072-.21 0-.07.214-.07.572-.07l.072-.07c-.072-.14 0-.21.143-.21.071-.07.143-.14.143-.21 0-.07.071-.14.143-.21.143 0 .214-.07.214-.14 0-.35.072-.49.286-.42 0-.14.072-.28.286-.49.072.14.215.21.358.07.072 0 .143-.07.215-.07.071 0 .143-.07.143-.14v-.42c0-.07 0-.07.071-.07h.43c.07 0 .142-.07.142-.14v-.42c0-.07.072-.07.287-.07.143 0 .214-.07.214-.28v-.21c0-.07.072-.14.215-.21.071-.07.143-.07.143-.14s-.072-.14-.215-.14c-.071-.14-.071-.21 0-.28h.358c.071 0 .143.07.143.14s.071.14.143.14c.143 0 .214-.07.214-.14v-1.12c0-.07.072-.21.215-.28.072-.07.143-.21.072-.28 0-.07.214-.35.572-.7h.071c0 .21.072.28.286.28l.287.28c0 .07.071.07.143.07.071 0 .071 0 .143.07.071.07.143.14.143.21.143.07.214.21.286.28l.071.07c.501 0 .787.14.787.49 0 .07.143.07.5.14.072 0 .072.07.144.14.071.07.071.14.143.14.071 0 .071.07.143.14.071.14.143.21.214.21h.358c.072 0 .072.07.143.21.072.07.143.14.215.14h.214c.072 0 .143.07.215.14 0 .07.071.14.143.14.071 0 .143.07.143.14.071.14.071.21.143.21h.43c.07 0 .142.07.285.21 0 .07.072.14 0 .21.215.21.572.35.93.35.072 0 .143.07.286.14.143.14.286.21.358.21.071 0 .071.07.071.14.072.14.143.21.215.21.071-.07.214-.14.43-.21.142-.07.214-.14.285-.14.215 0 .358.14.358.35 0 .21.143.28.357.28.287 0 .573.14.859.42.214 0 .286.07.357.21.143-.07.215 0 .215.14s.071.21.143.21c.071 0 .215-.14.286-.28.143-.28.215-.35.143-.42-.071-.07 0-.14.072-.35.071-.21.071-.28-.143-.28-.072-.07-.143-.14-.215-.35-.072-.14-.072-.21-.143-.28-.072-.07-.143-.28-.143-.63 0-.07-.072-.14-.215-.14-.071-.07-.143-.07-.071-.14v-1.05c0-.07-.072-.14-.215-.14h-.143c-.071 0-.143 0-.143-.07v-.42c0-.07-.071-.07-.214-.14-.072-.07-.143-.07-.143-.14v-.21c0-.14-.215-.42-.573-.77v-.07c0-.07 0-.07.072-.14.143-.28.071-.42-.286-.42-.143 0-.215-.07-.215-.21v-.63c0-.07-.071-.07-.143-.14-.071-.07-.143-.14-.143-.21v-.63l-.143-.07c-.072 0-.215-.14-.358-.42-.071-.07-.143-.28-.143-.56 0-.071-.143-.211-.357-.421.071-.07 0-.21-.143-.35-.143-.07-.215-.21-.215-.28 0-.07-.071-.07-.143-.14-.071 0-.143-.07-.143-.14 0-.14 0-.21-.072-.28-.071-.07-.143-.07-.286-.14-.214 0-.286-.07-.286-.14v-.35c0-.07-.071-.14-.143-.21-.143 0-.214 0-.214-.07 0-.14-.215-.21-.573-.21l-.214-.42v-.42c.071 0 .143-.14.143-.28.143-.28.214-.35.43-.28l.214-.21c.071.07.143.07.214-.07.072 0 .072-.07.143-.07.072 0 .215-.07.43-.35.214-.14.357-.28.5-.28l.072-.14c0-.21.071-.35.143-.42.143-.07.214-.21.143-.28 0-.07.071-.07.143-.14.143 0 .214-.07.214-.14s.072-.14.143-.14c.072 0 .143-.07.215-.14 0-.14 0-.21.071-.21.072 0 .144-.07.215-.14 0-.07.072-.14.143-.14.072 0 .215-.14.358-.35.143-.21.214-.42.143-.49-.072-.07 0-.21.214-.35.143-.07.286-.14.358-.14l.072-.14c.071-.07.071-.14.143-.21l.143-.14c.071-.07.071-.14.143-.28.071-.07.071-.14.071-.21.286-.28.5-.42.644-.42.071 0 .143-.07.143-.14 0-.35-.072-.56-.143-.49z"/>
</svg>
