<svg width="285" height="67" xmlns="http://www.w3.org/2000/svg" xmlns:xlink="http://www.w3.org/1999/xlink"><defs><path id="a" d="M0 0h67v284H0z"/></defs><g transform="rotate(90 142.25 142.25)" fill="none" fill-rule="evenodd"><mask id="b" fill="#fff"><use xlink:href="#a"/></mask><path d="M19.17 0A19.18 19.18 0 000 19.15a19.18 19.18 0 0038.33 0C38.33 8.59 29.73 0 19.17 0zm0 .6a18.58 18.58 0 0118.57 18.55 18.58 18.58 0 01-37.14 0A18.58 18.58 0 0119.17.6zm5.92 3.5c-.3-.1-1.26.59-3.01 3.7a10.97 10.97 0 00-1.14 2.73l-.16.83c-.02.19-.42 2.84.15 3.45.53.57 1.14-.03 1.32-.26.1-.16.22-.34.32-.54.26-.5.6-1.24.77-1.91l.01-.05.22-.83c.07-.28.32-1.2.4-1.18.09.02-.05.97-.08 1.2-.02.18-.1.56-.16.82-.07.38-.17 1 .08 1.04.2.03.46-.4.6-.59.4-.58.65-2.01.67-2.13.26-1.75.33-3.02.35-4.07v-.1c.03-.99.05-2-.34-2.12zm-7.78 2.62c-.92-.78-2.68-1.87-3.24-1.73-.05.01-.07.03-.08.07-.11.3.37 1.21.7 1.81l.26.5c.5 1.01.9 2.18 1.1 3.3.06.4.15.78.24 1.12.3 1.07.86 2.4 1.43 2.47.26.03.5-.17.57-.5.18-.79-.42-2.83-.54-3.16-.2-.55-.44-1.05-.4-1.13.07-.16.98 1.75 1.2 2.77l.31 1.25c.13.47.44.63.68.6.36-.06.46-.58.47-.92 0-.55.04-1.06-.17-2.12a8.03 8.03 0 00-2.53-4.33zm-4 4.55c-.13-.03-.4-.12-.46 0-.07.15.23.54.28.6.24.39.9 1.34 1.6 2.35.42.63.6.72.79.68.16-.03.57-.23.57-.23.09-.07.35-.2.38-.44a2.04 2.04 0 00-.5-1.27l-.1-.12a5.97 5.97 0 00-2.56-1.57zm-6.92.93c-.28-.03-.98-.18-1.03.1-.06.31.36.59.65.8.55.41 2.34 1.67 3.03 2.17.34.25 1.52 1.04 2.46 1.83l.15.12c1.18 1 1.76.97 2.04.81.3-.16.4-.48.11-1.1a3.72 3.72 0 00-1.28-1.35c-.15-.1-.6-.37-.78-.45 0 0-.74-.35-.7-.44.03-.1 1.15.41 1.22.45a6.1 6.1 0 01.94.5c.2.14.67.42.9.39.2-.04.4-.37.34-.73-.07-.42-.3-.95-1.2-1.46-2.4-1.18-5.24-1.44-6.85-1.64zm8.44 5.72c.2.26.47.38.78.37.46-.02.88-.31 1.08-.57.14-.17.3-.44.34-.63 0 0 .16-.73-.18-1.29a.9.9 0 00-.76-.42c-.52-.03-1.21.27-1.46 1.18l-.02.07c-.18.73.12 1.17.22 1.29zm2.6-.19c-.36.33-.55.78-.55 1.27v.07a1.94 1.94 0 001.9 1.87c.53.02 1.02-.16 1.38-.5a1.62 1.62 0 00.51-1.29 2.05 2.05 0 00-.16-.7l-.01-.04a1.95 1.95 0 00-1.71-1.13c-.53-.03-1.01.13-1.37.45zm-1.6 1.43a.89.89 0 00-.85.07c-.31.2-.49.58-.49 1.04v.15c.05.59.37 1.28 1.13 1.28.6 0 1.03-.44 1.05-1.08v-.05c0-.63-.33-1.18-.84-1.41zm-4.08.33c-.6.32-1.26.77-1.92 1.4-.64.62-1.3 1.31-1.86 1.92a16.1 16.1 0 01-2.21 1.97c-.71.52-1.18.97-1.04 1.35.1.25.73.24 1.88-.04 1.65-.39 2.66-.62 3.3-.7.57-.08 2.07-.44 3.32-1.06.26-.13.66-.36.87-.6 0 0 .55-.49.49-1.39-.05-.77-.45-.92-.63-.82-.13.07-.69.5-1.61 1.02l-.52.27c-.44.22-1.16.51-1.18.41 0-.08.58-.32.94-.54l.7-.48a7.35 7.35 0 001.52-1.46c.27-.47.2-.82.06-1.07 0 0-.51-.98-2.11-.18zm3.66 6.18c-.03 1.23-.18 3.79-.8 5.27-.2.52-.4.96-.65 1.36-.2.34-.56.85-.43 1.02.07.1.39-.09.52-.15 1.37-.64 3.14-1.48 4.37-3.3.65-.96 1-1.68 1.15-2.36h-.14a.5.5 0 01-.36-.2c-.15-.22-.15-.63-.13-1.39v-.16c.01-.43-.04-.95-.11-1.05-.1-.14-.2-.04-.29.3-.19.8-.7 2.06-.78 2.27-.19.46-.99 1.85-1.1 1.77-.06-.06.24-.45.72-1.67.14-.37.39-1.21.46-1.5.1-.47.4-1.58-.01-1.67-.3-.06-.5.3-1.22.83h-.01c-.33.23-.7.44-1.19.63zm11.32 6.15c1 .25 1.16.18 1.19.1.02-.07-.04-.4-.99-1.44-.9-.98-1.77-2.66-2.5-4.32-.2-.43-.47-.97-.85-1.82-.4-.88-.78-1.2-.99-1.26-.14-.04-.74-.04-.84.71-.09.72.38 1.75.58 2.17l.29.53c.24.44 1.02 1.36.96 1.47-.05.09-.82-.78-1.07-1.13a34.8 34.8 0 01-.65-.9c-.08-.12-.35-.4-.55-.33-.34.13-.54.7-.53 1.25.01.4.24.8.37 1a9.27 9.27 0 002.34 2.3c1.22.87 2.56 1.5 3.24 1.67zm-.95-6.41c.8.34 1.84.67 2.8.67.68 0 .93-.03 1.02-.14.07-.09.06-.18-.3-.65-.66-.86-2.6-2.92-4.79-3.97-.28-.15-.72-.25-.93-.12-.1.06-.33.23-.19.63.21.56 1.77 1.56 1.77 1.56s1.06.68 1.03.8c-.04.1-.9-.42-1.44-.73-.34-.2-.91-.54-1.01-.33-.09.17 0 .45.13.67a4.7 4.7 0 001.9 1.6zm3.08-1.53c1.11.25 3.13.14 3.8.1 1.46-.07 1.45-.49 1.44-.65-.01-.31-1.05-.88-1.52-1.12l-.83-.46a24.5 24.5 0 01-2.47-1.6l-.36-.27-.43-.28-.16-.1c-.34-.19-.68-.2-1.02-.15-.57.09-.76.22-.92.3 0 0-.23.11-.3.29-.05.18.02.4.24.55.13.09 1 .77 2.34 1.3l.69.26c.36.13.7.21.7.25-.01.09-.56-.04-.87-.1-.44-.1-1.25-.4-1.46-.48-.32-.13-1.14-.57-1.33-.67-.46-.27-.92-.5-1.02-.28-.04.08-.08.25.26.46l.28.17c1.21.79 2.25 1.75 2.94 2.48zm-8.41-2.5v.12c-.02.47.22.87.63 1.06.4.2 1.03.19 1.46-.28.25-.27.46-.64.46-1.04 0-.45-.14-.9-.41-1.17a.99.99 0 00-.95-.23c-.53.13-1.13.6-1.2 1.55zm-3.39 1.19l.02.08c.09.48.45.81.99.9.6.12 1.23-.08 1.54-.48.1-.13.21-.36.15-.7a1.28 1.28 0 00-.59-.83 1.5 1.5 0 00-1.06-.17c-.58.1-1.13.54-1.05 1.2zm-.52 1.77c.6-.56.13-1.22-.24-1.55-.63-.55-.88.11-.88.11a4.5 4.5 0 01-.87 1.5c-.37.39-.42.72-.35.83.08.1.4.13.9-.07.58-.24 1-.47 1.34-.74l.08-.07.02-.01zm2.86-.06c-.05.25.08.75.09 1.12v.53c0 .2-.01.57-.04.78-.01.12.04.2.13.2.12 0 .32-.07.49-.21.34-.3.75-1 .9-2.05.05-.48.1-1.26-.16-1.38-.26-.12-.53.36-.89.57 0 0-.48.24-.52.44zm5.74-4.26c.16-.1 1.48-.93 1.5-1.32 0-.24-.47-.43-.65-.5-.15-.05-.5-.28-.72-.44-.41-.3-.68-.58-1.08-.35-.24.14-.4.4-.51.75-.29.85-.55 1.94.04 2.25.47.26 1.23-.25 1.42-.39zm-2.16-5.2c-.21.25-.46.57-.48.73-.02.2.13.3.26.35.16.04.37.03.6-.23.14-.17.44-.48.59-.64.21-.24.41-.43.41-.43.13-.12.67-.56.75-.5.03.03-.31.4-.48.59 0 0-1.11 1.42-1 1.86.1.34.37.36.52.33.15-.03.52-.19.84-.65.35-.5.88-1.26 1.13-1.66.27-.46.54-.89.76-1.2.7-.94.87-1.12.8-1.3-.07-.14-.29-.1-.42-.08a4.88 4.88 0 00-2.3.96c-.69.5-1.37 1.17-1.98 1.88zm-1.33 1.39c-.6.18-.9.68-.83 1.36a2.24 2.24 0 00.23.76l.02.05c.26.46.73.81 1.4.56.72-.28.7-1.1.67-1.34a1.8 1.8 0 00-.66-1.26.92.92 0 00-.83-.13zm-2.51.63c.78-.01 1.23-.59 1.23-1.12 0-.28-.08-.54-.37-.73a2.06 2.06 0 00-1.95-.09.89.89 0 00-.51.79l-.01.09c.05.66.66 1.08 1.6 1.06zM27 18.11c.52.2.89.06 1.35-.24l.22-.13c2.03-1.3 4.05-4.01 4.43-4.6l.14-.22c.44-.67.61-1 .44-1.2-.1-.12-.66-.18-1.62.19-.44.17-1.58.72-2.66 1.26-.35.18-1.06.57-1.44.75a3.31 3.31 0 00-1.23.97l-.05.09c-.1.19-.18.42.03.5.23.09.6-.02.78-.08.3-.12 1.2-.6 1.34-.67.3-.16.87-.49.9-.42.05.1-1.24.93-1.73 1.2-.21.12-1.68.97-1.87 1.11-.17.13-.3.38-.25.62.03.17.1.26.3.39 0 0 .4.27.92.48zm39.78 25.07V41.4h-5.86c-1.33 0-2 .18-2.56.65-.56.44-.9 1.3-.9 2.21 0 .22.02.4.04.48.09.54.3 1.31.66 2.28l.05.14h-5.27v1.79h13.84v-1.8h-7.7l-.02-.06a9 9 0 01-.24-1.9c0-.71.16-1.25.5-1.55.38-.34.84-.45 1.9-.45h5.56zm-21.69 1.1v-2.4H22.83v2.4h8.2c-.46 1.01-.72 2.16-.72 3.25 0 4.05 3.4 7.1 7.88 7.1 4.29 0 7.19-2.42 7.19-6a5.7 5.7 0 00-.4-2.13 39.25 39.25 0 00-.75-2.21h.86zm-1.92 0c.2.9.31 1.93.31 2.94 0 1.26-.26 2.1-.89 2.87-1.03 1.26-2.53 1.87-4.69 1.87-3.65 0-5.83-1.93-5.83-5.09 0-.89.08-1.87.26-2.58h10.84zm14.33 8.77c0 2.93 1.86 4.66 4.97 4.66 2.83 0 4.46-1.54 4.46-4.2 0-.48-.04-.71-.16-1.37-.1-.47-.2-.93-.32-1.4l-.04-.16h-1c.12.59.21 1.41.21 2.07 0 2.13-1.07 3.15-3.34 3.15-2.4 0-3.55-1-3.55-3.15 0-.7.07-1.3.27-2.07h-1.04l-.03.13a7.86 7.86 0 00-.43 2.34zM45.1 60v-2.44h-9.35c-2.13 0-3.25.28-4.14 1.03-.9.72-1.44 2.1-1.44 3.56 0 .35 0 .6.03.78a23 23 0 001.09 3.7l.09.23h-.9v2.39H45.1V66.8H32.5l-.02-.12c-.26-1.18-.4-2.33-.4-3.27 0-1.24.31-2.16.89-2.67.66-.58 1.44-.75 3.28-.75h8.85zm12.38 6.61c0 2.6 1.88 4.17 5 4.17 1.59 0 2.73-.41 3.48-1.25.61-.68.99-1.83.99-3 0-.18 0-.36-.02-.5-.1-.69-.24-1.53-.47-2.53l-.03-.14h-.99l.04.12c.1.8.18 1.65.18 2.28 0 2.2-.95 3.14-3.17 3.14h-.16v-5.95a7.8 7.8 0 00-2.49.27c-1.56.48-2.36 1.64-2.36 3.4zm1.07.13c0-1.32.8-1.9 2.64-1.91h.1v4.07c-1.82-.02-2.74-.75-2.74-2.16zm.45 6.52c0-.7.14-1.34.4-1.84h-1.65c-.14.27-.22.6-.22.95 0 .4.2.96.75 2.23l.06.13h-.68v1.73h9.12v-1.79h-7.6c-.1-.44-.18-1-.18-1.4zM37.8 81.92v-9.66c-1.96.03-2.88.12-3.83.4-2.47.75-3.76 2.6-3.76 5.35 0 4.1 3.02 6.58 8.02 6.58 2.53 0 4.34-.63 5.52-1.93a7.33 7.33 0 001.61-4.77c0-.91-.26-2.58-.77-4.73l-.06-.24h-1.38l.03.2c.2 1.41.31 2.62.31 3.63 0 3.64-1.6 5.17-5.46 5.17h-.23zm-1.47 0c-2.99 0-4.6-1.3-4.6-3.7 0-2.25 1.38-3.26 4.43-3.26h.17v6.96zm26 8.8v-5.95c-1.31.02-1.89.07-2.48.27-1.56.48-2.36 1.64-2.36 3.4 0 2.59 1.88 4.16 5 4.16 1.59 0 2.73-.41 3.48-1.25.61-.68.99-1.82.99-3 0-.18 0-.36-.02-.5-.1-.68-.24-1.52-.47-2.52l-.03-.15h-.99l.04.13c.1.8.18 1.64.18 2.27 0 2.2-.95 3.14-3.17 3.14h-.16zm-1.03 0c-1.82-.01-2.74-.75-2.74-2.16 0-1.32.8-1.9 2.64-1.91h.1v4.07zM46.21 87.6H30.5v2.36h.57a8.5 8.5 0 00-.72 3.36c0 4 3.4 7.04 7.82 7.04 4.32 0 7.22-2.41 7.22-6 0-.72-.09-1.07-.4-2.13-.23-.63-.43-1.26-.66-1.9l-.12-.31h1.7c1.38 0 1.92.11 2.47.46.86.54 1.32 1.92 1.32 3.9 0 1.38-.2 3.08-.57 4.69l-.06.23h1.64l.03-.18c.4-1.55.69-2.84.8-3.93.03-.32.06-.72.06-1.2 0-1.82-.37-3.37-1.1-4.46-.88-1.38-2.09-1.93-4.28-1.93zm-3.07 2.42c.2.89.31 1.92.31 2.93 0 1.26-.25 2.1-.86 2.87-1.03 1.26-2.56 1.87-4.69 1.87-3.65 0-5.86-1.93-5.86-5.09 0-.89.08-1.87.26-2.58h10.84zm16.68 14.29c-.73 0-1.1-.54-1.1-1.56 0-.7.08-1.4.32-2.2h-1.08l-.05.22a8.3 8.3 0 00-.41 2.2c0 1.86 1 3.02 2.57 3.02 1.06 0 1.81-.54 2.4-1.72l.83-1.6c.28-.58.62-.83 1.14-.83.84 0 1.29.6 1.29 1.77a9.9 9.9 0 01-.34 2.5h1.1l.03-.12c.28-1.1.43-1.93.43-2.49 0-2.07-1.08-3.36-2.78-3.36-1.05 0-1.75.45-2.27 1.45l-.84 1.65c-.4.78-.73 1.07-1.24 1.07zm-14.73 1.3v-2.38H30.5v2.44h12.59v.12c.29 1.18.43 2.32.43 3.3 0 1.24-.31 2.13-.92 2.67-.63.55-1.4.72-3.28.72H30.5v2.44h9.34c2.13 0 3.25-.26 4.14-1a4.7 4.7 0 001.44-3.6l-.03-.77c-.17-.86-.55-2.13-1.12-3.7l-.09-.23h.92zm10.87 7.72c0-.68-.38-1.07-1.07-1.07-.68 0-1.04.36-1.04 1.04 0 .7.37 1.07 1.09 1.07.68 0 1.02-.34 1.02-1.04zm0-3.3c0-.68-.4-1.08-1.07-1.08-.68 0-1.04.36-1.04 1.04 0 .7.4 1.07 1.09 1.07.68 0 1.02-.34 1.02-1.03zm6.39 5.97c2.91 0 4.65-1.61 4.65-4.33 0-2.68-1.86-4.32-4.9-4.32-2.9 0-4.64 1.6-4.64 4.3 0 2.69 1.86 4.35 4.89 4.35zm-.1-1.92c-2.39 0-3.71-.87-3.71-2.43 0-1.55 1.27-2.4 3.66-2.4 2.38 0 3.73.87 3.73 2.42 0 1.57-1.27 2.41-3.67 2.41zm-36.14 4.26c-1 0-1.58.57-1.58 1.6 0 1.07.6 1.68 1.61 1.68 1.07 0 1.67-.6 1.67-1.61 0-1.1-.6-1.67-1.7-1.67zm21.43 2.87c1.92 0 2.47.55 2.47 2.5l-.06.92h1.38c.15-.72.23-1.66.23-2.18 0-.95-.28-1.84-.77-2.47-.66-.92-1.47-1.2-3.25-1.2H30.49v2.43h17.05zm-13.55 9.63c-.92 0-1.38-.72-1.38-2.19 0-1.17.18-2.52.5-3.73h-2.3l-.1.34c-.46 1.7-.68 3.05-.68 4.05 0 3.45 1.63 5.46 4.45 5.46 1.93 0 3.2-.89 4.14-2.99l1.04-2.24c.43-.94.86-1.29 1.55-1.29 1.06 0 1.55.78 1.55 2.36 0 1.4-.17 2.75-.54 4.25h2.33l.05-.26c.5-1.78.75-3.28.75-4.51 0-3.68-1.75-5.86-4.74-5.86-1.9 0-3.14.83-3.97 2.7l-1 2.27c-.56 1.2-.99 1.64-1.65 1.64zm11.1 10.48v-4.22h-9.63c-2.1 0-3.13.26-4.06 1.03a4.64 4.64 0 00-1.43 3.56c0 .78.06 1.21.4 2.27l.72 2.22.11.31h-.95v4.08H45.1v-4.2H33.27l-.02-.14c-.18-.89-.26-1.6-.26-2.24 0-1.98.74-2.67 2.84-2.67h9.26zm-18.66 12.04c-1.44 0-1.96.69-1.96 2.5 0 1.83.55 2.52 1.96 2.52 1.44 0 1.98-.71 1.98-2.47 0-1.86-.51-2.55-1.98-2.55zm12 16.26v-9.28l-.76.03c-2.87 0-4.28.37-5.63 1.4-1.35 1.07-2.04 2.7-2.04 4.92 0 4.42 3.02 7.09 8.05 7.09 2.64 0 4.54-.75 5.78-2.3a8.03 8.03 0 001.52-4.94c0-.4-.03-.77-.06-1.09-.14-1.12-.4-2.53-.74-4.14l-.06-.26h-2.16l.03.26c.17 1.35.26 2.59.26 3.62 0 3.36-1.18 4.69-4.2 4.69zm-2.34 0c-2.64 0-3.85-.84-3.85-2.7 0-1.76 1.03-2.45 3.68-2.45h.17v5.15zm-2.84 8.07c0-1.15.2-2.21.66-3.16H30.4c-.2.49-.32 1-.32 1.58 0 .69.29 1.55 1.18 3.56l.12.26h-1.13V184H45.1v-4.2H33.48c-.15-.6-.23-1.55-.23-2.12zm5.17 17.95v-9.28l-.75.03c-2.87 0-4.28.37-5.63 1.4-1.35 1.07-2.04 2.7-2.04 4.92 0 4.42 3.02 7.1 8.05 7.1 2.64 0 4.54-.75 5.78-2.3a8.03 8.03 0 001.52-4.94c0-.4-.03-.78-.06-1.1-.14-1.12-.4-2.52-.74-4.13l-.06-.26h-2.16l.03.26c.17 1.35.26 2.58.26 3.62 0 3.36-1.18 4.68-4.2 4.68zm-2.33 0c-2.64 0-3.85-.83-3.85-2.7 0-1.75 1.03-2.44 3.68-2.44h.17v5.14zm9 9.57l-14.84-5.29v3.85l11.7 3.3-11.7 3.3v4.6l14.84-5.05v-4.71zm0 14.93v-4.22h-9.63c-2.1 0-3.13.26-4.06 1.03a4.64 4.64 0 00-1.43 3.57c0 .77.06 1.2.4 2.27l.72 2.2.11.32h-.95v4.08H45.1v-4.2H33.27l-.02-.13c-.18-.9-.26-1.61-.26-2.25 0-1.98.74-2.67 2.84-2.67h9.26zm-6.67 20.89v-9.28l-.75.03c-2.87 0-4.28.37-5.63 1.4-1.35 1.07-2.04 2.7-2.04 4.92 0 4.42 3.02 7.1 8.05 7.1 2.64 0 4.54-.76 5.78-2.3a8.03 8.03 0 001.52-4.95c0-.4-.03-.77-.06-1.09-.14-1.12-.4-2.53-.74-4.14l-.06-.25h-2.16l.03.25c.17 1.36.26 2.59.26 3.62 0 3.37-1.18 4.69-4.2 4.69zm-2.33 0c-2.64 0-3.85-.84-3.85-2.7 0-1.76 1.03-2.45 3.68-2.45h.17v5.15zm1.15 5.68c-4.43 0-7.24 2.33-7.24 5.95 0 .92.25 1.92 1 3.76l.18.46h-.93v4.08H51.6v-4.2H44.6c.46-1.08.7-2.03.7-3.07 0-4.05-3.4-6.98-8.06-6.98zm.38 4.34c3.19 0 5 1.52 5 4.2 0 .48-.06 1.03-.14 1.52h-9.26a11.8 11.8 0 01-.2-1.87c0-2.47 1.63-3.85 4.6-3.85zm-14.78 17.3h22.25v-4.2H22.84v4.2zm22.25 6.95v-3.91h-9.8c-2.25 0-3.34.34-4.17 1.26-.72.84-1.15 2.27-1.15 3.97l.03.92c.14 1.4.46 3.07.92 4.97l.05.2h2.22a30.24 30.24 0 01-.46-4.51c0-2.07.54-2.79 2.04-2.79H36c0 2.04.11 3.76.28 4.74.5 2.59 1.99 3.85 4.52 3.85 2.7 0 4.48-1.81 4.48-4.54 0-.4-.02-.72-.08-.98-.15-.71-.5-1.72-.98-2.95l-.12-.23h.98zm-2.76.11c.15.58.23 1.3.23 1.95 0 1.61-.75 2.5-2.1 2.5-.8 0-1.46-.34-1.78-.94-.34-.64-.46-1.27-.52-3.14v-.37h4.17zM30.25 157.98H45.1v-4.22H30.25v4.22zm27.4-60.02v1.3h1.1v-1.3h5.7c1.03 0 1.55-.16 1.92-.6.34-.4.54-1.02.54-1.77 0-.17 0-.3-.02-.42a15.2 15.2 0 00-.37-1.76l-.04-.13h-1.04c.07.41.13 1.02.13 1.46 0 1.08-.38 1.44-1.47 1.44h-5.35v-2.9h-1.1v2.9h-2.87l.7 1.78h2.18zm0-16.8v1.73h9.13v-1.78h-7.6c-.1-.45-.18-1-.18-1.41 0-.7.14-1.35.4-1.85h-1.65c-.14.27-.22.61-.22.95 0 .4.2.97.75 2.24l.06.12h-.68zm-2.6-19.73c.7 0 1.07-.4 1.07-1.1 0-.81-.36-1.19-1.1-1.19-.69 0-1.03.38-1.03 1.15 0 .75.36 1.14 1.06 1.14zm2.6-.25h9.14v-1.79h-9.13v1.79z" fill="#007956" mask="url(#b)"/></g></svg>