<svg width="250" height="250" xmlns="http://www.w3.org/2000/svg" xmlns:xlink="http://www.w3.org/1999/xlink"><defs><path d="M0 124.75C0 193.646 55.63 249.5 124.25 249.5S248.5 193.646 248.5 124.75C248.5 55.849 192.87 0 124.25 0S0 55.849 0 124.75" id="a"/><path d="M0 124.75C0 193.646 55.63 249.5 124.25 249.5S248.5 193.646 248.5 124.75C248.5 55.849 192.87 0 124.25 0S0 55.849 0 124.75" id="c"/><path d="M0 124.75C0 193.646 55.63 249.5 124.25 249.5S248.5 193.646 248.5 124.75C248.5 55.849 192.87 0 124.25 0S0 55.849 0 124.75" id="e"/><path d="M0 124.75C0 193.646 55.63 249.5 124.25 249.5S248.5 193.646 248.5 124.75C248.5 55.849 192.87 0 124.25 0S0 55.849 0 124.75" id="g"/><path d="M0 124.75C0 193.646 55.63 249.5 124.25 249.5S248.5 193.646 248.5 124.75C248.5 55.849 192.87 0 124.25 0S0 55.849 0 124.75" id="i"/><path d="M0 124.75C0 193.646 55.63 249.5 124.25 249.5S248.5 193.646 248.5 124.75C248.5 55.849 192.87 0 124.25 0S0 55.849 0 124.75" id="k"/><path d="M0 124.75C0 193.646 55.63 249.5 124.25 249.5S248.5 193.646 248.5 124.75C248.5 55.849 192.87 0 124.25 0S0 55.849 0 124.75" id="m"/><path d="M0 124.75C0 193.646 55.63 249.5 124.25 249.5S248.5 193.646 248.5 124.75C248.5 55.849 192.87 0 124.25 0S0 55.849 0 124.75" id="o"/><path d="M0 124.75C0 193.646 55.63 249.5 124.25 249.5S248.5 193.646 248.5 124.75C248.5 55.849 192.87 0 124.25 0S0 55.849 0 124.75" id="q"/><path d="M0 124.75C0 193.646 55.63 249.5 124.25 249.5S248.5 193.646 248.5 124.75C248.5 55.849 192.87 0 124.25 0S0 55.849 0 124.75" id="s"/><path d="M0 124.75C0 193.646 55.63 249.5 124.25 249.5S248.5 193.646 248.5 124.75C248.5 55.849 192.87 0 124.25 0S0 55.849 0 124.75" id="u"/><path d="M124.25 249.5c68.62 0 124.25-55.854 124.25-124.75C248.5 55.849 192.87 0 124.25 0S0 55.849 0 124.75C0 193.646 55.63 249.5 124.25 249.5Z" id="w"/></defs><g fill="none" fill-rule="evenodd"><g transform="translate(1 .5)"><mask id="b" fill="#fff"><use xlink:href="#a"/></mask><path d="M91.255 56.393c13.763 21.253 37.622 35.315 64.752 35.315 3.38 0 6.707-.22 9.97-.645 8.238-23.585 27.522-41.95 51.622-48.858C194.834 16.283 161.513-.073 124.38-.073c-2.234 0-4.459.06-6.665.178-.61 22.454-10.728 42.52-26.46 56.288" fill="#55B046" mask="url(#b)"/></g><g transform="translate(1 .5)"><mask id="d" fill="#fff"><use xlink:href="#c"/></mask><path d="M79.875 64.655a77.641 77.641 0 0 0 11.38-8.263c-7.857-12.136-12.428-26.618-12.428-42.175 0-1.925.08-3.832.215-5.72-21.271 8.375-39.675 22.469-53.35 40.395a91.018 91.018 0 0 1 2.532-.033c19.126 0 36.896 5.823 51.65 15.796" fill="#CEDA4B" mask="url(#d)"/></g><g transform="translate(1 .5)"><mask id="f" fill="#fff"><use xlink:href="#e"/></mask><path d="M91.255 56.393c15.732-13.767 25.85-33.834 26.46-56.288a123.324 123.324 0 0 0-38.673 8.393 80.16 80.16 0 0 0-.215 5.72c0 15.557 4.571 30.039 12.428 42.175" fill="#47993E" mask="url(#f)"/></g><g transform="translate(1 .5)"><mask id="h" fill="#fff"><use xlink:href="#g"/></mask><path d="M120.792 144.555c.023-.902.042-1.804.042-2.71 0-32.151-16.253-60.494-40.959-77.191-11.515 6.855-24.952 10.8-39.311 10.8a76.735 76.735 0 0 1-27.978-5.267C4.613 86.65.136 105.137.136 124.676c0 11.019 1.428 21.707 4.1 31.885 16.928-16.702 40.135-27.007 65.744-27.007 18.725 0 36.17 5.51 50.812 15.001" fill="#FCD21F" mask="url(#h)"/></g><g transform="translate(1 .5)"><mask id="j" fill="#fff"><use xlink:href="#i"/></mask><path d="M79.875 64.655C65.12 54.682 47.35 48.859 28.225 48.859c-.848 0-1.695.01-2.533.033a125.041 125.041 0 0 0-13.106 21.29 76.656 76.656 0 0 0 27.977 5.268c14.36 0 27.797-3.94 39.312-10.795" fill="#CBB632" mask="url(#j)"/></g><g transform="translate(1 .5)"><mask id="l" fill="#fff"><use xlink:href="#k"/></mask><path d="M152.625 179.123a94.493 94.493 0 0 0-31.832-34.568c-1.136 39.797-27.182 73.332-63.03 85.435 19.255 12.304 42.108 19.436 66.619 19.436 7.61 0 15.061-.692 22.294-2.005a77.49 77.49 0 0 1-5.24-28.09c0-14.72 4.086-28.488 11.189-40.208" fill="#EA8A2D" mask="url(#l)"/></g><g transform="translate(1 .5)"><mask id="n" fill="#fff"><use xlink:href="#m"/></mask><path d="M120.792 144.555c-14.643-9.49-32.087-15-50.812-15-25.609 0-48.816 10.304-65.744 27.006 8.066 30.721 27.503 56.802 53.526 73.429 35.848-12.103 61.895-45.638 63.03-85.435" fill="#D66A29" mask="url(#n)"/></g><g transform="translate(1 .5)"><mask id="p" fill="#fff"><use xlink:href="#o"/></mask><path d="M172.837 156.942a77.768 77.768 0 0 0-20.214 22.18c7.135 13.285 11.19 28.492 11.19 44.642 0 6.841-.736 13.51-2.119 19.936 27.452-8.669 50.79-26.647 66.354-50.241-23.403-3.286-43.44-17.095-55.21-36.517" fill="#426BA6" mask="url(#p)"/></g><g transform="translate(1 .5)"><mask id="r" fill="#fff"><use xlink:href="#q"/></mask><path d="M152.625 179.123c-7.103 11.72-11.19 25.487-11.19 40.208a77.49 77.49 0 0 0 5.241 28.09 123.307 123.307 0 0 0 15.02-3.72 94.731 94.731 0 0 0 2.113-19.936c0-16.155-4.049-31.357-11.184-44.642" fill="#594236" mask="url(#r)"/></g><g transform="translate(1 .5)"><mask id="t" fill="#fff"><use xlink:href="#s"/></mask><path d="M165.976 91.065a77.635 77.635 0 0 0-4.337 25.656c0 14.73 4.095 28.497 11.198 40.222 12.81-9.487 28.639-15.099 45.776-15.099a76.62 76.62 0 0 1 28.01 5.271 125.94 125.94 0 0 0 2.007-22.44c0-27.81-9.067-53.494-24.394-74.238-11.469 21.74-32.935 37.348-58.26 40.628" fill="#BF167A" mask="url(#t)"/></g><g transform="translate(1 .5)"><mask id="v" fill="#fff"><use xlink:href="#u"/></mask><path d="M165.976 91.065c25.325-3.28 46.791-18.889 58.26-40.628a122.472 122.472 0 0 0-6.637-8.23c-24.096 6.907-43.38 25.273-51.623 48.858" fill="#803032" mask="url(#v)"/></g><g transform="translate(1 .5)"><mask id="x" fill="#fff"><use xlink:href="#w"/></mask><path d="M218.613 141.843c-17.138 0-32.968 5.612-45.777 15.099 11.771 19.426 31.813 33.235 55.211 36.516a124.323 124.323 0 0 0 18.576-46.344 76.716 76.716 0 0 0-28.01-5.271" fill="#4E2B79" mask="url(#x)"/></g><path d="M203.465 141.44c-11.046-6.198-19.072-7.961-19.417-8.036-.009 0-.289-.06-.755-.154 12.682-3.293 22.935-11.073 28.524-17.626.149-.172 14.466-17.584 12.471-25.373-.405-1.586-1.421-2.729-2.931-3.302-3.743-1.418-9.713 1.777-15.487 4.864-1.147.611-2.256 1.204-3.295 1.73-6.404 3.238-13.852 5.71-20.973 6.96a84.535 84.535 0 0 0-7.192 1.595c3.925-4.92 6.767-10.793 7.457-15.546.54-3.68.862-5.905-.783-7.169-1.528-1.18-3.472-.485-6.054.625-1.822.78-5.565 3.144-9.638 5.868 7.634-16.348 9.326-35.117 10.29-45.905.16-1.777.294-3.312.439-4.538.321-2.831.307-5.653-1.893-6.651-2.59-1.166-5.96 0-9.423 3.969-.387.443-.69.825-1.026 1.194-3.206 3.53-12.793 17.062-16.391 21.912-1.962 2.645-11.055 15.896-17.883 24.025-2.205-5.75-6.073-12.784-12.859-19.836-4.246-4.403-8.925-8.792-13.059-12.664-6.059-5.676-10.216-10.881-12.602-14.118-3.603-4.883-8.068-10.55-13.791-8.46-4.866 1.776-4.423 8.19-2.27 17.27 2.19 9.222 4.05 17.22 4.67 21.731.429 3.176 2.936 14.809 7.919 24.45-1.94-.541-3.748-.383-5.15.583-1.026.709-2.96 2.714-2.037 7.355-8.38-.312-23.662-1.371-32.494-4.986-3.388-1.385-6.47-2.878-9.19-4.193-6.162-2.985-9.55-4.627-11.62-2.673-1.687 1.59-.909 4.254.182 6.894 4.027 9.73 10.901 23.69 24.044 32.542 7.713 5.191 13.306 7.743 18.974 8.615-17.809 7.854-31.395 33.629-33.706 42.784-1.338 5.29-2.135 10.448 1.034 12.346a4.08 4.08 0 0 0 2.144.579c2.815 0 6.726-2.435 12.43-7.645 6.53-5.96 18.42-11.959 29.651-16.8-2.894 5.91-6.902 15.75-6.902 24.874 0 6.157 1.044 9.296 3.495 10.504.63.307 1.282.443 1.944.443 2.274 0 4.628-1.567 6.348-2.892.046-.037.913-.714 2.32-1.912-.67 6.79-.377 15.158-.046 21.45.177 3.354.708 13.47 8.268 13.47.103 0 .205 0 .308-.004 4.558-.164 8.65-7.071 11.278-12.528.578-1.208 1.608-3.275 2.07-4.23 1.86-3.881 7.513-12.505 11.04-17.202a291.932 291.932 0 0 0 1.823-2.44 41.428 41.428 0 0 0 4.68-8.297c7.55 16.292 30.317 33.545 35.173 36.67l1.394.91c3.211 2.093 6.296 4.108 9.163 4.108 1.267 0 2.493-.396 3.668-1.357 2.824-2.313 2.791-8.083-.08-15.438-1.761-4.501-8.916-18.853-13.231-27.416 3.486 2.402 6.166 3.796 8.296 3.796.843 0 1.598-.214 2.288-.671 2.335-1.53 2.68-5.01 1.156-11.642-.494-2.141-1.356-4.296-2.47-6.423 17.323 3.158 28.714 3.83 37.64 4.044l.754.019c1.669.042 3.29.079 4.838.079 6.674 0 11.96-.737 13.283-5.29.606-2.08 2.447-8.413-26.808-24.84" fill="#FFFFFE"/><path d="M203.465 141.44c-11.046-6.198-19.072-7.961-19.417-8.036-.009 0-.289-.06-.755-.154 12.682-3.293 22.935-11.073 28.524-17.626.149-.172 14.466-17.584 12.471-25.373-.405-1.586-1.421-2.729-2.931-3.302-3.743-1.418-9.713 1.777-15.487 4.864-1.147.611-2.256 1.204-3.295 1.73-6.404 3.238-13.852 5.71-20.973 6.96a84.535 84.535 0 0 0-7.192 1.595c3.925-4.92 6.767-10.793 7.457-15.546.54-3.68.862-5.905-.783-7.169-1.528-1.18-3.472-.485-6.054.625-1.822.78-5.565 3.144-9.638 5.868 7.634-16.348 9.326-35.117 10.29-45.905.16-1.777.294-3.312.439-4.538.321-2.831.307-5.653-1.893-6.651-2.59-1.166-5.96 0-9.423 3.969-.387.443-.69.825-1.026 1.194-3.206 3.53-12.793 17.062-16.391 21.912-1.962 2.645-11.055 15.896-17.883 24.025-2.205-5.75-6.073-12.784-12.859-19.836-4.246-4.403-8.925-8.792-13.059-12.664-6.059-5.676-10.216-10.881-12.602-14.118-3.603-4.883-8.068-10.55-13.791-8.46-4.866 1.776-4.423 8.19-2.27 17.27 2.19 9.222 4.05 17.22 4.67 21.731.429 3.176 2.936 14.809 7.919 24.45-1.94-.541-3.748-.383-5.15.583-1.026.709-2.96 2.714-2.037 7.355-8.38-.312-23.662-1.371-32.494-4.986-3.388-1.385-6.47-2.878-9.19-4.193-6.162-2.985-9.55-4.627-11.62-2.673-1.687 1.59-.909 4.254.182 6.894 4.027 9.73 10.901 23.69 24.044 32.542 7.713 5.191 13.306 7.743 18.974 8.615-17.809 7.854-31.395 33.629-33.706 42.784-1.338 5.29-2.135 10.448 1.034 12.346a4.08 4.08 0 0 0 2.144.579c2.815 0 6.726-2.435 12.43-7.645 6.53-5.96 18.42-11.959 29.651-16.8-2.894 5.91-6.902 15.75-6.902 24.874 0 6.157 1.044 9.296 3.495 10.504.63.307 1.282.443 1.944.443 2.274 0 4.628-1.567 6.348-2.892.046-.037.913-.714 2.32-1.912-.67 6.79-.377 15.158-.046 21.45.177 3.354.708 13.47 8.268 13.47.103 0 .205 0 .308-.004 4.558-.164 8.65-7.071 11.278-12.528.578-1.208 1.608-3.275 2.07-4.23 1.86-3.881 7.513-12.505 11.04-17.202a291.932 291.932 0 0 0 1.823-2.44 41.428 41.428 0 0 0 4.68-8.297c7.55 16.292 30.317 33.545 35.173 36.67l1.394.91c3.211 2.093 6.296 4.108 9.163 4.108 1.267 0 2.493-.396 3.668-1.357 2.824-2.313 2.791-8.083-.08-15.438-1.761-4.501-8.916-18.853-13.231-27.416 3.486 2.402 6.166 3.796 8.296 3.796.843 0 1.598-.214 2.288-.671 2.335-1.53 2.68-5.01 1.156-11.642-.494-2.141-1.356-4.296-2.47-6.423 17.323 3.158 28.714 3.83 37.64 4.044l.754.019c1.669.042 3.29.079 4.838.079 6.674 0 11.96-.737 13.283-5.29.606-2.08 2.447-8.413-26.808-24.84M174.76 106.17a80.595 80.595 0 0 1 7.536-1.703c7.499-1.315 15.343-3.922 22.091-7.332 1.063-.536 2.2-1.147 3.375-1.772 4.036-2.155 10.141-5.41 12.169-4.65.242.093.373.196.461.54.965 3.755-6.362 15.584-11.633 21.76-5.55 6.501-16.056 14.314-28.989 16.925-7.117 1.437-10.603 1.18-14.248 1.134-2.293-.023-5.802-.69-6.152-3.13-.233-1.604.849-3.717 3.976-4.557 2.8-.75 6.66-1.665 8.431-2.057 6.823-1.51 19.603-7.607 18.587-8.078-.546-.252-3.892 1.301-7.602 2.696-2.246.765-15.935 4.813-21.262 3.615-2.19-.495-3.51-2.076-3.28-3.806.512-3.858 9.386-7.556 16.54-9.585m-.587-21.24c.433-.28 3.113-2.328 4.087-1.88.788.433.219 2.266-.019 3.138-1.384 5.108-5.21 12.071-10.519 17.09-.21.187-.475.424-.797.728l-.154.14c-2.307 2.14-6.59 3.381-8.365 3.19-1.674-.187-2.494-1.95-2.941-2.537 0 0-1.366-2.752-1.57-3.853-.234-1.255.353-2.43 4.557-5.313 6.823-4.668 13.185-9.043 15.72-10.704m-33.3 40.313c-.102-6.39 2.703-10.467 7.15-10.784.163-.01.438.042.596.047 2.867.116 4.41 1.805 5.267 3.423 2.036 3.862 1.79 9.496-.569 13.079-1.295 1.963-3.001 2.486-4.935 2.486h-.005c-3.547 0-7.41-3.009-7.504-8.251m3.412 22.406c-1.64 2.337-4.973 4.072-8.483 4.417-1.64.164-7.14.318-8.98-4.529-1.697-4.45.68-7.626 3.765-9.351.098-.056.196-.112.298-.168.504-.261 1.021-.495 1.548-.681a15.179 15.179 0 0 1 3.593-.835c4.544-.448 7.858 1.576 9.093 5.55.63 2.03.35 3.914-.834 5.597m-5.924-72.63c.326-.378.587-.7.83-.994 5.257-6.343 10.56-14.226 12.21-16.483 3.408-4.66 11.81-16.618 14.593-20.368 1.408-1.894 3.244-4.73 5.365-4.347 1.85.35.866 5.065.638 6.921-1.333 10.816-3.039 29.884-10.99 45.905-3.383 6.012-6.944 7.635-9.796 8.083-2.373.378-4.638-.928-4.857-2.295-.242-1.534 1.664-4.669 2.564-6.044.004-.005.093-.14.093-.145 1.128-1.684 2.036-3.307 3.327-6.124.22-.48 3.664-7.99 2.965-8.251-.564-.215-2.904 4.725-2.904 4.725-.587 1.292-2.382 4.267-3.067 5.256-1.389 2.01-4.474 6.4-9.074 8.596-4.134 1.978-6.245 1.274-7.373-.755-1.044-1.88-1.291-5.737 5.476-13.68m-4.707 21.31c.792-.648 3.761-2.663 8.65-1.474.163.038.326.08.485.126 6.1 1.703 8.086 6.339 7.937 9.786-.098 2.187-1.03 3.97-2.857 5.088-3.766 2.319-8.618 1.241-8.618 1.241-1.31-.294-3.08-1.357-4.25-2.271-1.748-1.367-3.696-4.198-3.808-7.22-.074-2.123.736-3.881 2.46-5.276m-7.246 13.75c3.323 0 6.338 1.302 8.487 3.662 2.162 2.378 3.243 5.625 3.043 9.137-.303 5.275-3.244 9.505-7.601 11.474-.089.042-.187.074-.275.116a13.74 13.74 0 0 1-5.332 1.087c-3.086 0-5.938-1.227-8.03-3.456-2.266-2.411-3.459-5.728-3.365-9.338.111-4.197 2.125-7.117 3.798-8.829 2.344-2.411 5.294-3.703 8.776-3.843.168-.005.336-.01.499-.01m-32.443 20.425c1.403 2.36 4.577 4.17 3.789 5.937-.778 1.735-6.054 1.418-9.256 1.106-6.986-1.04-11.73-3.755-13.74-6.092-.955-1.11-1.37-2.448-1.407-3.232.056-.616.545-.975 1.37-.872 1.38.168 3.868.186 5.173.224 2.098.065 3.552.018 3.566.018 2.512-.093 5.854-.956 7.54-.615 1.362.275 2.965 3.526 2.965 3.526m1.86-12.444c.666-3.624 2.894-6.05 6.114-6.66.177-.033.35-.061.522-.08 4.423-.522 7.41 3.139 8.082 7.034.461 2.64.056 5.102-1.175 7.108-1.267 2.066-3.36 3.55-5.606 3.97-2.214.41-3.78-.332-4.638-1.008-2.675-2.109-4.031-6.367-3.3-10.364m6.689 20.186c1.323-2.738 3.984-4.323 7.116-4.263.261.005.513.024.765.042 6.324.43 9.498 4.399 10.36 8.004.583 2.411.052 4.73-1.533 6.348-1.785 1.814-4.796 2.761-7.863 2.761h-.004c-2.634 0-5.108-1.38-6.959-3.102-3.113-2.887-3.187-7.094-1.882-9.79m22.832-35.2c-1.524 3.428-5.248 5.643-9.49 5.643h-.297c-4.293-.12-7.29-3.008-7.29-7.028 0-5.09 4.656-7.244 8.646-7.542.34-.028.671-.038.993-.038 3.08 0 5.625 1.194 6.981 3.284a5.96 5.96 0 0 1 .457 5.68m-41.769-39.78c-.582-4.268-2.111-11.068-4.735-22.122-1.836-7.729-1.925-11.955-.266-12.56 2.55-.938 5.551 2.163 9.065 6.916a108.259 108.259 0 0 0 13.204 14.823c4.092 3.838 8.734 8.186 12.905 12.519 4.232 4.398 7.234 8.796 9.373 12.83 5.36 10.752-1.235 14.184-1.235 14.184-1.65.943-3.99 1.381-7.14-.424-3.5-2-8.879-8.927-9.774-10.135a93.4 93.4 0 0 1-3.239-4.762c-1.505-2.374-3.094-6.325-3.63-6.25-.686.102 1.267 4.925 2.754 7.915 0 0 1.622 3.087 1.822 3.428 3.468 6.231 6.371 9.972 6.842 10.82.667 1.2-.354 3.867-5.541 4.227-6.04.415-9.34-3.289-9.34-3.289-1.594-1.436-3.109-4.123-3.976-5.82-4.143-8.377-6.562-18.438-7.089-22.3m1.072 28.89c.732-.508 2.955-.135 5.58 2.295 3.01 2.789 6.706 4.64 9.968 5.858l.019.01s4.479 1.655.746 5.913c-2.163 2.463-6.628 5.62-10.342 1.59l-.108-.12c-.144-.164-.284-.35-.428-.537-1.823-2.313-3.407-5.14-4.973-9.034-1.361-3.391-1.193-5.471-.462-5.975m-15.296 35.06c-.033.29-.042.593-.033.905-4.572-.993-9.358-3.33-15.822-7.681-12.244-8.247-17.823-20.16-22.148-29.32-.424-.9-1.65-3.04-.988-3.516 1.142-.84 4.572 1.572 6.805 2.92 2.74 1.65 5.639 2.975 9.144 4.412 9.95 4.072 27.139 5.08 35.332 5.33 1.328 3.205 2.699 5.761 4.195 7.92.023.033.023.047.051.09 3.505 4.85 5.952 6.207 5.55 8.19-.55 2.7-8.006.779-11.166.074-1.934-.49-7.597-2.15-10.048-3.106-8.198-3.2-10.85-5.229-11.2-4.776-.564.727 8.757 6.096 11.829 7.341 1.407.57 9.908 3.979 15.23 5.257 2.252.54 2.956 1.217 2.005 1.917-.676.499-4.139.802-7.024.793-.363-.014-.731-.024-1.095-.033-5.103-.159-7.84-.191-9.27.82-.522.37-1.18 1.097-1.347 2.464m9.065 33.493c-.023.01-.028.014-.047.023-11.101 4.874-22.385 10.76-28.952 16.754-6.953 6.343-9.237 6.805-9.689 6.619-.499-.21-.993-1.288.69-7.943 1.156-4.595 5.387-13.54 11.223-21.759 3.705-5.214 9.023-11.502 15.394-15.7 1.314-.82 4.078-2.388 6.744-2.453 3.696-.093 7.475 1.25 8.333 3.568.49 1.316-1.38 3.102-2.205 3.676-.573.4-3.094 2.164-6.05 4.347-2.306 1.711-8.155 6.819-7.545 7.164.704.4 6.87-4.837 9.839-6.446.81-.434 3.15-1.684 3.589-1.908 2.782-1.357 9.731-4.496 14.522-3.871 5.034.662 5.066 4.631 4.768 5.634-.42 1.395-2.55 3.965-8.44 6.605-5.714 2.56-9.308 4.393-12.174 5.69m5.793 32.687c-3.15 2.425-3.766 2.476-4.386 1.973-.694-.57-.932-2.258-.932-6.838 0-6.4 2.27-13.372 4.554-18.787 3.1-6.87 8.72-11.558 10.794-12.785 1.45-.853 3.309-1.446 4.45-.886 1.404.686-.87 4.491-2.222 6.819-2.074 3.573-5.588 9.366-4.81 9.608.755.229 5.308-6.88 5.308-6.88s6.716-10.447 10.468-11.837c2.666-.989 3.845.569 4.223 1.203.867 1.45.163 4.39-.797 6.31-7.07 14.707-20.847 27.636-26.65 32.1m38.786-6.526-.638 1.106c-.555.928-1.18 1.88-1.879 2.84-.391.532-1.016 1.362-1.794 2.398-3.593 4.78-7.863 11.436-10.757 16.59a301.534 301.534 0 0 0-3.03 5.593c-1.621 3.13-5.452 10.098-7.526 10.172-1.09.033-3.901.135-4.418-9.66-.238-4.49-.951-18.008.745-25.508 4.857-4.622 11.344-11.548 16.578-19.715 0 0 .84-1.306 1.151-1.829 1.408-2.29 2.573-2.052 3.118-1.777 1.426.719-.102 3.774-1.86 6.88-.698 1.236-3.62 6.735-4.501 8.913-.56 1.386-2.601 6.805-3.226 9.786-.438 2.075-1.267 5.732-.675 5.783.251.019.773-2.262 1.659-4.687.694-1.903 1.375-3.615 1.775-4.627 3.561-9.002 8.1-14.809 8.697-15.667 1.026-1.483 2.503-1.95 3.715-1.544 1.184.392 1.971 1.964 1.971 1.964.513 1.091 1.356 2.308 1.934 6.142.35 2.305.28 4.562-1.039 6.847m5.397-11.357c-2.6-.102-8.105-8.95-8.855-10.014-.886-1.26-4.349-6.357-2.615-9.557 2.116-3.913 9.405-2.192 15.147-.28 2.33.78 4.05 1.857 4.978 3.433 1.598 2.729-.354 4.501-2.326 7.244-1.095 1.525-2.596 3.866-2.978 4.864-.47 1.222-1.738 4.37-3.35 4.31m37.112 17.878c3.602 7.257 7.317 14.907 8.468 17.86 2.494 6.37 2.06 10.218 1.277 10.862-1.393 1.143-3.533-.042-8.086-3.013l-1.412-.919c-3.985-2.565-22.218-16.082-30.868-29.72l-.871-1.432c-2.004-3.116-2.941-5.606-1.608-9.044 1.351-3.48 3.225-6.254 3.225-6.254.853-1.255 1.468-1.745 2.559-1.978 1.626-.345 3.3.583 4.176 1.73.946 1.246 6.646 11.101 7.447 12.533 1.827 3.279 7.401 11.917 8.03 11.6.462-.229-1.747-4.09-2.772-6.031-.485-.923-3.734-6.992-4.484-9.02-.447-1.209-1.174-3.662-.569-5.238.518-1.362 2.102-.905 3.38-.224l.591.345c.21.135.406.266.574.387 2.782 2.02 4.935 5.807 5.933 7.906 1.188 2.504 3.83 7.318 5.01 9.65m7.955-13.68c.103.863.383 2.309-.563 2.742-1.208.55-2.405-.578-8.781-5.298-2.037-1.507-4.884-3.298-7.956-5.098-.018-.01-.028-.019-.046-.033-2.708-1.623-7.788-5.205-11.149-7.532-3.094-2.15-4.148-4.65-4.334-5.653-.187-1.008-.103-2.79 2.232-3.433 2.923-.802 12.43 6.656 12.463 6.679 1.324 1.091 3.733 3.382 3.924 3.172.438-.485-2.521-4.119-3.342-4.982 0 0-1.272-1.352-2.847-2.798l-.005-.005c-1.062-.998-3.174-2.962-4.306-3.95-1.748-1.53-1.832-2.953-1.515-4.021.266-.881.974-1.852 2.349-1.688 1.053.13 3.174 1.758 4.828 3.162 4.74 4.118 9.238 8.685 12.58 13.242 2.642 3.596 4.655 7.649 5.392 10.4.755 2.79.946 4.003 1.076 5.094m52.95-14.552c-.764 2.635-7.574 2.467-14.159 2.308l-.755-.018c-6.977-.168-15.506-.62-27.288-2.37-.755-.13-10.351-1.87-14.28-4.515-1.315-.881-4.116-2.616-3.925-3.969.247-1.716 4.419-1.063 6.968-.55h.005c1.748.378 4.246.923 5.541 1.073 1.501.177 7.877 1.128 8.003.55.125-.574-6.069-2.215-7.905-2.729-1.305-.363-4.008-1.044-5.56-1.436-.103-.028-.214-.06-.35-.093-4.478-1.13-9.503-3.405-12.821-5.136a61.762 61.762 0 0 1-3.659-2.14c-1.542-1.223-5.527-5.332-1.682-8.904 4.092-3.802 21.835-1.148 23.112-.952 3.174.564 5.532 1.059 5.56 1.064.075.018 7.816 1.735 18.284 7.611 20.894 11.73 25.489 18.223 24.911 20.206" fill="#1A1919"/></g></svg>