
<svg  id="shape" viewBox="0 0 17 11" version="1.1" xmlns="http://www.w3.org/2000/svg" xmlns:xlink="http://www.w3.org/1999/xlink">
    
        <path d="m20 545 1-1h2l1 1h1v1h1l-1 2-1 2h-1v2l-1 1h1v1l37-5 1 1 2 1 2-3 1-1 1-1h1v-1l1-1h1l3 1 12 3 7 2 4 2h3l1 1h1l1 1h4v-1h1l4-2h4l3-1h7v1h3l2 1 5 1 2 1h2a348 348 0 0 0 11 3l1 1h1l2 1h3c1 0 3-1 4-4l4-2 1-1h2l1-1h2c18-2 31-2 41 2h1c1 1 2 2 3 1l2 2 1 1h1l3 2 4-6h5l4-1 4-1h3l5 1h2l23 3h2l24-7h1l2-1 3-2h2l3 2 2-2v-1l2-2h3v3l1 1h2l2-1c4-1 7 1 8 5l6-1 5 5h1v1h1v1h1v1h1v1h2v1l3 1 2-2 1-1c2-3 5-6 10-6l3-1 2-1 3-2 1 1v1l1 2-1 2-2-1h-3l-2 3v1h1v1l5 1 3-2v-1l2-1 5-4h2l1-1h2l6 3 4-3 2-1h3c0 4 2 6 4 5 2 0 4-1 5-3l3-1h3l6 2h2l1-1 3 1c2 2 4 3 6 2h2v-1h6l1 1h1l2 2 6-1c2-3 4-5 7-5h9c1-1 3 0 6 1l1 1h1l3 1v1h2c8 2 14 5 19 11h1l4 2 7-1v-4c-1-1 0-2 1-2l12-2c3 0 5-2 5-6h2l3 2 2-1 4-1c5 2 10 3 13 2l9-1 1 1h1l1-1 2-3h1l1 1 3 3v1l3 2h17l1 1h2l1 1 1-1h1v-1l1-1h5l3-2h3l1 1h4l1-1h2l3 1h1l8-1h1l2 1h4v1h4l2 2v3l3-1c2 0 3-1 2-2v-2l1-1 1 2c1 2 2 3 3 2h2l2-1v-1h2l1 1h1v1h1l1 1 3 1 1 1 2-1h2v-1h1l1-1h4v1h20v1l10 1h1l13 1h3l1 1h2l2 1h2l1 1h4v1h2c7 2 13 3 18 2l5-1c3 0 5 1 8 4h4l3-1c5-4 9-6 12-6l6-1c1-1 3-3 6-3l6-1 3-1c1-2 3-3 6-3h1v-1l4 1h10l6 1h9l21-3c4-1 7 0 8 1l8 2c3-1 6-2 7-5v-1c2-3 4-4 7-5h1l3 1h4v-4l-3-4v-3h-1v-3c-1-3 0-5 1-6h1l-3-2-1-3 1-1v-8l-2-3v-1h-1v-1l-1-1v-1h-1v-1l-1-2-1-1v-2l-1-4c-4-7-7-14-8-21v-3l-1-1v-1l1-3v-17l-1-1-2-21-1-9v-10l-1-4v-2l1-6v-7c0-8 2-15 5-18 3-4 4-9 4-17v-7l1-1v-2l-1-2c-1-1 0-3 1-3l-1-1v-2c0-1 0-2 2-3v-4l-1-5v-1h1v-3h1v-2l1-1v-2l1-1v-1l1-3-1-1-1-1v-3l1-1 1-9v-14l-1-3 1-1v-3c1-2 2-3 1-4 0-2-1-3-3-4l1-1c4-4 6-10 4-19v-7l-1-5v-8l-1-1v-21l-1-2v-1l-3-19c2-1 3-3 3-6v-1l1-1-1-1v-1l1-4 1-2v-1l-1-1 1-2v-1l1-2 2-4c1 0 2-1 2-3v-1h-1l-3-2 1-2 1-1 1-2c2-3 2-7 2-11l-1-2v-1l-1-3-2-2v-5l1-1-1-1v-11l1-1v-6l1-1v-5l1-1V77l1-3v-8l1-2v-3l2-8V40l1-4v-5l1-9v-1l1-1v-1l-2-2-3-3v-1h-1v1h-4v-2l1-2h1V9h-8l-2-1h-5l-3 1c-5 0-11 0-14-2h-4l-1-1h-13l-3-1h-14l-2 2h-2v1h-2c-1 0-3 0-3-2h-5l-1 1v1l-2 1-7-2h-2l-1-1h-12l-1-1h-1l-12-4h-1l-3 1-1 1-1 1h-1v1h-1l-6-1-3-1h-1l-17 3-3-1h-1V4h-1l-1 1-1 1v1h-1v1h-1l-1-1-5 1V7c-2-1-5-2-8-1h-4l-3 2h-2V7l-10 1-1 1h-5v1h-1l-2 1-1 1h-3v-1l-6-2c-2 0-3 1-4 3l-3 1h-2l-1 1-4-1c-1-1-3-2-5-1h-5l-1-1-1-1h-2l-3 1v1h-2v1l-1-1-1-1-1-1-2-1-1 1h-1v1l-7 1h-1l-2 1h-1l-7-1h-1l-5-1-3-1h-1V9h-13c-6 0-12-3-15-5l-19 2-10 1h-1l-4-1h-1l-1 1-2 2h-3l-1-1-1-1h-1v1h-1l-1 1-1 1h-1l-5 1-3-1h-2c-3 1-6 2-7 5-3-1-6-2-10-1l-11 1v1l-1-1h-1c-1-3-3-3-6-4h-9v1h-1l-3-1-9-3-1 1h-1l-3 1c-1 2-2 2-3 2h-1v1l-1-1h-2v-1h-1l-1-1h-1l-1-1h-3c-3 0-5-1-7-3l-3-1h-1l-1 1-2 1v1l-3-1-3-1h-1l-3 2h-4l-1 1h-1l-4-1c-3-1-8-2-11-1l-8 1c-2 0-4 1-6 4l-2-2h-1l-3 2-3 1h-2v1h-1l-4 2-4 1-1 1h-3v-1l-3-2-1 2-2 2h-2l-1-1v-1h-2l-7 1h-1l-2 2h-1l-3-1-2-1h-2l-1 1-4 1c-4 0-7-1-9-4h-3l-4 3h-1l-1-1-1-1h-2l-1 1v1h-2c-6-2-11-3-17-2a29 29 0 0 1-15-1h-1l-2-1h-4c-2 0-4 2-6 4 0 2-1 3-4 4l-3-1v-1h-1c-3-3-7-3-10-3l-5 4h-4c-7-2-18-3-29-1h-5l-1 1-1 1h-1v-1h-6l-2-1h-2l-7-2h-14l-2-1h-3l-5 1-3 1h-1v1l-7 1c-7 0-12-1-16-4l-4 1-1-1-3 1v1l-2 1h-5l-1-1h-4l-1 1v1h-3l-9 3-5 2-3 1-3 1-2 1h-3l-1 1h-3l-3 4h-2l-1-1-1-1h-1l-2 1v1h-1v1l-3 1h-1l-1 1h-6l-4-1h-3v1h-3v1h-3v1h-1l-1 1h-1l-1 1h-2l-1 1a84 84 0 0 0-1 1h-1l-1 1h-1v1h-2v1h-2v1h-2v1h-2l-3 1-1-1h-3l-2 3h-4v8l2 3v6l-1 3v1l1 2 2 1-1 2v1h-1v1h-1a912 912 0 0 1-2 6v4h-1v3l-3 3v1l2 3 1 4v6h-1v3l-1 1a69 69 0 0 1 0 2v5l-1 1v3c0 4-1 6-3 8l-1 1v3l1 8v11l3 7v10l1 2 2 1v1l1 1-2 3-1 1v1h1l1 3h2v18l2 17c-3 3-5 5-5 8l-1 2v4l-1 1a106 106 0 0 0 0 7v3l-1 4v4l-1 2v1l-1 1c-1 5-2 9-1 13v3l2 3 1 1v3l-1 1v1H8l-1 1v2h1l1 1v4l-1 1-1 1v4c1 3 0 6-1 7v6l1 2 1 2h1v1l1 1v1c1 2 0 4-2 7l-1 1v2l1 1v1l3 8v5l1 13c1 3 0 6-1 7v6l-1 1v1h1v1h1l1 1 1 2-1 1-1 3h1v1l2 15-1 6h-1l-1 5c0 2 1 3 3 4l1 3v1c-2 4-4 8-4 16l-1 6v5h-1v2l-2 7 2 4v4c-2 1-2 2-2 3v2l2 1 1 3v3h1v1c0 2 0 4-2 7l1 3-1 1v16H9v4c-2 3-2 7-2 14l1 1v1l-1 8v1l-1 1v5l-2-1-1-1v1H2l-1 1 1 4H1l1 3 3 3-1 1 2 1h11l3 1Z" id="shape"/>
    
</svg>