<svg xmlns="http://www.w3.org/2000/svg" viewBox="0 0 800 370"  aria-hidden="true">

  <g stroke="none" stroke-width="1" fill="currentColor" fill-rule="evenodd">
    <path d="M798 316v1-1Zm-4-150h1l-1-1v1Zm-2 134 1 1v-1h-1Zm-5-55Zm-2-46Zm0 55v-2l2-4-1-1h1v-13h1l-1-5v-4l-1-7v-4l-1-1 1-1h-1v-7l1-3-1-2v-6l-2-7v-6l-1-1v-2h-1l-1 2v9l1 3v17a34 34 0 0 0 1 9v8h1v12l1 2-1 1v3h1v1h-1 1l-1 2-1 2-1 2v19h1v36l-1 4v7l-1 1v2l1 1 2-3 2-4v-6l1-4v-3l-1-9v-10l-1-2h1v-10h1l-1-1v-8l-1-1v-1h1v1-6Zm-5 90v2l1 1v2l-1 2 1 6v1l1 1v2l1-1 1-1 1-1-1-1-2-1 2 1v-1h1l-1-1v-2h-1 1v-2h1v-1h-1 1v-1h-1 1v-2h-1 1v-2h-1v-3h-1 1v-2h-1 1l-1-1-2-1h-1v6Zm-8-103v-1 1Zm-1-82h1v-1l-1 1Zm-2 197v-1l1-1-1-2 1-1 1-1-1-1h1v-6l4-6 1-1 3 1h4v-1h1l2 1 2-1 1 1h1l1-1 1 2v1l1-1 1-1v1l1 2 1 2v10l-1 1 1 1v2l-1 1 1 2v2l-1 1c0 2-1 3-3 5l-2 1-2-1-1-1v2h-2l-1 1h-1l-1-1-1 1h-1l-2-1h-1l-2 1-1-2h-1l-1-2-1-1-1-1v-1l-1-1v-5Zm-3-175v-8l1-1v-1h-1v-3l1-6 3-4h1l2-1h6l8 2 5 1h1l1 1 1 1h1v1-1l1 1h1l-1 1 1 1v2l1 1v13l1 1h-1v2l-1 3 1 3-1 2v3l1 2-1 1v10h1l-1 1v5l-1 2v4l1 1-1 3v3l1 1a18 18 0 0 0 0 8v2l-1 1 1 2-1 1v4l-1 2 1 3v11l-1 1 1 3v2l1 1h-1v1h1l-1 1v1l1 1v2h-1v1l1 2h-1v2h1v1l-1 1 1 2v3l-1 4v2l-1 3 1 1v3l1 1-1 2 1 2-1 1 1 1v6l-1 1v2l-1 4-3 2h-4l-1 1h-4l-1-1v1h-11l-3-1v-1l-1-5-1-3v-2l1-4v-5l-1-1 1-1v-1l-1-2 1-2v-1l-1-1v-1l1-2v-4l-1-4 1-1v-2l-1-3v-1l1-1v-1l-1-1v-2l1-1v-1l-1-1v-4h-1l1-1 1-1-1-2v-10l1-1v-1l-1-3 1-2v-4l-1-4 1-6-1-1v-1h1v-1l-1-2v-6l1-1-1-4 1-4-1-1v-3l-1-2 1-1v-1l-1-5 1-2-1-3v-4l1-1-1-1v-3Z" id="letter-12"/>
    <path d="M733 307v1h-1v-1h1Zm0-49h1-2 1Zm0-65h-1v-1l1 1Zm-15 109v1-1Zm-1 16v-1 1Zm0-9Zm-1 4v1l1-1h-1Zm0-12h1l-1-1v1Zm0 4h1-1Zm0 11h2v-1l-2 1Zm-4-104h1-1Zm-2 137-1 1v-1h1Zm-4 1v1-1Zm-8-4h-1 1Zm-10-78v1-1Zm1 3h-2 2Zm-7 27h1v1l-1-1Zm-8-61v-1 1Zm-12-37v1-1Zm-3 1-1-1-1 1 1 1 1-1Zm-3 153v1l-1-1h1Zm-8-6-1-1v1h1Zm-4 0h2v1h-1l-1-1Zm-5-80v-1h-1l1 1Zm0 82-1 1-1-2h1l1 1Zm-4-67v-1h1l-1 1Zm0-10h1l-1-1v1Zm-1-5v-1h1l-1 1Zm59 0 3 6v3l1 2 2 7 2 4v-1l1 1v4l1 3 1 2 1 2 1 5 1 4v1l2 1 1-1v-10l1-1v-1l-1-1v-10l1-1-1-2v-1l1-2v-1l-1-1-1-2 1-2v-6h-1v-2l1-3v-1l1-3-1-1v-9h-1v-1h1l-1-1v-4l1-1v-4l-1-2v-1l1-1v-1l-1-1 1-2-1-1v-1l1-3v-3l-1-3 1-2v-1l-1-3v-1l1-1-1-1v-1l-1-2 2-1-1-1v-10h1l1-1h-1v-2l2-1h1l1-1 1 1 1-1h1v1h1v-1l4 1h1l3 1h1v-1h2l2 1h2v2h-1a90 90 0 0 0 1 1v-1h2v4l1 4-1 4v1l1 2v2l-1 2 1 1-1 1v1l1 1-1 1v1l1 1v8l-1 2 1 1-1 1v2l1 3v23h1l-1 1v1h1v5l-1 1 1 1v7l-1 2v2l1 1v1l1 3v1h-1l-1 1v1h1l1 3-1 3v6l-1 1 1 2v2l1 2-1 3 1 2v2h-1v1h1l1 1h-1v11h1v1l-1 2v12l-1 1v2l1 1v1l-1 1v3l1 1-1 1-1 1h-1l-1 1-1-1-1 1h-2l-1-1h-6l-1-1h-2l-2 1-1 1h-1l-1-1h-1l-2 1-1-2v1l-1 1-1-1-3-1h-1v-1h-1v-1l-1-1v3h-2l-1-1v-4l-1-1v-1l1-1-1-3-1-1-1-2h-1l-1-4-1-3h1l-1-1-1-3-2-3v-1h1l-1-1h-1v-2l-2-3a31 31 0 0 0-3-9l-1-1v-1l-2-1-1-1 1-1v-1h-1l-1-1-1-4-1-1-1-1h1l1-1h-2v-2l-1-2-1-2v-2l-1-1v-1l-1-2v-1l-2-1v-2l-1-3-2-4v-2l-1-2h-1v2l-1 2v1l1 1v6l-1 3 1 1v1l-1 1 1 1-1 1 1 1v1l-1 1v3l1 1-1 1v2l1 2-1 2v2l1 1-1 2v1l1 2v10l1 1-1 1v6l-1 2h1v1l-1 2v10l1 1h-1v2l-1 1h-1v-1h-1l1 1v1h1l-1 1h-1l-1-1-1 1-1 1-1 1v1h-1l-2-1-1 1h-3l-1-1h-5l-4-3-1-1-1 1-1-2-2-1h1v-1l-1-1v-14l-1-2 1-1-1-1v-12l1-1-1-1v-3h1v-1l-1-1v-5l1-2-1-1 1-3v-2l-1-1 1-3h-1v-6h-1v-1h1l1-1v-2l-1-3v-4l-1-1v-2h1l-1-1v-1l2-2-1-1v-13l-1-1v-1h2v-8l1-2-1-1v-9l1-4v-1l-1-1 1-1v-2l-1-2 1-1v-1l-1-1v-5l1-2-1-1v-1l1-1-1-1v-2l1-1v-2l1-2v-1h1l1 1 1 1 2 1v-6h1l2 1 1-1h2l2 1h2v1l1-1h1l1 1 4 1v1h1l1-1v-1l3-1 1 1h-1v1l1 1 1 1 1 1v4l1 1 1 1v1l1 3h1l-1 2 1 1v4l3 3 1 4v-1h1l-1 1 1 1-1 1 3 2-1 1v1h1v2l1 1v1l1 1 1 2 1 1 1 3v2l1 1 1 1v1l1 1v1l1 1v1l2 6v1c0 3 1 4 2 5l1 4v1Z" id="letter-11"/>
    <path d="M621 291v-1h1l1 1h-2Zm-20 70v1h1l-1-1Zm-11-161h-1 1Zm-10 14h1-1Zm0 119-1-1v1h1Zm-20-133v-1 1Zm-1 150h-1v1l1-1Zm-3-158v1l-1-1 1-1v1Zm65 6 1 1 1 1v2l-1 2v11h-2v1l-1 1v1l-4 1-4 1-2-1h-2l-4 1h-4l-3 1h-4l-1 1v-2 1h-7l-1 1-1 6v14l-1 1 1 2 1 2-1 1v7l-1 1v1h1l1 1h1l3-1 3 1 1-1 2 1 1 1 2-1h1l1 1h3l2-1 1 1 2-1h1l1 1h3l3 1 3-1 1 1h-1v1l2 1v1l1 3v2l1 1v2l-1 6 1 6v8l-4 4-2 1h-6l-4-1h-4l-2 1-1-1h-4l-2 1h-2l-1 1-1-1h-3l-1 1h-1v1l1 1v3l1 2-1 2v7l1 3v6h-1v1h1l-1 1v1l1 2v3l-1 4-1 2v1h1l1 1v-1h2l1 1 2-1 1 1h1l1-1h9l1 1 1-1h1v1h1v-1h3l2 1h1l1-1 1 1h3l1 2h1v1h1l-1 4 1 1v2l-1 1-1 2 1 2v2h-1l1 1v2l-1 3-3 1h-4l-2 2h-1v-2l-1 1h-1l-2-1-1 1h-1l-1 1h-1v-1l-3-1h-4l-5-1-4 1h-3l-2-1h-1l-2 1h-3l-4-1h-4l-3-1h-1l-1-1h-1l-1 1h-1l-3 1v-1l-2-2-1-2v-4l1-1v-2l-1-1 1-1 1-2-1-3v-3l1-3v-1l-1-1 1-1v-2l-1-2 1-3v-11l-1-2 1-1-1-2v-5l1-1-2-9v-4l1-2v-1l-1-2v-1l1-2-1-1v-2h1l-1-1v-8l-1-1 1-1v-1l-1-2v-2l1-1h-1l1-1v-1l-1-1v-3l-1-3 1-3 1-1-1-1v-3a19 19 0 0 1 0-10l-1-4v-9h1l-1-1v-1l1-1h-1v-4l1-1h1l-1-1h-1v-17c0-2 1-3 3-3h2l1-1h2l2-1 1 1h14l6 1h1l1-1 1 1h4v1l1-1v-1h1l1 1 2-1h1v-2h1l1 1v1l2-1h4l-1 1h3l2 1v-1l2-1h1v1l2-1 1 1 4 1h2l1-1 1 2h1l1 1v1h1l-1 1Z" id="letter-10"/>
    <path d="m453 366-1 1-1-1-2-1-2 1-2-1-1-1-1 1 1-1h-2v-1l-2 1v-1h-1l-1 1v-1h-2v-1l-1-1v-2l-1 1-1-1h-2l1-1-1 1-2-3v-1l-1-1h-1l-2-2v-2l1-2v-1h-1v-4l-1-2v-2l-1-3h1v-2l-1-2 1-2v-6l-1-2 1-3v-3l-1-2v-3l1-1v-1l1-3-1-1v-2h1v-2l1-2v-1h-1v-1l1-1-1-2v-5l1-2h1l-2-4 1-2-1-3 1-2v-5l-1-3v-5l-1-3v-5l1-2v-2l-1-3 1-2v-3l-1-1v-2l2-1v-1h-1l1-1h-1l1-1v-1l1-1-1-2v-3h1l-1-2h2-1v-5l1-1h1v-2l1-1v-4h1v-2l3-1 1-4h1-1 1l2-2 1-1 1 1v-2h1-1l1-1h2l2-2h2v-1l2-2h3l2-1 1 1 1-1h9l3-1 3 1 3-1 1-1 1 1 1 1 1-1h-1 3v1l2 1 3-1h3l2 1 2 1v1h-1l2 2 2 1h3v1h2v1h2l-1-1v-1l3 1 2 2 2 2 2 2 1 2v2l2 3-1 2 2 2v2l1 1-1 1 2 2 1 2v6l1 2v2l1 3-1 2v5h-2l2 1-2 2 2 3-2 2-1 2-1 2v3l-1 2-1-1-2 1-2 3-2 2-2 2v2l1 3 1 2 2 1 2 2 1 2 1-1 2 1 2 1 2 1 3 1 2-1 2 3 3-1 2 1 2 1 1 4 2 1 1 4h1v11l1 3v3l-1 2 1 3v2l-1 3v5l-1 3v2l1 1h-1v2l-2 1-2 2-1 1h-1v4l-1-1 1 2-4 1h-1v2h-1l-1 2v-1l-2-1-3 1-1 1-1-1-2 1v1-1l-2 1v1l-3-2-1 2h-4l-3 1-3-2h-1v2h-1l-2-1h-2l-2-1 1 2v-1l-1-1-1 1-2-1-2 1h-2v-1l-1-2-1-2h-1v-2l-2-2-1-1h-1v-2h1l-1-2-1 1-1-3-2 1 1 1v-1h-2l1-1h-1l-1-1v1-1l-1-2 1 1h1v-1l1-2-1-3v-1l1-4h2v-2l2-1v2l1-1 1-1h-1l1-1h-1 1l1 1 1-1 2 1 2 1-1 1v1l2 1h3l2 1 2 1 3 2h2l2-1 3-1v-1l2-1h1l2-2 1-2v4h2l1-2h-1l1-3h-1l-1-1 1-2v-4l-1-2-1-3-2-1v-3h-2l1-1-2-2h-3l-3-1h-2l-2-3-3 1-2-1-4-1h-3l-2-2 1-2-2 1-2-3v-2l-1-1-1-1-1-2 1-2v-2l-2-2h1v-8l2-2 3-2v-4l1-3 2-2-1-3 3-1v-3l2-2v-2l3-2 1-2 1-1v-1l1-3v-3l-2-1 1-2-2-2v-3l-2-1-1-3-1-1h-1l-1 1v-1l-3-1h-1l-1-2h-6l-2 1-2 1-1-1v1h-1l-3 2h-2v1l-1 1v4l-1 1-1 1v5h-1v5l1 2v2l-1 2v1h1v3l1 1v2l1 1-1 2v3l-1 1h1v4l-1 2 1 3h1l-1 2v1h-2l1 1v1l1 1v3l-2 2v3l1 2v2h-1l1 1v1l-1 1v5h1l1 2-2 3 1 2 1 3v9l1 1v1l1 2-1 2h1l1 2-1 3-1 2 1 3 1 3-1 2-1 3 2 4v3h-1l-1 2 2 2-1 1v2l-1 4h2l-1 1h-1v1l1 2v1l-1 1h-1v1l-3 1 1-2-1 1-2 1Zm54-133 1 1h1v-4h1-2l2-1-1-2h1-2l-2-1v-1l1-1 2 1-1-1-1-1h-2v-1h-1l-2-2-1 1-1-1v2l1 1v3h2v4l1 2 1 1v1h2v-1Zm2 90-1-1h1v1-1 1Zm-11-121v-1l1 1h-1Zm-1-2v1-1h-1 2-1Z" id="letter-9"/>
    <g id="letter-8" transform="translate(305 196)">
      <path d="M78 150v1h-1l1-1Zm-37-11 1 1h-1v-1ZM22 45h-1 1Zm61 43c0 10-2 21-5 34l1 3-2 5-1 3-1 4-2 4-2 3-2 2-3 1-4 3v-1l-8 3h-3l-2-1h-6v-1h-2v-1h-1l-1-1h-1l-2-1-3-2-4-4-1-3-3-5h1l-2-6-2-7-2-5v-1l-1-1-1-13-1-2v-6l-1-3v-2h1V68l1 1V54l-1-5v-1h1-1v-3h1v-8l-1-4v-6l-1-2v-7l-1-4v-1h1v-1l-1-1s0-1 0 0l-1 1-2-1-1 2v19l1 4v9c0 1 0 2 1 1l-1 1 1 2v-1 11l-1 2v1h1v1h-1 1l-1 8-1 9v7l1 4 1 5v4l1 5v1l2 10 2 6 1 5 1 2 1 2v2l1 2v2l1 2 1 1 1 2 5 4 1 2 2 1 3 2 2 1-1-1 1 1 2 1 4 1 4 1 4 1 6-1 6-2 5-3 4-3 3-4 2-6 2-4v-1l2-5c3-12 4-21 4-26v-7l1-3v-4l-1-4 1-1h-1l1-5 2-18v-7l-1-4 1-6 1-5-1-7V18l-1-5h-4v1h1l-1 3 1 8v7h1v5l-1 3 1 2-1 1v8l-1 6-1 30h-1l1 1ZM5 89l1-1v1H5Zm65-40v-3l1-1v-1h-1l-1-1v-4l1-4-1-2v-3l1-1-1-1v-3l-1-1v-1h1v-1l1-1h-1l-1-1 1-1v-1l-1-1 1-1-1-1 1-1v-1l-1-2V9l2-3h1l1-1 1-1h17l2-1 2 1h5v1l1 2 1 1v1l-1 1 1 2v3l1 3v3l-1 2 1 3v4l-1 1 1 2v-1l-1 4v4l1 3v2l-1 1v4l-1 2v1l1 2v15l1 1v2l-1 5h-1l1 1v7l1 3-1 1 1 1 1 1v2l-1 1v3l1 1-1 2v1l1 2v3l1 1h-1l-1 1-1 1v2l1 2v2l-1 2 1 3v2l-1 1-1 2v1h1v2l-1 1-2 1 1 1-4 9-2 6h-2v1h-1v2l-1 1-4 3 1 1v1h-2l-1 1h-2l-2 2h-1l-1 1-2 1h-1l-4 1-4 2-4 1-2 1h-1l-2-1h-2l-4 1h-8l-3-1-11-3-2-1-3-1-2-1-3-1-2-2-2-1-3-3v-2l-1-1v-1c-2-2-3-5-3-7l-1-1H6v-1l-2-4v-3l-2-3-1-3v-1l1-1v-2l-1-1v-7l-1-3v-1l1-2v-2H0l1-1v-1l-1-1 1-2v-7l-1-1 1-1v-3l-1-1 1-1v-1l-1-1h1v-4l-1-2 1-1-1-1 1-1v-7l-1-3 1-3 1-2v-1H1l-1-1 1-3-1-2v-1l1-1V36l1-2v-4l-1-2-1-5v-1l1-1 1-2v-2l-1-1v-6l1-2V6l1-4 1-2 1 1h5l2-1h1l1 1 2 1 1-1h4l1 1h2l2-1h3l1 1v2l1 5v15l-1 3v3l1 6v2h-1 1v3l-1 6 1 1 1-1v1h-1v3l1 1v1l-1 1 1 1v1l-1 1-1 4 1 2v1h-1l1 1v2l-1 1 1 1v2h-1l1 1-1 2v3h-1l1 1v-1l1 1v1l-1 2 1 2v8l-1 3 1 1v1l1 2v3l-1 1v1h1v1h-1l1 2v1l-1 4v1l2 8h1v2h-1l2 1 1 2v1l4 4h1v2h2v1l2 1h1l1 2 1 1v-1h2v1h2l1-1h7v-1h1v-1h1v1l3-3c0-2 1-4 3-5v-2l2-2v-6l1-1-1-2-1-1h2l1-1v-3l-1-2-1-1 1-1 1-1v-1l-1-2v-1l-1-2 1-1 1-1h-1v-1h-1v-1l1-1v-2l-1-2 2 2h-1v-2l-1-2v-7l-1-2v-3l2-1-1-1-1-1 2-1v1-4 1h-2l1-2v-1h-1l1-1V52l-1-1 1-2Z" id="Fill-10"/>
      <path id="Fill-2" d="M61 85h-1v1h-1l1 1h-1v1h-1v1h-2v1h-2v1-1 1h-8v-1l-1 1v-1h-2v-1h-1v-1h-1v-1h-1v-1h-1v-1h-1v2h-1v1h-1v1h-1l-1 1h-2v1l-1-1v1h-4v-1h-1 1v-1h2l1-1v1-1h2v-1h2v-1h1v-1h1v-1h1-1l1-1v-1h1l-1-1h1v-1h1v1h1v2h1v2h1v1h1v1h1l1 1v-1 1h2v1h4l1-1h3v-1h1v-1h1v-1h1v-2h1v-2h1-1 1v-1h2v3h1v2h1v1-1 1h1v1h1v1h3v1-1h1v1h3v2h-6v-1h-2v-1h-1l-1-1v-1h-1v-1h-1v-1z"/>
      <path id="Fill-1" d="M60 100v1h-1v2h-1v1h-1v1h-2v1h-2l-1 1h-8v-1h-2v-1h-1v-1h-1v-1h-1v-1h-1v1h-1v2h-1v1h-1v1h-2v1h-2v1-1 1h-4v-1h-1 1-1l1-1h2v-1 1l1-1h2v-1h1v-1h1v-1h1v-1h1v-2l1-1v-2h2v2h1v2h1v1h1v1h2v1h2l1 1v-1 1h3v-1h3v-1h2v-1h1v-1h1v-2h1v-3h1v-1h2v2h1v2h1v1h1v1h2v1h2l1 1v-1 1h1l1-1v1-1h1v1h1-1 1v1l-1 1h-5v-1h-1v1-1h-2v-1h-1v-1h-2v-2h-1z"/>
    </g>
    <path d="m235 191 1 1h8l1 1h2l1-1h2a47 47 0 0 0 2 1h2v2l1 1v1h2l1-1h5l1 1-1 2 1 2 2 2-1 1-1 1h1l2 1v1h-2v1h1l2 6v2l1 1 1 1v2l-1 1 1 1 2 1h-1v1l1 3h2v1l-1 2v2l2 2-1 1v1l1 1 1 1v6l1 1v3l1 1v7l1 1 1 1-1 2v1l1 1-1 1 2 3 2 4v1l-1 1v1l-1 1 1 1 1 2 1 2v1l-2 1 1 1 2 1 1 1v5l1 1h1l-1 1v4h1v1h1l-1 3 1 2 1 1h-1v1l1 2 1 1-1 2v2l1 2v5l1 1v1l-1 1 1 1 1 1h-1l-1 1 1 1v2l-1 1h1l2 1-1 1v4l1 1v3l1 1v3h1l1 2v1l1 1v2h1l-1 1v6l-1 2 1 1 1 1v1h-1v1l1 2v1h-1l-1 1-1 1h-5l-3 1-3-1-2 1-1-1-2-1h-7l-3-1-1-2v-1l-3-3v-2l-2-1v-1l1-1h1l-1-1h-1l1-1v-2c0-1 0-2-2-2v-1l1-2h-1v-5l-1-2h-1l-2-1-2-1h-1v1h-2l-3 1h-3l-6 1h-3v1l-1-1h-2l-1 1h-1l-1-1c-2 0-3 1-3 2v2l1 1v2l-1 1v3l-1 2 1 1h-1l-1 2v3c0 2-2 5-6 7h-3l-3 2h-1l-1-1h-1l-1 1v-1h-2l-1-1-2 1-1-1h-5l-1-1v-3c-2-1-3-2-3-4v-5l1-1v-2l-1-1 1-1 1-2-1-2 1-3v-3l1-1-1-1h-1 1l1-1v-1h-1l-1-1h1l1-1v-8l1-1h1v-10l1-2-1-1 1-1 1-1h-2v-1h1l1-1 1-1v-1h-1l2-3v-1l-1-1v-1l1-3v-5l1-1h1l-1-1-1-1v-1l1-1 1-1 1-1-1-1v-5l1-3v-5l2-3 1-3-1-1v-1l1-2v-5l1-3v-4l1-1v-5l1-2h-1v-1l1-1-1-1v-1l1-1 1-1-1-1v-3l1-1v-2l1-1v-1l-1-2v-2l1-1 1-1v-2l-1-1v-1l1-3 1-3v-3l1-3 1-3 1-1h1v-1h1l1-1h2v1l2-1 2-1 3-1h1Zm58 167v1-1Zm-64-2 1 1-1 1v-2Zm-29-3-1 1 1-1Zm97-7-1 1h1v-1Zm-32-12h-1 1Zm0-2h-1l1 1 1-1h-1Zm-20-88v1l-1 1v1h-1v1h-1v1l-1 1h-1v2h-1v1h-1v1l-1 1v1h-1l-1 1v1h-1v1l-1 1v1h-1v1h-1v2h-1l-1 1v1l1-1v1h1l1-1 1 1h1l1-1v1h1l1-1 1 1 1-1v1l1-1 1 1h2v-1l1 1h-1v1h-1l-1 1-1 1h-1l-1 1h-1l-1 1h-1v1h-1v1h-1v1h-1v1h-3v1h-1v1h-1v1h-1l1 1v-1h1v1h4l1 1v-1h1v1h1v-1l1 1h4v1h1v-1l1 1 1-1 1 1h-2v1h-1v1h-1v1h-2l-1 1v1h-2v1h-1v1l-1-1v2h-2l-1 1h-1v1h-1v1h-1l-1 1v1-1l1 1h3v1h1l1-1v1h2v1h1l1-1v1h3v1l1-1h2v1h2v1h1v-1 1h1l-1 1 1 1-1 1v1l1 1h-1v5l-1 1 1 1-1 1v7h2v-3l1-1v-5l1-1v-3l1-1-1-1h1v-5l1-1h-1 3v-1l1 1h7v1h1v-1h1v1l1-1 1 1 1-1v1h3v-1h-1v-1h-1v-1h-1v-1h-1v-1h-1l-1-1v-1h-1l-1-1-1-1v-1h-1v-1h-2v-2h-1v-1h-1l-1-1h-1v-2h-1l-1-1v-1l1 1h1l1-1v1l1-1h4l1-1h4l1-1v1h2l1-1v-1h-1v-1h-1v-1h-2v-1h-1v-1h-2l-1-1-1-1h-1v-1h-1v-1h-2v-1h-1v-1h-1l-1-1h-1v-1h-1l1-1 1 1v-1h2l1-1h1v-1l1 1 1-1h2v-1l1 1v-2h-2v-2h-1l-1-1v-1h-1v-1h-1l-1-1v-1h-1v-1h-1v-2h-1v-1l-1 1v-1l-1-1v-1h-1v-1h-1v-1h-1Zm27 33v2h1v-1l-1-1Zm-7-33-1 1v1l1-1v-1Zm-12-45Zm-28-1 1 1v-1h-1Zm22-2v1l1-1h-1Z" id="letter-7"/>
    <path d="M193 225v1l-1-1h1Zm-1 2 1-1v1h-1Zm-7 114v-1l-1 1h1Zm-1-120h1v-1l-1 1Zm-7-15h1-1Zm2 141 1-2 1-2-2-3h-2l-3 1-1 1v2h-1v3h1l2 2h2l1-1 1-1Zm-6-101h1l1 1h1l1 1h2l3-1v-2l1-1h-2v-1l1-1v-1l-1-1h1l-2-1-1-2-1 1-1 1h-1v1h-3l-1 3v3h1Zm-2 20 1-1-1 1c-1 0-1 0 0 0Zm0-52-1-1-2 2-1 1v-1 5l1 1 1 2 4 1h2l1-1v-1h-1l-1-1 2-1v-2l-1-1-1-1v-1h-1v-1h-2Zm-3 109h-1l-2 1-1 2-1 1v1l1 3c1 1 1 2 2 1v1-1l1 1 2-1h1l1-2v-5l-3-2Zm-6-61 3 1 1-1h1l1-2v-2h1v-1h-1v-2 1l-1-1-1-1h1-2l-1-1-1 1v1l-1-1v2h-1l-1 2 2 4Zm-6-14h1v-1h-1v1Zm0 21h-1 1Zm-2 39h1-1 1v2-1l-1 1h-4v2c1 1 2 2 5 2l3-2-1 1h-1l1-1h1l1-1 1-1v-2l-2-3-3-1h-1l-2 2c0 1 0 2 2 2Zm-6-37h1v1h-1v-1Zm-1-52v-1h1l2 1-1 1v-1h-2Zm7-11c2-1 2-2 2-3 0-2-1-3-3-5l-2-1-2 1-1 1h-2v2l2 4 3 3 1-2 1 1v-1c0 1 0 0 0 0h1Zm-12 38Zm4 20h1l1-3c1-1 0-2-1-3l-1-2-1-1h-1l-1 1h-1l-1 1h-1v2l-1 1h1l-1 2 1 1 2 1 2 1v-1h1l1 1v-1Zm-8-78 1-1v1h-1c0 1 0 1 0 0Zm7 30h-2l-1-1-1 1h-3l-1 1v1l1 1v13l-1 2 1 1v1h-1l1 1v1l-1 1v4l3 1h1l1 1h4l7-1h2l1-1c2-1 2-2 2-3v-7l1-1v-5l-1-4-2-1v-2l-2-1v-1h1v1-1l-1-1v-2h-8v1l-1 1v-1Zm-3 76 2 1 1-1h1v-1l-1-6v-1l-3-1-1 1h-1l-1 2v1c-2-1-3 0-3 1l2 3 3 1h1Zm-7 9v-1h1v1h-1Zm-2 53h1l-1 1v-1Zm-6-148h4c1 0 2 0 3-2v-4l-2-2-1-2h-2l-1 1-1 1h-1c-1 0-2 1-2 3l1 2v1l2 2Zm-4 66v2h-1v1l1 1v1c0 2 2 2 4 2h3l2-1v-6l-2-2-3-1c-2 0-3 0-4 2v1Zm4-42h1l1-1v1l1-3v-1l1-2h-1v-3l-1-2h-2l-3 1-2 2v6h1v1l1 1h3Zm-2 85-3 1-1 2v7l1 1h4v-1 1l1-1v1l2-2 2-2-1-3-3-2-1-2h-1Zm-3-20h-1v5-1l1 1v1l1 1h2v1h1l4-2 1-4-1-2c0-2-2-4-4-4s-4 2-4 4Zm-1-45v2l1 1h1v1h4l2-1 1-2 1-3v-3h-3 1v-1h-4v1-1l-2 2v1h-1v1l-1 1v1Zm6 97v-3l-2-2h-5v1l-1 1v-1 1l-1 1v3l1 1v1l1 1h4v-1l1 1c2-1 2-2 2-4Zm-19 5v-2l-1-2v-2l1-1v-4l-1-1 1-1v-18l1-3v-1l-1-2 1-1v-6h1l-1-1v-2l1-2-1-1v-3h1v-14h-1l1-1v-3l-1-1 1-2v-10c1 0 1 0 0 0v-2l1-2-1-1v-1l1-2v-1l-1-1v-4l1-3v-2l-1-3v-12l1-1v-1c-1 0-2 0-1-1l1-1-1-4v-3l1-2v-5l-1-1v-2l1-2-1-2 1-1v-6l-1-1v-6l1-4h-1v-3l2-1v-2h1l1-1v1h1l2-1h2l1 1h3l1 1h6c1 1 2 0 2-1h2l2 1c0 1 0 1 0 0h2l2 1h12c0 1 1 2 3 1l1 1 4 2h1l1 1h3c2 0 3 1 3 2l1 1 1 1 1 1h1l1 1 1 1 1 1 1-1 1 1 1 1 1 1c0 1 0 2 2 2l2 2v1l1 1 2 2 1 3 2 2 1 2 1 1v6l1 3v12l-1 2v4l-2 3v1l-1 1v3l-1 1-1 1-1 1v2l-1 1h-2v2l-1 1v1l-1-1h-2v2l-1 1-1 1-1 1h-2l-8 4-3-1h-2l-2 1h-1l-1 1-3 1-3-1h-2l-1 1v3l1 1 1 2 1 1 3 5c0 1 0 2 2 3v1l1 1v1l1 1v1l1 1v1h2l1 2 1 2 2 1 1 2h-1 1l1 1v1l2 2 1 2 1 2 1 1 3 4 1 2 1 2v2l1 1 1 1h1l1 1v2l2 2 2 1v2l3 4v5l-1 1h1v1l-1 1-1 1-1 1-1 3h-1l-1 1v1l-3 3c-1-1-1 0-2 1l-2 1h-2l-1 1c-2 1-3 0-3-1h-1v-1l-1-1v-1l-1-1-1-2v-1l-2-2v-2h-1l-1-1-1-1v-2l-1-1h-1v-4h-2v-2l-1-1v-1l-1-2-1-1v-2l-2-1h1v-1h-1v1l-2-1-1-1v-4 1l-1-1-1-1-1-1-1-1v-3h-1l-1-3-2-2-1-1-1-1 1-1-1-1h-2v-1h1l-1-1v1h-1l1 1v2h1l-1 1h-1l1 1 1 1-1 1 1 1v5h1v2l-1 3 1 4v3l-1 2v4h-1v1l1 4v7c-2 0-2 1-2 2v5h1l-1 2v3l-3 1h-2v-1h-1l-5 1h-1l-1 1h-4l-1-1h-7l-1-2v-4c-2 0-2 0-1-1h1Z" id="letter-6"/>
    <path d="m48 337 1 1 2-1h-3Zm1-2h-2 2Zm16-34-1-3v-1l1-1v-1h-1v-2l1-2-1-1v-7l1-1v-6l1-3v-1h-1v-36l-1-3-2-4v-2l-1-2v-1l-3-2-3-3-4-2h-4v-1h-4l-4 1v1l-2-1h-2l-2 1-1 3v2l1 5 1 3-1 2v2l-1 1 1 2v14l1 3v2h-1l2 2-1 2-1 3 1 1v3l1 1h-1v5l1 3-1 1v3l1 2v4l-1 1 1 2-1 2 1 1 1 2v4l-1 3 1 2 1 6v2l-1 1 1 4v1l1 1v1l-1 2v12l1 1v1h1l7-1 3-1 4-1 3-1h1l3-4v-1l2-4 1-4 1-3v-3l1-4v-8ZM4 353v-8l1-3-1-3v-13l-1-2v-1h1v-7l-1-1v-2l1-1v-10l-1-4v-15l-1-3 1-2v-10l-1-3 1-4-1-2v-16l-1-2-1-5v-6l1-2v-3l-1-3 1-4-1-3v-5l1-2-1-3v-4h1v-4l-1-1v-3h2l1-2 1-1 5-1h5l1-1 1 1h19l1-2 2 2h1l4 1h2l3 1h12l1 1h1l5 1 3 2 4 2h1l2 1 2 1v1c2 0 4 1 4 3l2 4 3 5 1 1 1 1 1 1-1 2v2l1 2 1 4 1 2 1 2-1 1v1l1 6 1 3 2 2-1 1v1l-1 1v1l1 2v8h-1c2 1 2 2 2 4l-1 2v4l1 4-1 5v2l-1 3v1l1 3-1 2v8l-1 3v1l1 2v7h-1v2l1 3v1l-1 1-1 2v4l-1 1-1 5v1l1 1h-1v3l-1 3-2 3v1l-1 3-2 2v2h-1v1l-1 1v1l-4 4v1l-1 1-1 1-2 2h-1l-4 3h-1c-1 2-2 2-4 2l-3 1a18 18 0 0 1-9 0h-2v1h-2v1h-6l-3-1h-1l-10 1-2-1-6 1h-9l-3-1c-2 0-4-2-4-4v-4l-1-3Z" id="letter-5"/>
    <g id="letter-4" transform="translate(405 4)">
      <path d="M83 87v-6h-1v-1h1v-1h-1v-1h-1v-1h-1v-1h-1l-1-1h-7l-1 1v-1h-1l-1 1-1-1h-1v1l-1-1h-1l-1 1h-1v-1h-1l-1 1v-1l-1 1-1-1v1l-1-1v1l-1-1v1h-1l-1-1h-1l-1 1-1-1h-1v1h-1v-1l-1 1h-1v-1l-1 1v-1l-1 1-1-1v1l-1-1-1 1H13v1l-1-1h-2v1H5l-1 1H3v1H2v1H1v3l-1 1h1l-1 1v4h1l-1 1v2l1 1H0v1h1l-1 1v1h1v5l1 1-1 1h1v1h1v1h1v1h11v1l1-1v1l1-1 1 1h16v-1h1v1h1l1-1v1h1v-1l1 1h1l1-1 1 1h1v-1h1v1l1-1 1 1v-1h1v1l1-1 1 1 1-1h2v1h1v-1h24l1-1 1 1v-1h1v-1h1v-1h1v-1l1-1v-8l-1-1h1v-2h-1l1-1-1-1h1v-1Zm-57-8v3l-1 1h1v5h-1v2h1v1h-1v1l1 1h-1l1 1v1h-1v2h1v1h-1v7-26l1-1v1Zm10 4 1 1h-1v1l-1 1h-1l-1-1h-1v-3l1-1h3v2Zm1 17v1h-1l-1 1h-1v-1h-1l-1-1v-2l1-1h3v1h1v2Zm17-18v2l-1 1h-3v-1l-1-1v-2h1l1-1h2v1l1 1Zm0 17v1l-1 1h-3l-1-1v-2l1-1 1-1h1v1h1l1 1v1Zm6-20v25h-1V90l1-1-1-1v-5l1-1-1-1h1l-1-1v-2h1v1Z" id="Fill-38"/>
      <path d="M7 110h7l3 1 1 1h1v-1h11l2 1 3-1h5v1l1-1-1 4v4l1 1v3l-1 1h1v1c-1 2-2 5-1 7l-1 1v4l-1 1v3l-1 2v2l-1 2v2h-1v1l1-1h5c1-2 3-2 4-1h3c0-1 0-1 0 0h3l1 1 1-1h4l1 1h3v-2l1 1v1h3l4 1h1c1 0 1 0 0 0v-1l1-2 1 1 1 1h4l1 1 1-1 2 1h1c2 0 3 1 3 2l1 2v10l-1 2v1l1 1-1 3-1 3-1 3h-3l-3 1h-3v-2l-1 1h1c-1 2-1 2-2 1v-1h-1v1h-2l-3-1h-3l-1-1h-6l-1-1H45l-2-1h-4l-2 1c0-2-1-2-2-1h-7l-1-1H16l-4-1h-1l-2-1H7c-3-1-3-2-2-3 1 0 1 0 0 0l-1-2v-3l-1-2 1-1v-5l-1-2v-20l-1-2h1l1-1-1-1v-3l-1-2c2-2 2-3 1-3v-4l1-2-1-2 1-3c0-1 1-2 3 0Zm72 42v1h1l-1-1Zm-71-9H7l1 1v-1Zm-4-4H3v1h1v-1ZM19 1l1 1h2l3 1 1-1h2l1-1c0 2 1 2 1 1h7l3 1V2h1l2 1V2c0-1 0-1 0 0l1 1v1l2-1h1l3 1 1-1 1 1h5l2 1h1V4h2l4 1 2 1h3l1 1 1 1 1 2 1 1 1 3-1 3v14l-1 1 1 1v1l-1 1h-1l-4 2-4 1h-1l-1-1h-5l-2 1-6 1-1-1h-4l-4 1-1-1-2-2-2 1-1 2 1 1v2l1 2-1 2v2c1 2 1 4-1 6l1 2v1l-1 1v4l2 2h-1c-2 1-2 2-1 2v2l-1 1 1 1 1 1h-6l-3 1h-2l-1-1h-9c0 1-1 2-2 1l-1-1H4l-1-1v-3l1-1v-1l-1-1H2l1-1 1-1-1-1v-3l-1-2v-1l2-2v-2l-2-1 1-1V39h1V12l1-2V9L4 8l1-1V4l1-1 1-1 1-1c0 1 1 2 2 1l2-1h7Zm16 61v1c-1 0-1 0 0 0v-1Zm0-26 1 1v-1h-1Zm-2-1v1h1l-1-1ZM5 33H4h1v1-1Zm65-1h-1l1 1v-1Zm0-3v1-1ZM3 25v1-1ZM72 8v1h-1 1V8ZM10 6v1-1ZM6 0v2L5 0h1Z" id="Combined-Shape"/>
    </g>
    <path d="M387 92h-1v1l1-1Zm-3 44 1-1h-1v1Zm0-99v-1 1Zm-14 21 1 1 1-1h-2Zm-1-45h1-1Zm-1 134 1 1v-2l-1 1ZM358 28v1l1 2v-3h-1ZM339 7l1 1V7h-1Zm-11 35v-1 1Zm-2 5h1v-1l-1 1Zm-4 134 1-1v1h-1Zm-16-33 1 1v-2l-1 1Zm-1-31v-1h-1v1h1Zm87-21-1 4 1 1-1 1v6l-1 4v1l1 2v1l-1 2v1h1l-1 1v1l1 1v1l-1 1v2l1 2-1 3-1 1 1 1 1 1-1 1-1 1v2l1 1-1 1 1 2v1l-1 4-1 5v6l-1 2-2 2-1 2-1 2-1 2-1 1-1 1v1h-2l-1 2-1 1-1 1-1-1v2h-1l-1-1v1l-3 1-1 1-2 1h-2l-2 1h-3l-2 1h-2l-2 1-3-1v1h-1v-1l-1 1h-6v2l-1-1-1-1-1 1h-1l-1-1v1h-2l-2-1h-2l-1 1-1-1h-2l-2-1-1-1c-2 0-4-1-5-3h-1v1l-1-1-1-1-2-1-2-1-1 1v-2l-2-2-1-1v-1h1v-1l-1 1-1-1-2-1v-1l-2-1v-2l-1-1v-2h-2v-1l1-1h-1l-1-1 1-1-1-1-1-3-2-2v-1h1l1-1h-1v-2l1-1h-1l1-1v-1l-1-2v-2h1v-1l-1-1v-3l-1-4 1-4v-1l-1-1 1-1 1-3v-4l1-2-1-1 1-2V97l-1-2v-2l1-4-1-1v-1l1-1v-3h1l-1-3v-2l1-1v-1l-1-6v-5l1-2v-5l1-3 1-2-1-1 1-1-1-1 1-1v-1l-1-1v-1l1-1 1-1v-2h-1l1-1 2-2-1-1 2-3v-1h-1l2-1-1-1v-1l3-6 1-1h1l-1-1 2-2 1-2v-1l2-1 1-1v-1h1v-1h1-1l2-1h1l1-2h1l3-2h1l2-1c2-2 4-3 7-3h6V4l1 1 2-1h3l2-1h2l-1 1h2l4 1h5l1 1v1h5l5 2h1v1l-1 1h1c2 0 4 1 6 4h2c1 0 2 1 2 3l2 3 2 4-1 1 1 1v1l2 5v5h1-1v1l1 1v1l1 1v3l1 2v3l-1 2 1 1-1 1v1l1 1-1 1v1h1v2l-1 1c-2 0-3 1-3 2l-2-1h-1l-2 1-1-1h-3l-1 1-1-1h-1l-1 1-1-1v1h-1l-1-1-1 1h-1l-1-1h-3l-4 1-2-1h-1l-1 1-1-1v-1h-1v-2l-1-1v-5l-1-3 1-2-1-1v-1h1l-1-1v-4l-1-1v-2l-1-1-1-3-5-1h-2l-2-1-1 1-2 1-2 2v1h-1v3l-1 2-1 2h-1v1h1v1l-1 1-1 1v7l-1 2v1l1 2-1 2 1 1-1 1h-1l1 2v7l-1 1 1 1-1 1v3l1 2h1l-2 2v2l1 2-1 5v12h1v2l-1 1v3l1 3v2l-1 1 1 1v2l-1 1v1l1 1-1 1 1 1v4l-1 2 1 4v8l1 2-1 1 1 1h1v1h-1v1l1 1v1l1 1v-1l1 1c0 2 1 3 2 3l1 1c0 2 1 2 2 2h1l2-1h3v-1h2l1 1c3 0 5-1 6-3l1-1 2-2v-1l1-7v-5l-1-1v-6h-1l1-1v1h1v-1h-1v-1l1-3v-2h-1v-1l1-2-1-2v-1l1-3-1-2-2-1-2 1-2-1h-4l-1-1h-1l-4-2v-4l-1-1v-7l1-1v-1l-1-1v-2l1-1-1-1v-2l1-1-1-1v-2l1-2 1-1 2-1h11l1 1 1-1 1 1 2-1h2l3 1h1v1l1-2h1l1 1 1 1h2l2-1h7l1 1v-1l2-1v2h3l1-1 1 1 1 2v2l1 2-1 2-1 2 1 1 1 4Z" id="letter-3"/>
    <path d="M286 167Zm-6-4Zm-1-28h1-1Zm-1-2 1 1v-1h-1Zm0-6h1v1-1h-1Zm-2 48h1-1Zm-2-53h1-1Zm-3-14v-1h-1l1 1Zm0-12h-1 1Zm-2 1Zm0 6h1-1Zm-11-16h-1 1Zm-2 31v1h1l-1-1Zm-4 1v1h-1l1-1Zm-14-33v-1 1Zm-1-47v1-1Zm-9 91Zm-2-112h-1l-1-1 2 1Zm-5 22h-1 1Zm-9-39v1-1Zm39 119-1-3-1-3-2-4-1-3-1-3-2-3v-4h-1l-1-2-1-1v-1c0-1 0-3-2-4v-1c-2-2-2-3-2-5v-1l-1-1-1-1-2-4-1-4v-2h-1l-1-2-1-1v-2l-1-1-2-2v-1l-1 1v1l-1 1v3l-1 1h-1v3l1 1h-3v1l1 1v3l-1 3v2l-1 3v2l-1 1-3 11v1h1v1l-1 1-1 1v6l-1 1v3l-1 2v3c0 2 2 3 5 3l2-1v-1h1v1h1v1l2-1 1-1h1v1l1 1v-1l1-1 1-1v2h2v1l1-1h1v1h12l1-1h1v1l1 1 1-1 1 1 3-1v-1Zm-40-66Zm0 83v-1 1ZM210 4Zm-2 2 1 1h1l1-1V5h-1l-1-1h-1v2Zm-2 83Zm-5-44v-1l-1 1h1Zm21-11v-2 1-2l1-1v-1h-1l1-1v-2 1l1-4c0-1 0 0 0 0h1v2l1 1h-1 1v2h2l5 10 4 11 4 11v1l1 1v2h1l2 4 1 3 1 3 2 3 2 4 1 2v1l2 4v3l1 2 2 6 4 6 3 7v2l1 1h-1l1 1v1l2 8 3 7-1-1-2-1h-8l-5 1v-1l-1 1h-1v-1l-1 1h-2l-1 1h-1v-1h-5v-1h-1v1-1h-4v1l-1-1h-1l-1 1h-5v-1h-1v1h-1c0-1 0 0 0 0h-1 1-5v-1l-2 1h-3l-3 1h-2l-1 1v-1h-1v1-1h-1l-2 1h-1l1-1h-3v1h-1l-2-1h-2l-2 1h-2v1h-1v-6l1 1v-2l1-1v-2l1-3v-1l1-2v-2h1v-3l1-4v-2l1-1v-3l1-1 1-2h-1l1-2 2-5v-3l1-1v-5l1-2v-2l1-2v-1l2-4 2-4v-1l1-5 1-4 1-5h1v-2l1-1 2-6v1l2-6 1-5v-1Zm-29 146v1h1v1h-1l-1-2h1Zm-10-7Zm-3-7Zm39-138-2 9-3 9-3 8c1 2 0 4-1 5v2h-1v2l-1 1v1l-1 2h1l-2 2-1 3-1 4-1 4v4l-1 1v3l-1 1h1l-1 3-1 1-3 11-2 10h-1v4l-3 10-7 29-1 1v2l-1 1v2h-1v2l-1 1v5l1 3 1-1h2v-2l1-1-1-1h1v-3c0 1 0 1 0 0h-1 1-1l1-1v-1h1l-1-1h1v-3l1-1v-1l1-3 1-3 1-1 1-3v-6l1-2v-2l1-1v-1h4l4-1 2 1h12v-1h9l2-1v1l1-1h3l1 1h3l1-1h19l1-1h1l2 1h4v-1h4l1 1h1l2-1 2 6 3 7a64 64 0 0 0 3 8v1l1 2 1 1v1c-1 0-1 0 0 0v2-1 3h1c-1 0 0 0 0 0v2h1v2l1 1h-1l1 1v1-1 1h1v1h2l2 1-1-1 1-1-2-3v-3h-1v-2h-1l1-1h-1v-2l-1-2v-2l-1-3v-1l-2-2v-2l-2-5-3-5-1-2v-2l-4-9v-2l-1-5-1-3v-3l-2-5-2-3v-1l-2-4-3-3-1-5v-1l-1-1v-1l-1-2v-1h-1 1l-1-2-1-2v-2l-2-2h1v-1c-2-1-3-4-4-8l-1-1-5-11v-2h-1v-2l-2-4-1-2h1l-1-1 1 1-1-1-1-2v-2h-1v-1l-2-4-1-1h1c0-2-1-3-2-3l-2-3-1-2-1-1v-3h-1v-1s1 0 0 0c0-1 0-1 0 0v-1h-1v-1h-1 1v-1h-1v1-1h-1l-1-1h-1c-2 3-4 6-4 11Zm-42 152h1-1Zm79-36h-1l-3 2-2-1h-2l-1 1h-9l-1-1h-2l-2 1-3 1-1-1h-1l-2 1h-3l-1 1h-13l-1 1-3-1-1-1h-1v6l-1 1-1 3v4h-1l-1 1v1h1v2l-1 1v1l-1 2-1 3-1 3-1 4-2 1h-2l-2-1-1 1h-1l-2-1v2l-1-1-5 1-4-1-1 1-2-1h-4l-1-2-1-2 1-2v-2l1-2v-3l1-2v-4l1-1 2-5v-2l2-5 1-5-1-2 2-3v-1l-1-2 1-2 1-1v-2l1-1 1-1-1-1-1-1 1-1 1-2v-4l1-2 1-2v-4l1-1-1-2 1-2 2-7 2-6v-2l-1-1v-2h1v-1l1-2v-1h-1l1-1v-2l1-1v-2l1-2v-4l1-1 1-1-1-2v-1l1-1v-2l1-3 1-2v-1l1-2v-2l1-2v-2l1-1v-5l2-4-1-2v-2h1l-1-2 1-1v-2l2-2-1-2v-1l1-1h1l1-4-1-1v-1l1-1 1-1h-1v-1l1-1v-1l-1-1v-1l1-1v-1h-1V9l2-3V5l1-1V3l1-1 1-1 1 2h1l1 1 2-2h5V1h1l3 2h9l3 1V3l1-1v1l1 1 1-1h1v1h1V3l1-1h4l2 2h1v1l-1-1-1 2 1 1h1v1l1 1v1l1 3 1 3v1l1 2h2v4l-1 1v1l1 1v-1h1v3l1 2-1 2v1h1l1 1c0 3 1 5 3 8l1-1v1h-1v2l1 1h-1l1 2 1 2-1 1 1 1v1h1-1v3l1 2v3l1 1 1 1 1 1v1l-1 1 2 4 1 4 1 1h-1l-1-1-1 1v1l1 1h2v1l-1 1h1l1 1v2h-1v1l1-1v1l2 6v4l-1 1 1 1c2 0 2 1 2 2l2 5 1 3 1 3 1 1v1h-1l1 1h1v1l-1 2 1 1 1 2 1 1v2l1 3v2l1 1 1 3 1 1-1 1v1l1 5 1 1h-1v1h1v-1l1 1v1l1 2v4l1 3 1 1v1l-1 1 1 1 1 1v1h1l-1 1 1 2v1l-1 1 2 2 1 1v5l1 2-1 1-1 2 2 1h1l-1 1 1 5h-11l-1-1h-2l-1 1h-1l-1-1-1-1-1-1-1 1v1l-1 1-1-1v-3h-2l1-1h1l-1-1v-1h-1l1-1-1-1h-1v-3l-1-2-3-6-1-1-1-2v-1l-1-3v-2h-1l-1-1 1-2-1-1-1-2h-1l-1 1-2-1Z" id="letter-2"/>
    <path d="M171 45v2l-1-1 1-1Zm-3-1v-1h1v-1l-1 1v1Zm-12-33v1l1-1h-1Zm-40 156h1l-1-1v1Zm-4 8h-1v1h1v-1Zm-4-24h1v1l-1-1ZM81 13v-1h1-1v1Zm0 5 1-1h1v-1h-1v-2l2-1h4v1h1v-2h2l1 1v-1h2v1h1l2-1h11l4 1 1 1v-1l1-1 3 1 4 1 2-1h3l4-1h3l1-2h1l1 2h4l1-1 1-1h1l2 1h1l6-1h9l1 1 1 1 2-1h1v2l1 2 1 1 1 1-1 2v3l1 1 1 4-1 4 1 1v1l-1 1v1h1l1-1 1 1-1 2-1 1 1 3 1 1-2 2-1 1v2h-1l-2 1-1 1h-1v-1l-1-1-1 1h-3l-3 1h-4l-2 1-4-1v1l-1 2h-1l-1-1h-1l-2 1h-1v1l2 5-1 3v3l-1 1v1l2 7v8l1 2-1 3v1l-1 1v1l1 1v4l1 5 1 1-1 1v3l1 1-1 1-1 4v1l2 7 1 2a12 12 0 0 0-1 6v2l1 1-1 3v1l1 1-2 9v2l1 1-1 1v2l2 4v6l-1 3v2l1 8-1 1-1 5-2 2h-2l-2 1-1-1h-2l-2 1h-12l-2-1-1 1-1 1h-1l-2-1-1-2-1-1v-9l-1-1 1-2v-3l-1-3v-3l-1-1 1-2 1 1v-1h-1v-2h1l-1-1v-4l-1-2v-2l1-1-1-3v-13l1-5v-19l-1-1 1-1v-1l1-1v-1l-1-1 1-1v-1l-1-5 1-5v-2l-2-7 1-3v-1l-1-1v-2l-1-3 1-1V51h-1l-1-1 2-1 1-1-1-1h-1l-1 1h-1l-1-1-1 1-1-1h-1l-1 1-1-1h-1v1l-1 1-3-1-4-2h-1l-2-2v-1h-1l-1-3-1-2v-1l1-3-2-2h-1l1-1 1-3-1-2v-1l1-3v-1c0-2-1-2-2-3h-1Z" id="letter-1"/>
  </g>
</svg>
