<svg xmlns="http://www.w3.org/2000/svg" viewBox="0 0 800 368">
  <g id="Artboard" fill="currentColor" fill-rule="nonzero" stroke="none" stroke-width="1">
    <path id="Fill-1" d="M614 209v1-1Zm-25 6h1-1Zm-11-3 1 1v-1h-1ZM442 108h-1 1Zm-3 31h1-1Zm-42 9v-1 1Zm42-9h1-1Zm-58 34v-1 1Zm3-40 1-2v-4l1-1h1v1l1 6v8l1 3v2h-1v2-1 1l1 3v9h-1v18l1 1v8h1v1l1 4 2 7v1l2 2v3l2 2 4 1 2 1h1v1h4l2 1v-1h1l4-1 3-1 2-1 2-3 2-5v-2l1-3v-1l3-21v-1l1-26v-2l1-2v-3h-1v-11h2v28l-1 10v15l-4 19-3 6-1 3-2 1-7 4c-4 0-8 0-11-2h-1l-1-1 1 1-1-1-3-2-1-1-3-2v-1l-1-1-3-7v-3l-1-4-1-6v-1l-1-3v-5l-2-2v-1l1-2v-2l1-11v-9l-1-1h1v-1l-1-1 1-2-1-1-1-5v-3Zm40 77 1-1v1h-1Zm-21-7v1-1Zm-5-11v-1l-1-4v-4l1 1v-1h1v-1h1v-1h1-1 2v1h1v1h7v-1h2v-1h1v-1h1v-1 1h1v1-1 1h1v1h5l-1 1h1v4h-1v1l1 1h-1v4l-1 1-1 1-1 4-2 1h-1v1h-5v1l-1-1h-2v-1h-1l-1-1h-1v-2h-1l-2-2v-1l-1-1h-1v-1Zm23-11h-3v-1h-2v-1h-1v-1l-1-1v-1h-1v3h-1 1-1v1h-1 1-1v1h-2v1h-5v-1h-1v-1h-1v-1h-1v-1h-1v1h-1l1 1h-1v1h-1v1h-1v-5l-1-1 1-2v-1 1-1h2v-1h1v-1h1v-1 1h1v1h1v1h1v1h6v-1 1-1h2v-1h2l-1-1h2v1h1v1h2v1h3v1l-1 1h1v2h-1l1 1v2Zm-30-35Zm-12-8v13h-1v1l1 1-1 2h1v2l-1 2 1 2v4l-1 1h1l-1 1 1 1v2h-1l1 1v1h-1l1 1v1l-1 1 1 1v4l-1 1 1 1h-1l1 1v1l-1 2 1 2v7l1 4v1l1 1v2l1 1 2 4v1h2l-1 1 1 1 1 1 1 1 1 1 2 1 1 1h1v-1l1 1 2 1 6 2h12l4-1 2-1 3-1 1-1h1l2-1h1v-1h1v-1l2-2 1-1v-1l2-1 1-2 2-6 1-2v-2l1-1 1-1h-1v-1h1l-1-2v-5l1-1v-6l-1-1 1-1v-1l-1-1v-1l-1-2v-1l1-2v-1l-1-1 1-3v-2l-1-1v-1l1-1v-1l-1-1v-3h1l-1-1v-3l1-2v-1l1-1-1-2v-5l1-1h-1v-1l1-1v-1l-1-1v-5l-1-2v-1l1-1-1-1-1-1v-1h-15l-1 1v1h-1l-1 2v1l1 1-1 1v2l1 1h-1v1h1v1h-1l1 1v3h-1l1 1v7l1 1-1 1v14l1-1v2h-1v1l1 1-1 1v8-1h-3v-1h-1v-2h-1v-2h-1v1h-1v2l-1 1h-1v1h-3v1-1 1-1 1h-1l-1-1h-2v-1h-1v-1h-1v-2h-1v-1h-1v2l-1 1h1-1v1h-1v1h-1v-3h-1v-2l1-1-1-1v1h-1l1-1v-2l1-1h-1v-2l1-1-1-1 1-1-1-1v-3h1v-5h-1l1-4-1-2 1-1v-1l-1-3v-7l1-3v-2l-1-4v-1l-1-1h-1l-1 1h-3l-1-1-1 1h-1l-1-1h-1l-1 1h-2l-1-1h-1v1l-1 2v10h-1v1l1 3v2Zm-47 78v1h1v-1h-1Zm-18-2h1-1Zm15-36h2v-2h2v-1h1v-1h1l1-1h1l1-1h1v-1h1v-1l-1 1v-1 1l-1-1h-2v-1h-1v1l-1-1h-5 1l1-1 1-1h1v-1h2v-1h1v-1h1v-1h2v-1h1v-1 1l1-1h-9v-1h1v-1l1-1v-1h1v-1h1v-1l1-1 1-1 1-1v-1h1v-2h1v-1h1v1h1v2h1v1h1l1 1v1h1l1 1v1h1v1h1v1l-1 1h-3v1h-2l1 1h1v1h2v1l1 1 1 1h2v1h1v1h1v1h1-2l-1 1-1-1v1h-5v1h-1v-1l-1 1h1v1h1v1h1v1h1v1h1v1h1v1h2v2h1v1h1v1h1v1l-1-1v1h-1v-1 1l-1-1v1-1h-1l-1 1v-1h-6v1l-1 1v5h-1l1 1h-1v4l-1 1-1-1h1v-11h1-1v-1 1l-1-1h-4v-1 1l-1-1h-3v-1h-3Zm24 23h1v1l-1-1Zm0 1h1-1Zm1-53h-1v-1 1h1Zm-7-28h-1 1Zm-4-2v1-1Zm-13 2v-1h-1 1v1Zm27 48 1-1v1h-1Zm13 48h1-1Zm3-7v-1 1Zm-60 4-1 1 2 3v1l1 1h5v1h2v-1h1v1h1l2-1h2c2-1 3-3 3-5l1-1v-1h1l-1-1 1-1v-5l1-1h4l2-1 3-1h5v-1h1l1 1 1 1h1l1 1-1 1v1h1v2l1 2v1h-1v1h1v1h-1l1 1v1c1 1 2 1 2 3l1 1 2 1 1-1 1 1h2l2 1 1-1 1 1 3-1h3l1-1v-1h-1l1-2-1-1v-1l1-1v-1h-1l1-1h-1l1-1v-1l-1-1v-1l-1-1v-2l-1-1v-3l-1-1 1-1-1-1h-1l1-1v-1l-1-1h2-1l-1-1h1v-1h-1v-5l-1-1 1-1v-1l-1-2v-1h-1v-1l1-1v-1h-1v-3l-1-1v-3l-1-1h-1l1-1v-2l-1-1-1-1v-1h1l1-1v-1l-2-2-1-1v-4h1-1l-1-1v-1h1l-1-1v-1h1l-1-1v-2l-1-1 1-1-1-1h1v-1h-1v-1h-1v-1l1-1-1-1v-1h-1 1v-2h-1l-1-1v-2l-1-1v-2h-1v-2l-1-4h1l-1-1h-1v-1h1v-1l-1-1v-3h-4v1h-1l-1-1v-1h-1l-1-1h-3v1l-1-1h-5l-1-1v1l-4 1h-3v1h-1l-1 2v4l-1 1v6h-1v1h1v2l-1 1v4l-1 1 1 1h-1v2h1l-1 1v3h-1v3l-1 1 1 2-1 1v5l-1 1v4l-1 2 1 1-1 1h1l-1 2-1 1v1h1v1h-1v7l-1 1v1h-1v2h1l-1 1v7l-1 1v3l-1 2h1v1h-1l1 1h-1v1h1l-1 1v2l-1 2 1 1-1 1v5Zm51-105-1-1v1h1Zm-54 28Zm0 1h-1 1Zm-87 65Zm10-37v8l-1 1 1 1v3l-1 1 1 1v9l-1 1v2l-1 2-1 3v1l-2 2h-1l-1 1h-2l-2 1-5 1v-1l-1-1h1l-1-2h1v-1h-1l1-2-1-2 1-1v-1l-1-1v-7l-1-2 1-2v-2l-1-1v-17l-1-1 1-1v-1l-1-2h1v-1l-1-2v-7l-1-1v-2l1-2 1-1-2-1v-7h3l1 1v-1h3l2-1 1 1h2l2 1 2 2 2 1v2l1 1v3l1 2v22Zm-10 39 2-1-1 1h-1Zm29-47-1-2 1-1v-3l-1-3 1-1v-1l-1-1v-2l-1-4v-3l-2-3v-4h-1v-1l-2-3-1-3c0-1-1-2-3-2l-1-1h-1l-3-1-2-1-3-1h-1l-5-1h-2v1l-1-2h-5l-1-1-1 1h-11l-1-1-1 1h-3l-3 1-1 2h-1v1l1 1v2h-1v3l1 1-1 2v3l1 2-1 2 1 2v2l-1 1v4l1 2v2l1 1v4h-1v5l1 1-1 2 1 1v34l1 1v1l-1 1 1 1v4l-1 1 1 2v4l-1 1 1 1v1h-1l1 2v2c0 2 1 3 2 3h25l1-1h8l3-1v-1l2-2h1l1-1 1-1 3-3v-2h1v-1l1-1 1-2v-1l1-2v-2l1-1v-2l1-2v-3l1-2v-16l1-2-1-1v-1l1-2v-10Zm26-44h-1 1Zm10 76v-1 1Zm-8-41h-1 1Zm4-16-1-1-1 1h2Zm11-1-1-1 1 1Zm3-2v1h1v1h1v2h-1v1h1l-1 1-1 1-2-2-1-1v-1l-1-1v-1h1l2-1h1Zm-4 24v1h1v3l-1 1h-2l-1-2v-2h1v-1 1-1h2Zm3 7h1-1Zm1-13v-2h2v-1h1l1-1 1 1 1 1h-1 1v1l-1 1h1v2l-2 1h-1l-1-1h-1v-1h-1v-1Zm3-23v1-1Zm-11 16v2l-1 1 1 1-1 1v1l-1 2h-2l-6 1-1-1h-2v-8l1-2v-1h-1v-6l1 1 1-1h2v1-1h5l1 1v1h-1 1l1 1v2h1l1 2v2Zm-2-16-1 1h-1v1h-1l-2-1-2-3 1-1h1l1-1h2l2 4Zm-10 50 1-1v-1h2v1l1 4h-1v1-1 1h-2l-2-1-1-2 2-1Zm-2 8h-1 1Zm6-22v1h-2l-1-1h-1v-3h1v-1l1-1h2v2l2 1-2 2Zm1 4h1-1Zm5-14v-1 1Zm-14-25-1 1h-2l-1-2h-1v-2l1-2h2v-1h1v1l1 1v4Zm-5 9 2-1 1 1 1 2v1l-1 1v2h-4v-1l-1-1v-2l2-2Zm-2 17h1v-1l1-2v1-1h3v1h-1 1l1 1v2l-1 2-2 1v-1h-3v-3Zm0 56h3l1 2v2l-1 2h-4v-1l-1-1v-2h1v-2h1Zm4-9h-4v-5l1-1h3l1 2 1 1-1 1-1 2Zm1-15-2 1h-2v-2h-1v-3c1-1 1-2 3-2l2 2 1 1-1 3Zm1-14-1 1h-1c-2 0-3-1-3-2v-3l2-2 2 1 1 1 1 2-1 2Zm1 46Zm11-28h2v-1l-2-1 1-1h1v-1l2 1 1 2v2h-2 2l-3 1-2-1v-1Zm7 11 1-2v-1h2l2 1v3l-1 1-2 1v-1 1-1h-1l-1-2Zm6 9v-1h1l1-1h1l2 2-1 1-1 1h1-1v2h-2l-1-2v-2Zm7-1v-1 1Zm0-73Zm-8-13v-1h-1l-1-1-2-1h-2v-1h-3l-1-1v-1h-9l-1-1h-11v-1h-2l-1 1v-1l-1 1h-1v1h-1v2l1 1-1 2v4h1v4h-1l1 2-1 1v1l1 1v3l-1 1v4l1 1v1l-1 1v7l1 1v2l-1 1v3h1v1l-1 1v1h1l-1 1v28l-1 2v1l1 1-1 2v21l1 2h14l1-1-1-1 1-1v-2h-1l1-1v-2l1-1v-3h-1v-3l1-1v-3l1-1-1-3v-2l1-1h-1v-4h-1v-2h1-1v-2 1h2v1l1 1 1 1 1 2v2h1v1l1 1v-1 3h2l1 1v-1 1l1 1v3h1v2h1v2l1 1h1l1 2h1v2l1 1v1l1 1v2h1l2 1 1-1 1 1 1-1 1-1 2-2h1v-1c1 0 1 0 0 0l1-2 1-1 1-1h-1v-1h1v-3l-2-2v-1l-1-1-2-1v-2h-1v-1h-1v-1l-1-1v-1l-2-3v-1l-1-1-1-1-1-1v-1l-1-1v1-2l-1-1h-1l-1-2h-1v-1c1 0 0 0 0 0l-1-1v-1l-1-1-1-2-1-3h-1l-1-2-1-1v-1h6l3-2h1l1 1c2-1 4-1 5-3h2l1-2v-1h1l1 1v-1h1v-2h1v-1h1v-1l1-1v-2l1-1 1-1v-7l1-2v-1l-1-1v-6l-1-1v-1l-1-1-1-2-1-1v-1h-1l-1-2-2-1-1-2h-1l-1-1h-1ZM296 7V6v1Zm17 84Zm36-66v1h-1l1-1Zm-8-19Zm-23 94h-1 1Zm-4 5v1-1Zm36-81-1-1 1-1v-2 1h-1v-3l1-2-1-3-1-1v-1l1-1V9h-1l-1-1V6h-1l-1 1V6l-2-1h-1l-3 1h-6V5l-1 1h-3v1-1h-1V5v1h-1l-1 1h-4l-1 1h-3l-2-1h-1v1l-3-2h-6l-1 2h-1V6h-1l-1 1v1-1l-1-1v2h-1V7l-1 1h-1V7l-1 1-1 1h1v1h-1l1 1 1 1v1l-1 2v1l1 1-1 1v1l1 2v3l1 1 1 1v1l1 1h3l2 1v-1h2l1 1v-1h1l1 1 1-1 1 1h-1l-1 1h1l1 1h-1v1l1 1-1 3v5l1 1v1l-1 2 1 4v23l-1 4v5l1 2v3h-1v1l1 1v5-1l-1 1 1 1v13l1 1h1v1h1v1l1-1 1-1 1 1 1-1 2 1h4v-1h6l1-1v-3l1-1-1-6 1-1v-4l-1-2v-4l1-6h-1v-1l1-2-1-1 1-4-1-1-1-5 1-2v-5l-1-3v-4l1-2-1-1v-5l-1-5 1-1v-1h-1 1v-2l-1-4h2v-1l1 1 1-1v-1l3 1 1-1h6l1-1v1h1l1-1h1v-1l1-1v-2Zm0 3v1-1Zm53-2v-1 1Zm-8-23v1-1Zm21 94v1-1Zm-26-73v1-1Zm-9-4Zm-1 5Zm22 47h-1 1Zm-3 1v-1 1Zm-1 0h1-1l-1 1h-2v-1h-6l-2 1v-1h-3v-1h-1v1h-1v-1l-1 1h-2v-1l-1 1h-1l-3-1v-2l1-2v-1l1-1-1-1 1-1v-4l2-6v-2h1v-3l1-2v-2h-1v-1h2l-1-1 1-2v-2l1-1 1-1v2l1 1 1 2 1 1v1l1 2 1 2 1 2v1l1 2v1h1v3l2 1v1l1 2 1 3v1l1 2 1 3v1l1 2Zm-8-21v1-1Zm19 28h1l-3-9v-1l-1-1v-1l-5-11v-2l-1-1v-1l-1-1v-1l-1-1-1-3-1-2-1-1v-3 1l-2-3h1-1v-2c-2-1-2-4-3-7l-3-7-3-5-1-1v-2h-1l1-1h-1l-1 3v5l-1 3-1 4v-1l-2 3v2l-1 3-1 2v4l-1 3-1 2h-1v4l-1 1v1h1-1v2l-1 1v1l-1 3c0-1 0-1 0 0v2l-1 1 1 1-1 1v1l-1 2v3l-1 1v3l-1 2v1h-1v3h2l1-1h1l2 1v-1h2v1l1-1h1v1-1 1l1-1h3v-1h5v1-1h3l1 1v-1h9v1h1v-1h11l1 1Zm11 24 1 1-1-1h-2v-1h-1 1v-1l-1 1v-3h-1v-3c-1 0-1 0 0 0v-1l-1-1v-1l-1-1-4-12h-19l-2 1h-3v-1h-2l-1 1v-1l-1 1h-4 1-3l-4 1h-1l-2-1h-3l-1 1h-2v2l-1 1v2l-1 3v1l-1 2v3l-1 1v2h-1 1l-1 1h1v1h-1 1v1l-1 1v1h-2l-1-1 1-2v-4h1v-2l1-1c3-8 5-15 6-23v-1h1-1v-1h1l4-16h-1 1v-1 1-5l1-3 1-2 1-1v-2l1-1v-3h1l1-4 4-15v-1c0-3 1-5 3-6l1 1h1-1 1v1c1 0 0 0 0 0h1v1l1 2 1 1 1 2v2l1 1 1 2v1l1 1v2-1 1-1l2 4v2l3 7h1v1c0 3 2 4 3 5h-1l1 2 1 3c0 1 0 1 0 0l1 1v2l1 1v3l2 2h-1c2 0 2 1 2 2v1l2 2v3l1 1v3l1 2h-1 1v1l3 7v1l2 3 1 3v2l1 1v3h1-1l1 2v1h1-1 1v1h1v2l1 2-1 1Zm-4-22h-1 1Zm-1-1Zm0-3v-1 1Zm-2-4h-1 1Zm-3-9Zm0-6v-1 1Zm-1 4Zm0-4Zm-26-48v1l-1-1h1Zm-8-7h-1l-1 1V2h1v1h1Zm-7 23Zm46 79Zm-60 3Zm71-1-1-2v-1h1-1l-1-1 1-1v-2h-1 1v-3h-1l-1-1v-1l1-1h-1v-2l-1-1v-3l-1-1v-4l-1-1v1h-1l1-1-1-1v-4h-1v-2l-1-1v-4h-1v-1l-1-2 1-1h-1v-2l-1-2v-2l-2-3-1-1h-1l1-1v-2l-1-1v-3h-1l1-2h-1v-2h-2v-1h2l-1-3-1-2v-2l-1-1h-1v-6h-1l1-1h-1v-4c-2-2-2-3-2-5l-1-1v-4h-1v-4h-1l-1-1V7l-1-2V4h-1l-1-1 1-1-2-1h-2v1h-2l-1-1v1h-3l-2-1v1l-1-1h-1l-3-1v1h-3V0v1l-2 1V1h-3l1 1-1 1-1 2v5l-1 1 1 1-1 3h-1v1l1 1-1 1-1 1v2h1-1v3l-1 2v1l1 1-1 1v2l-1 1v1l-1 2v1l-1 2v4l-1 1v2l-1 2v5h-1v4l-1 3-1 4-1 2 1 1-1 1v3l-1 2v2l-1 1v1l1 1h-1v2l-1 1v3l-1 2 1 1-1 2-2 4v1h1l-2 3v3l-1 1v3l-1 2v1l1 2h5l2 1 3-1h1v-1l1 1h3l2-1v-2l1-2v-2l1-1 1-1v-1h-1v-1h1v-3l1-2v-3l1-1 3 1h1l2-1v1-1h2l1 1 1-1h4v-1l1 1h1l1-1h14v-1l1 1h1v-1l1 1v3h2v1l1 2h-1l1 1 1 2 1 3 1 1v2l1 1h-1l1 1v1h-1 2l-1 1v1h2v-1h1l1 1h3l2 1 1-1 2 1h1l1-1Zm54-85h-1 1Zm-8 13h-1 1Zm-1-27h-1l1-1v1Zm-7 10v-1 1ZM452 4Zm-7 21v-1 1Zm-1 3Zm-12 62-1-2h1v2Zm-1-20h-1 1Zm38 18v1-1Zm9-7h1-1Zm1-25 1-1v1h-1Zm4-27v-5h-1v-5l-1-3-1-1h1-1l-1-3-1-2-1-1h-2l-3-3h-1 1V5h-1l-3-1h-3V3h-1l-2-1h-4V1v1h-7l-2 1-4 1-2 1-2 1-1 1-1 1h-1 1-1v1h-1v1l-1 1-1 1-1 1v2l-3 4h1l-1 1v1l-1 1v2l-1 1v7l-1 1v6h-1v3l1 3v2l-1 1 1 2h-1v22l-1 2h-1l1 1v1l-1 2 1 2v2l1 1v1h-1l1 2-1 1h1-1v1h1v1h-1l-1 1 2 1v2h1v1h-1 1v2h1v2l1 1v1h1l2 1h1-1v1l1 1 1 1v1h2l1 1 1 1v-1l3 2 1 1h1l1 1h2l1-1 1 1h2l1-1 1 1h1v-1 1h2l1-1 1 1v-2l2 1h1l1-1h3l3-1h1v-1h2v-1l1 1v-1h2v-1l1-1h1v-1l1-1 1-1 1-2v-1l1-1 1-1v-4l1-3v-7l1-1h-1v-1l1-2v-1l-1-2 1-1v-1h-1 1v-1h-1 1v-3l-1-1 1-2V50l-1-1v-2l-1 2h-2v-2l-1 1v1l-1-1-1-1-1 1h-1v-1l-1 1-1 1h-1l-1-1-1-1v2l-1-2h-14v2l-1 1-1 1 1 1h-1l1 1v10l1 2 1 1h2l1 1v-1h1l2 1h2v10l1 1h-1v-1 4l1 1v1h-1l1 1v1l-1 4v1l-1 1-1 1-3 1h-2l-1 1h-3l-1-1-1-1-1-1v-1h-1v-3h-1V72h-1 1v-4l-1-2v-2h1v-1l-1-1v-5h1l-1-1v-1l1-3v-1l-1-1 1-1v-1l-1-1 1-1v-1l-1-1h1V28h1v-2l1-1 1-1-1-1 1-1v-1l2-1 1-1h2l3 1 1 2 1 1-1 1h2l-1 2 1 1v8h1v2h19l2-1v-7Zm-2 90h1-1Zm-25 7Zm21 80v-1 1Zm1 0 1 1-1-1Zm11 9 1 1-1-1Zm9-78Zm1 5v-1 1Zm-4-8h1l1 1h1l1 1h1v1h-2l2 1h1-1l1 1-1 1h1-1v2h-2v-1h-1v-3h-1v-2l-1-1v-1Zm-3-11-1-1-1-1v-1h-2l-2-1-2 1-1-1h-2v-1h-1l-1 1h-10l-1 1v-1l-2 1h-2l-1 1-1 1-1 1h-2v2l-1-1v1l-1 1h-1l-1 2-2 1v1h-1v1l1 1-1 1v1h-1v4h-1l1 1h-1v2l1 1h-1v2h-1 1v1l-1 1v1l1 1v1l-1 2 1 1v2l-1 1v3l1 2v12l1 2h-1v5l-1 1 1 1v2h-1v5l-1 2 1 2v2l-1 1 1 2v3l-1 1 1 2v4l1 1v5l1 2h1v1l2 1v1l1 1 1-2v3h2v1-1h1-1l1 1 1-1v1h2l1 1 1-1 1 1h1l2-1h1l-1 1 1-1h1l1-1v-1h-1v-2h1-1l1-3v-1l-1-1 1-2v-2l-1-2 1-1v-4l-1-1 1-2v-3h-1l1-1-1-1v-2h-1l1-1v-2l-1-2v-3l1-1-1-2h-1l1-1v-3l-1-1h1v-2l-1-2 1-1 1-2-1-1v-1h1v-1l-1-2 1-2h-1 1v-2h-1 1v-5l-1-1v-1l-1-1 1-2v-1l-1-1v-1l1-2v-3l1-1v-2l1-1v-1h1l2-1h1v-1 1l1-1h5l1 1h2v1l1-1 1 2v1l2 1v2h1v7h-1v1l-2 2v1l-1 1-1 2-1 1v2l-1 1v3l-3 2v1l-1 2v2l1 1h-1l1 1v4h1l1 1v1l1 2h1l1 2h4l1 1h2l1 1h3l2 1 1 1v1h1l-1 1 1 1h1v3l1 2v1l-1 1h2l-1 2h1l-2 1v1l-1-2 1-1-1 1-1 2-1-1-1 1v1h-1l-2 1-1-1h-2l-1-1-1-1h-2l-1-1v-1h-1l-1-1-1 1v-1h-1 1l-1 1h1-1v1l-1-1h-1v1l-1 1v-1 3l-1 1 1 1-1 1v2l-1-2v1l1 1v1-1l1 1h-1 2l1 1 1 1v1l1 1 1 1v2l1 1h1v1h1l1-1 1 1 1-1v1h2l1 1h1v-1h7v-1l2 1v-1h3l1-1h3v1l1-1v-1h1l2-2h-1 1v-2l2-1v-1h1l1-1v-8l1-1v-2l-1-1 1-1v-2l-1-2v-7l-1-2-1-1-1-2-1-1h-3l-1-1h-3l-1-1-2-1h-1l-1-1-1-1-2-1v-5l2-2 1-1 1-1 1 1 1-1v-4l1-1v-2l1-2h-1 1v-5l-1-1 1-1h-1l1-1-1-1v-5l-2-1 1-1-1-1-1-1 1-2-1-1v-2l-2-1-1-1-1-1-1-1-1-1v1h-2v-1h-2Zm8 72v1-1Zm0 1v-1 1Zm-6-74 1 1-1-1h-1 1Zm-1-1v1-1Zm0 0-1 1h1v-1Zm2-118V2h-1l1 1Zm39 5V7v1Zm-1 11v1-1Zm0 3Zm-21 2h-1 1ZM497 6Zm-3 16v1-1Zm42-10 1-2-1-1V8l-1-1-1-1-2-1h-1l-3-1h-1v1h-1l-1-1h-8V3v1l-1-1h-1c0 1 0 1 0 0h-6c0 1 0 0 0 0h-14v1h-1v2h-1v20l-1 2v1l1 1v1h-1v1h1v1l-1 2v2l1 1v2h-1l1 1v4h19v-5h1l-1-1v1-3l1-1h-1v-1l1-4v-2l-1-2v-2l1-1h-1 2l1 1h10l1-1h6l3-1h1v-2l1-2v-1l-1-1v-5Zm-43 5v1-1Zm34 33v15-16 1Zm-3 12v1h-3l-1-1h1v-1l1-1h1v1h1v1Zm0-10v1h-3v-1h-1v-1h2v-1l1 1h1v1Zm-11 11-1 1-1-1h-1v-1l1-1v-1h2v3Zm0-11v1l-1 1-1-1-1-1h1v-1h2v1Zm-7-2v15-15Zm35 10V50l-1-1-1-1v-1h-16l-1 1v-1 1l-1-1h-1v1-1h-1v1-1h-2v1h-1v-1h-1v1h-1v-1l-1 1h-1v-1 1h-2v-1 1h-13v1h-1v-1 1l-1-1v1h-2v1h-1v2h-1v1h1-1v5h1-1v1h1-1v1h1-1l1 1v4h1v1h11v1l1-1h1v1l1-1h32v-1h1v-1h1v-4Zm-2 34Zm-43-5v-1 1Zm47 8v-3l-3-2v1-1h-5l-1-1-1 1v1l-3-1h-1v-1h-1l-1 1h-2l-2-1v1l-1-1h-4l-2 1h-4 1v-2l1-2v-1l1-2v-3l1-4v-1h-1l1-1v-7 1l-1-1h-3l-1 1-2-1h-6v1h-1v-1h-4l-3-1c0-1-1-1-2 1v5l-1 3 1 1v3h-1v1l1 1v3l-1 1v1h1l-1 3v1l1 1v9l1 1c1 0 1 0 0 0-1 1-1 2 1 2h3l2 1h7l1 1h17l1 1h5l1 1h1v-1h1v1c0 1 1 1 1-1h1v1h2l2-1h1l1-1 1-2v-8Zm-14 19v1-1Zm39 60h2-2Zm-18-55-1 1v-1h1Zm-6 81h-1v-1l1 1Zm-12-81h-1 1Zm-1 92h-1v-1l1 1Zm25 6h1v1l-1-1Zm13-95 1-1v-2h-2v-1h1-1v-1h-1l-1-1h-4l-1-1h-1l-1 1h-1l-1-1v1h-1v-1h-2l-1 1-1-1v-1 1h-1v1h-14v-1l-1 1h-5v-1l-1 1h-4l-1 2v10l1 1h-1v20l1 1h-1v2l1 2-1 1v1h1v2l-1 1 1 2v11h1l-1 1v4l1 5v5l-1 1h1v7l-1 2 1 1v6l-1 1 1 2v1l-1 1 1 1h-1v4l1 1 1 2 2-1v1l1-1v-1l1 2h7l2 1 1-1h3l1 1 3-1 3 1h4v1-1h2v-1l1 1h1l1 1v-1h4l1-1 1-2v-11h-1v-1h-8l-1-1v1h-1l-1-1-1 1h-1l-1-1-1 1h-2l-2-1v1h-1l-1-1 1-2v-2h1l-1-1v-6l1-1-1-2v-9h-1v-1h1l1-1v1h3v-1h1v1l1-1h12v1h1l1-1 2-3v-13l-1-1 1-1-1-1v-1l-1-1h-4l-1-1v1h-1v-2h-1l-1 1-1 1-1-1-1 1-1-1v-1l-1 1h-2l-1-1h-6v-1h1v-6l-1-1 1-1v-12l1-1h4v-1 2l1-1h2l2-1h12v-2h2v-1h-1l1-1v-5Zm67-6-1-1v1h1Zm-59 53v1-1Zm59-15-1 1v-1h1Zm-1 31v-1h1l-1 1Zm-8 5h-1l1-1v1Zm0-8v-1 1Zm-1 3v1-1Zm0 3v-1 1Zm0-5Zm0-3v1-1Zm0 11v-1 1Zm-2-64Zm-2 83h-1 1Zm-2 1h-1v-1h1v1Zm-11-48h-1l1-1v1Zm0-2h-1v-1l1 1Zm-3 18h-1 1Zm-6-37Zm-7-22v-1 1Zm-2 0h-1v-1h1v1Zm-7 89v-1 1Zm-1 1v-1 1Zm-4-50Zm-2 4v-1 1Zm62 34v-10l-1-1 1-1v-2l-1-1v-2l1-1h-1v-2l1-2-1-2v-1h1v-2l-1-1v-26l-1-3v-1h1l-1-1 1-1v-5l-1-1v-1h1-1v-1l1-1h-1l1-1v-2l-1-1v-1l1-2-1-3v-2h-1l-1 1v-1h1v-1h-7l-2-1-1 1v-1l-1 1-1-1-1 1h-1v2h-1v6h1l-1 1v2l1 1h-1v1l1 2-1 1 1 3v1l-1 2v1h1l-1 1 1 1-1 1v1l1 1v2l-1 1v2l1 1h-1l1 1v8l-1 2v1h1v3l-1 2 1 1v18l-1 1-1-1v-2l-1-3-1-2v-3l-1-1v-1l-1-1v1l-1-2-1-5v-1l-1-1v-1l-1-4-1-3-1-2-1-1v-4l-1-1v-1l-1-1h-1v-4h-1v-1l-1-1v-1l-1-1v-1h-1 1v-1l-2-1h1l-1-1h1v-1l-1 1-1-3-1-1v-3h-1l1-2-1-1v-1l-1-1v-3l-1-1h-1v-2l-2 1-1 1-2-1-1-1h-1v1l-1-1h-2v-1l-1 1h-3v3l-1-1h-2v3h-1v1l1 1v3l-1 1 1 1v10h-1v1h1v5l-1 1v5h-1l1 1v8l-1 1 1 1-1 1v1h1v5l1 1h-2l1 1v3h1l-1 3v3h1l-1 1v17h1v5l-1 2 1 1-1 1h1v2l1 1h1l3 2h3l1 1 1-1h3l1-1h1l1-1h-1v-1 1h1l1-1v-15h1l-1-1v-32h1v1l1 1v1l1 2v3l1 1 1 1v2l1 1-1 1h1v1l1 1v1h1l-1 1 1 1 1 3h1v2h1v2h1l2 5 1 3h1v2l1 1 1 2v3l1 2 1 1 1 2-1 1v1l1 1v2h2v-1h1v1l2 1h1v-1h1l1 1h3l1-1h1v1h8l1-1h1l-1-1 1-2v-2h-1l1-1v-9Zm-63-38h1-1Z"/>
    <path id="Fill-4" d="M574 334v-1 1Zm-17-101v-1 1Zm0 52v-1 1Zm14 39h-1 1Zm1-87h-1 1Zm-19 12h1v1h-1v3l1 2-1 1 1 2v2l-1 1 1 1v37h-1 1v35c0 2 0 3 2 3l-1 1h2l2 1h3l2-1h1l1 1 1-1h1l3-1 2-1v-3h1v-7h-1l1-2h-1v-3l1-2v-1h-1l1-1v-5h-1l1-1v-1h-1v-1h1v-4h-1 1v-2l-1-1v-3l1-1h-1v-11l1-1v-10h-1l1-1v-4l-1-1 1-1v-20l1-1v-1h-1v-3l1-2-1-1v-4l-1-1 1-1-1-1v1h-1v-1h-1v-1h-4l-5-2h5-9 6l-7 1h-1l-2 2-1 4v2l1 1h-1v8Zm2 112v2l1 1v1h1l1 2 1 1 1-1h1l1 1h1v-1h1v1l1-1h1v-1h1l1 1h2l2-3v-4l1-1h-1v-2l1-1h-1v-6l-1-2v-1l-1 1v1-1l-1-1h-8l-2-1-1 1-2 4v5l-1 1 1 1-1 1v2Zm10-66v1l1 1h-1v3l1 1v10h-1v-1 2l1 2v15l-1 1v2l-1 4-1 1v-7l1-2v-24h-1v-12l1-2v-1l1-1h-1 1v-1l-1-2h1l-1-2v-13l-1-2v-14l-1-4v-1l1-3v-1h1v4l1 2 1 4h-1 1-1 1v2l-1 1h1v13l1 4v15h-1 1l-1 2-1 2h1l-1 1Zm-4 56v-1l1-1h-1v-1h2l1 1c0 1 0 1 0 0v1c1 0 1 0 0 0v1h1-1 1v6h-1v1-1 2h1-1 1v1h-2 2v1l-1 1v1l-1-3-1-3v-2l1-1v-1h-1v-1l-1-1Z"/>
    <path id="Fill-5" d="M364 367h27v-1l4 1h24l1-1v1h8l2-1 1 1h16l3-1h1v-10l-1-2-1-2h-4v-1h-4l-1 1v-1l-1 1-2-1v1h-6l-2-1h-2l-2 1-1-1v1h-1l-1-1v1h-1v-1h-1l-1 1h-1v-1 1h-1v-1 1h-16l-1-1-1 1-1-1h-1l-3 1-3-1v1h-7l-1-1h-20l-1-1v1h-9l-1 1h-1v-1l-1 1v1l-1 1v1l-1 2-1 4v3l1 1v1l2 1h14"/>
    <path id="Fill-6" d="M287 367h27l1-1 4 1h24v-1l1 1h8l2-1 1 1h5a1 1 0 0 0 1 0h9l4-1 1-1v-6h-1v-1h1v-1h-1v-3l-1-2h-4l-1-1h-3l-1 1-1-1-1 1-1-1-1 1h-6l-2-1h-2l-1 1-1-1-1 1-1-1-1 1-1-1h-1v1h-1l-1-1v1-1l-1 1h-16v-1h-1l-1 1v-1h-2l-2 1-3-1-1 1h-6l-1-1h-20l-1-1v1h-10l-1 1-1-1v2h-1v2l-1 2-1 4v4h1v1l2 1h13"/>
    <path id="Fill-7" d="M531 351h-2v-1 1h-25l-1 1-4-1h-24v1l-1-1h-7l-3 1-1-1h-5a1 1 0 0 0-1 0h-9l-4 1-1 1v6h1v1h-1v1l1 1v2l1 2h4l1 1h4v-1l1 1 1-1 1 1 1-1h6l2 1h2l1-1 1 1 1-1 1 1 1-1h1v1h1v-1h1l1 1v-1 1l1-1h16l1 1 1-1v1h2l2-1 3 1 1-1h6l1 1h31l1-1 1 1v-2h1v-1l1-2 1-5v-4h-1v-1l-2-1h-11l-1-1-1 1"/>
    <path id="Fill-10" d="M284 248h-1 1Zm15-13-1-1v1h1Zm-4-2v1-1Zm-1 0v-1l-1 1h1Zm15 30v1-1Zm-2 0Zm-41-2h1-1Zm48-6h1-1Zm-19-1h-11l-3-1-1-1v-1h1v-2h1-1l1-1h1c1 0 1 0 0 0v-1l1-1v-2h3v1-1h1l2 1 1 1h1l2 2v2l1 1c-1 0-1 0 0 0v1l1 1h1l-1 1h1v1l-1-1h-1Zm-16 0Zm0-1v-1 1Zm-1-2h1v1l-1-1Zm5-4v1l-1-1h1Zm-2 0h1-1Zm2 0h1-1v-1 1Zm8-2h-1 1Zm33 3v-1l1 1h-1Zm-28 1Zm25 1Zm-1 1Zm-2 0Zm-3 3Zm-27-11Zm15-5h1-1Zm-19-3v-1 1Zm45 9Zm1-1v1l-1-1h1Zm-11 22h8l1-1v1h5l1-1v-1h1l-1-1 1-1-1-1 1-1v-2l-1-1h-1l-1-1h-14l1-1 1-1 2-1 1-1 1-2h2l1-1 1-1h1v-1h1l2-2h1v-1h1l1-1 1-1v-3h-1 1v-1h-1v-2h-1v-1h-1l-1-1h1-4v1h-2v1h-1l-1 1-1 1h-3v1h-2v2h-3v1h-1v1h-2v1h-2l-1 1h-3l-1-1v-1h-1v-2h-1l1-1h-1v-1h-2v-1h1-1l-2-1h-1v-1h-1v-1h-3v-1h-3l-1-1h-5v1h-2v1-1l-1 1h-4v1l-4 1-1 2-3 2v1l-1 1-1 1v2h-1v7l-1 1v2h-1v1h1v1h-1v1h1v1l-1 1v2l1 1h4c0 1 0 1 0 0h3v1h1c0-1 0-1 0 0h18l1 1 3-1v1l1-1 1 1 1-1 4 1h10s0-1 0 0h5Zm-34 43h-1 1Zm28-1h1-1Zm10-5h-1 1Zm-10 2Zm-5-25v-1h-1l1 1Zm3-7h1-1Zm22 26v-1h1v-2h1v-2l1-1v-4l-1-1v-5l-1-1-1-1v-2l-2-1h1-1v-1l-1-1-2-1v-1h-1v-1h-1l-1-1v-1h-12l-1-1v1h-22v1l-2-1h-18l-1 1h-1v8l1 1h2l1 1h1v-1h1l1 1v-1h5v1l2-1 2 1h1v-1h2l1 1v-1h10l1 1 1-1h2v1-1h1l1 1 1-1h2v1l1-1 1 1h2v-1l1 1h3v-1l1 1h5l1 1 1 1h1v6l-1 1v1h-1v1h-2v2l-1-1v1h-2v1l-1-1-1 1h-1l-1-1-1 1h-20l-1 1v-1h-1v1l-3-1h-17l-2 1v10l2 1 1 1 1-1v1h29l1-1 1 1h1v-1 1h1l1-1v1h1l1-1v1h1l1-1v-1l1 1 1-1 1 1 1-1v1l4-1h2v-1h4v-1h1l1-1h1l1-1h1l1-1h1v-1h1v-1 1-1h1v-1Zm-26 3h1l1-1v1l1-1h6l2-1h1v1l1-1h1v-1h1l2-1 3-2 1-1 1-2v-1l1-2 1-1v-1l-2-4h-1l-1-1v-1h-1l-1-1h1l-2-2h-2v-1h-7l-1-1h-10l-1-1v1h-1v-1 1h-2 1l-1-1h-9v-1l-1 1h-3v-1h-5l-1 1-3-1h-5l-2-1h22l2 1h1l1-1v1h9l1 1h11v1h6l2 2 3 4c2 2 3 3 3 6l-1 2v2l-2 2-1 2-2 1-2 1-2 1-1 1-3 1h-3v1h-13v1-1 1-1l-1 1h-29v-1h1v-1 1-1h5v1-1h2-1 2v1-1h8l1 1h4v-1l1 1 3-1h9Zm-16 37Zm40-10h1-1Zm-9 0v-1 1Zm-34 1v-1 1Zm20 0Zm-8 1Zm-26-13v-1 1Zm28 2v-1h1l-1 1v1-1Zm0-1Zm0-1v1-1Zm20 9-1 1-2-1h-4v1-1h-9l-1 1v-4h1l-1-1v-5l-1-1 1-1h-1v-1l-2-1h-1l-2-1h-2l-1 1-1-1h-1v1h-1v1h-1v12-1 1h-2l-1-1h-1v1-1h-1v1l-1-1h-1v1l-1-1v1h-1v-1l-1 1-1-1h-2v-5l-1-3 1-1h-1v-2h-9v1h-1v4l1 2v3h-1 1v3l1 1-1 1h1l-1 1h1-1l1 1v1h-1 1v1h-1v1l1 2v1l1 1v1l1-1h10v-1h4v1h1l1-1v1h2v-1h36l1 1h1v-1l1 1h1l1-1h2v-2l1-1v-3l-1-3v-2h-11Z"/>
    <path id="Fill-11" d="M272 287c0 1 1 5 4 5s7-1 6-4c-1-4-1-5-4-5s-6 0-6 2v2"/>
    <path id="Fill-12" d="M295 287c0 1-1 5-3 5-3 0-8-1-7-4 0-4 1-5 5-5 3 0 5 0 5 2v2"/>
    <path id="Fill-13" d="M375 275v-1h-1v1h1Zm-13 62h1v-1h-1v1Zm42-6v-1h1l-1 1Zm-2 7v-1 1Zm-13-50v-1 1Zm-5 33h1-1Zm0 1Zm0-56v1-1Zm-1 43Zm-5 0v1l-1-1h-1l-1 1h-1l-1-1-3 1h-5 1v-2l1-3v-6h1v-3l1-5v-5l1-1v-3h2l-1-1v-3h1v-3h1v-3h1v-1h1v4h-1v1h1v6l1 1-1 1h1v3l1 1v4l1 1v1h-1v1h1v4l1 1v8l1 1h-2Zm-5-73h1-1Zm4 1v1-1Zm-12 53v-2 2Zm0 23v-1 1Zm-5-76Zm-16 97-1 1 1-1Zm61 5 1-1v-1l-1-1 1-1v-2h-1l1-1v-2l-1-1v-1l-1-2h-1l1-1-1-1v-2h-1v-3l1-1h-2v-1l1-1h-1v-1h1v-1h-1v-1l1-1h-1v-5l-1-1 1-1v-1l-1-1v-2h-1l1-3h-1v-3l-1-1v-3l-1-1-1-1v-1h1-1v-1l-1-2v-2h1v-1l-1-2-1-3v-1h-1l1-1v-1h-1v-5l-1-1h1l-1-1-1-1v-1l1-1h-1l1-1v-1h-1l-1-1 1-1-1-2-1-1h1v-2h-1v-2l-1-1-1-1 1-1-1-1v-2l-2-4h1v-1l-2-1h1l1-1h-1l-1-2v-2h-1l-1-1-2 1h-2v-2h-2l-1-1v1h-1v-1l-1 1h-1v-1h-2v1l-1-1h-2v1l-1-1h-1l-4 1h-1l-1 1h-2v1l-1 1v5l-1 1v5l-1 1v2l1 1-1 1v3h-1l1 1h-1v9l-1 1 1 1-1 2v3l-1 2 1 1-1 1-1 3v3l-1 2v3h1l-1 1v1h-1v1l1 1h-1v4l-1 2 1 1-1 2v1l-1 1v1h1-1v8l-1 1v2l-1 2v2h1-2v1h1v1h-1v1h1v1l-1 1v5l-1 1h1v2h-1v3c0 2 1 3 2 3v1l1 1h4l1 1h2v1-1l1-1v2h1l2-2h2l3-4v-1h1v-2h1v-1h-1v-1h1v-6l2-1h1v1l1-1h3l4-1h5v-1h1l1 1 1 1h1v1h1-1v1l1 1-1 1h1v1h-1 1l1 2v1h-1v1h2-1l-1 1v1l1 1 1 1 1 2 1 1 2 1 1-1 2 1h1l1 1h9l1-1 1-1v-1h-1Zm-49-27v1l-1 1v2h2l1-1h8v-1h3v1h4l1-1h6v1h1l1-1h5-1l4-2v1h1l-2-9v-3l-1-3v-3h-1v-9l-1-1v-2l-1-2-1-3-1-2v-1l-1-2-1-3v-2l-2-7-7-16v1l-1 1v-1l-1 2-1 1h1v1l-1 1v2l-1 2v3l-1 1v-1 5h-1v1l-1 5v3l-2 5v4h-1v4l-1 2v3l-1 1v2l-1 2v3l-1 1v2l-1 1v4l-1 2v4Zm-4 22-1 2h-1v-3h-1 1v-4h1-1v-1h1v-2l1-3v-1l1-1v-4l1-1v-1l2-13v-3l4-14 1-1h-1v-2h1v-4l1-3v-3l1-3v-4l1-2 3-9 4-11h1l1 1v-1h1v1l4 7h-1 1v2l1 2h1l1 3 1 2v3h1v1l2 8h1v2l1 2v2l1 2v3l1 1v3h1v7l1 1h-1v1l1 1v6l1 3 1 1-1 1h1v1h-1l3 8 1 6v1l1 2v4l1 1v1l1 1v2h1l-1 1v1h-2l-1-2v-3h-1l-1-9v-3l-2-5-6 1h-10l-1 1h-3v-1 1h-14l-1 1h-2v4l-1 1v2l-1 3v3l-1 3Z"/>
    <path id="Fill-14" d="M431 233Zm-17 5-1-1h1v1Zm0 99v-1 1Zm1-2v1h-1v-1h1Zm0 0-1-1h1v1Zm5 3h1-1Zm9-102v1l-1-1h1Zm1 1v1l-1-1h1Zm22 87v1-1h-1 1Zm-1 17Zm-38-24-1 1v8h1v2l-1 1 1 4v5h2v1l2 2v-1h2l1 1 1-1h3l4 1 4 1h11l1 1 2-1h3v-1l1 1h2l1-1 1-1v-9h1l-1-1v-7l-2-1h-2v-1 1h-3l-1-1-2 1h-1v-1h-2v-2 1l-1 1h-7l-1-1h-1v-7l1-1v-3l-1-1v-3l1-1h-1 1v-1h-1v-18l1-1-1-1v-4h1l-1-1v-1h1l-1-1v-2l1-1v-1l-1-2 1-2v-5c2 0 1-1 0-1v-1l1-3-1-2v-20h-1l1-1h-1l-1-1h-3l-2 1h-7l-2-1-1 1h-2v-1l-1 1h-1v3l-1 1v10h-1v1h1v18l1 1-1 2 1 1h-1v2l1 1v6l-1 1h1v23l1 1-1 2v6c2 0 1 1 0 1h1l1 2Z"/>
    <path id="Fill-15" d="M490 229v1-1Zm41 67v1-1Zm0 35v1l-3 1h-3v-1h-1v-3h1v-1h2v-1 1h2l1 1h1v2Zm-15 0-1 1h-2l-1-1v1l-1-1v-1h-1 1l1-2 1-1h1l1 1h1v3Zm-6-41-1-2v-1h2-1 1v-1l1-1h1l1 1v-1l1 2v2l-2 2h-2l-1-1Zm0-8h-1v1-1h1Zm-2-39v-1c-2-2-1-4 0-4l1-1v1-1h2v1h1v1h1l-1 1h1v1l-1 1-1 1-1 1-2-1Zm-5 69v1l-1 3v-1l-1 1h-2v-1l-1-1v-2l1-1v-1h3l1 1v1Zm0-13v2h-1 1-1v1-1l-2 2h-1v-1h-1v-5h3l2 1v1Zm0-14c0 3-1 4-2 4h-1v1h-2v-1c-1-1-2-3-1-4v-2h1v-1h2l2 1 1 2Zm-1-17v3l-2 1h-1v1-1 1h-1c-1 0-2-1-2-3l1-2 2-1h3v1Zm0-13-1 1-1 1v1h-1l-2 1v-2l-1-1v-3c0-2 1-2 3-1v1h1l1 1h1v1Zm0-15-1 2-2 1h-3l-1-1v-1l1-1h1-1v-2h1v-1h2v1c0-1 0-1 0 0h1l2 2Zm-9-7c0-1 0-1 0 0Zm-1 49h1l-1 1v-1Zm0 6Zm1-1h-1 1Zm0 31v1l-1-1h1Zm7 7h2l1 1v2l-2 2h-3v-1h-1 1v-4h2Zm8-74v-1 1Zm12 32Zm3 4h2v-1l1-1h3l1 1 1 2v2h-2v1-1 1l-2-1h-3l-1-3Zm-2-47 1-1v-1l1-1h2l1 2v2l-1 1-1 1-2-2h-1 1l-1-1Zm10 8v1-1Zm0-2v1-1Zm0-12h1v-1 1h-1Zm-41 15v1-1Zm48 75v-1 1Zm-6-2h-5v-1h-1v1l-1-1h-3l-1 1-1-1h-3l-3 1h-4 1v-1l1-2v-7h1v-1l1-5h-1v-6c0-2 1-3 3-3h4l2-1h17l1-1 1-1v-3l1-1v-2l-1-1 1-2-1-4h-1l-1-1h-1l-1 1v-1h-6v1-1h-4l-1 1-1-1h-1v1h-2l-2-1-1 1h-1l-2-1h-1l-2 1h-3l-1-1v-2h1l-1-1v-1l1-2v-2l-1-1v-1l1-2-1-1v1-4l1-1h-1v-1l1-4v-1l-1-3v-1l1-2h-1 2l1 1h3c1 1 2 0 2-1v1l1 1 6-2h6l3-1v-1l1-1h-1v-1l1-1v-10l-1-2-1-1h-1v-2h-3l-3-1h-1v1h-1l-1-1h-8l-1-1v1l-1-1-1 1-1-1h-7v1h-1l-2-1h-9l-1 1v3h-1v34h1l-1 1v1c1 0 1 0 0 0v11l1 1v5l-1 3 1 1v14l-1 2 1 1v3l-1 1 1 1v18l1 1v8l6 1 8-1h8l10-1h3c0 1 0 1 0 0h4l2 1h1v-1 1h1v-1h1v1h2l2-1h1l1-1 1-2v-3l1-1-1-2v-3l1-2-2-1-2-1h-2l-1-1h-3v-1l-1 2Zm-8-25h1-1Zm-35-53v1-1Z"/>
    <path id="Path" d="M460 267Zm-1-11Z"/>
    <path id="Combined-Shape" d="M447 224h1v1l2 1 1 1 3 1h1l2 1h2l-1 1h1v21l1 2-1 1v1l1 1-1 1v9l1 1-1 1v1l1 1-1 1h1v1h-1v1l1 1v1l-1 1v1l1 1-1 2v4l1 1h-1v2l1 1-1 1v5h-1l1 1 1 1h1l1-1h1v1-1h2l1 1 1-1h7v1l1-1h4v1-1h3l2 1v3h-1v2l1 1v10l-1 1v1h1l-1 1-1 1v1l-1-1h-2v1l-1-1v1l-1-1h-1v1l-1-1v1l-1-1-1 1h-1l-1-1-2 1-1-1-1 1-2-1h-8l-1-1-4 1h-5l-2 1-2-1-1-1v-1l-1 1-1-4v-3l1-1-1-1v-1l1-1h-1v-17l-1-2h1l-1-2 1-1v-8l-1-1 1-1-1-1 1-1-1-2v-1h1s0 1 0 0v-2l-1-1h-1v-1l1-1-1-1h1l-1-1 1-3h-1v-1s0 2 1 1v-4l-1-1v-1h1l-1-1v-4l-1-1v-2l1-1v-2l-1-2v-3l1-4h-1v-2l1-1v-2h2v-1l1 1h1l2-1h1l1 1h1v-2Zm12 62v1-1Z"/>
  </g>
</svg>
