<svg width="200" height="200" xmlns="http://www.w3.org/2000/svg" dragabble="true">
  <g

    id="icon-tree"
    stroke="none" 
    stroke-width="1"
    fill="currentColor"
    fill-rule="evenodd"
    transform="translate(32 5)"
  >

    <path d="M43.9 164v.1l-.1.4-.1.5-.1.4-.1.4-.1.5v.4l-.1.4-.1.5-.1.4-.1.4-.1.4-.1.5v.4l-.1.5v.8l-.1.4-.2.3-.1.4-.1.3-.2.3.1.4v.7l.1.4v.8l-.1.4v1.2l-.1.4.4-.2.3-.3.4-.2.3-.2.3-.2.4-.3.3-.2.3-.2.4-.3.3-.2.4-.2.3-.3.3-.2.4-.2.3-.3.3-.2.4-.2.3-.2.4-.3.3-.2.3-.3.4-.2.2-.3.2-.3.1-.4v-.8l-.1-.4-.1-.3-.2-.3-.3-.3-.4-.3-.3-.3-.3-.3-.3-.3-.3-.2-.3-.3-.4-.3-.3-.3-.3-.3-.3-.2-.3-.3-.3-.3-.4-.3-.3-.3-.3-.2-.3-.3-.3-.3"/>

    <path d="m59.6 163.7-.1.3-.3.3-.2.3-.3.3-.2.2-.3.3-.3.2-.3.2-.3.2-.3.3-.4.2-.3.2-.3.2-.3.3-.3.2-.3.2-.3.2-.3.2-.3.3-.4.2-.3.2-.3.2-.3.3-.3.2-.3.2-.2.3-.2.2-.2.3-.2.3-.2.3-.2.4-.3.3-.2.3-.2.3-.3.4-.3.2-.3.3-.3.2-.3.3-.3.2-.3.2-.3.3-.4.2-.3.2-.3.2-.3.2-.4.3-.3.2-.3.2-.3.2-.3.3-.3.2-.3.2-.3.2-.2.2-.3.3-.3.2-.2.3-.1.4-.2.3-.1.4-.2.4v1.6l-.1.4-.1.5v.8l-.1.4-.1.4-.1.4-.1.4.4.1.3.2.3.1.3.1.4.1.3.2.4.1.3.2.3.1.3.2.4.1.3.2.3.2.3.1.3.2.3.3.3.2.3.2.3.3.3.2.3.1h.3l.4.1.1-.4v-1l-.1-.4-.1-.3-.2-.3-.3-.3-.3-.3-.3-.2-.2-.3-.3-.3-.3-.2-.3-.3-.3-.2-.2-.3-.3-.3-.3-.2-.3-.3-.2-.3-.3-.2-.3-.2-.3-.3-.3-.3-.2-.2-.3-.3-.3-.3-.3-.4-.1-.4.2.2.3.2.2.2.3.3.3.2.3.3.3.3.3.2.3.3.3.2.3.3.2.2.3.3.3.2.3.3.3.3.3.2.3.3.2.3.3.2.3.3.3.2.3.3.3.3.4.1.3-.1.4-.2.3-.2.3-.3.3-.2.3-.2.4-.2.3-.3.3-.2.3-.2.3-.3.3-.2.2-.2.1-.4.1-.3.1-.3.1-.3.2-.3.1-.4.1-.3.1-.3.1-.3.1-.4.1-.3.1-.3v-.4l.1-.3v-.4l.2-.3.2-.4.2-.3-.3-.3-.2-.2-.3-.3-.3-.3-.3-.2-.3-.3-.3-.3-.2-.2-.3-.3-.3-.3-.3-.2-.3-.3-.2-.3-.3-.2-.3-.3-.3-.3-.3-.2-.2-.3.2-.2.3.2.3.3.3.2.2.3.3.2.3.3.3.3.3.2.2.2.3.3.3.3.3.2.3.3.2.2.3.3.3.2.3.3.3.3v-.1l.1-.3.1-.3.2-.3.2-.4.1-.3v-.3l.1-.4v-.3l.1-.3.1-.4.1-.3.2-.3.1-.3.1-.3.2-.4v-.3l.1-.3.1-.4.1-.3v-.4l.1-.3.1-.3.1-.4.1-.3.1-.3.2-.3.2-.3.3-.3.2-.3.2-.2v-.5l.1-.4v-.8l-.3-.3-.3-.3.2-.2.3.2.3.3.1-.4.2-.3.2-.3.2-.3.1-.4v-.3l.1-.3.1-.4.1-.3.2-.4.2-.4-.3.2-.3.2-.3.2-.3.2-.3.3-.2.3-.3.3-.2.3-.1.3-.1.4"/>
    
    <path d="m100.4 108.5-.3.2-.4.3-.3.3-.3.2-.4.3-.3.2-.4.2-.3.3-.4.2-.3.3h1l.3.1.4.1.4.1.3.1.4.1h1.9l.3.1.4.1.3.1h.4l.4.1h.4l.3.1h.8l-.1-.3-.2-.4-.2-.3-.1-.4-.2-.3-.3-.3-.3-.2-.3-.3-.3-.3-.3-.3-.3-.3-.3-.2-.2-.3-.2-.2.2-.3.4.3.3.3.3.3.3.3-.1-.4-.1-.4-.1-.4-.1-.3-.2-.4-.2-.3-.1-.3-.2-.3-.1.2-.3.4-.2.3-.1.3-.3.4-.2.3-.2.3-.3.3"/>
    
    <path d="m80.5 135-.3-.2-.2-.3-.3-.2-.3-.3-.3-.3-.3-.3-.3-.2-.3-.3-.3-.3-.3-.2-.3-.3-.2-.3-.3-.3-.3-.3.3-.3.2.3.3.2.3.3.3.2.3.3.2.2.3.3.3.2.3.3.2.2.3.3.2.3.3.2.3.3.3.2-.3.4m-10.3 6.1-.3-.2-.2-.3-.3-.2-.3-.3-.3-.3-.2-.2-.3-.3-.3-.2.3-.3.3.2.3.3.2.3.3.2.3.2.3.3.2.3.3.2-.3.3m6.5-11.5-.2.3-.2.3-.2.4-.2.3-.2.3-.3.2-.2.3-.4.2-.3.3-.2.3-.4.2-.3.2-.3.3-.3.2-.3.3-.4.2-.3.2-.3.2-.3.3-.3.2-.3.3-.3.2-.4.2-.3.3-.3.2-.3.3-.3.2-.3.4-.2.3-.2.4-.2.4-.2.3-.3.4-.2.3-.3.3-.3.3-.3.3-.3.2-.3.2-.3.2-.3.3-.3.2-.3.2-.3.3-.3.2-.3.2-.4.3-.3.2-.3.2-.3.3-.3.2-.3.3-.3.2-.3.2-.3.2-.3.3-.4.3-.1.4-.3.4-.2.3-.2.3-.2.4-.2.3-.3.3-.2.4-.4.3-.2.2-.4.2-.3.3-.3.3-.3.1-.3.3-.3.2-.4.3-.3.2-.3.2-.3.3-.3.2-.4.2-.3.2-.3.3-.3.2-.3.3-.3.2-.3.2-.3.3-.2.3-.2.3-.2.3-.2.4-.2.3-.3.3-.2.3-.2.4-.3.2-.3.3-.2.3-.4.2-.2.3-.4.2-.3.2-.3.2-.3.3-.4.2-.3.3-.3.2-.3.2-.3.2-.3.3-.4.2-.4.3-.3.3v.6l-.1.4v.4l-.2.4v.9l-.1.3-.2.4v.4l.3.2.3.3.3.3.2.2.3.3.3.2.3.3.3.2.2.3.3.3.3.3.3.2.3.3.3.2.3.3.3.2.2.3.3.3.3.2.3.3.2.3.3.2.4-.2.3-.2.3-.2.3-.3.3-.2.3-.3.3-.2.3-.2.3-.2.3-.3.3-.2.3-.2.3-.2.3-.3.3-.2.3-.2.3-.3.4-.1.2-.3.4-.2.2-.3.4-.1.3-.3.3-.2.2-.4v-.4l.1-.4v-.8l-.2-.4-.2-.3-.3-.3-.3-.3-.2-.2-.3-.3-.3-.2-.3-.3-.2-.3-.3-.3-.3-.2-.2-.3-.3-.3-.3-.2-.2-.3-.3-.3-.3-.2-.3-.3-.2-.3-.3-.2-.3-.3-.3-.2-.2-.3-.3-.3-.2-.2.2-.3.3.3.2.3.3.2.3.3.3.3.3.2.3.2.2.3.3.3.3.3.3.2.3.3.3.3.3.2.2.3.3.3.3.3.3.2.3.2.3.3.3.3.2.3.3.2.3.3.3.2.3-.2.3-.2.4-.2.3-.3.3-.2.3-.2.3-.3.3-.2.3-.2.1-.3.1-.4v-.3l.2-.4.1-.3v-.4l.2-.3v-.3l.1-.4.2-.3.1-.4.1-.4.2-.3v-.4H66.4v-.3l-.1-.3-.1-.3-.2-.3-.3-.3-.3-.3-.3-.3-.3-.2-.3-.3-.2-.3-.4-.3-.2-.3-.3-.3-.3-.2-.3-.3.3-.3.3.3.2.2.3.3.4.2.2.3.3.2.3.3.3.3.3.3.3.2.3.3.3.2.2.4.3.2.4-.2.3-.3.3-.2.3-.2.3-.3.3-.2.3-.2.3-.2.4-.3.3-.2.3-.2.3-.3.3-.2.3-.2.3-.3.3-.3.3-.2.3-.2.4-.2.3-.3.3-.2.3-.3.3-.2.3-.2.1-.3.1-.4v-1.1l-.2-.4v-.3l-.4-.3-.2-.3-.3-.3-.3-.3-.3-.3.2-.3.3.2.3.3.2.2.3.2.3.3.3.3.3.2.3.3.3-.2.3-.3.3-.2.3-.3.3-.2.4-.2.3-.2.3-.3.3-.2.3-.3.3-.2.4-.2.3-.3.3-.2.3-.2.3-.2.3-.3.4-.2.2-.3.4-.2.3-.2.3-.3.3-.2.2-.3.2-.3v-1.5l-.2-.3-.1-.3-.3-.3-.2-.3-.2-.3-.1-.4.3.2.4.3.3.3.4.1.3.3.3.2.3-.2.3-.2.3-.3.3-.2.3-.2.3-.2.3-.2.3-.3.3-.2.3-.2-.2-.3-.1-.3-.2-.3-.1-.3-.2-.4-.1-.3-.3-.3-.2-.4-.2-.4-.3-.3-.3-.4-.2-.3-.2-.5-.2-.3-.3-.4-.2-.3-.3-.3-.3-.4-.2-.3-.1-.3-.2-.3-.1-.3-.2-.4-.2-.2-.3-.2-.3-.3-.2-.3-.2-.2-.1-.2-.4.2-.3.3-.3.2-.3.2-.4.3-.3.2-.3.2-.3.3-.3.3-.3.2-.3.3-.3.3-.2.4-.2.3"/>

    <path d="m83.7 139-.2.3-.2.3-.3.4-.1.3-.3.3-.2.3-.3.3-.3.2-.3.3-.3.2-.3.2-.3.2-.3.3-.3.2-.3.2-.3.2-.3.3-.3.2-.3.2-.3.2-.3.3-.3.2-.3.2-.3.3-.3.2-.3.2-.3.3-.3.3-.2.4-.2.4-.2.3-.2.3-.3.4-.2.3-.2.3-.2.3-.3.3-.3.3-.3.2-.3.3-.3.2-.3.2-.3.3-.3.2-.3.3-.3.2-.3.2-.3.2-.3.2-.3.3-.3.2-.3.3-.3.2-.3.2-.3.3-.4.2-.3.3-.3.2-.2.3-.2.4h1.1l.3.1.4.1.3.1.3.2H70.8l.4.1h.3l.3-.1h.7l.4-.1h.7l.3.1h.7l.3.1h.4l.3.1.4.1.3.1.3.1h.4l.3-.1.4-.1.3-.1.4-.1h.3l.4.1h1l.4.2.4.1.4.1.4.1v-.3l-.1-.4-.1-.3-.2-.4-.2-.2-.3-.3-.3-.3-.3-.2-.2-.3-.3-.3-.3-.2-.3-.3-.2-.3-.3-.3-.3-.2-.2-.3-.3-.3-.3-.2-.3-.3-.3-.3-.2-.2-.3-.3-.3-.3-.3-.3-.2-.2-.3-.3-.2-.3.2-.2.3.2.3.2.2.3.3.2.3.3.3.2.2.3.3.3.3.3.3.2.3.3.2.2.3.3.3.3.3.2.3.3.2.3.3.3.3.2.3.3.2.2.3.3.3.3.3.2.3.2.4-.1.3-.2.3-.2.3-.3.3-.2.3-.2.3-.2.3-.2.3-.3.3-.2.3-.2.3-.3.3-.2.3-.2.3-.2.3-.3.3-.2.3-.2.3-.2.3-.3.3-.2.3-.2.3-.3.3-.2.2-.3.1-.4.1-.4v-.4l-.1-.3-.1-.4-.1-.3-.3-.3-.2-.3-.3-.3-.3-.2-.3-.3-.2-.3-.3-.2-.3-.3-.3-.3-.2-.3-.3-.2-.3-.3-.2-.3-.3-.3-.3-.2-.3-.3-.2-.2-.3-.3-.3-.3-.2-.3-.3-.2-.3-.3-.2-.3.2-.3.3.3.3.3.2.2.3.3.3.2.3.3.2.3.3.3.3.2.3.3.2.3.3.2.3.3.3.2.3.3.2.3.3.2.3.3.3.3.2.2.3.3.3.2.3.3.3.3.2.2.3-.2.3-.2.3-.2.3-.2.3-.3.3-.2.3-.2.3-.2-.2-.3-.3-.3-.2-.3-.3-.3-.1-.3-.1-.4-.1-.3-.1-.4-.1-.3-.3-.2-.3-.3-.3-.2-.3-.2-.2-.3-.1-.3-.1-.4-.1-.4v-.4l-.1-.3-.3-.3-.3-.2-.3-.2-.3-.2-.3-.2-.2-.4-.2-.4-.3-.3-.2-.4-.3-.3-.2-.3-.3.2-.3.2-.3.2-.2.3-.4.2-.2.2-.3.2-.3.3-.3.2-.2.3-.1.4-.2.3"/>

    <path d="m50.5 152.6-.3-.2-.3-.2-.3-.3-.2-.2-.3-.3-.3-.2-.3-.3-.3-.2-.2-.2-.3-.3-.3-.2-.3-.3-.3-.2-.2-.3-.3-.2v.6l-.1.4-.2.4-.1.4-.2.3v.4l-.1.4-.1.4-.1.4v1.6l-.1.4-.1.4-.1.4-.1.4V159l.3-.2.3-.2.4-.2.3-.2.3-.2.3-.3.3-.2.3-.2.3-.2.3-.2.3-.2.3-.2.3-.2.4-.2.3-.3.3-.2.3-.2.3-.2.2-.3.1-.3.1-.3v-.4l-.1-.3v-.4l-.2-.3-.2-.3"/>

    <path d="m37.5 106.6-.3.2-.4.2-.4.3-.3.2-.3.1-.4.1-.3.1-.4.1-.3.1-.3.1-.4.1-.3.2-.3.1-.3.1-.3.3-.2.2-.3.3-.2.3-.3.2-.3.3-.4.2-.3.2-.4.3h-.2v.1l-.2.3-.2.3-.3.3-.2.3-.3.3-.3.2-.4.2-.2.3-.4.2-.3.3-.3.2-.3.3-.3.2-.4.2-.3.3-.3.2-.4.2-.3.2-.3.3-.3.2-.3.2-.3.3-.3.2-.3.2-.3.3-.2.2-.3.3-.2.3-.1.4-.1.3-.2.4-.2.3-.2.3-.3.3-.3.2-.2.3-.4.2-.3.2-.3.2-.3.3-.3.2-.3.3-.3.2-.4.2-.3.2-.3.3-.3.2-.3.3-.3.2-.3.2-.3.2-.3.2-.3.2-.3.2-.3.3-.3.2-.2.3-.2.3-.2.3-.2.4-.1.3-.1.4-.3.3-.2.3-.3.2-.3.3-.3.2-.3.2-.3.3-.3.2-.3.2-.3.3-.3.1-.3.3-.3.2-.3.2-.3.3-.3.1-.3.3-.3.2-.3.3-.3.2.3.1.4.1.3.1.3.1.4.1.3.2.3.1.3.2.3.1.3.2.4.1.3.1.3.2.3.1.3.2.4.1h.3l.4.1h.7l.3.2.3.2.3.1.3.2.3.2h.3l.4.1.3.1.3.1.4.1.3.1.4.1.3.1.3.1.3.2.4.1h.3l.4.1.2-.3.1-.4V134.1l-.1-.4-.2-.4-.3-.2-.3-.3-.3-.2-.2-.3-.3-.3-.3-.2-.3-.3-.2-.2-.3-.3-.3-.2-.2-.3-.4-.2-.2-.3-.3-.3-.3-.3-.2-.2-.3-.3-.3-.2-.3-.3-.2-.2-.3-.3-.2-.3-.4-.2.3-.3.3.3.3.2.2.2.3.3.3.2.3.2.2.3.3.2.3.3.3.3.2.2.3.3.3.2.3.3.3.2.2.3.3.3.3.2.2.3.3.3.3.2.3.2.3.3.2.3.4.1h.4l.3-.1.3-.2.4-.2.3-.2.3-.3.3-.2.3-.2.3-.3.4-.1.3-.3.3-.2.3-.3.3-.2.4-.2.3-.3.3-.2.3-.2.3-.2.3-.3.3-.2.3-.2.4-.3.2-.3.1-.3.2-.4v-.4l-.1-.4v-.4l-.3-.3-.2-.3-.3-.3-.2-.3-.4-.2-.2-.3-.3-.3-.3-.2-.3-.3-.2-.3-.3-.2-.3-.3-.2-.3-.3-.2-.3-.3-.3-.3-.2-.3-.4-.2-.2-.3-.3-.3-.3-.2-.3-.3-.3-.3-.3-.3.3-.3.3.2.2.3.3.3.3.3.3.2.3.2.2.3.3.2.3.3.2.3.3.2.3.3.3.2.2.3.3.3.3.2.3.3.3.2.2.3.3.3.3.2.2.3.3.2.3.3.3.2.2.3.3-.2.4-.3.2-.2.4-.2.3-.2.3-.2.3-.3.3-.2.3-.2.3-.2.3-.3.3-.2.3-.2.3-.2.3-.3.3-.2.3-.2.3-.2.3-.3.3-.2.3-.2.4-.2.2-.3.3-.2.3-.3.1-.4v-.8l-.1-.4-.1-.4-.2-.3-.3-.3-.3-.2-.3-.3-.3-.3-.2-.3-.3-.2-.3-.3-.3-.3-.3-.2-.2-.3-.3-.3-.3-.2-.3-.3-.3-.3-.3-.2-.3-.3-.2-.3-.3-.2-.3-.4-.3-.2-.3-.4-.3-.3.3-.2.3.2.2.3.4.2.2.3.3.3.3.2.3.3.3.2.2.3.3.3.3.2.3.3.2.2.3.3.3.3.3.2.3.3.2.3.3.2.3.2.3.3.2.3.4.2.2.3.3.3.4-.2.3-.3.3-.2.3-.2.4-.2.3-.2.3-.2.4-.2.3-.3.3-.2.3-.2.4-.2.3-.2.3-.3.3-.2.3-.3.3-.2.3-.3.3-.2.3-.3.3-.2.3-.3.3-.2.2-.3.2-.4.1-.4v-.7l-.1-.4-.2-.3-.2-.4-.3-.2-.3-.3-.3-.2-.3-.3-.2-.2-.3-.3-.2-.3-.3-.2-.3-.3-.3-.3-.2-.2-.4-.3-.2-.2-.3-.3-.3-.3-.2-.2-.3-.3-.3-.2-.3-.3-.1-.1-.4.2-.2.3-.3.2-.2.3-.2.3z"/>

    <path d="M99 156.3h.7l.4.1.5.2.5.1.4.2.5.1-.3-.4-.2-.3-.3-.4-.3-.4-.3-.4-.1-.1-.3.2-.3.3-.4.2-.3.3-.2.3"/>

    <path d="m52.7 184.2-.3.3-.3.2-.3.2-.4.2-.3.3-.3.2-.3.2-.2.3-.3.3-.2.3-.2.3-.2.3-.2.4-.2.3.5.1.2.1v-.1l.3.3.2.2.3.2.4.2.2-.3.2-.4.3-.3.2-.4.1-.3.1-.4.1-.3.1-.3.1-.4.1-.3.1-.3.1-.4.2-.3.1-.3.1-.3z"/>

    <path d="m91.5 148.3-.2.3-.2.4-.2.3-.2.3-.2.3-.2.2-.3.3-.3.2-.3.3-.3.2-.3.2-.3.3-.3.2-.3.2-.4.2-.3.2-.3.3-.3.2-.3.2-.3.2-.3.2-.3.2-.3.3-.3.2-.4.2-.3.2-.3.3-.2.2-.2.3-.2.3-.2.3h.5l.4-.1H85.7l.3.1.4.1.3.2.4.1.3.2.4-.2h.3l.4-.1.3-.1.4-.1h.3l.4.1.3.1.4.1.3.1.4.1h.3l.3.1.4.1h.7l.3-.1.4-.1h.3l.4-.1.4.1.3.1.3.1.4.1.3.1.5-.1.4-.1h.4l.4-.1v-.4l-.2-.3-.2-.3-.3-.3-.3-.2-.2-.3-.3-.3-.3-.2-.3-.3-.2-.2-.3-.3-.3-.3-.3-.2-.2-.3-.3-.2-.3-.3-.3-.2-.2-.3-.3-.2-.3-.3-.3-.3-.3-.3-.3-.3-.3-.3-.3-.2.2-.3.4.3.3.2.4.3.2.3.3.2.3.3.3.2.2.3.3.2.3.3.3.2.2.3.3.2.3.3.3.3.3.2.2.3.3.2.3.3.3.2.2.3.3.2.3.2.4.2h.3l.4-.1.3-.2.3-.2.3-.2-.3-.4-.2-.3-.2-.3-.1-.4-.2-.3-.1-.3-.2-.3-.2-.2-.3-.3-.3-.2-.2-.2-.3-.2-.2-.4-.3-.4-.2-.3-.2-.4-.2-.3-.1-.3-.1-.3-.2-.4-.1-.3-.3-.3-.2-.4-.2-.3-.3-.4-.2-.2-.2-.3-.2-.2-.2-.3-.3.2-.3.2-.3.2-.3.2-.3.3-.3.2-.3.3-.2.4-.2.3"/>

    <path d="m94.8 97.5-.2.3-.2.3-.2.3-.2.4-.2.3-.3.2-.3.3-.3.2-.3.2-.3.2-.4.3-.3.2-.3.2-.3.2-.3.2-.4.3-.3.2-.3.2-.4.2-.3.2-.3.2-.3.2-.4.2-.3.3-.3.2-.3.2-.3.3-.3.3-.2.3-.2.4-.3.2-.2.3-.2.3-.2.3-.2.3-.3.2-.2.3-.3.2-.3.2-.3.3-.4.2-.3.2-.3.2-.3.2-.3.2.4.2h.7l.4-.1h.7l.3.1h.4l.4.1h.3l.4.1H87.8l.3.1.4.2.3.1.3.2.4.1h.2l-.3-.2-.3-.3-.2-.2-.3-.3-.3-.2-.3-.2-.2-.3-.3-.2-.3-.3-.3-.2-.2-.2-.3-.3-.3-.2-.2-.3.2-.3.3.3.3.2.3.3.3.2.3.3.3.3.3.2.3.3.3.2.3.2.3.3.3.3.3.2.3.2.3.3.3.1H92l.4-.1h2.5l.4.1h.8l.4.1.3-.2.3-.2.4-.2.3-.2.3-.2.3-.2.3-.2.3-.2.3-.2.3-.2.3-.2.3-.3.3-.2.3-.2.3-.2.1-.3.1-.4v-.7l-.1-.3-.2-.3-.2-.3-.2-.2-.3-.3-.3-.2-.3-.3-.3-.2-.3-.3-.3-.2-.2-.3-.3-.2-.3-.3-.3-.2-.3-.3-.3-.2-.3-.3-.3-.2-.2-.3-.3-.2-.3-.3-.3-.2-.3-.3-.3-.3-.3-.3.3-.3.2.3.3.2.3.3.3.2.3.3.3.2.3.2.3.3.2.2.3.3.3.2.3.3.3.2.3.3.3.2.3.3.3.2.2.2.3.3.3.2.3.3.3.2.3.2.3.3.3.2-.2-.3-.2-.3-.2-.3-.2-.3-.2-.3-.2-.3-.2-.2-.2-.3-.2-.3-.2-.3-.1-.3-.2-.2-.2-.3-.2-.3-.3-.2-.2-.3-.2-.3-.2-.2-.1-.3-.2-.4-.1-.3-.1-.3-.1-.3-.1-.3-.2-.3-.1-.3-.2-.3-.2-.3-.2-.2-.3-.3-.3-.2-.3.3-.4.2-.3.3-.2.4-.2.3"/>

    <path d="m29.7 111.6.2-.3.1-.3-.5.1-.4.1-.3.2-.2.3-.3.3-.2.3-.3.2-.4.3-.4.2-.3.3-.4.2-.4.1-.3.1-.4.1-.3.2-.4.1-.4.2-.4.3-.3.2-.4.2-.4.3-.4.2-.4.2-.3.3-.5.3.3.2.3.3.3.2.3-.2.3-.2.3-.3.4-.2.3-.2.3-.2.3-.3.4-.2.3-.2.3-.2.3-.3.4-.2.3-.2.3-.2.4-.3.3-.2.3-.2.3-.2.4-.3.3-.2.3-.2.3-.2.4-.3.3-.2"/>

    <path d="m86.8 88.9-.2.3-.2.3-.2.3-.2.3-.2.4-.3.2-.2.3-.3.2-.3.3-.3.2-.3.2-.3.2-.3.3-.3.2-.3.2-.4.2-.2.3-.3.2-.4.2-.3.2-.2.3-.3.2-.4.2-.2.3-.3.2-.3.2-.3.3-.3.3-.2.3-.2.4-.2.4-.2.3-.2.3-.3.3-.2.3-.2.3-.3.4-.3.2-.3.2-.3.3-.2.3-.3.2-.4.3-.3.1-.3.3-.3.2-.3.3-.4.1-.3.3-.2.3-.4.2-.3.2-.3.2-.3.3-.3.3-.3.2-.3.3-.3.2-.2.3-.2.3-.3.4-.1.4-.2.3-.3.3-.2.3-.2.4-.3.3-.3.2-.4.2-.2.3-.3.3-.3.2-.3.2-.3.3-.3.2-.3.2-.3.2-.3.3-.3.2-.4.1-.3.3-.2.3-.4.1-.3.2-.3.3-.3.2-.3.2-.2.4-.2.3-.2.3-.3.3-.2.3-.2.3-.1.4-.2.3-.2.3-.3.2-.2.4-.4.2-.3.3-.3.2-.3.2-.3.3-.3.2-.3.2-.4.2-.3.3-.2.3-.4.2-.3.2-.3.3-.3.2-.4.2-.2.3-.3.2-.4.2-.3.2-.2.3-.4.2-.1.4-.3.3-.1.4-.1.3-.2.3-.2.4-.3.3-.2.2-.2.3-.4.2-.2.3-.4.2-.2.3-.4.2-.3.3-.3.2-.3.3-.3.2-.4.2-.3.2-.3.3-.4.1-.2.3-.3.3-.4.2-.2.2-.3.3-.4.1-.3.3-.1.3-.4.2-.2.4-.1.4-.1.3-.1.3-.3.4-.2.2-.3.3-.2.3-.3.2-.3.3-.3.2-.3.2-.3.3-.3.2-.4.2-.3.3-.2.3-.4.2-.3.2-.3.2-.3.2-.3.3-.3.2-.3.3-.3.2-.3.3-.4.2-.3.3-.3.3-.2.4-.2.4-.3.3-.2.3-.2.4-.3.3-.2.3-.2.4-.3.2-.3.3-.3.2-.3.2-.3.3-.3.2-.2.3-.4.1-.3.3-.2.3-.4.2h.5l.3.3.5.1.3.1.3.1.3.1.4.1.3.2.3.1.3.2.3.1.3.2.3.2.3.2.3.1.3.1.4.1.3.1h.7l.4.1h.3l.4.1h.3l.3.2h.4l.3.1h.3l.3.3.3.1.3.2.3.3.3.2h.1l.1-.3-.2-.5-.3-.3-.3-.3-.3-.2-.2-.3-.3-.2-.3-.3-.3-.3-.2-.2-.3-.3-.2-.3-.3-.3-.3-.2-.2-.3-.3-.3-.3-.2-.3-.2-.2-.4-.3-.2-.3-.2-.2-.3-.3-.3-.3-.2-.2-.3-.3-.2.3-.3.2.3.3.3.3.2.3.3.3.2.3.2.2.3.3.3.3.2.3.3.3.3.2.3.3.2.3.3.3.2.2.3.4.2.2.3.3.3.3.2.3.3.2.3.4.2.2.3.3.3.3-.2.3-.3.3-.2.3-.2.3-.3.3-.2.4-.2.2-.3.4-.2.2-.2.4-.3.3-.1.3-.2.3-.3.3-.3.3-.2.3-.2.4-.2.3-.3.3-.3.3-.2.4-.2.3-.3.2-.3.1-.4.2-.4-.1-.4v-.4l-.2-.4-.1-.4-.2-.3-.4-.2-.3-.3-.2-.2-.2-.4-.4-.2-.2-.3-.3-.2-.3-.3-.2-.3-.3-.2-.3-.3-.3-.2-.3-.3-.2-.2-.3-.3-.2-.3-.3-.3-.3-.2-.2-.3-.3-.3-.3-.2-.3-.3.3-.3.3.3.2.3.4.2.2.2.3.3.3.3.2.3.3.2.4.2.2.4.3.2.2.3.4.2.2.3.3.3.3.3.3.2.3.2.2.4.3.2.3.3.3.2.2.3.3.3.3.2.4-.2.2-.3.4-.2.3-.2.3-.3.3-.2.3-.2.3-.2.3-.3.3-.2.4-.2.3-.3.3-.2.3-.2.3-.3.3-.2.3-.2.4-.2.2-.3.3-.3.3-.2.3-.3.4-.2.2-.3.2-.3.1-.4v-.4l-.1-.4-.1-.3-.1-.4-.3-.3-.3-.3-.3-.2-.2-.3-.3-.3-.3-.2-.2-.3-.3-.2-.2-.4-.3-.2-.3-.3-.3-.2-.2-.3-.3-.3-.2-.3-.3-.2-.3-.3-.3-.3-.3-.2-.2-.2-.3-.4-.3-.3-.4-.3.3-.2.3.2.3.2.2.3.3.3.3.2.2.4.3.2.3.3.3.2.3.3.3.2.2.4.4.2.3.2.2.3.3.3.3.2.2.3.4.3.2.3.3.3.3.2.3.3.3.2.2.3.4-.2.3-.3.3-.2.3-.2.3-.3.4-.2.2-.2.3-.3.3-.3.4-.1.3-.3.3-.2.3-.3.3-.2.4-.2.3-.2.2-.3.4-.2.3-.3.3-.2.3-.2.3-.3.3-.2.2-.3.1-.4.1-.3v-.4l.1-.4-.1-.3-.2-.3-.1-.4-.3-.2-.3-.3-.2-.3-.3-.3-.3-.3-.3-.2-.2-.3-.4-.2-.3-.3-.2-.3-.3-.2-.3-.3-.3-.3-.3-.2-.3-.3-.2-.3-.3-.3-.2-.3-.4-.2-.2-.4-.3-.2-.3-.4.2-.2.3.2.3.3.3.3.3.2.3.2.2.4.3.2.3.2.3.3.2.3.3.3.3.2.3.2.3.3.3.2.2.4.3.2.2.3.3.2.3.3.2.3.3.2.3.3.3.2.3.1h.4l.3-.2.3-.2.3-.3.3-.3.3-.1.4-.2.3-.3.3-.3.3-.2.3-.2.3-.3.3-.2.3-.3.3-.2.4-.2.3-.3-.2-.3-.2-.3-.2-.3-.2-.3-.2-.3-.1-.3-.3-.3v-.4l-.3-.2-.2-.4-.3-.4-.2-.3-.2-.4-.2-.3-.3-.2-.3-.2-.2-.3-.3-.2-.1-.4-.3-.2-.2-.3-.2-.2-.2-.3-.1-.4-.2-.4-.3-.2-.1-.4-.3-.4.4.1.4-.1.4.1h.8l.3.1.4.1.3.1.3.1.4.2h.3l-.3-.2-.2-.2-.3-.3-.3-.2-.3-.2-.2-.3-.3-.3-.2-.3-.3-.2.2-.3.4.3.3.2.3.3.3.2.2.4.3.2.3.3.2.2.4.2.2.3.2.3h.8l.3.1.4.1h.3l.4.1h.3l.4-.1h.3l.4-.1h.3l.4.1h.3l.4-.1.3.1h.7l.4.1.3-.1.4.1h.3l.3.2.3.1.3-.2.3-.2.3-.3.4-.2.2-.2.3-.2.3-.3.4-.1.2-.3.3-.2.3-.3.2-.3.1-.4.1-.3v-.4l-.1-.3v-.4l-.3-.3-.2-.3-.2-.3-.3-.2-.3-.3-.3-.3-.2-.3-.3-.2-.3-.3-.3-.3-.3-.2-.3-.3-.3-.3-.2-.3-.3-.2-.3-.3-.2-.3-.3-.3-.3-.3-.3-.2-.3-.3-.3-.2-.2-.3-.3-.3.3-.3.3.3.3.2.2.2.3.3.2.3.3.2.3.2.3.3.3.2.2.3.3.3.3.2.3.3.2.3.3.2.3.3.3.2.2.3.3.3.3.3.2.3.3.2.3.2.3.3.4.2.3-.1.4-.2.3-.2.3-.2.3-.2.3-.3.3-.2.4-.2.2-.3.3-.2.3-.2.3-.3.4-.1.3-.3.3-.2.3-.2.3-.3.3-.3.3-.1.3-.3.3-.2.3-.2.3-.2.3-.3.2-.4.1-.4v-.8l-.1-.3-.1-.4-.3-.3-.2-.3-.3-.3-.2-.2-.3-.3-.3-.3-.2-.3-.3-.2-.3-.3-.3-.2-.2-.3-.3-.3-.2-.3-.3-.2-.3-.3-.3-.2-.2-.3-.3-.2-.3-.3-.3-.3-.2-.2-.3-.3-.2-.3-.3-.3.2-.2.3.2.3.3.3.1.3.3.2.2.3.3.2.3.3.3.4.2.2.3.3.3.3.2.2.3.3.3.3.2.3.3.3.2.2.4.3.2.2.3.4.2.3.3.2.3.3.3.3.2.4-.1.3-.2.4-.3.3-.3-.1-.1-.1-.4-.1-.3v-.8l-.1-.4-.3-.2-.2-.3-.2-.3-.3-.2-.3-.3-.1-.3-.2-.3-.1-.3-.2-.4-.1-.3-.2-.3-.1-.3-.2-.3-.2-.3-.2-.3-.1-.3-.2-.4-.1-.3-.2-.3v-.4l-.3-.2-.2-.3-.3-.3-.2-.3-.2-.3-.1-.3-.3.2-.3.3-.3.2-.3.3-.4.2-.3.3-.3.2-.3.2-.2.3-.1.4-.2.3"/>

    <path d="m19.8 120.7.3-.3.3-.2.3-.3.3-.3.3-.2.2-.4.3-.3.1-.4.1-.4v-.4l-.1-.4-.1-.4-.2-.4-.2-.3-.3.2-.2.2-.4.1-.3.1-.3.1-.3.1-.4.1-.2.2-.3.3-.2.2-.3.2-.3.3-.3.1-.3.1-.3.1-.4.2-.3.1-.2.2-.3.3-.2.3-.3.2-.2.3-.4.2-.3.3-.3.3-.4.3-.3.2-.4.3-.3.2-.4.3-.3.2.3.3.3.3.2.3.3.3.3.3.3.3.3.3.3.3.3.3.3-.2.2-.3.3-.2.3-.3.3-.2.3-.2.3-.3.3-.2.3-.3.3-.2.3-.3.3-.2.3-.2.3-.3.3-.2.2-.3.3-.2.3-.2"/>
    
    <path d="m.7 128.2-.3.3-.4.2.4.1h.4l.4.1h.4l.4.1-.3-.3-.3-.4-.3-.3z"/>
    
    <path d="m12.4 124.8-.3-.3-.2-.2-.3-.3-.2-.2-.3-.3-.2-.2-.3-.3-.3.2-.4.2-.3.2-.4.2-.4.1-.4.2-.3.3-.3.2-.4.3-.3.2-.3.1-.4.1-.3.1-.3.1-.3.1-.3.3-.2.2-.3.2-.2.3-.3.2-.3.2-.4.2-.4.2-.3.3-.4.1-.4.2-.3.2-.4.2-.3.2.3.3.2.2.3.3.3.2.3.3.3.2.4.1.3.1.3.2.4.1.3.1.3.2.3.1.3.2.3.1.3.1.3.2.3.1.3.1.3.2.3-.2.2-.3.3-.2.3-.2.3-.2.3-.3.3-.2.3-.2.3-.2.3-.3.3-.2.3-.2.2-.2.3-.3.3-.2.3-.2.3-.3.3-.2.3-.2.2-.4.1-.3.1-.4v-.4l-.1-.4-.1-.4-.2-.3z"/>

    <path d="m81.6 0 .3.2v.3l.1.4.2.3.3.2v.4l.4.2v.4l.2.3.3.2.2.3.3.2.2.3.2.3.1.3.2.4v.7l.1.4.2.3.2.3.3.2.2.4.2.2.3.2.3.3.1.3.3.2.3.2.1.4.2.4v.3l-.1.4v.4l.2.3.3.3.2.3.4.1.3.2.2.3.2.4v.7l.1.4v.4l.3.2.3.2.2.4.3.1.1.4.4.2.2.3.2.3.1.3.4.2-.1.4v.8l.2.3.1.4.3.3v.4l.1.3.2.2.3.3.1.4.3.2.3.2.2.3.3.2.2.3.2.3v.4l.2.3.1.3.3.3.2.3.3.2.2.3.2.2v.4l.4.3-.2.4.2.4v.3l.3.3.3.2.2.3.4.2.3.2V28.1l.2.3.1.3.3.2.2.4.3.2.3.2.2.3.2.3v.3l.3.3.1.4.2.3.2.2.1.4.1.3.2.3v.4l.2.3.4.2.3.2.2.3.2.3.1.3.1.4.4.2-.1.4.2.3.1.3.2.3.3.3.2.2v.5l.3.2.2.3.3.2v.4l.3.2.2.4v.7l.1.4v.3l.3.3.3.2.3.2.4.2.2.3v.4l.1.4.1.3.2.3v.4l.2.3.3.2v.4l.3.3.2.3.2.2v.4l.2.4.3.2.1.3.3.3.1.3.2.3v.3l.4.3v.4l.3.2.2.3.2.2v.4l.4.2.3.3.2.2.3.3.3.2.1.3v.4l.4.2v.4l.2.3.2.3V54.1l.1.3.1.4.4.2.2.3v.4l.2.3.3.2.3.3.2.2.4.2.2.3v.3l.4.3v.4l.1.3.3.3h-.4l-.3-.2-.4.1-.4-.1h-.3l-.4.2h-.7l-.3.2H111l-.3-.1h-.7l-.4.1-.3-.1h-.4l-.3.2h-.3l-.4-.2-.3.2-.4-.2h-.3l-.4-.2-.3-.1h-2.8l-.4.2-.3-.2h-.4l-.3.1h-.4l-.3-.2h-2.1l-.3.2-.4.1-.3-.2H97l-.3-.1H96l-.4.1h-1.4l-.3-.2h-.3l-.4.2-.3.1h-.8l-.3.3h-.3l-.4-.1h-1.4l-.3-.1-.4-.1-.3.1H88l-.3-.1H87l-.3-.3h-.3l-.4.1h-.7l-.3.1h-.4l-.3-.1-.4.1-.3.1-.4.1-.3-.2h-.4l-.3.1H80l-.3.1-.4-.1-.3.2-.4-.3-.3.2-.4-.2-.3.2h-.4l-.3-.2-.4.1h-.3l-.3.1v.3l.1.3.3.3v.4l.1.4.3.2.3.2.1.4.4.1.2.3v.4l.4.2.1.4.2.2.2.3.1.4.3.2.3.3.1.3.2.3v.3l.2.4.1.3.2.3v.4l.2.3.3.3v.3l.4.2v.4l.1.3.2.4.2.3v.3l.3.3v.3l.3.3v.4l.3.2.3.3v.3l.2.4.1.3.2.3.3.3.2.3.2.2v.4l.3.3.2.2v.4l.1.4.1.3.4.3-.1.4.2.3.3.2.2.3.3.2.2.3.2.3-.1.4v.4l.3.3v.3l.4.2.2.4.3.2.3.2.3.3.2.2.2.4v.3l.2.3v.4l.3.3v.3l.4.2v.4l.2.3.3.2.2.3.2.3.2.3.3.3.1.4.1.4-.3.3-.3.2-.3.3h-.4l-.4.2-.2.4-.3.2-.2.3h-.4l-.3.3-.3.2-.3-.2-.2-.4-.3-.2-.3-.2-.4-.2-.2-.4-.3-.1-.3-.3-.2-.4-.4-.1-.2-.3-.2-.4-.4-.2-.2-.2-.3-.3-.3-.2-.2-.4-.3-.2-.4-.2-.1-.4-.4-.1-.3-.3-.3-.2-.2-.4-.3-.2-.2.3v.4l.4.3.4.2.1.4.4.2.3.3.3.2.2.3.4.1.3.3.2.3.3.3.3.2.2.3.4.2.2.3.3.3.3.2.2.4.3.2.2.4.4.1.3.3v.4l.2.3-.1.4.1.4v.4l-.4.2-.1.4-.4.1-.3.2-.3.3-.3.3-.2.2-.4.2-.2.3-.3.2-.3.2-.4.2-.3.3-.3.1-.3.3-.3.1-.3.3-.3.2-.3.2-.3.3-.2.3-.3.3H80l-.4.2-.2.4-.3.2-.2-.4-.3-.2-.3-.3-.4-.2-.2-.3-.4-.2-.2-.3-.3-.2-.3-.2-.3-.3-.3-.2-.3-.3-.3-.2-.2-.4-.3-.2-.2-.3-.4-.2-.2-.3-.2-.3-.4-.1-.2-.4-.3-.3-.2-.2-.3-.3-.3-.2-.2.3.3.2.2.3.1.4.5.1.2.4.4.1.1.4.3.3.3.2.4.2.1.4.4.1.2.4.2.3.4.2.3.2.2.4.3.2.4.2.2.4.3.2.2.3.2.4.2.3.3.3v.9l-.3.3-.3.3-.2.4-.3.2-.3.3h-.4l-.2.5h-.4l-.3.3-.2.4-.3.2H75l-.3.4-.3.1-.4.2-.2.3-.3.3h-.4l-.2.5-.4.1-.3.2-.2.3-.3.3h-.5l-.2.3-.3.3-.2-.4-.4-.2-.3-.1-.3-.3-.2-.4-.3-.2-.2-.3-.3-.3-.4-.1-.3-.3-.1-.4-.4-.1-.2-.4-.4-.1-.3-.3-.2-.4-.4-.1v-.4l-.4-.3-.4-.1-.2-.4-.4-.1-.1-.4-.4-.1-.2-.4-.4.3.3.2.3.2.1.4.4.1.2.4.3.2.3.2.2.3.3.3.3.3.2.2.3.4.3.1.3.3.2.3.3.3.3.1.3.3.3.2.1.4.3.3.3.2.2.3.3.3.2.3.1.3v1.1l-.1.4-.2.3-.4.1-.3.3-.3.2-.2.3-.4.2-.3.2-.3.2-.3.3-.3.1-.2.4-.4.1-.3.3-.3.1-.3.4-.3.2-.4.1-.2.3-.4.1-.2.3-.4.2-.2.3-.3.3-.4.1-.3.4-.2-.4-.3-.3-.3-.2-.4-.2-.2-.3-.3-.3-.3-.2-.3-.2-.2-.4-.2-.4-.3-.2-.3-.3-.3-.2-.3-.2-.4-.2-.1-.4-.4-.1-.3-.3-.2-.3-.2-.3-.3-.3-.3-.2-.3-.3-.3-.2-.3-.4-.3.4.3.3.3.3.4.2.1.4.3.2.3.3.2.3.5.1.3.3v.4l.4.3.2.3.4.2.2.3.3.3.3.2.3.3.3.2.2.4.4.1.3.3.2.4.2.3.2.4.1.3v.8l-.2.4-.3.2-.3.2-.2.5h-.4l-.3.3-.2.4h-.5l-.1.5h-.5l-.2.4h-.4l-.3.4-.2.3-.4.1-.3.3-.3.2-.4.1-.2.3-.3.2-.3.2-.3.3-.2.3h-.4l-.3.2-.3.3-.2-.3-.4-.2-.2-.3-.3-.2-.4-.2-.2-.3-.3-.3-.2-.3-.3-.3-.4-.1-.2-.4-.3-.2-.2-.3-.4-.2-.2-.3-.4-.2-.2-.3-.2-.3-.3-.2-.4-.2-.3-.3-.1-.4-.4-.1-.2-.4-.3-.2-.4.3.4.2.2.3.4.2.2.3.1.4h.4l.2.5.3.2.4.1.1.4.3.3.3.2.3.3.2.3.3.2.3.3.3.2.3.2.2.3.2.4.3.2.3.2.3.3.3.2v.4l.1.3.1.4-.1.4v.3l-.2.3-.1.4h-.5l-.2.5-.3.1-.4.2-.3.3-.3.2-.3.2-.4.2-.2.3-.3.2-.3.3-.4.2-.2.3h-.4l-.3.4-.2.4-.3.1-.4.2-.3.3-.3.2-.4.2-.2.3-.4.3-.2-.5H45l-.2-.5-.4-.1-.2-.4-.3-.1-.3-.3-.2-.4-.2-.3-.3-.2-.4-.1-.4-.3-.2-.3-.3-.2-.3-.2-.3-.3-.2-.3-.4-.2-.2-.3-.2-.3-.3-.3-.2-.3H39l-.2-.5-.3-.3-.1.4.1.3.3.3.3.2.3.2.3.3.3.2.3.3.2.3.3.3.3.3.3.2.3.2.2.3.2.4.4.1.2.4.3.3.4.1.1.4.3.3.4.1.3.3v.4l.2.4.1.4.2.3-.2.4v.5l-.3.2-.2.3-.3.3-.3.2-.3.2-.3.2-.3.3h-.4l-.3.4-.2.3-.3.2-.4.2-.3.1-.2.4-.4.2-.2.3h-.5l-.2.4-.3.2-.4.1-.2.4-.4.1-.2.3-.3.3h-.3l-.2-.2-.4-.2-.3-.2-.2-.4-.4-.1-.3-.3-.2-.3-.3-.3-.4-.1-.2-.3-.2-.4-.3-.2-.3-.2-.3-.2-.2-.4-.3-.2-.3-.3-.4-.1-.2-.4-.3-.3-.2-.3-.4-.1-.1-.4-.3-.3h-.4l-.1.1.1.4.4.2.3.2.3.4.2.3.2.3.3.2.3.3.2.3.3.2.4.1.2.4.3.2.2.4h.4l.2.4.2.3.3.3.2.3.4.2.2.3.3.3.2.2.3.3v.4l.2.3-.2.4v.8l-.3.3-.3.2-.3.2-.4.2-.4.2-.2.3-.3.3-.3.3-.4.2h-.4l-.3.3-.3.3-.2.4H32l-.4.1-.5-.2-.4-.2-.3-.1h-.4l-.2-.3h-.4l-.3-.2-.2-.2-.3-.3h-.4l-.3-.2-.3-.2-.3-.1-.3-.3h-.3l-.3-.2H26l-.3-.3h-.7l-.3-.1h-.4l-.3-.1-.3-.1-.4-.2h-.3l-.3-.2-.3-.3-.4-.2-.1-.3v.2l.1.4-.2-.3-.3-.1h-.4l-.2-.2.1-.3.3-.3.3-.3.2-.3.3-.3.2-.3.2-.3.2-.4.3-.2.3-.2.3-.3.4-.1.2-.4.3-.2.3-.2.3-.2h.5l.1-.5h.4l.4-.2.3-.2.2-.4.3-.3h.4l.2-.3.4-.2.2-.4h.5l.3-.4.2-.4.1-.4.2-.3.2-.4.2-.3.1-.4.2-.4.4-.2.3-.2.3-.2.3-.3.4-.1.3-.3.3-.2.3-.3.3-.2.3-.2.3-.2.3-.3.4-.1.1-.4h.5l.2-.4.3-.3.3-.2.4-.1.2-.4.3-.1.3-.2.4-.3.2-.2.3-.4v-.4l.2-.3v-.4l.2-.3.3-.3.3-.4.3-.3.3-.3.3-.2.4-.1.2-.4.4-.2.2-.3.4-.2.2-.3.5-.1.2-.4.3-.2h.4l.4-.2.2-.3.3-.2.4-.2.3-.2.3-.2.3-.3.3-.2.3-.3.1-.4.2-.3.2-.3.1-.4.1-.4.3-.2.3-.3.1-.3.3-.3.4-.2.2-.3.4-.1.2-.4.3-.2.4-.2h.4l.2-.5h.4l.3-.3.3-.2.3-.4h.4l.2-.5.3-.2.4-.1.3-.3.3-.3.2-.2.3-.3.2-.3.1-.3.2-.3.3-.3.2-.3.4-.2v-.5l.3-.2.2-.3.4-.2.1-.5.3-.2h.4l.2-.4h.5l.3-.3.1-.4.4-.1.3-.2.2-.3.5-.1.2-.3.3-.2.3-.2.3-.3h.4l.1-.5h.5l.2-.4.3-.2.4-.2.1-.3.2-.4.1-.3.4-.2V96l.3-.3.2-.4.3-.3v-.4l.4-.3.3-.2.4-.2.2-.3h.4l.4-.3.1-.4.4-.2h.4l.2-.4.4-.1.3-.3.3-.3.3-.2.2-.3.4-.3.3-.2.3-.2.3-.2.3-.3.3-.2.3-.3.1-.3.3-.3.3-.2v-.4l.2-.4.4-.2.1-.3V87l.4-.2.3-.2.4-.1.3-.2.2-.4.4-.1.3-.4.3-.2.3-.3.3-.2.3-.2.4-.1.3-.3.3-.2.4-.2.3-.2.3-.3.2-.4.3-.2.4-.1.2-.4.2-.3.4-.1.3-.3.1-.4.3-.3v-.8l.4-.2.2-.3.3-.3.3-.4-.5.2-.3-.3h-2l.3.3.2.3.2.3v.4l.2.4-.1.4-.2.3-.2.4-.3.2-.3.2-.3.2-.2.4-.3.2-.3.2-.4.2-.2.3-.4.1-.4.2-.2.3-.3.3-.3.2-.4.2-.3.2-.3.3-.2.2-.4.1-.3.3-.3.3-.3.2-.2.3-.5.1-.4.1h-.4L71 86l-.2-.3-.3-.2-.3-.3-.3-.3-.3-.2-.2-.3-.4-.2-.2-.3-.3-.3-.3-.3-.2-.3-.4-.2-.3-.2-.2-.3-.4-.2-.2-.3-.4-.3-.3-.2-.2-.3-.3-.4H65l-.3-.4-.3.4.4.2.4.2.3.3.1.4.3.3.3.2.4.2.3.3.1.4.3.2.3.3.3.3.3.2.3.2.2.3.3.3.2.3.5.1.3.3v.4l.4.2.3.3.2.3.3.3-.1.5v.4l.2.4-.1.4-.4.3-.3.3h-.3l-.3.3-.4.2-.2.3-.3.3-.3.1-.3.3-.4.1-.3.2-.3.3-.2.3-.4.2-.4.1-.1.4-.3.3-.4.1-.4.2-.2.3-.4.1-.2.4-.4.1-.2.3H63l-.2-.4-.3-.2-.2-.3-.4-.1-.3-.4-.3-.2-.2-.4-.3-.1-.3-.3-.2-.4-.3-.1-.4-.3-.2-.2-.3-.3-.2-.4-.3-.2-.3-.3-.3-.2-.2-.3-.4-.1-.1-.4-.4-.2-.2-.4-.4-.2-.2.4.2.2.2.3.3.2.3.3.2.3.4.1.2.3.2.4.3.3.3.1.4.2.1.4.3.2.2.4h.4l.3.4.2.3.2.3.3.3.3.2.3.2.3.3.3.2v.4l.3.4v.8l.2.4-.3.3-.1.5h-.4l-.2.4-.4.2-.2.3-.4.1-.3.2-.3.3-.3.2-.3.2-.3.3-.3.2-.3.3-.3.2-.3.3h-.4l-.2.3-.4.1-.3.4-.2.2-.4.2-.3.2-.2.3-.4.2-.3.3-.3-.4-.3-.2-.3-.2-.3-.3-.3-.2-.3-.3-.3-.2-.2-.3-.2-.4-.5-.1-.1-.4-.4-.2-.2-.3-.2-.4h-.4l-.3-.4-.2-.3-.3-.3-.4-.1-.1-.4-.5-.1-.1-.4-.3-.3-.4-.1-.2-.4-.2.4.2.2.2.4.3.1.2.4.4.1.2.4.3.2.3.2.3.3.2.3.2.3.4.1.2.4.2.3.4.2.3.2.2.3.3.3.3.2.3.3.2.3.4.2.1.3.3.3v.4l.3.4v.4l-.2.4v.4l-.3.3-.2.3-.3.3H53l-.2.4-.3.2-.4.2-.3.2-.4.1-.3.3-.3.2-.2.2-.4.2-.2.3-.4.2-.3.2-.3.3-.2.2-.3.3h-.4l-.3.3-.3.3-.3.1-.2.4h-.7l-.2-.4-.3-.2-.4-.2-.1-.4-.3-.2-.3-.2-.4-.2-.1-.4-.3-.2-.4-.2-.3-.2-.1-.4-.4-.2-.2-.3-.4-.1-.2-.4-.3-.2-.3-.2-.2-.4-.2-.3-.4-.3h.8l.4-.3.4-.1.3-.2.3-.4.4-.2.4-.1h.5l.3-.4h.4v-.5l.4-.2.3-.1.3-.2.4-.2.3-.3.3-.2.5-.1-.4-.2-.3-.3-.4-.1h-.5l-.3-.3-.1-.4h-.4l-.2-.3-.4-.1-.3-.2-.3-.2.3-.2.4-.2.3-.3.3-.2.3-.3.3-.2.4-.2.3-.2.2-.4.2-.3.3-.2.3-.3.1-.3.3-.3.1-.4.2-.3.3-.3.2-.4.3-.3.3-.3.3-.2.3-.3h.4l.1-.5.4-.2.3-.2.3-.2h.4l.3-.3.3-.2.3-.3.3-.1.2-.4.4-.2.3-.2.3-.2.3-.3.3-.2.3-.3.3-.3.2-.3.4-.2.1-.4.2-.4.1-.3.2-.4.3-.2.2-.3.2-.4.4-.1.3-.4h.3l.3-.4.2-.3h.5l.2-.3.4-.2.1-.4h.4l.4-.2.1-.5h.4l.4-.2.2-.4h.4l.3-.3.1-.4h.5l.2-.3.3-.3.3-.3.2-.4.3-.2.3-.4.2-.4.2-.2.2-.4.1-.2.3-.3.2-.3v-.3l-.2-.1h-.4l-.4-.1-.3.1-.4-.1H63.2v.3l.4.2v.4l.1.3v.7l.1.4v.4l-.4.1-.2.4-.3.2-.3.2-.3.2-.2.3-.4.2-.3.2-.3.3-.3.2-.4.1-.3.2-.3.3-.3.2-.3.3-.4.1-.2.3-.3.3-.3.2-.4.2-.2.2-.3.3-.4.2-.2.3-.4.2-.3-.3-.2-.3-.3-.3-.3-.2-.3-.3-.3-.2-.2-.4-.3-.2-.2-.3-.4-.2-.4-.1v-.5l-.4-.2-.3-.2-.3-.3-.3-.2-.3-.2-.2-.4-.3-.3-.4-.1-.2-.4-.2-.3-.4-.1-.3-.2-.2-.5-.4.4.4.2.2.4.3.2.3.3.3.2.2.4.3.2.3.2.1.4.3.2.3.3.4.2.2.2.2.4h.4l.3.4.2.3.3.2.2.3.3.3.4.1.1.4.4.2.2.4.2.3v.8l-.2.4v.4l-.2.3-.3.3-.3.2-.4.2-.2.3h-.4l-.2.5H53l-.2.4-.3.2-.4.2-.3.1-.3.2-.2.4h-.5l-.2.3-.3.3-.3.2-.3.3-.3.2-.3.3-.3.1-.3.2-.3.3-.3.1-.3-.1-.3-.3-.3-.3-.3-.2-.2-.3-.3-.2-.2-.4-.3-.3-.4-.2-.2-.2-.3-.3-.3-.3-.3-.2-.3-.2-.3-.3-.2-.3-.3-.3-.3-.2-.4-.2-.2-.2-.3-.3-.2-.4-.3-.2-.3-.2-.3-.4-.2.4.1.4.4.2.3.2.2.3.2.4.4.1.3.3.3.2.2.4.2.3.4.2.4.1.1.4.4.2.3.3.2.3.2.3.4.2.2.3.3.2.3.3.3.3.2.4.3.3V95l-.2.4-.2.3-.3.3-.3.2-.3.3-.3.3-.3.1-.3.3-.3.2-.4.2-.2.4h-.4l-.2.5-.4.2-.2-.3h-.4l-.3-.2h-.4l-.2-.2-.4-.1-.3-.2h-.3l-.3-.2h-.4l-.3-.3h-.3l-.3-.2-.2-.4h-.4l-.2-.3h-.4l-.3-.2-.3-.3-.2-.2h-.4l-.3-.2-.2-.3-.4.1-.3-.3h-.4l-.2-.3-.3-.2-.3-.1-.2-.3-.4-.2h-.4l-.4-.2-.4-.2.4-.3v-.5l.4-.3.3-.2.4-.2.3-.2.4-.2.3-.3.2-.3.3-.2.3-.2.3-.2.3-.2.3-.3.3-.1.3-.3.4-.1.2-.4.3-.2.3-.2h.4l.2-.4.4-.1.3-.3.2-.3.2-.3.2-.4.2-.3v-.3l.3-.3v-.4l.2-.4h.4l.2-.4.3-.2.2-.3.3-.2.4-.1.3-.2.3-.3.3-.3h.4l.2-.4.3-.2.2-.3.4-.2.3-.2.3-.2.2-.3h.5l.3-.3.2-.3.3-.3h.4l.2-.5.4-.2v-.4l.4-.3.3-.3.2-.3.1-.4.3-.2.3-.3V77l.2-.3.2-.2h-.4l-.4-.1-.4-.2h-.4l-.4.2-.4-.2h-.4l.2.3.1.4.3.3v.3l.2.4-.2.3.1.5-.2.3-.3.3-.1.4H47l-.3.3-.4.3-.3.2-.3.3h-.4l-.2.4-.3.2-.4.2-.2.4-.3.2-.4.1-.3.3-.3.2-.4.2-.3.2-.2.4h-.5l-.2.5H41l-.3.3-.3.3-.2-.3-.4-.2-.3-.2-.2-.4-.3-.2-.3-.2-.3-.3-.2-.4-.4-.1-.5-.6-.2-.3-.3-.2-.4-.2-.2-.4-.3-.2-.4-.2-.2-.3-.3-.3-.3-.2-.2-.3-.3-.3-.3-.2-.2-.3-.3-.2-.3.3.2.2.4.3.1.4.4.1.2.4.4.2.1.4.3.2.3.3.3.2.4.1.2.4.3.3.4.2.2.3.2.3.3.2.4.2.2.3.3.3.3.2.3.3.1.4.5.2-.2.4.2.3-.2.3v.8l-.4.3-.2.3-.3.3-.4.1-.3.2-.2.4-.3.1-.3.3-.3.3h-.4l-.3.3-.3.2-.3.3-.3.2-.3.1-.2.4-.4.1-.2.3-.4.1-.2.4-.3.2h-.5l-.2.4-.3.2H32l-.3-.1-.3-.3-.3-.2-.2-.3-.3-.3-.2-.3-.4-.2-.2-.3-.4-.1v-.5l-.5-.1-.1-.4-.4-.1-.3-.3-.1-.4-.4-.2-.2-.3-.3-.2-.2-.3-.4-.2-.3-.2-.2-.4-.4-.1-.3-.4H25v.2l.2.3.2.3h.4l.3.3.3.3.2.3.3.2.3.3.2.3.2.3.3.3.3.2.2.3.3.3.2.3.3.2.3.3.2.2.4.2.2.3.2.3.4.2.1.4.3.4-.4-.2-.2-.4H30l-.3-.3-.4-.2-.3-.3h-.8l-.3-.1h-.4l-.3-.2-.3-.2-.2-.3-.4-.1-.3-.1-.2-.3-.3-.3h-.4l-.2-.2-.3-.3-.3-.1h-.3l-.3-.2-.3-.3h-.7l-.3-.3-.2-.3-.3-.2.1-.3h.5l.2-.4.4-.1.1-.4.3-.2.4-.2.3-.3v-.4l.4-.3v-.4l.3-.2.2-.4V84l.4-.2.3-.3.3-.3.3-.2.3-.2.3-.2.4-.1.1-.4.4-.2h.4l.2-.4.4-.2.2-.3.3-.3h.5l.2-.4.4-.1.2-.3.4-.2.2-.3.4-.2.2-.3.2-.4.3-.3.4-.2.1-.4.4-.3.2-.3.2-.2v-.5l.3-.3.3-.2.1-.4H33.3l-.4-.2-.4.2H32l-.4-.2.2.3.3.3v.4l.1.4.2.3-.3.4.1.4v.3l-.3.3-.4.2-.2.2-.3.3-.3.2-.3.3-.3.1-.3.3-.3.2-.3.2-.3.2-.3.3-.3.2-.3.2-.3.2-.3.3h-.4l-.2.4-.3.3-.3.2-.3.3h-.4l-.2.4-.4.1-.3.2v.1l-.3-.3-.2-.3-.3-.2-.3-.2-.2-.4-.4-.2-.2-.3-.3-.2-.3-.2-.2-.3-.3-.3-.3-.2-.3-.3.4-.2.4-.1.3-.3.3-.2h.4l.3-.2.2-.4.3-.2.3-.1.3-.2.3-.1.2-.3.4-.1v-.5l.3-.2.3-.3.1-.3.4-.2.1-.4h.4l.3-.3.3-.1.3-.2.3-.2.3-.2.3-.2h.4l.2-.3.3-.2v-.4l.3-.3.4-.1.2-.3.3-.1.3-.3h.7l.3-.4h.4v-.5h.5v-.5l.4-.1h.4l.2-.4.5.1.2-.3.3-.2.3-.2.3-.1.3-.2.3-.2.2-.3.3-.2.3-.2.2-.3h.4l.1-.4.4-.1v-.5l.4-.2.1-.3.4-.2.2-.3.3-.2.3-.1.4-.1.2-.2.4-.1.1-.4.4-.2.2-.2.4-.1.1-.4.3-.2.3-.2.2-.3.3-.2.3-.2.3-.2h.4l.2-.2.4-.1.3-.2h.3l.4-.2.3-.3h.4l.2-.3.1-.3.3-.2.3-.2.1-.5.3-.2h.4l.3-.2.3-.1.3-.3.3-.1.3-.2.3-.3.2-.2.2-.4.3-.2.3-.1.4-.1.2-.3h.3l.3-.3.3-.2.1-.4.2-.3.3-.3h.3l.4-.2.2-.3h.4l.3-.2.3-.3.3-.3.4-.2.1-.3-.3-.1-.2-.4-.4-.2-.3-.2h-.5l-.1-.4h-.5l-.2-.2-.3-.2-.3-.2-.2-.3-.3-.2-.2-.3-.2-.3-.5.1-.3-.2-.3-.2-.3-.1h-.4l-.3-.1-.2-.4h-.4l-.2-.3-.3-.2-.3-.1-.3-.2-.3-.1H47l-.3-.3-.3-.2-.3-.2-.2-.2-.4-.1-.2-.4h-.3l-.3-.3-.3-.1-.3-.2-.2-.3-.3-.2-.3-.2-.1-.4-.3-.2-.3-.2-.3-.1-.4-.2-.4.1-.3-.1h-.4l-.1-.5-.4-.1-.1-.4-.2-.3-.4-.2-.3-.1h-.3l-.3-.4h-.7l-.3-.3-.3-.2h-.4l-.3-.1-.3-.2-.3-.2-.2-.2-.2-.4-.3-.2-.3-.2-.3-.1-.3-.2h-.3l-.3-.3-.3-.2-.3-.2H33l-.3-.2-.3-.1-.2-.4-.2-.2-.4-.1-.2-.3-.2-.4-.3-.1-.3-.2-.3-.2-.3-.1-.3-.2-.2-.3H29l-.3-.2-.4-.2-.2-.3.3-.1.2-.3.3-.3.4-.1.3-.3.3-.1.3-.3.2-.2.3-.2h.4l.1-.4.2-.3.4-.1.2-.3.4-.2h.3l.3-.2h.4l.3-.3.2-.2.3-.3.2-.2.3-.2.3-.3.2-.3h.3l.3-.3.2-.3.3-.1.3-.3h.4l.2-.2.3-.3.3-.2.3-.1.2-.3.4-.1.3-.1.3-.3.1-.3.4-.2V29l.3-.3.3-.3.4.1.3-.2.4-.2h.3l.4-.1.3-.2.1-.3.3-.3h.4l.2-.3.1-.4.4-.2.2-.2.3-.3.2-.2h.4l.2-.4.3-.2.3-.2h.4l.2-.2.4-.1.3-.2h.3l.4-.2.2-.3.2-.3.2-.3.3-.2.4-.1.2-.3h.4l.2-.3.4-.1h.4l.2-.3.2-.3.3-.3h.3l.3-.2.2-.3.3-.3.2-.3h.4l.2-.4.2-.3h.3l.3-.3h.4l.1-.4.3-.2.4-.1.3-.2h.4l.2-.3.4-.2v-.4l.4-.1.1-.4.3-.3h.3l.3-.3h.7l.3-.3.2-.4.2-.3.3-.2v-.4l.4-.2.3-.2.3-.1.3-.2.3-.2h.4l.3-.3.3-.2h.3l.3-.3h.4l.1-.4.3-.2.2-.3.3-.2.2-.3.3-.2h.4l.3-.3.3-.2h.4l.3-.2.2-.3.2-.3.2-.2.4-.2.2-.2h.4l.3-.2.3-.2.3-.2.3-.2h.3l.3-.3h.3l.3-.3.2-.4.2-.3h.4l.3-.3v-.4h.5l.3-.2.3-.2.3-.1.3-.1.3-.3.2-.3.3-.2.3-.1.4-.1.2-.3.1-.4.4-.2V4l.3-.3h.8l.3-.3h.3l.4-.1.1-.4h.5v-.5l.4-.2.2-.2.3-.2.3-.2.3-.2.1-.3.4-.1.2-.3h.4l.2-.4.3-.1.3-.1Zm-4.5 30.8.4.9c-.3.1-.4.3-.1.4.2.1.3.3.3.5v.5l-.4.5H77v.6l.5.6c0 .3-.2.6-.4.8-.2.1-.3.3-.3.5s-.2.4-.4.5v.6l-.7.5v.2h-.3c-.2 0-.3 0-.3.2v.6h.2c.2 0 .3.2.3.3h.3l.2.1.3-.2.4-.3v.3l.2.3 1 .1c.3 0 .4 0 .4-.2.4 0 .6 0 .6-.2h.5l.3-.2H80.7v-.2h.8l.3-.2.9.1.7-1v-.3c.4 0 .8 0 1.2-.3l.8-.3v-.3c.1-.3.2-.5.4-.5.6 0 .9 0 .9-.4V35h-.2l-.3-.4h-.8V34l-.2-.3h-.6l-.2-.1v-.3L84 33c0-.2 0-.2-.2 0l-1.1-.2h-.3c0-.5-.3-.9-1-1h-.6l-1.1-.1c-.2 0-.4-.2-.5-.4L79 31h-.3c-.3 0-.5-.1-.5-.2s0-.2-.3-.2c-.5 0-.8 0-.8.2Zm-10.9-3.2c-.6 0-.8 0-.9.2h-.2c-.2 0-.3-.2-.3-.4 0 .2-.1.3-.3.3h-.6v.2h-.3l-.8.2-.9.1v.3c0 .2-.2.3-.6.2h-.6l-.6.2h-.5l-.3-.1v.3c0 .1 0 .3.2.3v.2c.1.4.3.6.5.7.4 0 .5.3.4.9h.3c.2.2.3.4.2.6l-.3.5h.8l.6.4c.1 0 .2.2.2.6 0 .2.1.3.5.4l.3.1c0 .1 0 .2.2.2v.5c0 .2 0 .3.2.4h.6l.2.3h.6l.2.4h.3l.2.3v.3c.4 0 .5.2.5.4 0 .1 0 .2.3.3.1 0 .2 0 .2.3l.3.3c.1.2.2.2.2 0l.3-.2h.3c.2 0 .3.1.3.3v.3l1.6.2h.6V38c-.2-.2-.2-.4 0-.6.3-.2.3-.3 0-.3l-.2-.3v-.6c-.1 0-.2 0-.1-.2l-.3-.6-.2-.3v-.6l-.2-.3v-.6l.2-.8V32l.4-.3v-.8l.4-.2.3-.8c.5-.4.7-.6.7-.8v-.3h.3l.3-.2v-.3l-.2-.3v.3h-.3l-2.8-.3h-.3l-.2-.4v.3h-.6l-.3-.1c-.1-.4-.4-.4-.8 0Z" />

    <path d="m23.7 83.2-.3-.3-.3-.3-.2-.3-.3-.2-.3-.3-.3-.3-.2-.3-.3-.3-.3-.3-.3-.3-.2-.3-.4.3-.3.3-.3.3-.4.3-.3.2-.2.3-.3.3-.2.2-.3.3-.3.2-.3.1-.4.2-.3.2-.3.2-.3.2-.3.3-.2.3-.3.2-.3.3.3.2.3.2.4.2.3.1.3.2.4.2.4.3.4.2.3.2.3.2.3.2.3.2.3.2.3.2.4.1.3.1.3.1.4.1.3.1.4-.3.3-.2.3-.3.4-.3.3-.3.3-.3.3-.2.2-.4.1-.4.1-.4V84l-.1-.4-.2-.4"/>

    <path d="m69.3 121.2-.1.4-.2.3-.3.3-.3.3-.3.3-.3.2-.3.3-.3.2-.3.3-.3.2-.3.3-.4.2-.3.3-.3.2-.4.2-.3.2-.3.2-.4.3-.3.2-.3.2-.3.3-.3.2-.3.2-.3.2-.3.3-.3.3-.2.2-.2.4-.1.3-.2.4-.2.4-.2.3-.2.4-.3.3-.4.2-.3.3-.3.3-.3.2-.3.2-.3.2-.4.3-.3.2-.3.2-.3.2-.3.3-.3.2-.3.2-.4.3-.3.2-.3.2-.3.2-.3.3-.4.2-.2.3-.3.2-.3.3-.3.3-.1.3-.2.4-.2.3-.1.4-.3.3-.2.3-.3.2-.2.3-.3.3-.3.2-.3.2-.3.3-.3.2-.3.2-.4.2-.2.3-.3.2-.4.2-.3.2-.3.3-.3.1-.3.3-.3.2-.3.2-.3.3-.3.2-.3.2-.3.2-.3.3-.3.3-.2.3-.2.3.4.1.3.1.4.1.3.1.4.1.4.1h.4l-.2.4-.1.4-.2.3-.1.4-.2.3.1.5.3.3.3.2.3.3.2.2.3.3.3.2.3.3.3.3.3.2.3.3.2.3.4.2.2.3.3.3.3.2.3.2.2.3.3.3.4.2.3-.2.3-.2.3-.3.3-.2.4-.2.2-.3.4-.2.3-.2.3-.2.3-.3.4-.2.3-.3.3-.2.3-.2.3-.3.3-.2.4-.2.3-.3.3-.2.3-.2.3-.3.3-.2.3-.3.3-.2.1-.4.1-.3v-.4l-.1-.4v-.3l-.1-.4-.2-.3-.3-.3-.3-.2-.3-.3-.3-.3-.3-.3-.3-.2-.3-.3-.2-.3-.3-.3-.3-.2-.3-.3-.3-.3-.2-.3-.3-.2-.3-.3-.3-.3-.3-.3-.3-.3-.3-.2-.3-.3-.2-.3-.3-.2.2-.3.3.3.3.2.3.3.3.2.3.3.3.3.2.3.3.2.3.3.3.2.3.3.3.3.2.3.3.2.3.3.3.2.3.3.3.3.2.2.4.3.3.2.2.3.3.3.3.2.3.3.3-.2.3-.2.4-.3.2-.2.4-.3.3-.2.3-.2.4-.2.3-.3.3-.2.3-.3.3-.2.3-.2.3-.2.4-.3.2-.2.4-.3.3-.2.3-.2.3-.3.3-.2.4-.2.3-.2.2-.3.2-.4v-.3l.1-.4v-.4l-.1-.4-.2-.3-.1-.4-.3-.2-.3-.3-.3-.3-.3-.3-.3-.2-.3-.3-.3-.2-.3-.3-.2-.3-.3-.3-.3-.2-.3-.3-.2-.3-.4-.2-.2-.3-.3-.3-.3-.3-.3-.2-.3-.3-.3-.3-.3-.3-.2-.2.1-.2.3.1.3.3.3.2.3.3.4.2.2.3.3.3.3.3.3.2.3.3.3.3.3.2.3.3.2.3.3.2.3.3.3.2.3.3.3.3.3.2.3.3.3.3.3.2.3.2h.4l.3-.1.4-.2.3-.3.3-.2.3-.2.3-.2.4-.3.2-.2.4-.2.3-.2.3-.3.3-.2.3-.2.3-.2.4-.3.2-.2.4-.3.3-.2.3-.2.3-.2.3-.3.3-.2.3-.3.2-.3.1-.3.1-.4v-.7l-.1-.4-.2-.3-.2-.3-.3-.3-.3-.3-.2-.3-.3-.2-.3-.3-.2-.3-.3-.3-.3-.3-.3-.3-.2-.3-.2-.1v-.1l-.3-.2-.3-.3-.3-.2-.3-.3-.4-.2-.3-.3-.3-.2-.3-.2-.3-.3-.3-.2-.3-.3.3-.3.3.2.3.3.3.3.3.2.4.2.3.3.3.2.2.3.3.3.2.4.2.3.1.1.1.1.3.3.3.2.3.2.4.2.3.3.3.2.3.3.3.2.2.3.3.3.3.2.3.3.3.3.3-.3.3-.2.3-.2.3-.2.3-.3.3-.2.3-.2.3-.2.3-.2.3-.2.3-.3.3-.2.3-.2.3-.2-.2-.4-.2-.4-.2-.4-.2-.3-.1-.3-.2-.3-.2-.3-.2-.2-.2-.3-.3-.3-.2-.2-.2-.3-.2-.4-.3-.4-.2-.3-.2-.4-.2-.3-.1-.4-.1-.3-.1-.4-.2-.3-.2-.4-.2-.4-.3-.3-.2-.4-.2-.3-.3-.2-.2-.3-.3-.2-.2.2-.4.3-.3.2-.3.2-.3.2-.3.3-.4.2-.3.3-.3.2-.3.2-.3.3-.4.2-.3.3-.3.2-.3.2-.3.3-.3.3-.2.4-.1.4-.2.3"/>
  </g>
</svg>
