<svg width="200" height="200" xmlns="http://www.w3.org/2000/svg" dragabble="true">
  <path 

    id="icon-ship"
    stroke="none" 
    stroke-width="1"
    fill="var(--fill, var(--green))"
    fill-rule="evenodd"
    transform="rotate(31 30.2 112.2)"

    d="m53.5 0-.6.6-.7-.5-.7.8-.7.2h-.6l-.7-.2-.7.2-.8-.5-.7.2h-.7l-.5 1-.7-.3-.6.6-.9-.6-.6.5h-.7l-.5.7-.8-.4-.5.7-1-.5-.3 1.1-.8-.2-.7.2-.6.1-.4 1-.8-.3-.7.3h-.8l-.5.4-.2 1.1L33 6h-.8l-.4.6-.3.8h-.8l-.4.6-.9-.1-.5.4-.5.5-.6.3-.5.5-.4.5-.5.5-.6.4h-.8l-.6.4-.1.8h-1v.9l-.7.3-.7.2-.4.6-.6.3-.7.2v1l-.4.5h-1l-.4.6-.6.3v1l-.4.5-.7.3-.2.8h-1l-.2.7-.3.7-.7.3-.2.8-.2.6-.7.4-.7.4-.3.5-.5.5.2 1-.5.5-.8.3-.2.7v.8l-.7.4-.2.7-.3.6-.2.7-.3.6-.3.6-.7.4-.4.6-.4.5-.2.7-.4.6.4.8-.8.5v.6l-.5.6-.1.7v.7l-.4.6.2.8-.9.4.4.8-.6.5.2.8-.4.6.2.8-.5.5-.6.5.2.8v.7l-.5.6V48l-.4.5-.7.6-.1.6v1.4l.5.8-.5.6-.3.6.4.8-.9.5.8.8v.7l-.7.6-.4.6v.7l.7.7v.7l-1 .6v1.4l.2.7-.3.7v.6l.4.7v1.4l-.3.7.3.6.6.6-.3.8.6.6-.2.7v.6l.6.6.2.7-.2.7.1.6.4.6v1.4l.4.6.3.6-.2.8.3.6.6.5V79l-.2.8.2.7 1 .3-.4 1 .9.3.2.6.2.7.5.5.2.6.1.7v.8l.7.4v.8l1 .2V89l.8.3.1.7.4.6h1.1v.9l.6.4.7.3.2.7.5.4.3.7.3.7.4.5.8.2.7.2v1l1-.1.6.3v1l.6.5.4.5.7.3.7.1h.9l.1 1 1-.2.2 1h.8l.4.6h1.5l.6.4.6.4.3 1 .9-.3.6.1.5.7.7.2.8-.2.5.5.7.2.6.3.6.6.7-.3.6.6.8-.4.6.4h.7l.7.4.7-.5.7.2.6.8.7-.4.7.3.8-.4.5.8.8-.3.6.3.6.5.8-.6.6.5h.7l.8-.3h.7l.5 1.1.7-.4.7.5.7-.5.7.3.6.4.8-.2.6.3.8-.3.6.6H54.4l.7.2.7-.3.6.4.7.3.6.3.8-.1h.7l.7-.3.6 1 .8-.8.6.7.6.4h.7l.7.2h1.4l.6.4.8-.5.5.9h.7l.8-.8.5.8.7.1.7-.4.7.2h.7l.5 1 .6.1.7-.3.7.5.7-.5.7-.4.6.3.6.7.7-.2h.7l.6.3.7.3h.7l.7-.2.7-.2h.7l.6.3.7.2.6.3.7.2.6.2.8-.4.6.3.7.2.7-.2.6.5.6.7.8-.4h.7l.6.3.7.2.6.1.7.4.7.1.8-.7.5 1 .8-.6.6.8.7-.2.6.5.8-.6.5.8h.7l.8-.5.6.5.7.2.7-.4.6.6h.7l.7.1h.7l.7.2.7-.2.6.3.7-.2h.7l.6.5.7-.1.6.2.8-.2.6.2.6.4.6.6h.7l.7.1.7-.1.6.3h.7l.6.1.8-.5.6.6.6.3.8-.7.6.5.6.5.7.1.7-.2.7.2.7-.5.6.4.7.3.7-.4.7-.2h.7l.6.8.7-.2.7-.2.6.5.7-.2.7.3.7-.7.6-.2h.7l.7-.1.7.2.7.6.6-.8.7.1.7.4.7.1.7-.1.6-.2.7-.3.6-.4.8.6.6-.5.7.3.6-.9h1.4l.7.5.6-.5.6-.5.6-.1.7-.2.8.4.4-1 .9.5.5-.4.4-.9.8.3.5-.5.6-.4 1 .4.3-.8.4-.5.9.1.6-.2.6-.3.5-.4.6-.5.2-.8 1 .2.6-.4.3-.6.6-.3.7-.3.2-.8.7-.2.6-.4.4-.5-.2-1.1.5-.5.5-.4.4-.6.7-.3h1l.2-.6v-1l.4-.5.2-.6h1.2v-1l.2-.6.6-.4.6-.5v-.8l.3-.6.9-.3.3-.7v-.7l.3-.7.3-.6.6-.6-.5-.9.2-.6.9-.5-.3-.8.1-.6.2-.7.2-.7v-1.4l.6-.6-.6-.7v-.7l.9-.6-.3-.7v-.7l.3-.7-.6-.7.5-.7.3-.7-.5-.7-.2-.7.6-.7-.9-.6.7-.8-.7-.6.1-.7-.1-.7.2-.8-.7-.5v-.7l-.1-.7-.1-.7v-.8l-.4-.6-1-.3v-.8l-.2-.6.2-.8-1-.3-.2-.6.2-.8v-.7l-.2-.6-1-.3-.3-.6v-.7l-.7-.4.3-1-.4-.5-.2-.7-.4-.5-.6-.5-.5-.5-.6-.3.2-1.2-.5-.5-1.1.3-.4-.6-.3-.7-.5-.5-.6-.4-.5-.5v-.8l-1-.2-.5-.3-.3-.6-.7-.3v-1l-.6-.3-.6-.4-.3-.7-.6-.3-.9.1-.3-.8h-.7l-.3-.9-.7-.2-.5-.4h-.8l-.7-.1-.4-.6-.5-.5-.5-.5h-.8l-.6-.1h-.7l-.5-.5h-.7l-.4-.5-.2-1-1 .5-.6-.6-.4-.7-.9.2-.2-1.1-1 .4-.7-.3-.4-.7-.6-.5h-.7l-.5-.7-1-.3-.7.8.4 1-1 .3-.5.3V45l.2-.7.5-.5v-.8l-.4-.7-.7-.2-1 .3-.5-.4-.6-.2-.3-1-.5-.5-1 .3-.3-.6-.6-.4-.7-.2h-.7l-.4-.7-.5-.5-.6-.3-.5-.4-.7-.1-.8-.5-.6.7-.4.6.3 1-.8.4-.2.4-.2.4.1-.3-.7.7-.2.2v-.4l1-.6.1-.4V38l.7-.5.2-.7.1-.7.8-.5.2-.6-.3-.9-.1-.8.1-.6.5-1-.8-.4-.5-.4-1 .5-.4-.7-.4-.7h-.7l-.7-.2-.6-.1-.6-.4-.6-.2-.4-.8.3-.6-.5-.7-1 .3-.6-.3-.3-.7h-.6l.3.2h-1.5l-.5-.5-.6-.2.3-.6-.6-.8-.7-.2-.5-.8-.8.3-.7-.3-.6.4-.8-.1-.4-.8-.7-.1-.5-.7.2-.8-.6-.3-1 .4-.6-.6-.6-.8-.8.6h-.6l-.5-.6-.3-.3-1-.3.7-.9-1-.4-1 .4-.5-.7-.4-1-1 .4-.6.7-.6-.6h-.8l-.1-1.2h-.8l-.6-.2-.6-.3-.5-.6-.7-.1-.5-.4-.7-.3-.8.2-.4.8.4.6.6.6-.7.5.3 1-1-.1-.5.2-.6.7-.7.3-.7-.8-.7-.3-.8.8-.5-.8h-.7l-.7-.3h-.8l-.2-1h-.9l-.3-.7-.7-.2-.4-.6-.6-.3-.8-.1-.7-.2-.5-.5-.1-1-.6-.3-1 .1v-1l-.6-.4-.7-.2-.6-.4-.6-.2-.7-.3-.3-.7-.5-.4-.2-.8-.6-.5-.6-.2-.4-1-1 .1-.4-.5-.7-.2-.5-.4h-.8l-.4-.6-1 .4-.2-1-.6-.3-1 .3-.5-.2-.3-1-.8.1-.4-.7-.9.2-.6-.4-.4-.7-.9.3-.6-.3h-.7l-.4-1h-.7l-.8.2-.6-.4-.7-.1-.7-.2-.7.1h-.7l-.7.3-.7-.3-.6.5-.8-.9Zm14.3 13.3v-.7h.7l-.3.3-.3.4h-.1Zm-8 6.9h.6l.7.7.7-.1-.3.6-.3.7.2.8-.9.7 1 .7-.4.9.5.6h.9l.7.2.4 1.2.6-.1L64 26l.8.5.6-.2.6.2h.7l.3 1h.8l.4.6.7.1.5.6.7.2h1.5l.6.3.4.9.6.3 1-.5.2 1 .6.3h.8l.6.3.7.1.7.2.4.7.6.3.3.8.5.5.6.3.4.6.8.1.2.8.1.8.2.5.2.8-.6.4.5.8-1 .3-.2.6.5.8v1.4l.8-.2.4.7.8-.1.5.3.3.8.8-.2.6.3.6-.2.5.8-.2.2.4.7-.1.7.5.5.6.3.6.1.6.3H90.4l.2-.9.6 1.1.8-.3v.5l.7.6.2.3.4.5.6.4.7.4.3 1 1-.1.9-.4.4-.7.6.6h1l-.8.8.2.8.4.7 1-.3.2 1 1-.1.6 1 .4-1.2 1 .3.6.3.5.2.3.7-.7.5.6.4.5.6.6.3 1-.5.4.7 1 .1.4-.5h.9l.3.7h.8l.4.9.7.2.7.3.6.4.7.2h1.1l.5-.2.8-.1.4-.5v-.9h.8v-.9l.6-.3h.5l.7.3h1.6l.6-.6h.7l.6.6h.6l.6.5 1-.6.5.3.5.6h.8l.2 1h.7l.7.3.4.7.7.1.7.3.3.6.3.7.6.4.4.6h1l.4.5v.8l.6.4.9.2v.8l.6.4.6.3.7.2.6.3.6.4.4.6.5.5.5.4.7.2.5.4.9-.2.3.7.6.3.3.6.6.5.7.3.3.7.9.1v1l1 .1.3 1 .9-.3.4.6h.8l.5.6.3.8.8.1.6.3.4.7.5.4.7.2.2.8.1.8.5.5.5.5.4.5 1 .2v.8l.1.7.8.4-.5 1 1 .3.3.7-.4.8-.3.7.3.6.7.7.1.7-1 .7V90l-.3.6V92l-.2.6-.2.7-.6.5v.5l-.2.8h-.7l-.7.4-.6-.4-.5-.4h-.4l-.1.3-.7.4-.6.4-.4.6-.6.4h-.8l-.6.6-.6.3-.8-.1-.6.2-.6.5H143l-.8-.4-.7.1-.5.9-.8-.5-.6.8h-1.4l-.7.2h-.7l-.7-.2-.7-.3-.7.3-.7-.4-.7.8-.7-.6-.7-.3-.7.4-.6-.3h-.7l-.8.7-.6-.5h-.7l-.7.4-.7-.4h-.7l-.6-.3-.7-.3-.6-.2-.8.4-.7.2-.6-.9-.7.7-.7.1-.6-.9h-.7l-.6-.3h-.7l-.8.3-.7.4-.6-.8-.7.5-.6-.8-.8.3-.6-.4-.7.4h-1.4l-.7-.3-.5-.9-.8.5h-.7l-.6-.5-.7-.1-.8.4-.6-.4-.7-.1-.6-.2-.7-.6-.7.4-.7-.5-.7.4-.7-.4h-.7l-.6-.3-.8.4-.7-.1-.6-.8-.7.4-.7-.2-.7.6-.7-.8-.7.4-.7-.1-.6-.5-.7.8-.7-.5h-.7l-.7.5H89l-.6-1-.7.5-.7-.4-.7.6-.7-.3-.6-.3-.8.3-.6-.2-.7.3-.7-.6H79.4l-.8.2-.6-.4-.6-.3-.7-.4-.7.2-.7-.1-.7.3-.5-1-.9.6-.5-.7-.6-.4h-.7l-.6-.4H70l-.7-.2-.6-.4-.8.4-.5-.9-.7-.1-.9.8-.5-.8h-.7l-.8.3-.6-.1h-.7l-.6-1-.6-.2-.8.3-.6-.5-.8.5-.7.3-.7-.3-.5-.7-.8.2h-.7l-.6-.4-.6-.4h-.7l-.7.1-.8.2h-.7l-.6-.4-.7-.3-.6-.3-.6-.3-.6-.3-.8.4-.6-.3-.7-.2-.7.2-.6-.5-.5-.6-.8.4h-.6l-.7-.3-.6-.2-.7-.1-.6-.4-.7-.1-.8.6-.4-1-.9.6-.5-.9-.7.2-.5-.6-.9.4-.4-.9-.6-.1-.9.2-.4-.6-.6-.4h-.8l-.3-.7-.6-.3-.6-.4-.7-.3-.4-.5-.7-.3-.4-.6-.7-.2-.6-.4v-.8l-.7-.3-.4-.7-.6-.3-.4-.6-.1-.7v-.9l-.5-.5-.2-.6-.6-.5v-.7l-.4-.6-.2-.6-.9-.4.3-.8v-.7l-1-.5.3-.8.3-.7v-.7l-.5-.6.1-.7-.6-.6.3-.7.3-.7-.5-.7-.2-.7v-.7l.9-.6-.2-.7-.1-.7.5-.6-.1-.7.3-.7-.5-.8v-2l.4-.7.8-.5-.6-.9.4-.6.6-.5.3-.7.2-.6v-2.2l1-.4-.3-.8.6-.5-.4-.9.4-.6.4-.5.8-.5-.1-.7V42l.3-.6.3-.6.8-.4-.4-1 1-.2.1-.7-.2-1 .8-.2.2-.7.2-.7H30v-1l.2-.6.8-.3.6-.4.5-.4.4-.6.4-.5v-.9l1.1.2.5-.5.3-.6.6-.3.7-.3.2-.8.7-.2.6-.2.6-.4V27l.6-.3.6-.3.6-.4.7-.1 1 .3.4-.5.4-.9.6-.2.5-.5 1 .6.5-.7.6-.5h.7l.7.1.6-.6.6-.3.8.4.7-.1.6-.6.6-.2h.7l.8.1.5-1h.6l.9.5.5-.6.7-.1.7-.1.7-.1.7-.1.6-.3.8.4.6-.7Zm63.8 24-.1-.7.9-.3-.5-1 .9-.3.2-.3.4.7-1 .3v.6l-.2.7-.4.4-.2-.1Zm-4.3 8-.1-.8 1-.3-.5-1 1-.3.3-.6.3-1 .4 1.1-1 .5-.5.5.5 1.1-1 .2-.3.7-.4.3.3-.4Zm24.3 12.6-.6-.3V64l-.3-.5-.3-.6v-.7l.4-.6h1l.4-.3.5-.8.6.8.7.1.7.1.3.6v.3l-.6.2-.5-1-.7.8.9.2.1 1 .2.4 1 .5-1 .4-.2.5-.5.4-.6.4-.6-.8-.7.2-.2-.7Zm.6-2.4h.9l-.7-.7-.2.7Z" />
  
</svg>
