<svg width="200" height="200" xmlns="http://www.w3.org/2000/svg" dragabble="true">
  <g 
    id="icon-sun"
    stroke="none" 
    stroke-width="1"
    fill="currentColor"
    fill-rule="evenodd"
    transform="translate(11 11)"
  >

    <path d="m65.4 137 .3-.2c.2-.4.3-.6.6-.6h1.3c.2 0 .2.2.2.4l.1.5.1.5c0 .3.2.5.7.4.4 0 .7-.2.8-.4.2-.3.3-.4.6-.4s.4.1.4.4c0 .2.1.3.5.3l.8-.1.6-.2c.1 0 .4 0 .8.3.5.1.8.2.9 0h7c.3 0 .4.2.6.6.4.3.6.3.7.1l.4-.7H84c.5 0 .7.4.7 1.2h2l.3.2c1.9 0 3-.1 3.4-.4.6.6 1 .9 1.3.8.4-.5.7-.6 1-.1.2.4.5.6.7.6.3 0 .5 0 .8-.3l.4.1.8.4c.2.2.4.2.5.2.3 0 .5 0 .8-.3l.5-.3c.3 0 .5.2.6.5.1.3.3.5.4.5h.2c.2 0 .4 0 .5-.2.2-.4.4-.6.6-.6 1.5 0 2.5.2 2.9.4h2.2c.2 0 .2-.1.2-.4 0-.2 0-.3.2-.3.4-.4 1-.2 1.7.5.2.5.6.6 1.4.2l.4-.4.5-.5c.1-.2.3-.1.6.2 0 .2.2.2.5 0l.9-.2H112.3c.2 0 .2-.3.1-.8v-.2c0-.4.1-.4.4-.2.5.5.9.8 1.1.7.3 0 .6-.2 1-.5l1.3-.4c.6 0 1-.3 1-1 .3.6.6.8.7.6.3 0 .6-.3 1-.9.5-.6 1-.9 1.3-.8l.4-1c.2-.4.5-.7.7-.7.3 0 .4-.1.4-.5 0-.3 0-.4.2-.4h1.1c.2 0 .3-.2.3-.5.1-.3.3-.5.5-.5h1c.2 0 .3-.1.3-.5 0-.3.2-.4.4-.4.3 0 .4-.2.5-.5 0-.3.2-.5.5-.5h.3c.5 0 .9 0 1-.2.3-.1.4-.3.4-.5s0-.4-.2-.6l.2-.4c1.9 0 2.8-.4 2.8-1.2.1 0 .2 0 .2-.2.1 0 .2-.4.2-.9l.3-.4c.2-.1.2-.2 0-.4 0-.6.2-.8.5-.6l.8.5c.3.2.5.2.5 0v-1.4c0-.2.1-.4.4-.4.9 0 1.3 0 1.3-.2v-1.1c.1-.3.3-.4.6-.4h1.1l.4-.4c0-.4.1-.7.4-1l.3-.9v-1l.4-.1.9-.4c.3-.1.5-.3.5-.4 0 0 .2 0 .3-.2l.4-.2 1.3-1.5c.3-.4-.2-.9-1.5-1.5l.2-.4c1.3-.3 2-.8 2-1.7 0-.4.1-.6.5-.6.2-.1.3-.2.3-.4a6 6 0 0 1-.5-1.5l.2-.4.2-.6c0-.5.5-.7 1.1-.7.3 0 .4-.1.4-.4v-2.3c0-.2.2-.4.6-.4.2 0 .3 0 .3-.3s.2-.4.4-.4l.2-.2 1-1c.2-.4 0-.6-.4-.7-.3-.2-.4-.3-.3-.5 0-.2.2-.3.5-.3h.3c.4 0 .6-.2.6-.7 0-.4 0-1-.3-1.5l-.3-1c0-.2.2-.3.5-.4.3-.1.5-.3.5-.4v-2.7c0-.2 0-.4.2-.5l.6-1.6c0-.5-.2-.7-.4-.7-.3 0-.4-.2-.4-.4 0-.3.1-.4.4-.5.2 0 .4-.2.4-.3v-1.5l.1-.8c.3-.1.3-.4 0-.7-.2-.4-.2-.7 0-1 .5-.5.8-1.1.8-1.9 0-.2-.1-.4-.4-.4l-.7-1c-.7-.2-.8-.6-.4-1l.6-1.2V76l-.2-.5a1 1 0 0 1-.2-.5c.4-1 .4-1.6.2-1.7-.3.1-.6 0-1-.4v-.5l.2-.4v-4.2c0-.2.2-.3.5-.3s.5-.2.5-.5-.2-.4-.4-.4h-.6c-.3-.1-.4-.2-.4-.4l.2-.7.2-.6c0-.3 0-.4-.2-.6-.4-.2-.6-1-.6-2.3l-.1-.4c-.2-.2-.2-.5-.2-.7 0-.6-.4-1-1.2-1l-.2-.3V59l-.2-.6c1.2-.8 1.4-1.1.6-1.1H145c-.3-.2-.4-.3-.3-.6 0-.3.2-.4.5-.4 0-.1.2-.4.2-1l-.2-.3-.4-1.7c0-.3-.1-.4-.4-.4H143c-.1 0-.2 0-.2-.2l.2-1v-1l-.8-.1c-.2 0-.4-.1-.4-.4v-1l-.1-.3c-.2-.1-.2-.3-.2-.4-.2-.4-.4-.4-.8-.2-.4.3-.6.3-.6.2v-2c0-.2-.1-.3-.3-.3-.3 0-.5-.2-.5-.5s-.2-.4-.5-.4c-1.1 0-1.7-.1-1.7-.2 0-1.2-.1-1.8-.4-1.8h-1c-.3 0-.5 0-.6-.3 0-.3-.2-.4-.3-.4h-1.1l-.3-.5c0-.3-.2-.5-.3-.5H132c-.3 0-.4-.2-.4-.5 0-.4-.2-.8-.6-1.2-.6 0-1-.1-1.1-.4-.3-.7-.7-.8-1.3-.2-.2.2-.3.1-.4-.2l-.4-.1h-2.9c-.8 0-1.4-.2-1.7-.6-.5-.5-.8-.8-1-.8-.4 0-.8-.1-1-.4-.7.3-1 0-1-.7V35h-.4v1.4c0 .2-.1.4-.4.4-.6 0-1-.1-1-.2h-.7l-.2.2h-2.4c-.1-.3-1-.4-2.5-.4l-.5-.3-.4-.3H106c-.3 0-.4-.2-.4-.5s-.1-.4-.4-.4c-.4 0-.6-.3-.6-.8h-.1l-.8.4-.2.4h-5.3c-.1 0-.3-.2-.4-.5-.1-.3-.3-.5-.6-.5h-.5c-.3 0-.4.1-.4.4-.1.4-.4.6-.8.6h-.2l-.4-.5c-.2-.3-.4-.5-.7-.5h-.4c-.2 0-.4.2-.4.6l-.7-.2-.6-.4h-5c-.3 0-.5.3-.5.8v.2c-.2 0-.4-.2-.4-.6-.3-.3-.6-.3-.7 0 0 .4-.8.6-2.3.6l-.6-.4a2 2 0 0 0-.6-.5c-.2 0-.4 0-.5.3-.1.4-.3.6-.6.6h-1.6c-.2 0-.4-.2-.8-.5-.3-.3-.6-.5-1-.5-.3 0-.4.1-.4.4 0 .4-.2.6-.5.6s-.4.1-.4.4c0 .3-.2.5-.4.5-.6 0-1 .1-1.1.4 0-.9-.2-1.3-.6-1.3h-.4c-.3 0-.4.1-.6.4 0 .3-.3.5-.5.5H72c-.3-.1-.4-.4-.6-.8l-1.1.2c.1.3.5.7 1.1 1.4-.1.2-.6.2-1.4 0l-1.4-.6H68l-.4.5-.4.3c-.8 0-1.3.2-1.6.5l-.2.6c0 .6-.2.8-.3.4-.3-.5-.5-.7-.8-.7-.3 0-.6.2-1 .5l-1 .4c-.2 0-.3 0-.5.3 0 .2-.2.2-.3.2-.5 0-1 .2-1.7.8-.5.6-1 1-1.4 1-.6 0-1 .3-1 1-.4.4-.8.7-1 .7-1 0-1.4 0-1.4.2V44c0 .3-.1.4-.4.4h-1.1c-.3 0-.4.2-.4.5s-.1.4-.4.4h-.4c-.3.2-.6.3-.6.5s-.2.3-.3.3c-.3 0-.4.2-.5.5 0 .3-.2.5-.5.5-.2 0-.3 0-.3.2v1.1l-1 .9-1.3.6c-.3 0-.4.2-.4.6l-.5.4c-.3.1-.4.2-.4.4v2l-.4.4c-.3 0-.5.2-.8.4L45 54H44v1.2c0 .1-.2.5-.8 1.1L43 56c0-.2-.2-.3-.4-.3-.4 0-.6 0-.6.3 0 1-.1 1.4-.4 1.4-.2 0-.4.3-.4.8 0 .6 0 1-.3 1 0 .3-.1.7-.6 1.2-.3.3-.4.7-.4 1.4l-.5 1c-.4.3-.6.7-.4 1 0 .3-.2.4-.6.4H38c0 .3-.2.6-.5 1-.2.1-.3.4-.3.8l-.2 1.2c0 .3-.2.5-.5.5-.8 0-1.1 0-1.1.2-.2.3 0 .6.3.7l.6.4v1.3c0 .3-.1.5-.5.8-.3.3-.4.5-.4.8 0 .2 0 .5.2.8l.3.9.2.2c-.2.1-.5 0-.7-.2-.3-.4-.5-.4-.8 0-.2.5-.1.7.4.7.2 0 .4.2.4.4 0 .3-.2.4-.5.5-.3 0-.5.2-.5.5 0 .2-.1.4-.4.6-.2 0-.3.3-.3.5 0 1.7-.2 2.7-.4 3v.5c.1.7 0 1.1-.2 1.1-.1 0-.4.3-.7.9l-.5 1.2c0 1.1.2 1.8.4 2l-.4.3c0 .4-.3.7-.5 1l-.4.7v1.3c0 .2.1.4.4.7l.5.8c0 .2 0 .4-.3.6-.7.2-.6.6.2 1.4l.1.6v.7c.2 0 .3.2.5.7.2.4.5.6.9.6 1.4 0 2 .1 2 .2 0 .2-.3.4-1 .8l.3.8c.1.6 0 1-.4 1H33l-.2.4c0 .2 0 .3.2.3.5 0 .8.2.8.7-.2.7 0 1 .3 1.2.3.2.4.5.4.7v.6c0 .4.1.6.4.6.4.1.6.5.6 1.1 0 .3 0 .5-.4.8-.4.3-.6.4-.6.6v3.2c0 .3.3.3.9.1.5-.2.8-.1.8.1v3.6c0 .4.2.6.6.6.8 0 1.1.8 1.1 2.3l.6.3c.4 0 .6.1.6.3 0 .2.1.5.4.7.2.3.3.5.3.8v1.3c-.2.1-.3.5-.3 1.2v.2c0 .3.1.5.5.5.5 0 .8.2.8.6v.2c.4.2.5.8.5 1.5 0 .3.2.4.4.4.4.1.5.4.2 1-.2.5-.2.7 0 .7h.8c.4 0 .7.2 1.1.6l-.2.6c-.4 0-.5.2-.5.3 0 1 .5 1.4 1.5 1.4l.2-.2v-1.3c0-.4.3-.5.7-.3l.8.4c.2 0 .4.2.5.6l-.1.8c-.4.4-.4.6 0 .6l1.3.1c.2 0 .4.2.4.4 0 1 0 1.4.2 1.4H50l1.7 1.5.4.7h1l.8.4c.3.3.6.4.8.4h.4c.4 0 .6.2.7.6 0 .4.2.6.4.6.3 0 .5-.2.5-.6 0-.4.2-.6.3-.6h1.4s.2 0 .2.2v.5l-.6.3c-.3 0-.4.3-.3.5 0 .3.2.4.4.4h2l.3.5c.1.3.3.5.6.5.4 0 .6-.2.7-.6.3-.5.4-.5.4 0 .2.3.5.4 1.2.6 1.4 0 2 0 2 .2v1.3Z" />
    
    <path d="M9 52.8c-.1 0-.2 0-.1.1 0 .3 0 .4.2.4H9.4l.1.3h.2l.4.2.1.2.2.1h.7l.3-.1.1.1v.1l.1.1H12.5v.3H13c.1 0 .2 0 .3.2l.4.1h.1c.2-.1.4-.1.4 0h.2l.2-.1c.2.2.4.2.5.1h.3l.3.1h.5l.2-.1.2-.1h.2l.1.1c.1.1.1.1.1 0l.1-.1.1-.1.1-.1h.6l.2-.1.1-.1.2-.1c0-.1.1-.1.2 0h.2l.2-.1.1-.1.1-.1.3-.1c0-.1.2-.3.6-.4v-.1l.2-.2v.2l.2.1h.1V53h.1l.1-.2.2-.1.2-.1v-.2h.2v-.2h.4c0-.3.1-.5.3-.6l.4-.4.1-.1c0-.2.1-.4.4-.7l.1-.2c.1 0 .1-.1 0-.2L23 50l.4-.1.1-.2h.1l.2-.1v-1c.1 0 .2-.4.2-1v-.2l-.1-.1v-.6h-.1v-.3s0-.2-.2-.3v-.5l-.1-.1c-.1 0-.1-.1 0-.2V45l-.3-.1.2-.2v-.3l-.1-.1V44c0-.1 0-.2-.2-.2H23c-.1-.2-.2-.3-.4-.3-.1 0-.2 0-.2-.2l-.2-.1c-.2 0-.2-.1 0-.3l-.2-.3-.1-.3h-.4v-.4l-.1-.2h-.7l-.1-.2H20v-.2l-.2-.1-.1-.1-.1-.2c0-.1 0-.1-.2 0l-.4-.3c-.2-.2-.3-.2-.4 0 0 .1 0 .2-.1.1l-.1-.1-.2-.2H18c0-.1-.1 0-.1 0h-.4l-.4-.2c-.1.1-.1.1-.2 0h-1v-.1h-1.1l-1.3.1-.1.1v.2c0 .3 0 .4-.2.5-.1 0-.2-.1-.2-.3h-.4l-.4.5h-.7l-.2.1-.3.1h-.2l-.2.1v.2h-.2v.3l-.3.1c-.4 0-.6.1-.6.3v.2l-.3.1v.1l-.2.2h-.3v.6h-.2l-.1.2h-.1L8 44h-.2l-.2.2v.1h-.2l-.1.1v.5c0 .1 0 .2-.2.3l-.1.7v.3H7l-.2-.2v.6h-.1l-.3.1v.2h.2v.2c.1 0 0 .1 0 .1l-.1.2v.5l-.4.3H6l.2.2.3.1-.1.1-.1.2v1.5H6.6l.1.1v.2h-.2v.2c0 .3.1.5.4.5l.3.5.4.1.1.2.1.2h.4v.7h.3c.1-.2.2-.3.1-.4v-.2h.2c0 .2 0 .2.2.2h.2l-.1.2" />
    
    <path d="M40 18.8c-.1 0-.2 0-.1.1 0 .3 0 .4.2.4H40.4l.1.3h.2l.4.2.1.2.2.1h.7l.3-.1.1.1v.1l.1.1H43.5v.3H44c.1 0 .2 0 .3.2l.4.1h.1c.2-.1.4-.1.4 0h.2l.2-.1c.2.2.4.2.5.1h.3l.3.1h.5l.2-.1.2-.1h.2l.1.1c.1.1.1.1.1 0l.1-.1.1-.1.1-.1h.6l.2-.1.1-.1.2-.1s.1-.1.2 0h.4l.1-.2.1-.1.3-.1c0-.1.2-.3.6-.4v-.1l.2-.2v.2l.2.1h.1V19h.1l.1-.2.2-.1.2-.1v-.2h.2v-.2h.4c0-.3.1-.5.3-.6l.4-.4.1-.1c0-.2.1-.4.4-.7l.1-.2c.1 0 .1-.1 0-.2L54 16l.4-.1.1-.2h.1l.2-.1v-1c.1 0 .2-.4.2-1v-.2l-.1-.1v-.6h-.1v-.3s0-.2-.2-.3v-.5l-.1-.1c-.1 0-.1-.1 0-.2V11l-.3-.1.2-.2v-.3l-.1-.1V10c0-.1 0-.2-.2-.2H54c-.1-.2-.2-.3-.4-.3-.1 0-.2 0-.2-.2l-.2-.1c-.2 0-.2-.1 0-.3l-.2-.3-.1-.3h-.4v-.4l-.1-.2h-.7l-.1-.2H51v-.2l-.2-.1-.1-.1-.1-.2c0-.1 0-.1-.2 0l-.4-.3c-.2-.2-.3-.2-.4 0 0 .1 0 .2-.1.1l-.1-.1-.2-.2H49c0-.1-.1 0-.1 0h-.4l-.4-.2c-.1.1-.1.1-.2 0h-1v-.1h-1.1l-1.3.1-.1.1v.2c0 .3 0 .4-.2.5-.1 0-.2-.1-.2-.3h-.4l-.4.5h-.7l-.2.1-.3.1h-.2l-.2.1v.2h-.2V8L41 8c-.4 0-.6.1-.6.3v.2l-.3.1v.1l-.2.2h-.3v.6h-.2l-.1.2h-.1l-.1.2h-.2l-.2.2v.1h-.2l-.1.1v.5c0 .1 0 .2-.2.3l-.1.7v.3H38l-.2-.2v.6h-.1l-.3.1v.2h.2v.2c.1 0 0 .1 0 .1l-.1.2v.5l-.4.3H37l.2.2.3.1-.1.1-.1.2v1.5H37.6l.1.1v.2h-.2v.2c0 .3.1.5.4.5l.3.5.4.1.1.2.1.2h.4v.7h.3c.1-.2.2-.3.1-.4v-.2h.2c0 .2 0 .2.2.2h.2l-.1.2" />
    
    <path d="m82.8 3.3-.3-.1-.1-.2c.1 0 .1-.1 0-.2v-.2l-.1-.1V2c0-.2 0-.2-.2-.2v-.3H82v-.1l-.1-.1v-.1l-.1-.1V.9c0-.2 0-.3-.2-.3h-.1V.4h-.1V.2h-.2V0l-.1.1-.2-.1-.5-.1-.1.1H80l-.2.1h-.1l-.1.2H79l-.1.2-.1.1h-.5V1h-.5l-.1.3h-.3l-.3.1h-.4v.1h-.5V1.7h-.4v.1l-.2.1h-.2l-.2.1-.1.1h-.3l-.1.1h-.2V2.5h-.3v.1H73.8V3h-.2l-.1.2h-.1l-.1.2-.1.3-.1.2-.1.5v.4H73v.1l.1.1V5l.1.2v.1l.3.1v.2l.3.2V6h.1v.2c0 .1.1.2.3.2h.1c0 .2.1.3.2.3l.2.1h.1l.1.1.1.1.1-.1c0-.1.2-.1.2 0H75.6V7H76.8V7l.1-.1v-.1H77.8v-.1h.1v-.2H78.8v-.1h.5v-.1h.2l.2-.1.2-.1V6h.3l.3-.1h.2v-.1h.1V6h.2v-.1l.1-.1c.3 0 .4 0 .4-.2h1v-.1l.1-.1.1-.1v-.6l.2.1s.1-.1 0-.2l.2-.1c-.2 0-.2 0 0-.1l-.1-.2v-.4l-.1-.1V3.3Z"/>
    
    <path d="M115.5 17.5v.2l.1.2V18.2c.2.1.4.3.3.4 0 .2 0 .3.2.3l.3.3v.8l-.1.3v.2l.1.2v.2s0 .1 0 0h1c.2-.2.3-.3.5-.2v-.2h.2l.1-.2c0-.1 0-.2.2-.3l.2-.2h.5v-.2l.3-.1.2-.1c.1 0 .2 0 .3-.3h.1c.1 0 .2 0 .2-.2l.3-.1c.3 0 .4-.2.4-.2l.1-.1.2-.1.3-.1H121.8l.2-.1V18l.3-.2H122.6c0-.1.1-.2.2-.1.2 0 .2 0 .3-.2l.1-.3h.6l.3-.2H124.4c0-.1 0-.2.2-.2h.3v-.1l.2-.2v-.1l.2-.1v-.1c0-.1.1-.1.2 0l.2-.1c0-.3.2-.4.3-.3.2 0 .4-.1.5-.5h.5l.3-.3c0-.1 0-.2.2-.3l.4-.3.2-.5.5.1.3-.7h.2l.1-.3c.3-.2.4-.4.6-.8l.2-.1c0-.2.1-.3.2-.3l.1-.5V11l.1-.4.3-.2v-.1a1.6 1.6 0 0 1 .1-.4l.2-.2-.2-.1c-.2 0-.2-.1-.2-.3l.3-.7c0-.1 0-.2-.2-.2l.1-.3c.1-.2.1-.3 0-.4l-.1-.2-.2-.2v-.5l-.2-.2-.2-.5c.1-.3 0-.4 0-.4l-.4-.2-.1-.2v-.1c-.2 0-.2 0-.2-.2l-.5-.3H128.6l-.2-.2-.6-.2s-.2-.1-.2-.3l-.3-.2h-.2c0 .1-.1.2-.2.1l-1-.4h-.2l-.2-.2v.1l-.2.1-.3-.1h-.3l-.3.2h-.2s-.2 0-.3.2c-.2.1-.3.2-.5.1l-.1.2h-.3l-.3.1-.1.2-.3-.1-.2.2v.4h-.2V5l-.4-.2-.1-.3v-.2h-.4l-.1-.3-.2-.2v-.2l-.3-.1h-.2l-.2-.2-.2-.1V3l-.1-.2-.2-.2h-.3l-.6-.2-.1-.2-.6-.2-.1-.2-.2-.1-.4-.2h-.1l-.1-.2-.2-.1c0-.1 0-.1-.2 0h-.2c0-.2-.2-.2-.4-.2a1 1 0 0 1-.4 0l-.6.1c-.2.1-.4.2-.5.1h-.2l-.2.1h-.3c0-.1 0 0-.1 0l-.1.2h-.4l-.2.4c-.1 0-.2 0-.3.2 0 .2 0 .2-.1.1h-.2l-.2.1-.1.1-.1.1-.2.4-.2.1-.3.3v.3l-.2.1c0 .1 0 .1-.1 0l-.1.1-.2.5h-.1l-.1.2v.2l-.3.8v.2c.1.1.1.2 0 .2v.2l-.1.3c-.1 0-.1 0 0 .2V7h.2l-.1.7V8l.1.1v.3l.1.2.1.2V9c0 .2.1.4.5.5v.5h.2v.3l.1.1.2.1c.1 0 .2.1.1.2v.5c.2 0 .3.1.2.3v.2h.4V12.2l.3.1v.1l.1.2h.2v.2l.2.1.2.2v.4l.3.2c0 .2.1.2.2.3v.1l.1.2h.1v.3c-.1 0-.1.2 0 .2l.4.2v.4l.3.4.3.3v.4h.3s.1.1 0 .2l.3.3v.5Z"/>

    <path d="M150 27.8c-.1 0-.2 0-.1.1 0 .3 0 .4.2.4H150.4l.1.3h.2l.4.2.1.2.2.1h.7l.3-.1.1.1v.1l.1.1H153.5v.3H154c.1 0 .2 0 .3.2l.4.1h.1c.2-.1.4-.1.4 0h.2l.2-.1c.2.2.4.2.5.1h.3l.3.1h.5l.2-.1.2-.1h.2l.1.1c.1.1.1.1.1 0l.1-.1.1-.1.1-.1h.6l.2-.1.1-.1.2-.1s.1-.1.2 0h.4l.1-.2.1-.1.3-.1c0-.1.2-.3.6-.4v-.1l.2-.2v.2l.2.1h.1V28h.1l.1-.2.2-.1.2-.1v-.2h.2v-.2h.4c0-.3.1-.5.3-.6l.4-.4.1-.1c0-.2.1-.4.4-.7l.1-.2c.1 0 .1-.1 0-.2l-.2-.1.4-.1.1-.2h.1l.2-.1v-1c.1 0 .2-.4.2-1v-.2l-.1-.1v-.6h-.1v-.3s0-.2-.2-.3v-.5l-.1-.1c-.1 0-.1-.1 0-.2V20l-.3-.1.2-.2v-.3l-.1-.1V19c0-.1 0-.2-.2-.2h-.1c-.1-.2-.2-.3-.4-.3-.1 0-.2 0-.2-.2l-.2-.1c-.2 0-.2-.1 0-.3l-.2-.3-.1-.3h-.4v-.4l-.1-.2h-.7l-.1-.2h-.5v-.2l-.2-.1-.1-.1-.1-.2c0-.1 0-.1-.2 0l-.4-.3c-.2-.2-.3-.2-.4 0 0 .1 0 .2-.1.1l-.1-.1-.2-.2h-.4c0-.1-.1 0-.1 0h-.4l-.4-.2c-.1.1-.1.1-.2 0h-1v-.1h-1.1l-1.3.1-.1.1v.2c0 .3 0 .4-.2.5-.1 0-.2-.1-.2-.3h-.4l-.4.5h-.7l-.2.1-.3.1h-.2l-.2.1v.2h-.2v.3l-.3.1c-.4 0-.6.1-.6.3v.2l-.3.1v.1l-.2.2h-.3v.6h-.2l-.1.2h-.1l-.1.2h-.2l-.2.2v.1h-.2l-.1.1v.5c0 .1 0 .2-.2.3l-.1.7v.3h-.1l-.2-.2v.6h-.1l-.3.1v.2h.2v.2c.1 0 0 .1 0 .1l-.1.2v.5l-.4.3h-.1l.2.2.3.1-.1.1-.1.2v1.5H147.6l.1.1v.2h-.2v.2c0 .3.1.5.4.5l.3.5.4.1.1.2.1.2h.4v.7h.3c.1-.2.2-.3.1-.4v-.2h.2c0 .2 0 .2.2.2h.2l-.1.2"/>

    <path d="M161 57.8c-.1 0-.2 0-.1.1 0 .3 0 .4.2.4H161.4l.1.3h.2l.4.2.1.2.2.1h.7l.3-.1.1.1v.1l.1.1H164.5v.3H165c.1 0 .2 0 .3.2l.4.1h.1c.2-.1.4-.1.4 0h.2l.2-.1c.2.2.4.2.5.1h.3l.3.1h.5l.2-.1.2-.1h.2l.1.1c.1.1.1.1.1 0l.1-.1.1-.1.1-.1h.6l.2-.1.1-.1.2-.1c0-.1.1-.1.2 0h.2l.2-.1.1-.1.1-.1.3-.1c0-.1.2-.3.6-.4v-.1l.2-.2v.2l.2.1h.1V58h.1l.1-.2.2-.1.2-.1v-.2h.2v-.2h.4c0-.3.1-.5.3-.6l.4-.4.1-.1c0-.2.1-.4.4-.7l.1-.2c.1 0 .1-.1 0-.2l-.2-.1.4-.1.1-.2h.1l.2-.1v-1c.1 0 .2-.4.2-1v-.2l-.1-.1v-.6h-.1v-.3s0-.2-.2-.3v-.5l-.1-.1c-.1 0-.1-.1 0-.2V50l-.3-.1.2-.2v-.3l-.1-.1V49c0-.1 0-.2-.2-.2h-.1c-.1-.2-.2-.3-.4-.3-.1 0-.2 0-.2-.2l-.2-.1c-.2 0-.2-.1 0-.3l-.2-.3-.1-.3h-.4v-.4l-.1-.2h-.7l-.1-.2h-.5v-.2l-.2-.1-.1-.1-.1-.2c0-.1 0-.1-.2 0l-.4-.3c-.2-.2-.3-.2-.4 0 0 .1 0 .2-.1.1l-.1-.1-.2-.2h-.4c0-.1-.1 0-.1 0h-.4l-.4-.2c-.1.1-.1.1-.2 0h-1v-.1h-1.1l-1.3.1-.1.1v.2c0 .3 0 .4-.2.5-.1 0-.2-.1-.2-.3h-.4l-.4.5h-.7l-.2.1-.3.1h-.2l-.2.1v.2h-.2v.3l-.3.1c-.4 0-.6.1-.6.3v.2l-.3.1v.1l-.2.2h-.3v.6h-.2l-.1.2h-.1l-.1.2h-.2l-.2.2v.1h-.2l-.1.1v.5c0 .1 0 .2-.2.3l-.1.7v.3h-.1l-.2-.2v.6h-.1l-.3.1v.2h.2v.2c.1 0 0 .1 0 .1l-.1.2v.5l-.4.3h-.1l.2.2.3.1-.1.1-.1.2v1.5H158.6l.1.1v.2h-.2v.2c0 .3.1.5.4.5l.3.5.4.1.1.2.1.2h.4v.7h.3c.1-.2.2-.3.1-.4v-.2h.2c0 .2 0 .2.2.2h.2l-.1.2"/>

    <path d="m6.4 89.8.2.1h.5a1.8 1.8 0 0 0 .5 0H8.2c0-.2.2-.2.3 0l.3-.1.2-.2h.7c.2.2.3.2.5 0l.2-.1.1-.1V89l.1-.1.1-.1v-.7h.2l.1-.2-.2-.2.2-.1h-.2v-.3h-.5c-.2 0-.3-.1-.3-.3v-.2l.2-.1v-.3l-.2-.2-.1-.4h-.1c-.1 0-.2 0-.2-.2v-.4c0-.2-.2-.3-.3-.2l-.4-.1c-.2 0-.2-.1-.3-.2h-.8l-.4-.2H7l-.4.1-.5-.6h-.1c0 .1-.1.2-.2.1l-.3-.1h-.3L5 84l-.2.2H4c-.4 0-.6.1-.7.2h-.4c-.3 0-.4.1-.5.2h-.2l-.2.1-.1.1-.4.1H1v.4l-.3.1v.1l-.2.2c0 .1 0 .2-.2.2l-.1.1-.2.1-.1.1v.3l.1.1.1.1.2.1h.2l.1.1v.3l.1.1.2.1V87.7h.2l.2.3.2.1h.3v.1l.2.1h.3v.2h.4l.2.2.2.1c0 .2 0 .3.3.3h.3l.1.1h.3l.1.3h.2l.4.2H5.8c.2-.2.3 0 .4.3l.2-.2Z"/>

    <path d="M9 135.8c-.1 0-.2 0-.1.1 0 .3 0 .4.2.4H9.4l.1.3h.2l.4.2.1.2.2.1h.7l.3-.1.1.1v.1l.1.1H12.5v.3H13c.1 0 .2 0 .3.2l.4.1h.1c.2-.1.4-.1.4 0h.2l.2-.1c.2.2.4.2.5.1h.3l.3.1h.5l.2-.1.2-.1h.2l.1.1c.1.1.1.1.1 0l.1-.1.1-.1.1-.1h.6l.2-.1.1-.1.2-.1c0-.1.1-.1.2 0h.2l.2-.1.1-.1.1-.1.3-.1c0-.1.2-.3.6-.4v-.1l.2-.2v.2l.2.1h.1v-.4h.1l.1-.2.2-.1.2-.1v-.2h.2v-.2h.4c0-.3.1-.5.3-.6l.4-.4.1-.1c0-.2.1-.4.4-.7l.1-.2c.1 0 .1-.1 0-.2l-.2-.1.4-.1.1-.2h.1l.2-.1v-1c.1 0 .2-.4.2-1v-.2l-.1-.1v-.6h-.1v-.3s0-.2-.2-.3v-.5l-.1-.1c-.1 0-.1-.1 0-.2v-.2l-.3-.1.2-.2v-.3l-.1-.1v-.4c0-.1 0-.2-.2-.2H23c-.1-.2-.2-.3-.4-.3-.1 0-.2 0-.2-.2l-.2-.1c-.2 0-.2-.1 0-.3l-.2-.3-.1-.3h-.4v-.4l-.1-.2h-.7l-.1-.2H20v-.2l-.2-.1-.1-.1-.1-.2c0-.1 0-.1-.2 0l-.4-.3c-.2-.2-.3-.2-.4 0 0 .1 0 .2-.1.1l-.1-.1-.2-.2H18c0-.1-.1 0-.1 0h-.4l-.4-.2c-.1.1-.1.1-.2 0h-1v-.1h-1.1l-1.3.1-.1.1v.2c0 .3 0 .4-.2.5-.1 0-.2-.1-.2-.3h-.4l-.4.5h-.7l-.2.1-.3.1h-.2l-.2.1v.2h-.2v.3l-.3.1c-.4 0-.6.1-.6.3v.2l-.3.1v.1l-.2.2h-.3v.6h-.2l-.1.2h-.1l-.1.2h-.2l-.2.2v.1h-.2l-.1.1v.5c0 .1 0 .2-.2.3l-.1.7v.3H7l-.2-.2v.6h-.1l-.3.1v.2h.2v.2c.1 0 0 .1 0 .1l-.1.2v.5l-.4.3H6l.2.2.3.1-.1.1-.1.2v1.5H6.6l.1.1v.2h-.2v.2c0 .3.1.5.4.5l.3.5.4.1.1.2.1.2h.4v.7h.3c.1-.2.2-.3.1-.4v-.2h.2c0 .2 0 .2.2.2h.2l-.1.2"/>

    <path d="m174 94 .2-.1c0-.1.2-.2.5-.2l.2-.1v-.1l-.1-.4v-.6c.2-.1.2-.2.2-.3h-.1l-.1-.1v-.3s-.1-.2-.3-.2l-.2-.1v-.6l-.1-.1-.2-.1v-.4l-.2-.1v-.4l-.1-.2v-.2l-.2-.1-.1-.1V89h-.1l-.1-.2-.2-.2v-.3h-.1V88l-.3-.3c-.2-.1-.2-.2-.2-.3h-.4l-.1-.1c0-.2-.2-.3-.4-.5l-.3-.2c-.2 0-.3-.1-.3-.3l-.1-.1-.8-.1h-1.9l-.2.3-.3.3h-.3l-.1.2c-.1 0-.2 0-.2.2s-.1.2-.2.2l-.1.2h-.4v.4c0 .1 0 .2-.2.2v.1l-.2.1h-.1v.1l-.1.2-.1.6h-.2V89.6h-.2v.2l-.2.2h-.1l-.1.5v.2l-.2.2h-.2v.6c-.3.3-.3.6-.2.8l-.2.2v.4l.1.6H164.4l.1.2.2.3.7-.2.2.2.2.1h.9l.1-.2h.2l.1.2h1.4l.2-.1h.3l.1.1v-.1l.2-.2v.1l.3.2.1-.1.2-.2h.2l.2.2v.1h.2v-.1l.2-.2h.4l.1.1c.1.2.2.2.2.1l.1-.1h.1c.1.1.4.2 1 .2.2-.2.3-.2.4-.1 0 .1 0 .1.1 0l.1-.2h.5l.1.2.1.1h.1Z"/>

    <path d="M159 121.8c-.1 0-.2 0-.1.1 0 .3 0 .4.2.4H159.4l.1.3h.2l.4.2.1.2.2.1h.7l.3-.1.1.1v.1l.1.1H162.5v.3H163c.1 0 .2 0 .3.2l.4.1h.1c.2-.1.4-.1.4 0h.2l.2-.1c.2.2.4.2.5.1h.3l.3.1h.5l.2-.1.2-.1h.2l.1.1c.1.1.1.1.1 0l.1-.1.1-.1.1-.1h.6l.2-.1.1-.1.2-.1s.1-.1.2 0h.4l.1-.2.1-.1.3-.1c0-.1.2-.3.6-.4v-.1l.2-.2v.2l.2.1h.1v-.4h.1l.1-.2.2-.1.2-.1v-.2h.2v-.2h.4c0-.3.1-.5.3-.6l.4-.4.1-.1c0-.2.1-.4.4-.7l.1-.2c.1 0 .1-.1 0-.2l-.2-.1.4-.1.1-.2h.1l.2-.1v-1c.1 0 .2-.4.2-1v-.2l-.1-.1v-.6h-.1v-.3s0-.2-.2-.3v-.5l-.1-.1c-.1 0-.1-.1 0-.2v-.2l-.3-.1.2-.2v-.3l-.1-.1v-.4c0-.1 0-.2-.2-.2h-.1c-.1-.2-.2-.3-.4-.3-.1 0-.2 0-.2-.2l-.2-.1c-.2 0-.2-.1 0-.3l-.2-.3-.1-.3h-.4v-.4l-.1-.2h-.7l-.1-.2h-.5v-.2l-.2-.1-.1-.1-.1-.2c0-.1 0-.1-.2 0l-.4-.3c-.2-.2-.3-.2-.4 0 0 .1 0 .2-.1.1l-.1-.1-.2-.2h-.4c0-.1-.1 0-.1 0h-.4l-.4-.2c-.1.1-.1.1-.2 0h-1v-.1h-1.1l-1.3.1-.1.1v.2c0 .3 0 .4-.2.5-.1 0-.2-.1-.2-.3h-.4l-.4.5h-.7l-.2.1-.3.1h-.2l-.2.1v.2h-.2v.3l-.3.1c-.4 0-.6.1-.6.3v.2l-.3.1v.1l-.2.2h-.3v.6h-.2l-.1.2h-.1l-.1.2h-.2l-.2.2v.1h-.2l-.1.1v.5c0 .1 0 .2-.2.3l-.1.7v.3h-.1l-.2-.2v.6h-.1l-.3.1v.2h.2v.2c.1 0 0 .1 0 .1l-.1.2v.5l-.4.3h-.1l.2.2.3.1-.1.1-.1.2v1.5H156.6l.1.1v.2h-.2v.2c0 .3.1.5.4.5l.3.5.4.1.1.2.1.2h.4v.7h.3c.1-.2.2-.3.1-.4v-.2h.2c0 .2 0 .2.2.2h.2l-.1.2" />

    <path d="M144 147.8c-.1 0-.2 0-.1.1 0 .3 0 .4.2.4H144.4l.1.3h.2l.4.2.1.2.2.1h.7l.3-.1.1.1v.1l.1.1H147.5v.3H148c.1 0 .2 0 .3.2l.4.1h.1c.2-.1.4-.1.4 0h.2l.2-.1c.2.2.4.2.5.1h.3l.3.1h.5l.2-.1.2-.1h.2l.1.1c.1.1.1.1.1 0l.1-.1.1-.1.1-.1h.6l.2-.1.1-.1.2-.1c0-.1.1-.1.2 0h.2l.2-.1.1-.1.1-.1.3-.1c0-.1.2-.3.6-.4v-.1l.2-.2v.2l.2.1h.1v-.4h.1l.1-.2.2-.1.2-.1v-.2h.2v-.2h.4c0-.3.1-.5.3-.6l.4-.4.1-.1c0-.2.1-.4.4-.7l.1-.2c.1 0 .1-.1 0-.2l-.2-.1.4-.1.1-.2h.1l.2-.1v-1c.1 0 .2-.4.2-1v-.2l-.1-.1v-.6h-.1v-.3s0-.2-.2-.3v-.5l-.1-.1c-.1 0-.1-.1 0-.2v-.2l-.3-.1.2-.2v-.3l-.1-.1v-.4c0-.1 0-.2-.2-.2h-.1c-.1-.2-.2-.3-.4-.3-.1 0-.2 0-.2-.2l-.2-.1c-.2 0-.2-.1 0-.3l-.2-.3-.1-.3h-.4v-.4l-.1-.2h-.7l-.1-.2h-.5v-.2l-.2-.1-.1-.1-.1-.2c0-.1 0-.1-.2 0l-.4-.3c-.2-.2-.3-.2-.4 0 0 .1 0 .2-.1.1l-.1-.1-.2-.2h-.4c0-.1-.1 0-.1 0h-.4l-.4-.2c-.1.1-.1.1-.2 0h-1v-.1h-1.1l-1.3.1-.1.1v.2c0 .3 0 .4-.2.5-.1 0-.2-.1-.2-.3h-.4l-.4.5h-.7l-.2.1-.3.1h-.2l-.2.1v.2h-.2v.3l-.3.1c-.4 0-.6.1-.6.3v.2l-.3.1v.1l-.2.2h-.3v.6h-.2l-.1.2h-.1l-.1.2h-.2l-.2.2v.1h-.2l-.1.1v.5c0 .1 0 .2-.2.3l-.1.7v.3h-.1l-.2-.2v.6h-.1l-.3.1v.2h.2v.2c.1 0 0 .1 0 .1l-.1.2v.5l-.4.3h-.1l.2.2.3.1-.1.1-.1.2v1.5H141.6l.1.1v.2h-.2v.2c0 .3.1.5.4.5l.3.5.4.1.1.2.1.2h.4v.7h.3c.1-.2.2-.3.1-.4v-.2h.2c0 .2 0 .2.2.2h.2l-.1.2"/>

    <path d="M109 163.8c-.1 0-.2 0-.1.1 0 .3 0 .4.2.4H109.4l.1.3h.2l.4.2.1.2.2.1h.7l.3-.1.1.1v.1l.1.1H112.5v.3H113c.1 0 .2 0 .3.2l.4.1h.1c.2-.1.4-.1.4 0h.2l.2-.1c.2.2.4.2.5.1h.3l.3.1h.5l.2-.1.2-.1h.2l.1.1c.1.1.1.1.1 0l.1-.1.1-.1.1-.1h.6l.2-.1.1-.1.2-.1c0-.1.1-.1.2 0h.2l.2-.1.1-.1.1-.1.3-.1c0-.1.2-.3.6-.4v-.1l.2-.2v.2l.2.1h.1v-.4h.1l.1-.2.2-.1.2-.1v-.2h.2v-.2h.4c0-.3.1-.5.3-.6l.4-.4.1-.1c0-.2.1-.4.4-.7l.1-.2c.1 0 .1-.1 0-.2l-.2-.1.4-.1.1-.2h.1l.2-.1v-1c.1 0 .2-.4.2-1v-.2l-.1-.1v-.6h-.1v-.3s0-.2-.2-.3v-.5l-.1-.1c-.1 0-.1-.1 0-.2v-.2l-.3-.1.2-.2v-.3l-.1-.1v-.4c0-.1 0-.2-.2-.2h-.1c-.1-.2-.2-.3-.4-.3-.1 0-.2 0-.2-.2l-.2-.1c-.2 0-.2-.1 0-.3l-.2-.3-.1-.3h-.4v-.4l-.1-.2h-.7l-.1-.2h-.5v-.2l-.2-.1-.1-.1-.1-.2c0-.1 0-.1-.2 0l-.4-.3c-.2-.2-.3-.2-.4 0 0 .1 0 .2-.1.1l-.1-.1-.2-.2h-.4c0-.1-.1 0-.1 0h-.4l-.4-.2c-.1.1-.1.1-.2 0h-1v-.1h-1.1l-1.3.1-.1.1v.2c0 .3 0 .4-.2.5-.1 0-.2-.1-.2-.3h-.4l-.4.5h-.7l-.2.1-.3.1h-.2l-.2.1v.2h-.2v.3l-.3.1c-.4 0-.6.1-.6.3v.2l-.3.1v.1l-.2.2h-.3v.6h-.2l-.1.2h-.1l-.1.2h-.2l-.2.2v.1h-.2l-.1.1v.5c0 .1 0 .2-.2.3l-.1.7v.3h-.1l-.2-.2v.6h-.1l-.3.1v.2h.2v.2c.1 0 0 .1 0 .1l-.1.2v.5l-.4.3h-.1l.2.2.3.1-.1.1-.1.2v1.5H106.6l.1.1v.2h-.2v.2c0 .3.1.5.4.5l.3.5.4.1.1.2.1.2h.4v.7h.3c.1-.2.2-.3.1-.4v-.2h.2c0 .2 0 .2.2.2h.2l-.1.2"/>

    <path d="M74.3 160.2v-.4c.1 0 .2 0 .3-.2l.1-.3v-.1l.1-.2.2-.2v-.3l.1-.2v-.1l.2-.2h.1c0-.6.1-.9.3-.9.2 0 .3-.2.3-.3v-.2c.2 0 .2-.1.2-.2v-.2l.1-.3c.1 0 .2-.1.1-.2.2 0 .2-.1.2-.2V155.2c.2 0 .3-.2.3-.5V153c.1 0 .1 0 0-.1l-.1-.2-.1-.1v-.5h-.2l-.1-.2-.1-.1H76l-.1-.1v-.1l.2-.1s0-.2-.2-.3c-.2 0-.2-.1-.2-.2v-.2l-.2-.2v-.1l-.1-.3-.1-.2v-.6h-.2l-.1-.2-.1-.4-.1-.3-.1-.3s-.1-.1 0-.2l-.1-.2v-.2l-.1-.1v-.5l-.2-.1-.1-.1v-.3h-.1l-.1-.4-.1-.1-.4.1h-.4l-.1.1-.1.2h-.4v.1l-.3.6-.2.3-.1.3c-.2.1-.2.2-.2.3l-.2.2v.6l-.4.1-.1.1-.1.1-.1.1-.1.1-.2.2-.1.3-.1.2v.1c-.2 0-.3.1-.3.3l-.1.2c-.2.1-.2.2-.2.3l-.2.2s-.1.1 0 .2l-.2.1c0 .3 0 .4-.2.4h-.1l-.1.1v.7l.1.2.1.3.1.4.1.2.2.4v.3l.2.2v.4l.2.1v.3h.1v.5l.2.2.1.1v.4h.1l.1.1v.2h.2l.1.2v.5h.1l.1.1.1.2.1.1v.3l.2.1v.4l.2.4.1.3.1.3v.1l.1.3v.1l-.1.2v.1h.1c.3 0 .4 0 .2.2v.2c.2 0 .2.1.2.2V161.5h.2l.2.2.1.2.2.1h.1c.1 0 .2 0 .2-.2h.1l.2-.1v-.6c.3 0 .4-.2.4-.4v-.2c.2 0 .2 0 .2-.2Z"/>

    <path d="M37 158.8c-.1 0-.2 0-.1.1 0 .3 0 .4.2.4H37.4l.1.3h.2l.4.2.1.2.2.1h.7l.3-.1.1.1v.1l.1.1H40.5v.3H41c.1 0 .2 0 .3.2l.4.1h.1c.2-.1.4-.1.4 0h.2l.2-.1c.2.2.4.2.5.1h.3l.3.1h.5l.2-.1.2-.1h.2l.1.1c.1.1.1.1.1 0l.1-.1.1-.1.1-.1h.6l.2-.1.1-.1.2-.1s.1-.1.2 0h.4l.1-.2.1-.1.3-.1c0-.1.2-.3.6-.4v-.1l.2-.2v.2l.2.1h.1v-.4h.1l.1-.2.2-.1.2-.1v-.2h.2v-.2h.4c0-.3.1-.5.3-.6l.4-.4.1-.1c0-.2.1-.4.4-.7l.1-.2c.1 0 .1-.1 0-.2l-.2-.1.4-.1.1-.2h.1l.2-.1v-1c.1 0 .2-.4.2-1v-.2l-.1-.1v-.6h-.1v-.3s0-.2-.2-.3v-.5l-.1-.1c-.1 0-.1-.1 0-.2v-.2l-.3-.1.2-.2v-.3l-.1-.1v-.4c0-.1 0-.2-.2-.2H51c-.1-.2-.2-.3-.4-.3-.1 0-.2 0-.2-.2l-.2-.1c-.2 0-.2-.1 0-.3l-.2-.3-.1-.3h-.4v-.4l-.1-.2h-.7l-.1-.2H48v-.2l-.2-.1-.1-.1-.1-.2c0-.1 0-.1-.2 0l-.4-.3c-.2-.2-.3-.2-.4 0 0 .1 0 .2-.1.1l-.1-.1-.2-.2H46c0-.1-.1 0-.1 0h-.4l-.4-.2c-.1.1-.1.1-.2 0h-1v-.1h-1.1l-1.3.1-.1.1v.2c0 .3 0 .4-.2.5-.1 0-.2-.1-.2-.3h-.4l-.4.5h-.7l-.2.1-.3.1h-.2l-.2.1v.2h-.2v.3l-.3.1c-.4 0-.6.1-.6.3v.2l-.3.1v.1l-.2.2h-.3v.6h-.2l-.1.2h-.1l-.1.2h-.2l-.2.2v.1h-.2l-.1.1v.5c0 .1 0 .2-.2.3l-.1.7v.3H35l-.2-.2v.6h-.1l-.3.1v.2h.2v.2c.1 0 0 .1 0 .1l-.1.2v.5l-.4.3H34l.2.2.3.1-.1.1-.1.2v1.5H34.6l.1.1v.2h-.2v.2c0 .3.1.5.4.5l.3.5.4.1.1.2.1.2h.4v.7h.3c.1-.2.2-.3.1-.4v-.2h.2c0 .2 0 .2.2.2h.2l-.1.2" />
  </g>
</svg>