<svg width="200" height="200" xmlns="http://www.w3.org/2000/svg" dragabble="true">
  <path 

    id="icon-paddle"
    stroke="none" 
    stroke-width="1"
    fill="currentColor"
    fill-rule="evenodd"
    transform="rotate(31 97 104.5)"
    
    d="m115.2-11-.6.8-.6.3-.7.1-.6.2-.6.2h-.7l-.7.1h-.7l-.6.4-.3.8-.6.1-.6.4-.5.3-.6.2-.7.2-.6.2-.4.6-.6.3-.1.8h-.9l-.3.6-.6.3-.4.6v.8l-.4.4-.5.5-.2.6-.7.3-.5.4v.8l-.1.7-.1.6-1 .2v1.4l-.6.5.4.8-.3.6-.3.5-.6.5.2.7-.2.6-.3.6v.6l-.2.6-.5.5.1.7.3.7-.7.5v.6l.1.7-.4.5-.2.6.4.7-1 .4.1.7.1.6-.2.6.1.7-.6.6-.1.6.5.8-.4.6-.4.5v.7l-.4.6.2.7v.7l.1.6-.7.6.1.6.1.7-.4.6-.1.6.1.7-.5.5.3.7-.6.5.6.8-.9.4v1.9l-.3.6v.6l.4.7-.6.6-.2.5-.3.6.1.7-.3.5v.7l.1.7-.2.6-.4.6.7.7-.9.5v.7l.1.6v.7l-.2.6v.6l-.3.7v.6l-.3.6-.1.6.2.7-.3.6.4.7-.9.6.2.6-.3.6.2.7-.1.6-.5.6-.1.6.5.7v.6l-.5.6-.2.6.2.6-.2.6-.3.6-.2.7-.1.6v.6l-.2.6.2.7.5.6-.8.6.7.7v.6l-.4.6-.3.6.5.7-.4.6.5.6v.7l-.8.6.5.6.1.6-.7.7 1 .6-.9.7.3.6.4.6v.6l.3.6-.7.7.3.6v.7l.5.6.1.6-.6.7.7.5-.2.7.1.6.1.6-.6.7.6.6-.5.7.3.6.3.6-.4.7.1.6v.6l-.1.7.6.6-.3.6.4.6-.3.7.2.6.3.6-.1.7-.2.6.5.6-.7.7.7.6-.2.6.5.6-.8.7.2.6v.7l.6.6-.2.6.1.6-.3.7.4.6v.6l-.3.7.4.6.4.7-.3.6-.1.7.5.6v.7l-.3.7.1.6-.5.7V107l-.2.6.4.7.2.7-.5.5v.7l-.4.5-.4.6v.6l-.2.7-.2.6.4.7-.4.6.3.7-.2.6-.8.5.1.7.3.7-.5.6-.4.5.3.7-.8.5-.1.6-.2.6v.7l.4.8-.6.5.3.7-.4.6-.5.5.2.7v.7l-.7.5.2.7-.5.5-.4.5.5.8-.8.5.1.6-.3.6.4.8v.6l-.5.5v.7l-.7.5v.6l-.3.6V136.8l-.2.6.3.7-.7.5.3.7-.5.6.1.6-.5.6-.2.6-.4.5.6.8-.5.5-.4.6.4.7-.6.5v.7l-.2.6.3.7-.7.5-.1.6V149.7l-.7.5v.6l-.2.6.1.7-.2.6-.5.6v.6l-.2.6.3.7v.7l-.8.4.1.7.1.7-.3.6-.5.5-.3.6-.2.6.3.7v.7l-.1.6-.7.4.3.8-.4.5.1.7-.5.5-.2.6.1.7-.3.6.4.7-.5.5-.6.5.2.8.2.7-.5.5-.5.5v1.4l-.4.5v.7l-.1.6-.1.7.2.7-.5.5-.3.6v.7l-.5.5.3.7.1.7-.4.6-.5.5.5.8-.8.5.1.7-.2.6.2.7-.7.5-.4.6-.1.6.6.8-.3.6v.6l-.3.6-.4.5-.2.6-.3.6v.6l-.3.6v.6l-.5.5.2.8-.2.6-.4.5-.1.7-.6.5-.5.4v.8l-.3.6-.4.5v.8l-1 .3-.2.5.4 1-.5.3-.4.5-.1.7-.4.5-.2.6-.4.4-.5.5-.7.2v.7l-.7.3-.5.3-.5.4-.3.7-.3.6-.7.3-.4.5-.2.8v.7l-.7.5v.7l-.5.5.6 1-.8.4-.1.6.1.8-.5.4.2.6-.2.5.5.7.7-.1.5.6.8-.7.5.7.5.4h.6l.6.3.7-.2.7-.3.6.3.5.2.7.2.5.4.7.2.6.2.5.4.8-.2.7-.2.5.8.7-.2.5.7H70.7l.6-.3.2.8h.3l.7.3H74l.7-.1.4-.4.4-.5.5-.5-.1-.7-.2-.8.9-.4-.3-.7.6-.5v-.7l.3-.5-.7-.5.7-.5-.1-.7-.2-.8-.2-.6-.3-.6v-.6l-.5-.6-.3-.6.2-.7v-.6l-.6-.6.6-.7-.1-.7.2-.6-.2-.5.2-.6-.6-.6v-.5l.3-.7-.4-.6-.2-.5.3-.7v-1.2l-.7-.6v-.7l.3-.6V195.7l.7-.5-.5-.7v-.6l.4-.6v-.6l.7-.5-.2-.7.2-.6-.2-.7.3-.5.5-.6-.3-.7.7-.4-.4-.8.3-.6.6-.4v-.7l.4-.5-.3-.8.7-.4-.3-.7.6-.5-.5-.8.8-.5v-.6l-.2-.7.5-.5.2-.6.3-.6V177l.4-.5-.5-.8.1-.6.2-.6.8-.5.2-.6-.2-.6.3-.6.2-.6-.3-.8.3-.5.5-.5-.5-.8.5-.5V167.2l1-.4.1-.6-.6-.8.9-.5-.2-.7.2-.6-.3-.7.4-.5.3-.6.5-.5-.4-.8.6-.5-.3-.7.6-.5.1-.6.4-.6v-1.9l-.2-.7.3-.6v-.6l.5.1.3-.5.2-.7-.5-.7.6-.5v-.7l.1-.6v-.6l.3-.6.2-.6v-.7l.3-.5-.2-.7.7-.5-.4-.7.8-.5-.1-.6v-.7l.2-.6.5-.5.2-.6-.4-.7.5-.6.3-.5v-.7l-.4-.7.8-.5.2-.6v-.6l-.3-.7v-.7l.8-.4-.3-.7v-.7l.7-.5v-.6l.3-.6v-.6l.6-.5v-.7l-.2-.7v-.6l.6-.5.2-.6-.2-.7.5-.5.3-.6-.6-.8 1-.4-.1-.7.3-.6-.4-.7v-.6l.9-.5.2-.6-.7-.8.5-.5.1-.6.1-.7.5-.5-.4-.7.8-.5v-.6l.1-.6v-.7l.3-.6.6-.4-.4-.8.6-.4v-.7l.2-.6.1-.6.6-.5-.3-.8.6-.4.3-.6-.2-.7.8-.4.3-.5.3-.6v-.8l.4-.4v-.8l.5-.4v-.8l.4-.4.6-.4.5-.5v-.7l.4-.4v-.7l.1-.7.3-.6.6-.3.4-.5.6-.3.4-.5-.1-1 .6-.3.4-.6.3-.5.6-.4v-.9l.8-.1.3-.6-.1-.8.4-.5.6-.4.5-.5.4-.4.1-.7.2-.7.2-.6.8-.2-.3-1 1-.1V86l.4-.4.6-.4.4-.5.2-.6.3-.6.4-.5.1-.6.5-.5.4-.5-.1-.8.9-.2.4-.5-.2-.9.6-.4.6-.3.2-.7v-.8l.1-.7 1-.2.2-.7-.2-.9.2-.7.7-.3-.2-.8.9-.3-.2-.7.5-.4-.2-.8.3-.5.7-.5.2-.6v-1.5l1-.3.1-.6-.2-.8.6-.5-.1-.7v-.7l.8-.4v-.7l.1-.7v-.7l.6-.4.4-.6-.4-.8.8-.4V56.8l.8-.4v-.6l.4-.6-.2-.7.2-.6.5-.5-.2-.7.3-.5v-.7l.8-.4-.4-.8.8-.4v-.7l.3-.5v-1.4l.3-.6.1-.6v-1.4l.8-.4-.4-.8.5-.5.5-.5v-.7l.4-.6v-.6l-.1-.7.3-.6-.2-.8.6-.5-.3-.7.8-.4v-.7l-.2-.8.9-.4v-.6l.2-.6-.3-.8.4-.5.3-.6-.1-.7v-.6l.5-.5-.2-.7.2-.6V28l.5-.5.5-.5.2-.6v-.7l.2-.6v-.6l.3-.6.5-.5V22.2l.4-.5-.1-.7.3-.6.1-.6.4-.6-.2-.7v-.8l.7-.4-.4-.8.5-.5.1-.7.4-.6v-.6l.1-.7.1-.6-.3-.7 1-.5-.4-.7v-.7l-.2-.7V9l.7-.6v-.7l-.6-.6.2-.7.2-.7-.3-.6-.6-.5.6-.9-1-.4.4-.8-.3-.6.1-.7-1-.2.3-.8v-.7l-.6-.4-.2-.6-.9-.2.3-1h-1l.3-1h-1v-.9l-.7-.1-.4-.5V-6l-.7-.2-.5-.5-.6-.2-.3-.7h-.7l-.5-.4-.7-.2-.6-.3-.5-.4-.6-.6-.7.2h-.6l-.6-.5h-.6l-.7.3-.6-.5-.5-.4-.7.4-.6-.4-.6-.2-.7.5-.6-.4h-.7l-.6.2H116l-.8-.6Zm4 8.4.9-.2-.5.3-.1.4-.2-.5Zm-.4 1.4.5-.4.5.5-.4.5-.6-.6Zm.5.8 1-.3v.5l-.6.5-.4-.7ZM98 84.1l.2-.6.2-.6v-.6l.2-.7.5-.5-.1-.7-.2-.7.7-.5v-.6l-.1-.7.5-.5.2-.6-.4-.8 1-.4v-.7l-.1-.6.3-.6-.2-.7.7-.5.2-.6-.5-.8.4-.6.4-.5.1-.7.4-.5-.2-.7V66.8l.7-.5-.1-.7v-.7l.3-.5.2-.6-.1-.7.5-.5-.2-.8.6-.5-.6-.8 1-.4v-.6l.1-.7v-.6l.3-.6.1-.6-.4-.8.6-.5.3-.6.4-.5-.1-.7.3-.6V52l.2-.6.4-.6-.6-.8 1-.4v-1.9l.2-.7.1-.6.3-.6v-.6l.4-.6.2-.6-.2-.7.4-.6-.4-.7 1-.4-.2-.7.4-.6-.2-.7.2-.6.5-.5.2-.6-.5-.8v-.7l.6-.5.3-.6-.1-.7.2-.6.4-.5.2-.6.2-.6.1-.7.3-.6v-.6l-.4-.8.8-.4-.5-.8v-.6l.7-.5.4-.6-.4-.8.5-.5-.3-.7V24l1-.4-.4-.7v-.7l1-.4-.8-.9 1-.4v-.7l-.3-.7.1-.6v-.7l1-.4-.2-.7.2-.6-.3-.7v-.7l.9-.4-.6-.8.5-.6v-.6l.1-.6.8-.5-.3-.7.6-.5v-.7l-.2-.7.6-.5.2-.6.2-.6.3-.6-.4-.8.4-.5-.2-.7.6-.6v-.6l-.2-.7.3-.6.4-.5.2.6v.6l-.6.6.3.7.2.7-.4.5-.2.7.3.7V7l-.4.6v.6l-.6.6v.6l-.2.6-.2.7.3.7.3.6-.6.6v.7l-.4.5-.3.6v.7l-.1.6-.1.6.4.7-.4.6.4.7-.1.7-.8.5.2.7.4.7-.4.6-.4.5.4.7-.8.6-.1.6-.2.6.2.7.4.7-.5.6.3.7-.3.6-.5.5.3.7v.7l-.6.5.3.7-.5.6-.3.6.6.7-.8.6.2.6-.3.7.4.7.1.6-.4.6v.7l-.5.5v.7l.2.7-1 .3.6.9-.7.4-.1.6-.6.5.7.9-.8.4-.4.6v.6l-.2.6.4.8-.8.4.5.8-1 .4.5.8-.8.4.2.7-.2.6-.8.5.1.6-.2.6v.7l-.5.5.2.7-.2.6V55.4l-.3.6-.7.5.1.7v.6l-.6.5-.2.6.3.8-.7.4-.4.5.3.8-.5.5-.3.6.3.7-.5.5-.1.7v.6l-.1.7-.3.5-.8.4.5.8-.2.7-.2.6-.2.6-.3.5-.3.6-.4.5-.4.6v.6l.3.8-.3.5-.1.7-.3.6-.2.5-.5.6-.3.5v.7l-.4.5.4.8-.9.4v.7l-.3.5-.1.7.3.7-.4.6-.2.6v.6l-.7.5-.4.5v.2-.2Zm-.6 2.3.2-.9.3-.9.5-.7v2l-1 .5.1.5-.1-.5Z" />
</svg>
