<svg width="200" height="200" xmlns="http://www.w3.org/2000/svg" dragabble="true">
  <path 

    id="icon-ship"
    stroke="none" 
    stroke-width="1"
    fill="var(--fill)"
    fill-rule="evenodd"
    
    d="m106.2 144.1-.5-1.5-.9-.9-.2-1.3.1-1.5-1.2-.7-1.2-.8-.1-1.4-.1-1.2-.3-1.2v-1.2l.6-1.1.5-1.2V129l-.6-1.2.5-1.2.3-1.2-.7-1.1.4-1.2.2-1.2-.2-1.1-.7-1.2.9-1.2.2-1.2-.4-1.1.5-1.2-.2-1.2-1.1-1.2.4-1.6 1.4 1.2 1.3-.5 1.2-.2 1.1.5 1.2-.5 1 1.3 1.2-.2 1.2-.3 1.1.5 1.2.4 1.1.4 1.3-.9 1 1 1.3-.9 1 1.1 1.3-.6 1.2-.3 1.1.2 1.1.6 1.2-.1 1 1.2 1.3-.6 1.1.7 1.1.3h1.2l1.2-.4 1.1.4 1.3.4.2-1.6v-1.2l.1-1.1-.1-1.2-.1-1.2 1.3-1-.6-1.2.2-1.2 1-1 .3-1.1-.3-1.2-.2-1.3 1.1-1-.2-1.2-1-1.3 1.2-1-.3-1.2.7-1.1.3-1.1-1-1.3.2-1.2.9-1-.4-1.3.7-1-.4-1.2.3-1.2.1-1.1.7-1.1.1-1.2-.8-1.2.9-1.1.5-1.2-1-1.2-.1-1.2.6-1.1.6-1.1.3-1.2-1.1-1.2.3-1.1.8-1.2-.2-1.2.3-1.2-.9-1.1.8-1.2-.6-1.1-.6-1.2.7-1.2-1-1.1-.1-1.2v-1.1l.6-1.2-.9-1.1.4-1.2.8-1.3-.5-1.1-.6-1.1-.1-1.2-.1-1.2-.5-1.1.9-1.2-.6-1.1-.6-1.2.5-.7-1.2-.8-1.1-.6-1.2.6-1.2.7-1.1-.9-1.1-.4-1.3 1.2-1.1-1.3-1.1.4-1.2-.1-1.2.8-1.1-.5-1.2-.3-1.1-.2-1.2-.1-1.1-.7H119l-1.2.6-1.2.3-1.1-.1-1.2-.5-1.1.4-1.1-1.1-1.2.1-1.2.5-1.2.2-1.1-.6h-1l-.4-.1-.8-.8.4-1.2-.1-1.2.5-1.2-.1-1h2.1l1.2-.3 1.2-.4 1.2.9 1.2-.2 1.2-.4 1.1 1.4 1.2-.6 1.2-.2 1.2-.1 1.1.3 1.2.5 1.1.5h1.2l1.3-.8 1.1-.1 1.1 1.2 1.2.1h1.2l1.2-.8 1.1.3 1.1.9 1.1.2 1 .5h1.2l1.3-.9 1 .7 1.2.2.9.9 1.3-.7h1.2l.9 1.4 1.1.2 1.3-.9 1.1.5 1.2-.2 1.1.8-.8-1-.5-1.1-.1-1.2.1-1.4-1.7-.5.6-1.7-.7-.9-.8-1-.5-1.1-.7-1-.8-.9-1-.8-.9-.7-.7-1.1-1.3-.3-1.3-.2-.6-1.2-1.1-.6-1.1-.4.3-1 .8-.8-.7-1.6.7-.9.6-1.2 1.5-.1.4-1.4 1.3-.2 1.2-.1 1-1 1.5 1 1.1-.5.9-1.2 1.2-.1 1 .6-.9-1-1.1-.4-1-.8-1.3.3-1.2.3-.9-1.1-1.4.6-1-.8-1.2.2-.8-1.6-1.2.2-1.3.2-.9-1-1.3.4-1.1-.3-1.2.2-1.1-.2-1-1.2-1.2.1-1-.6h-2.4l-1.1-.1-1.1-.7-1.2.5-1.2-.5-1.1-.2-1.1.9-1 .5H115l-1.2-.2-1 .4-1.1.2-1.2-.5-1.1.3-1 .7-.9.3-.9-1.1 1.2-1-.9-1.1 1.2-1.1-1-1.1 1.2-1-.3-1.5-1.4.3-1 .4-1.3-1-.1 1.9.1 1.2.4 1.2-.7 1.2.6 1.2-.5 1.2.2 1.2.9 1.2-.9 1-.8-1-.5-1.2-1.5-.5-1.1 1-1.2-.9-1.1.7-1.1.5-1.8-.9 1.2 1.6-.9 1.3.1 1.2.1 1.1 1.3 1.1-.3 1.2-.2 1.2 1 1.1-.2 1.2-1 1.2v1.2l.2 1.1.6 1.2-.8 1.1-.2 1.1.3 1.2.7 1.3-1.6.9-.1 1.1v1.2l-.5 1 .1 1.2.3 1.6 1-.4.8-1.3 1.4.8 1.2-.1.9-.7.9-1 1.2.6.7.8-1.2 1.2 1.1 1.2-1.2 1.2 1.3 1.4-1.5.3-.9 1.4-1.2-.4-1.1-.4-1.1-.7-1.2.2-1.1.1-1.1-.7-1.2.5-1.1-.7-1.2.4-1.1.1-1.1-.4-1.3.9-1.1-.4-1.1-.6-1.1-.5h-1.1l-1.3 1-1.1-.6-1.1-.8-1.1.2-1.1-.3-1.3.9-1.1-.1-1.1-.4-1.1-.4-1.2-.1-.4.2-1 1-.3 1.2-.5 1.1 1 1.2v1.2l-.7 1.1v1.1l-.3 1.2L69 50l.4 1.2-1.3 1 .6 1.3-1.1 1-.2 1.1 1.1 1.3-1.4 1 .5 1.2.6 1.3-1.1 1 .5 1.2-.6 1.1.4 1.2-1.1 1.1.6 1.2-.6 1.1-.7 1.1.8 1.2-1 1.1.4 1.2.7 1.2-.9 1.1-.3 1.1.6 1.3-1.2 1 .4 1.2-.1 1.1.2 1.2-.4 1.1v1.2l-1.1 1-.1 1.2 1.1 1.3-.5 1.1.3 1.2-1.4 1 .4 1.2.1 1.2.1 1.2-.5 1.1-.4 1.1v1.1l-.8 1.1-.2 1.1.2 1.2.6 1.3-.5 1.1-1 1v1.2l.6 1.2-.6 1.1v2.4l1.2-.1 1.2-.2 1.1-.2 1.2.7 1.1.8 1.2-1.2 1.2.3 1.1-.2 1.2-.2 1.1 1.5 1.2-1.4 1.2.7 1.1.4 1.2-.1 1.2-.7 1.1.7 1.2.3 1.1-.1 1.2.7 1.2-1.1 1.1 1 1.2-.2 1.1.3 1.2.1 1.2-.5 1.1.4 1.2-.4 1.2.2h1.1l1.2-.3 1.1.5 1.2-.6.8.9-.4.7 1.1 1.3-1 1.1-.2 1.1-.1 1.2.6 1.2-.4 1.1.8 1.3-.8 1.1v1.1l.2 1.2-.1 1.2-.7 1.1.4 1.2.3 1.2-.5 1.1-.8 1.1.6 1.2-.8.9-.6.7-.4 1.2-.5 1.1-1.5.2-.6 1-.7 1-.5 1.3-1.3.1-1.1-.7-1.1-.2-1.1-.5-1-.9-1.2.1-1-.7-1.3.3-1.1-.5-1.1-.1H80l-1.3.2-.9-1.3-1.3.5-1-.9-1.1-.4-1.3.4-1-.5-1.1-.4-1.1-.5h-1.2l-1.3.3-1.2.3-1.2-.1-1.1-.4-.9-1.4-1.1-.3-1.5 1.1-1-.6-1.1-.4-1.1-.4-1.2.2-1.1-.7-1.1-.1h-1.2l-1.2-.3-.9-1.3-1.1-.2-1.5 1.1-1.1-.2-.9-1.5-1.2.3-1.2-.1-1.1-.6-1.3.7-1.1-.4-1-1-1.3.5-1-.8-1-.7-1.3.3-1.1-.3-1.1-.7H31l-1.1-.3-1.1-.6-1.1-.3-1.3.7-1.1-.6-1-.7-1.4.7-1-.8-1-.9-1.4.8-1.2.1-.9-1.3-1.3.2-1-1-1.4.5h-1.2l-1.1-.5-1-.9-1.3.2L8 122l-1.2-.3-1.1-.5-1-.2-.9.5-.9.8-.6 1.1-.3 1 .3.9.3 1.2 1.4.5-.1 1.5 1.4.5-.7 1.7 1.8.3-.5 1.7.9.8 1.1.7.5 1 .7 1 .8.8.5 1.1.9.8.6.9.2 1.3-.1 1.4 1.8.3v1.3l.9.9.1 1.3.3 1.1 1 .7 1 .8-.1 1.4 1.5.5-.3 1.5 1.4.5.2 1.3.1 1.2 1.3.6-.2 1.5.9.8 1.1.7-.1 1.4 1.7.3.3 1.2v1.3l1.1.7.8.9-.2 1.5.8.8 1.2.7.9.8-.7 1.8.9.8.5 1 .8.9.6 1 .6 1 .9.8.5 1.1 1.1.6-.4 1.7 1.6.3.8.9-.3 1.5.6 1 1.3.6-.3 1.6 1 .7.5 1.1 1.4.5-.2 1.7 1.4-.4 1.2.2 1.2-.2 1.1.2 1.1.9 1.2.1 1.2-1 1.1 1.1h1.2l1.2-1 1.1.9 1.2-.2 1.1.6 1.2.2 1.1.3 1.3-1.1 1.1.9 1.1.1 1.3-.7 1.1.6 1.1.4 1.2-.7 1.1.9 1.2-.5 1.2-.1 1.1.8 1.2.1 1.2-.3 1.2-.7 1.1.5 1.2-.3 1.1.9 1.2-.1 1.1.8 1.2-.5 1.2.2 1.1-.1 1.2.2 1.1.3 1.3-1 1.1.4 1.1.6 1.2-.5 1.2.6 1.1.8 1.2-.9 1.2-.4 1.1 1.4 1.2-.3 1.1.5 1.3-1.2 1 1.4 1.2.1 1.2-1.3 1.2.5 1.1.1 1.2-.4 1.2.2 1.1.7 1.2.3 1.2-.7 1.1.9 1.1.6 1.2-.9 1.2.6 1.1.4 1.2-.2 1.2-1 1.2.4 1.1 1.1 1.2-.9 1.2.2 1.1.8h1.1l1.3-.9 1.1.2 1.1 1.4 1.2-.2h1.1l1.2-.3 1.1.8 1.2.1 1.2-.2 1.2-.4 1.2-.2 1.1.6 1.2-.3 1.1 1 1.2-.1 1.2-.9 1.1.6 1.2-.5 1.2.7 1.3.3.5-1.2.2-1.3 1-.7 1-.7.6-1 .9-.8.3-1.1 1-.8 1.3-.4.1-1.4 1.3-.4.7-.9.7-.9.5-1.1.7-1-.1-1.5 1.6-.2.3-1.2 1.4-.4.3-1.2.9-.7-.1-1.6 1.7-.1.6-1 .9-.8.3-1.2.7-.9.6-1 .1-1.4.8-.8 1-.7.6-1 .8-.8.4-1.2 1.3-.4.2-1.4 1.7-.1.6-.9.3-1.3.7-.9.6-1 .7-.9.2-1.3.7-.9.9-.8 1.3-.5.3-1.2 1-.6.2-1.4.7-.9.6-1 1.4-.3.6-1 .9-.8.2-1.3.9-.8.4-1.1.7-.9 1.1-.6.2-1.3 1.7-.2.1-1.4 1.5-.2.2-1.3.9-.8-.1-.7-.6-.9h-1.2l-1.1 1-1.1-.2-1.2.7-1.2-1.1-1.1 1-1.2-.3-1.1.4h-1.2l-1.2-.3-1.2-.1-1.1.8-1.1.2-1.2-.6-1.1 1-1.2.1-1.2-.7-1.1.5-1.2.5-1.3-1.4-1.1.3h-1.2l-1 1.3-1.3-.8-1.2-.2-1.1.2-1.2.2-1.2-.3-1 1.5-1.2-.2-1.2-.5-1.1 1-1.2.1-1.1.1-1.3-.8-1.1.3h-1.2l-1.1.6-1.2-.1-1.2-1-1.2.5-1.1-.2-1.2.1-1.1.4-1.2.5h-1.1l-1.2.3-1.1.5h-1.2l-1.2-.7-1.2.3-1.1.4-1.2-.6-1.2.3-1.2-.2-1.1-.2-1.2.4-1.2-.2-1.1.5-1.2.2-1.2-.5-1.1 1-1.2-.7-1.1.1-1.2.6-1.1.8-1.2-1.1-1.1 1.1-1.3-1.1-1.1.4-1.1.9-1.3-.8-1.1.8-1.1.5-1.2-.4-1.3-.3z"/>

</svg>
