<svg width="200" height="200" xmlns="http://www.w3.org/2000/svg" dragabble="true">
  <path 

    id="skateboard"
    stroke="none" 
    stroke-width="1"
    fill="currentColor"
    fill-rule="evenodd"
    
    d="m162.7 0-1 .5-1-.3-1 .4-.9 1.1-1 .1-1.2-.6-.9.7-.9.6h-1l-.8.9-1.2-.5-.9.6-.7.8-1 .1-1 .3-1 .2-.5 1.3-1.1-.2-.6 1.2-1.2-.2-.6 1-.7.7-.9.4-1 .2-.8.6-1.3-.3-.5 1h-1.1l-1 .4-.8.6-.6 1-1 .2-1 .3-.7.7-.8.7-.8.5-.7.7-.7.7-1.4-.3-.5 1-.8.6h-1.2l-1 .4-.5.9-.7.8h-1.2l-.7.8-.2 1.3h-1.3l-.6.8-1 .2-.9.6-.3 1.3-.8.6h-1.2l-.4 1-1.1.2-.6 1-.8.5-.8.6-1.1.2-.8.6-.4 1.2-1 .1-1.1.3-.3 1.3-.7.8-1 .2-1 .3-1 .4-.2 1.3-1 .4-1.2.1-.7.8-1 .4-.3 1-1.2.2-.5 1-.6.9-1.1.1-.3 1.2-.8.7-.8.5-1.2.2-.4 1.1-1 .3H89l-.6 1-.5.9-.8.6-.8.6-.6.9-1.3-.1-.5 1-.6.9-.8.5-1.1.2-1 .2-.5 1-.4 1.1-1.2.1-.9.5-.1 1.4-1.4-.2-.6 1-.7.5-.4 1.2-1 .4-.8.5-.8.5-.8.6-1.1.3-.7.7-.4 1-.6.9-.7.6-1 .4-.5.9h-1.3l-.7.7-.4 1-.7.8-1 .4-.7.6-1 .5-.2 1.2-1 .4-.6.8-1 .4-.7.6-.6.8-.8.7-.5.8-.5 1-1.2.1-.6.8-.5 1-1.4-.1-.4 1-.5.9-.7.7-.8.6-1 .5-1 .4-.6.8-.1 1.3-.7.8-1.3.1-.7.8-.6.7-.2 1.3-.8.6-1 .4-.8.7-.9.6-.6.8v1.3l-1 .5-.7.7-1.2.3-.1 1.3-.6.8h-1.4l-.7.8-.1 1.3-1 .5-.4 1-1.2.2-.6.9-.8.5-1 .2-1.1.1-.2 1.5-1.4-.4-.8.7-.7.7-.9.4-.7.5-.8.6-.8.6-.8.6-1 .2-.6.8-.6 1h-1.1l-.8.5-.8.7-.8.5-1 .2-.3 1.4-1 .3-.7.6-1.2-.3-.3 1.2-1 .4-.9.4-.2 1H4.8l-.6 1v1.3l-.5.9-.1 1-.8 1-.3 1-.6.3.2 1.1.2 1.1-1 .8.5 1.2-.7.9.2 1-1.2.9.3 1 .2 1.1-.6 1 .4 1v1l.3 1 .2 1-.6 1.2.8.8 1 .6h1.1l1-.3 1.1-.2h1.2l.7-.9h1l1-.3.6-1 .8-.9 1-.2 1-.2.8-.6.9-.4h1.1l1-.4.7-.7 1-.3.5-1.1 1.3.4.6-1.1 1.3.4.5-1.2 1.3.4.9-.6.7-.8.8-.7 1.2.3.8-.6 1-.5.7-.7h1.1l.7-1 1-.1.8-.7.4-1.2 1-.1.9-.5 1-.3.5-.9.3-1.1h1.2l.4-1 .6-.8.6.2 1.2.2-.3 1.3.5.8.4.5v1l-.9.4-1 .4-.2 1.3-.6.4-1.2.5-.3.9v1l.5 1-.7 1v1l.3 1 .7 1-1 1v1l.2 1-.3 1 .3 1v2l1 1-.7 1 .1 1 .8.9 1 .5v1.2l1.2.1.3 1.4 1.3-.3.5 1.3 1.4-.7.6 1.4 1.3-.9 1 .5.9.3 1 .6 1-.3 1-.2 1.2.2.9-.8 1 .2.9-.7.9-.6 1-.3.4-1.2.9-.4 1-.5.7-.8.3-1-.5-1.2.7-1 .7-.8v-1.1l.1-1-.8-1v-1l.3-1 .3-.9v-1l-.8-1 .6-1v-1.1l.1-1.1-1-1-.3-1v-1l-.7-.7-.6-.8-.8-.8-1-.3-.5-1.2h-1.2l-.8-1-1-.4-1.6.5 1.1-1.3.5-.2.9-.8 1.1.5.8-.8 1-.2.5-1 1.3-.2v-1.1l.8-.7.8-.7-.4-1.1 1-.7-.4-1-.6-.9.5-1v-1l-.7-.8.7-1-.5-1-.2-.8.7-.9 1-.4.7-.6 1.3.1.8-.6.3-1.3 1-.3.6-.8 1.3.2.6-1 .8-.6.6-.7 1-.4 1-.3.7-.7h1.1l.9-.6.6-.8.5-1 1-.3h1.2l.8-.6.5-1.1 1-.2.8-.7.7-.7.8-.6.7-.8.7-.7 1-.1H86l.3-1.5.9-.4.7-.7.7-.7 1.4.3.2-1.5 1-.2 1-.3.7-.7.5-1 1-.3 1-.4.7-.7 1-.2.3-1.3h1.3l.7-.7.9-.4.8-.6.5-1 1-.3.5-.9 1-.4.7-.7.6-.8 1-.3.5-1h1.3l.8-.5.3-1.3h1.2l.9-.5.7-.6.5-1 1-.4.3-1.2 1.2-.1.7-.7.6-.8.9-.6 1-.2.5-1 .6-.8 1-.3 1.2-.2.4-1 1.1-.2.8-.7.4-1 .6-.8h1.3l.6-.8.7-.8.4-1 .6-.8 1-.4.7-.7 1-.5 1-.2.6-.9 1-.4.5-1 .8-.4.8-.7.6-.9.5-1h1.4l.3-1 1.1-.3.9-.6.4-1.1.8-.4-.2.8.4 1.1 1.3.5 1-.4.8-.5h1.4l-.4 1.3-1 1v1.2l1.4.8-.1 1 .2 1 .1 1 .6.9v1l.3 1 .6 1 .2.9-.5 1.2.3 1 1.4.5.4.8-.5 1.3.8.6.6.7.3 1h1.1l.7.6.5 1 1.1-.2.7.8.8.7 1-.2 1 .2.9.4 1-.1h1l1 .1 1-.2.6-1 1-.2 1.2-.1.5-1.2 1-.2 1.2-.2.2-1.4.6-.8 1.4-.1.4-1 1.1-.4.2-1.3.4-1 .4-.6.7-.9-.4-1v-1l-.1-.9v-1l-.3-1 .2-1v-1l-.5-.9-.7-.7-.1-1v-1l-1-.7.3-1.1-1-.7.8-1.3-1.4-.5.7-1.4-1.1-.5-1-.3-.8-.6-.9-.5-1-.3-.7-.5h-1l-1.3-.5 1-1.1 1-.5-.4-1.3.9-.6.2-1 .8-.6.5-.9-.2-1.1-.4-1 .5-1.2-1.1-.7.4-1.3-1.2-.6-.1-1-.2-1-1-.4.3-1 .3-.3.3-1 1.2-.3-.2-1.4.7-.6 1-.5.1-1 .3-1 1-.5.2-1-.2-1 .1-1 1.5-.6v-1l.3-1v-1l.2-1v-1l-.5-.8-.4-1-1-.6V2.5h-1.4l-1-.5-.4-1.2-1.2.2-.8-1h-1Zm-14.2 11.3.7-.7 1 .3 1 .7-1 .9-.2.9v1.1l-1.3.2-1 .2-.9.3-.6-.8-.2-.4-.1-1.4.9-.6 1.2.2.5-.9Zm.4 13.1V23l-.3-.7.3-1.1 1-.6.7-1 1.3.5 1.3-.3-.2 1.2-.3.9-.2 1-1 .6-.5.8-1 1-1-.9Zm-22 6-.9-.5.5-.7.3-.8.1-1.4 1.2-.3 1.2.7 1-.3.6 1-1 .7-.3 1.1-.8.6-1.3.1-.6-.1Zm3 8.3-.8-.3-1-.4.3-.8.2-.8.1-1.4 1.2-.1.8 1 1-.4 1 .1.3 1-.3 1.2-1.3-.2-.3 1.2-1.2-.1ZM157.7 57l-.9-.4-.9-.4-.2-1-.1-1v-.8l-.6-1.2 1.1-.6v-1.3l1.3-.1.7-.9.9-.5 1-.2 1 .3 1-.2.8 1 1-.5.7.8.7.5.6.5 1 .6-.7 1-.2 1v1l-.8.6-.6.8-.2 1.3-1 .4-1.3-.5-.8.7-1 .4-1-.4-1 .3-.5-1.2ZM42 95.4l.2-1v-1.1l1-.2.5-.6.6-1.2 1.3.5-.6 1v1l-.6.8-1 .3-.5.9-.9-.4Zm-.1 9.2-.3-.1-.3-1.4.8-1h1.3l.3-1 1-.3.3.9.6.8-.1.9-1.1.6-.8.3-.7.6-1-.3Zm-16.8 4.9 1-1v-1l.4-1 1-.7 1.2-.2 1 1-.6 1-.5.8-.4 1-1 .4-.5.6h-1.3l-.3-1Zm.6 9.2-.3-.1-.6-1.3.6-1 1.5.4 1-.4 1.3.4-.8 1-.8.4-.8.7-1-.1Zm22.6 14 1 .8 1-.5 1-.2 1 .2.7.7 1 .2.2 1.2 1.2.4-.8 1-.6.8-.3 1-1 .3-.7.7-.6 1.3-1.1.2-1-1-1 .4h-1l-1-.6h-1l-.2-1.4-.6-.7-.5-.9.4-1 .6-.6.8-.5.5-1.2 1.1.3 1-1Z" transform="translate(10 27)" />
</svg>
