<svg width="200" height="200" xmlns="http://www.w3.org/2000/svg" dragabble="true">
  <path 

    id="icon-ship"
    stroke="none" 
    stroke-width="1"
    fill="var(--fill, var(--green))"
    fill-rule="evenodd"
    
    d="m56 0 .2.3-.2.1-.1.4V1.4l-.1.1v.3l-.4.4v.4l-.4.3.3.3-.2.1-.1.4-.2.1c-.1.1-.2.4 0 .5v.3h-.2c.1.2 0 .4-.2.5.2.1 0 .2-.1.3l-.2.4-.1.1v.2c.2.1.2.1 0 .2l-.2.3v.2l-.3.3c-.2 0-.2 0 0 .2v.2l-.1.3-.3.3c.1.1.1.1 0 .2l-.2.4-.3.2v.6h-.1v.5l-.2.2v.2c.2 0 0 .2 0 0-.5.2-.5.2-.3.3V11l.2.2v.6H52c-.2.2-.2.2 0 .3v.2c-.2.2-.2.5-.1.6v.4l-.2.2v.8c-.2.1-.2.1-.1.2v.3l-.2.2v1.4l.2.1v.2l-.2.2c.1.1 0 .3-.2.4l.1.6v1c-.1 0-.1 0 0 .2l-.1.1.1.2c.1.1.1.1 0 .2v.5l-.2.2.3.4c.2.1.2.1 0 .2v.3l-.2.1.2.2v1.1l.1.2c-.1 0-.1 0 0 .2l.2.3-.4.4.2.2v.3l.1.4c-.1.1-.1.1 0 .2v.3h-.3l.1.1.2.3-.1.1v.8l.3.4-.2.2c-.1 0-.1 0 0 .2v.3l.2.3h.1c.2.2.2.2 0 .4h-.1l.2.4H52v.3l.3.4.2.6.2.5v.3l.4.4c-.2.1-.2.1 0 .3 0 .1.2.3 0 .4H53l.1.2c.3 0 .4.2.4.5v.3l.3.3v.3c.2 0 .2 0 .2.3v.9l.2.1v.4l.2.2c-.2 0-.2 0 0 .2l.2.3v.3l.2.2c-.2.2-.2.2 0 .3v.1l.2.4v.4l.7.8v.4h.2c0 .4 0 .5.2.6l.2.3.3.7c.2.1.2.1.1.4v.3c-.1 0 0 .2.2.2l.3.3v.4l.4.4.1.4.2.6.1.1c0 .3.1.4.5.8.2.3.3.5.2.6l.5.5v.3c0 .3 0 .3.2.3l.1.1.2.3-.1.1c-.2.1-.2.1 0 .3 0 .1 0 .1.2 0s.3 0 .5.3l.1.2v.2l-.3.2c.1.2.1.2.4.2l.2.3.3.3c.2 0 .2 0 0 .1v.3l.4.4c.1.1.3.3.2.5l.1.2h.3c-.1.1.1.4.5.8v.3h.2l.1.2.2.2.2.6h.3c-.1.1-.2.4 0 .7l.2.1-.1.1c0 .2 0 .2.2 0l.2.3.4.4.1.2v.2c.1.2.2.3.5.3l.5.6v.3l.9 1.1c0 .1 0 .1.2 0l.3.3c0 .3 0 .4.3.7l.1.1.2.3.2.1v.2h.3l.3.3.3.4-.1.1.8 1 .2.3h.6v.5c.2 0 .3.2.1.4l.4.4h.2l.4.4-.1.1.3.5c.2-.2.3 0 .4.1l.3.4.2.2h.2l.1.4.1.2.4.4v.1c.4 0 .3.3.5.8l.6.5.2.1c-.2.1 0 .3 0 .4h.2c.1 0 .2.2.4 0h.1l.1.1v.5l.1.2.4.4v.4l.4.1.4.5v.4l.2.1c.1-.1.2 0 .2.3l.5.6.4.1.2.3.2.3.5.5.1.4.5.6.2.3.1-.1.2.1v.4c.2.2.2.2 0 .3l.3.3c.1-.2.1-.2.2 0l.3.3c0 .1.2.2.2.5-.2.1 0 .3 0 .4l.2.1-.2.2h1l1-1 .2.1.5-.2.5-.3.1-.2h.4l.6-.5v.1l.3.3c.2-.1.3-.2.2-.4l.1-.1.3-.2c.1.1.3 0 .3-.3 0-.2.2-.3.3-.2h.2l.3-.2V71l1.3-1.2.1.2h.3l.4-.4v-.1l-.2-.2h-.1.6c.3-.1.4-.3.3-.4-.1-.1 0-.3.2-.4l.1.2h.3l1.6-1.4v-.5l.4-.3v.2c.2.1.2.1.4 0v-.3c-.1-.1-.1-.1 0-.2l-.7-.9-.1-.1-.4-.4.2-.1v-.3l-.1-.1-.4-.5-.3-.4-.1-.4-.3-.3-.2-.3v-.4l-.3-.2-.3-.3-.2-.3-.2-.3-.3-.3c.2 0 0-.5-.3-1l-.3-.3c0-.3 0-.3-.1-.2H88l-.1-.1.1-.2h-.1v.3h-.3l-.2.2-.2.1v.1l-.2.1h-.2l-.2.1v.2l-.2.1H86l-.1.2h-.2v.2l-.2.2H85.2l-.1.2h-.2l-.1.1-.2.1-.1.1-.2.1v.2H84v.2H83.3v-.1H83v-.2l-.2-.1V61l.2-.2h.4v-.2h.2l.1-.2h.2l.1-.2h.2V60h.3l.1-.1h.2l.1-.2h.2v-.2h.3l.1-.1.1-.1.1-.2h.4l.1-.1.1-.2h.2V58H86l-.1.2-.2.1h-.2v.1l-.3.1h-.1l-.1.2-.1.2h-.2l-.1.2h-.4l-.1.1-.2.1v.2h-.4v.3h-.3l-.1.1h-.1l-.2.1-.1.2-.1.1H82.4V60l-.2-.2-.1-.1-.2-.2h.2l.2-.1.1-.1.1-.2h.2l.1-.1h.2l.1-.2h.2l.1-.2.1-.1.2-.1h.2v-.2l.2-.1h.2l.1-.2h.2v-.2h.4l.2-.1.1-.1.1-.2h.2l.2-.1.1-.1v-.2l-.2-.1h-.2l-.2-.1H85l-.1.2-.2.1H84.4l-.2.2v.2h-.3v.2h-.4l-.1.2h-.2l-.1.2-.2.1h-.1l-.1.2h-.2l-.2.1v.2H82v.1l-.2.2h-.2l-.2-.2v-.1l-.2-.2V58.1l.2-.1.2-.1v-.1l.2-.1h.4l.1-.3H82.6l.1-.3h.2l.1-.1h.2l.2-.1v-.2l.2-.1h.4v-.3h.2l.2-.2h.1l.1-.2h.2l.1-.2h.1v-.3l-.2-.1h-.1l-.2.1-.1.2h-.2l-.2.1v.2h-.2l-.1.2h-.2l-.2.1-.1.1-.1.2H83l-.2.1h-.2l-.2.1v.3h-.2l-.1.1h-.4l-.1.2-.1.2h-.2l-.1.1H81l-.1.2h-.2v-.3l-.1-.1-.1-.1-.1-.2-.3-.1.3-.1h.1l.1-.2h.2l.1-.2h.2l.1-.2H81.5l.2-.2h.2v-.2h.2l.1-.2h.2l.2-.1v-.1l.2-.2.1-.1h.4V55h.2l.1-.3h.1l.1-.2h.1l.1-.2V54h-.4l-.2.1H83.1l-.1.2h-.2l-.1.1-.2.1h-.1l-.2.1-.1.2h-.2v.2l-.2.1-.1.1h-.2l-.1.2h-.4v.3h-.4l-.1.2H80l-.2.1-.2-.1-.1.1-.2-.1H79l-.2.1h-.1l-.1.2h-.2l-.2.1h-.1l-.2.2v.1h-.5v.2h-.2l-.2.2H76.8l-.2.1-.1.1h-.2l-.1.2H75.6v.2l-.2.1h-.2l-.1.2H74.5v.2h-.2l-.2.1-.2.1h-.1l-.1.2h-.2l-.2.2H73l-.1.1-.2.2h-.1l-.1.2H72l-.1.2h-.2v.2l-.2.1-.2.1-.1.1-.1-.2-.1-.2-.1-.1-.1-.2v-.1l.1-.3h.2l.1-.1.1-.1h.3v-.1h.2l.1-.3h.1l.2-.1.1-.1h.3v-.2h.2l.2-.1v-.2l.2-.1.1-.1.2-.1-.1-.2.1-.2.1-.2h-.4l-.2.1-.1.1h-.2l-.1.2-.2.1v.1h-.3l-.1.2-.1.1h-.2l-.1.2H71.4l-.2.2H71v.1l-.2.2h-.2v.2h-.2v-.2l-.2-.1V58h-.3l-.1-.3.2-.1H70.3l.1-.2.1-.2h.4l.1-.1.2-.1v-.2h.2l.1-.1.1-.2.2-.1h.2v-.1l.2-.2h.4v-.3h.2l.1-.2v-.2l-.2-.2h-.2v.2l-.2.1h-.2l-.1.2h-.2l-.1.1h-.2v.2h-.3l-.1.2v.2h-.4l-.1.3h-.4v.2l-.2.1-.1.1h-.2l-.2.2-.1-.2v-.2l-.2-.1v-.2l-.1-.2h.3V56h.2V56l.2-.1.2-.1h.1l.2-.1h.2l.1-.2.1-.2h.2l.1-.2h.2v-.2h.3v-.2h.3l.2-.2.1-.1v-.2h.2l-.1-.2h-.5v.2h-.2l-.1.2h-.2l-.2.1v.2h-.3l-.1.1-.1.1-.2.2H70v.3h-.4l-.1.3H69.2l-.2.2h-.1l-.2.1v-.2h-.3v-.4l-.3-.1.2-.2h.2l.1-.2h.2l.1-.1h.2v-.3h.2l.1-.2h.2l.1-.1.2-.1h.1l.2-.1.2-.1v-.2h.3v-.2h.2l.1-.1h.2V53h.3v-.7H71l-.2.1-.2.1v.1l-.2.2h-.2l-.1.1-.1.2h-.2v.2h-.2l-.2.1-.1.1-.2.1H69v.2h-.4l-.1.2-.1.2h-.2l-.1.1-.2.1H67.6V54l-.2-.2h.1l.2-.1.1-.1h.2l.1-.1.2-.1v-.2h.2l.2-.1.1-.2H69.1l.1-.3h.4l.1-.1.1-.2h.2l.2-.1.1-.1v-.2h.4v-.4l.1-.2V51h-.4l-.1.1-.2.2H70l-.2.1h-.1l-.2.2h-.1l-.1.2-.1.2h-.3v.1l-.2.1-.1.1h-.2l-.1.2-.1.1-.2.1-.1.1h-.2l-.1.2h-.2l-.1.2h-.4l-.1-.2v-.2l.1-.2h.2v-.2h.2l.2-.1.2-.1.1-.1.1-.2h.2l.1-.2h.1l.2-.1h.2l.1-.2h.2V51h.3v-.3h.2l.1-.1.1-.2h.2l.1-.1v-.2h.2V50l.2-.2h-.2l-.1-.2h-.2v.2l-.2.1h-.2l-.2.1v.2H69l-.1.2-.1.1-.2.1h-.2v.2H68l-.2.1v.2h-.3l-.1.1h-.1l-.2.2H67l-.2.2-.1-.1v-.2l.1-.1.1-.1v-.2l.2-.1.1-.1h.3v-.2h.2l.2-.1v-.2h.3V50l.2-.1h.2v-.2h.2l.2-.1h.2v-.2h.2l.1-.2.2-.1.1-.1h.2l.1-.2h.2l.1-.1h.2l.1-.2h.2v-.3h.2l.2-.1.1-.1h.2l.2-.1h.1l.2-.1.1-.2h.2v-.2l.2-.1h.2l.1-.1.2-.1.1-.1h.2l.1-.2h.2l.1-.1.2-.2h.5l.1-.2.1-.1.2-.1.1-.1h.2l.2-.1h.1l.1-.2h.2l.2-.1.1-.1h.2l.1-.2h.2l.1-.2h.2l.1-.1h.2l.1-.1.2-.1H77.7l.2-.1.1-.1.2-.2h.1l.2-.1h.2l.1-.1.1-.1h.4l.2-.1.1-.1.1-.2h.2l.1-.1h.4l.1-.2h.2v-.2h.5V43h.2l.2-.2H81.9l.2-.1.1-.1.1-.1h.3v-.2H83.3V42h.3l.1-.1.2-.2H84l.2-.1v-.2h.3v-.1h.3v-.2h.4l.2-.2h.5l.1-.2.1-.1.2-.1h.1l.2-.1.1-.2h.4l.1-.2h.4V40h.3v-.2l.3.1v-.2h.4l.1-.3H89.1l.2-.1h.2l.1-.2h.2l.1-.2h.5l.2-.1.1-.1.2-.2h.1l.1-.1h.4l.1-.2.2-.1H92l.1-.3h.4l.1-.2H93l.2-.2.1-.1h.4l.1-.1h.2l.1-.2h.2v-.2h.3l.1-.1.2-.1h.1l.2-.1h.2l.1-.1h.2V36h.5V36h.3l.1-.2h.1l.2-.1.1-.2h.4v-.2h.3l.1-.1h.2l.2-.1.1-.2h.2l.1-.1.2-.2H99l.2-.1h.1l.2-.2h.2v-.1h.4l.2-.2h.2v-.1l.2-.1h.4l.1-.2h.2l.2-.1h.1l.2-.1.1-.2H102.7v-.2h.4l.1-.2h.2l.2-.1H103.9l.2-.2h.1l.2-.1h.2V32h.3l.1-.1.2-.1h.2v-.2l.3.1.1-.2h.4v-.2l.3.1.1-.1h.2l.1-.2.2-.1h.2l.1-.1h.2l.1-.1.2-.1h.2v.2l.2.1.1.2v.2l.1.1.1.2h.3v.2l.1.2.1.1.2.1h.2l.1.2v.2h.3l.1.1.1.2h.2v.2l.2.2h.2v.3l.1.1.1.2h.2v.2l.1.2.1.2.1.1v.2l.1.2V35.5l.1.2.1.2v.7l.2.1v.2l.1.2V37.4l.2.2v.1l.2.1v.4l.2.1.2.1v.4l.1.2h.2v.2l.2.2v.2h.2l.1.2v.2h.2V40.7l.3.1-.1.2-.1.1v.4h-.2v.4l.2.2.1.1v.2l.1.2.2.1.1.2v.7l.2.3v.7l.3.2v.4l.3.3.2.3-.1.1c-.2.1-.2.1 0 .3l-.2.1h.3l.1.2c-.1 0-.1 0 0 .2v.4l.2.2.1.1v.3l.4.5v.1l-.1.3.1.1h.5l.1.2c.2.2.2.2 0 .3-.1.1-.1.1 0 .2v.4H117.2l.2.2c-.2.1 0 .3.2.6l.3.4v.8h-.2l.5.6c0 .3 0 .4.2.6h-.2v.3l.4.5.2.5.3 1 .5.5v.3h-.2l.3.5.2.2v.4l.1.4.3.5v.5l-.2.1c.3.5.4.8.3 1h-.2l.2.2.3.4.2.3-.1.1.1.2.2.2h-.2l-.3.5-.5.2-.5.3-.2.5-.5.3h-.6l-.4.4-.3.5-.6.2-.4.3-.3.5-.4.3-.3.5h-.6l-.3.5-.6.2-.3.4-.3.5h-.6l-.4.4-.3.4-.5.3-.4.3-.4.3-.3.5-.6.2-.4.3-.4.4-.2.5-.6.1-.3.5-.4.4-.5.2-.3.5h-.6l-.3.5-.4.3-.4.4-.4.3-.5.2-.4.5-.3.4-.4.3-.5.3-.4.3-.4.3-.4.3-.5.3-.3.5-.4.3h-.6l-.3.5-.5.2-.4.4-.4.4-.3.5-.5.2-.5.3-.3.4-.5.2-.5.3-.3.4-.5.2-.2.6-.6.1-.3.5H93l-.3.6-.5.2-.2.5-.4.4-.6.2-.5.2-.2.5-.6.1-.3.5-.3.5h-.6l-.2.6h-.7l-.3.4-.3.5-.4.4-.5.3-.4.3-.5.2-.4.4-.3.4-.4.3-.6.2-.4.2-.4.5-.2.5h-.7l-.3.5-.4.3-.4.4-.3.5-.5.2-.6.1-.4.4-.3.3-.4.4-.5.3-.4.3-.3.5-.4.3-.6.1-.3.5-.4.3-.4.3-.3.5-.4.4-.5.2-.5.3-.5.2-.3.4-.3.5-.6.1-.4.4-.3.4-.4.4-.5.1-.3.6H69l-.4.5-.3.4-.3.4-.4.3-.5.3-.4.4-.5.1-.5.3-.5.3-.2.6-.5.2-.3.4-.6.1-.4.4-.3-.3-.4-.4-.2-.5-.6-.1-.3-.4-.4-.4-.4-.3h-.6l-.4-.3-.4-.4h-.6l-.4-.3h-.6l-.5-.2-.5.2H56l-.4.1-.6-.1-.3.5-.5.2h-.5l-.4.4-.4.4-.3.4-.6.2-.3.5v.6l-.4.4-.4.4-.2.5v.6l-.1.5-.2.5v.5l.2.6v.5l.2.5v.5l.2.6.2.4-.2.7.3.4.3.5.3.4.3.6-.4.4-.5.2-.4.4-.6.2-.3.5-.5.3-.4.4-.4.3.2.5.5.3.3.4.3-.4.4-.3.5-.3.4-.4.5-.2.5-.2.4-.4.4-.4.3.5.3.4.5.3.3.5h.6l.4.5.5.2.4.4h.6l.5.1.4.4.5.3.6-.1.5.1.6-.3.5.3.5-.4h.5l.5-.3.6-.1.5-.2.5-.2.3-.5.4-.3.4-.4.3-.3.1-.6.4-.4.2-.5-.2-.5.4-.5.1-.5v-1.1l-.3-.5v-.5l.1-.6-.2-.5-.3-.4-.3-.5-.1-.5v-.6l-.3-.4-.4-.4v-.5l.3-.4.5-.3.4-.3.3-.5.4-.2.6-.2.3-.5.5-.2.2-.5.5-.3.5-.2.4-.4.3-.4.5-.3h.6l.3-.5.3-.5.4-.3.5-.2.4-.4.4-.4h.5l.3-.6.6-.1.4-.3.3-.5.5-.2.4-.3.4-.4.3-.4.4-.4h.6l.3-.5.4-.5.4-.2.6-.2.3-.4.5-.3.4-.3.4-.4.4-.2.5-.3.2-.5.4-.4.6-.1.2-.6h.6l.4-.4.3-.6.4-.3.4-.3.6-.1.2-.6.5-.2.4-.4h.6l.4-.4.3-.4.3-.5.4-.4.5-.2.5-.2.4-.4.4-.4.4-.2.4-.5.4-.3.4-.3h.6l.3-.6h.6l.3-.5.3-.5.4-.4h.6l.4-.4.3-.5h.6l.3-.5.4-.4.3-.5.5-.2.4-.3.5-.3.4-.3.5-.2.3-.5.3-.4.5-.2.6-.2.2-.5.4-.4.5-.2.5-.2.4-.4.4-.3.3-.4.4-.4.5-.3.5-.2.4-.2.2-.7.5-.2.5-.3.3-.4.6-.1.4-.3.4-.4.3-.5.3-.4h.6l.5-.3.2-.6.4-.4.4-.3.5-.2.6-.2.2-.5.4-.3.5-.3.4-.3.5-.3.5-.2.2-.6.4-.3.4-.3.5-.3.3-.4h.7l.3-.4.4-.4.5-.3.3-.4.3-.5.6-.1.4-.3.4-.4.3-.4v.3l.2.3c.1.1.1.1 0 .2l-.2.1.2.2v.9l-.1.1v.3l.3.4v.7c0 .2 0 .2.3.2v1l.2-.2.1.2.1.1c-.1.1-.3.3 0 .5v.4c.2.2.2.4-.1.7v.1l.4.4-.1.1.1.2c.1.1.1.1 0 .2l-.1.2c-.2 0-.2 0 0 .2v.2l.1.4v.2h.3v.3l-.2.4v.5l-.2.1c.3 0 .4.2.5.3v.5l-.2.2h.1l.1.2c-.1.2-.2.3-.1.4v.3h-.2v.3l.3.5c.2.1.2.1.1.4v.5l-.2.1v1.4c.2.2.2.2 0 .3v.2c-.2.2 0 .3 0 .4l-.3.4c.1-.1.2 0 .5.3v.4c-.2 0-.2 0 0 .1l-.1.3c-.3.2-.4 0-.4-.2l-.1-.1-.4.3c-.2.1-.2.1-.2.4l-.3.2c-.1-.1-.2 0-.4.4h-.4l-.7.7.1.1-.1.1-.1-.1-.2.1-.6.5v.2l-.4.4c-.3 0-.4 0-.4.3s-.2.4-.4.4l-.2.1-.7.6-.1.1-.2-.1v.2l2.8 3.4.2.1c.2 0 .3.2.3.2-.2.2-.2.2-.1.4v.1h.2v.2l.1.1h.3c.1.2.2.3 0 .4l.2.2 1.4 1.7.6.7.1.1.5.6c0 .1.2.3 0 .4h.3l.1.1v.6h.2c.2-.1.3 0 .5.3l-.1.1v.3c.1-.2.1-.2.4-.1l.2.3.2.2.5.6.1.1h.2l.4.7.3.3v.3h.2v.4l.3.3c.2-.1.3 0 .4.2l1 1.2c-.2 0-.2 0 0 .1 0 .2 0 .2.2 0v.2l2 2.3c.1-.2.2-.3.2 0v.2l.3.5 2 2.2c0 .2 0 .2-.2.1l.4.6.4.2.1.1.4.4.2.3c-.1.1 0 .3.1.4l.1.2.5.5c.1.2.1.2.3 0v.4l.9 1v.3l.8.7.2.3-.1.1v.3l.3.4.6-.5c.3-.2.4-.3.7-.3v-.3l.3-.2.3-.2 1-.8.3-.1.3-.3h.2l-.3-.4h.4l.3-.3.2-.1c0 .1 0 .1.2 0l.6-.5v-.2l.1-.1.7-.6h.3l.6-.5.8-.4c.1.1.1.1.2 0l.2-.1 1.1-1h.2c.2 0 .2 0 .2-.3h.3l.1-.1.5-.3.4-.4h.2l.3-.2c0-.3.2-.4.3-.2 0-.3.2-.4.5-.7l.4-.3.4-.1v-.3h.1c.3-.3.5-.4.6-.3l.3-.2.1-.1.3-.3h.1v-.3l.2-.2h.3l.2.3h.1v-.5h.3v-.3l.2-.1.2.2v-.2l.2-.1h.3l.5-.5.3-.2.6-.5.4-.3.1-.2h.4l.2-.2-.1-.1v-.1c.2-.1.2-.1.4 0l.4-.4h.1c.3 0 .6-.3 1.1-.8l.4-.3.3-.2.1.1.2-.1.5-.5.2-.1-.1-.1.5-.5.4-.1.3-.2.4-.4.2.2.1-.2h.1l.2-.2c.4 0 .5-.2.7-.3v-.3c.1-.1.1-.1.4 0l.5-.3.4-.3v-.3c0-.1.2-.4 1-1l.2-.5.3-.2v-.1l.5-.5v-.3l-.1-.1h.2l.5-.3.2-.3-.2-.2v-.3l.2.1c0 .2.2.3.3.2l.2-.1c.1-.1 0-.3-.3-.3 0-.1 0-.4.3-.5l.3-.2.2-.1-.2-.2.3-.2h-.2c-.3 0-.3 0-.1-.2 0-.2.1-.4.2-.2l.2.1.2-.2-.2-.3.1-.1c.2-.1.2-.1 0-.3h.5l.1-.4v-.4l-.2-.2h.3c-.3 0-.3 0-.3-.2v-.4l.5-.5-.1-.1-.1-.2c-.1-.1-.1-.1 0-.2V83l.2-.3c.1-.1.1-.1 0-.2v-.6l.2-.3-.2-.3-.1-.2.1-.3c-.2 0-.3-.2-.5-.3l.3-.3c0-.1-.2-.2-.2-.5v-1.2l-.1-.1V78l-.1-.1-.1-.2c.1 0 .1 0 0-.2v-.3l-.2-.3v-.2h-.3v-.3l.2-.1.3-.3h-.1l-.3-.1c-.1-.2-.2-.3 0-.4V75l-.1-.4h-.3v-.3c.2-.1.2-.1 0-.3V74l.2-.2H168.6l.1-.1v-.3l.3-.2.2-.2.2.3.3-.2.1.1h.3l.2.3c.1.2.1.2.4.2h.4l.2.2h.3c-.2.1-.2.1 0 .3v.1c.2.2.2.2.3 0 .1.2.1.2.4.2l.3.7.4.2.5.5.3.4.3-.2.1.1.1.2.3.3.4.5.3.3h.2l.7.9.1.4.2.5c.3 0 .2.2.1.4l.1.7c.1.1.2.3.4.1h.1l.2.5.9 1h-.2l.1.2.3.3v.4l.2.1-.2.2h-.1v.6c-.2.1-.2.1 0 .2v.2l.3.3v.6l.2.2h-.2l-.1.2.1.1.1.2V87l.2.1-.2.1c-.1.1-.1.1 0 .2v1.3l-.3.2c.1.1.1.1 0 .2-.1.2-.3.3-.3.5l-.1.2h-.2l.1.2.2.2v.2l-.5.4.1.1v.5l-.4.1v.5c-.2.1-.2.1 0 .3v.1h-.2l-.2-.1-.2.2v.1l.2.2-.3.2h-.5l-.3.2.1.1c.2.2.2.2 0 .3l-.7.6v.2l-.2.2c-.4 0-.5.4-.5.7l-.2.1-.4.4h-.4c.1.2 0 .3-.5.7l-.2.2-1.3.8-.1.1-.1-.1h-.2c.4.5.2.6-.4.7l-.6.5-.3.2-.1.1-.2.1c0 .3-.1.4-.3.5l-.7.6h-.2c0 .1 0 .3-.2.4l-1.1 1c-.1 0-.3.1-.2.2-.1 0-.2-.2-.4.2.1.1-.1 0-.2 0 0 0 0 .2-.3.4l-.2.2-.6.4v-.1c-.3 0-.3 0-.2.1v.3l-.5.3c0-.1 0-.1-.2 0l-.3.2-.3.3-.3.2-.2.2-.2-.1c0-.2 0-.2-.2 0l.1.1v.3l-.6.4h-.2l-.3.2c-.2.2-.2.2 0 .3l-.8.6c-.4 0-.5.2-.6.3l-.2.1h-.2c-.3 0-.4.1-.5.4v.2l-.1.1-1 .9-.1-.2-.2.1-.3.3h-.1c0 .3 0 .3-.1.2h-.3l-.1.1V109.1h-.5c-.1.2-.2.3-.1.4l-.4.4c0 .2 0 .2-.2.1h-.2l-.2-.2-.1.1-.1.2v.1l.2.1-.3.3h-.5l.2.2-.1.1-.2.2h-.2l-.9.6-.2.3h-.3v.2l-.6.5h-.4l-.4.4-.2.1v-.1l-.2.1.1.1v.3h-.3l-.8.7h-.4c-.2.2-.2.2 0 .3l-.2.2h-.1l-.2.2h-.4c-.1.2-.1.2-.2 0l-.4.4h-.3v.5l-.2-.1h-.1l-1.7 1.5h-.3v.5c-.1-.2-.3 0-.5 0-.3 0-.4 0-.4.3 0 .2 0 .2-.2.1h-.2l-.2.1-.1-.1h-.1v.3c-.2.1-.4.3-.2.4h-.3l-.6.5h-.2c.1 0 0 .2-.3.4l-.2.1v-.1l-.5.3v.3l-.4-.2c-.1.2-.1.2-.3 0v-.1l-.5.3-.4.4v.2l-.4.1-.3.3h-.3l-.3.2-.3.2-.8.7h-.3l-.7.6-.1.1v.3h-.4c-.3 0-.3 0-.3.3v.2c-.2.2-.2.2-.3 0-.1-.1-.1-.1-.1.1l-.2.2h-.4c-.1.2-.3.3-.4.1l-.3.3v.2c-.1.1-.1.1-.2 0l-.2.1-.1.1.1.2-.3.2-.3.3-.1.3h-.3l-.5.2c-.2.1-.3.3-.2.4l-.4.3-.3.3-.4.3-.4.1-.3.3v.2h-.3l-1.3 1-.2.3c0 .2 0 .2-.2.1h-.4l.1.2-.1.2-.4.3-.3.2-.3.3-1 .8c0 .3 0 .3-.3.2l-.4.1v-.1l-.2.1v.3l-.5.3.2.1c0 .3 0 .3-.2.2h-.2l-.5.3v-.1h-.2l-.2.2h-.2l-2 1.6-.1.1v.3c-.2-.2-.2-.2-.3 0l-.6.4-.3.3h-.1l-.4.4c-.2.1-.2.1 0 .3l-.2.1-.1-.1-.4-.2v.5l-.7.6c-.2.1-.2.1 0 .3h-.5l-.2.3v.2H117l-1.2 1v-.2l-.2.1c0 .3 0 .3-.3.3h-.3v.2l.1.1.2.2-.2.1-.1-.1-.6.4h-.2v.3h-.2v.3c-.2.2-.2.2.1.2l.1.1c-.1.1 0 .3.5.6l.4.2v.4l.2.1.3.4.5.6.2.3.2.1.2.3h.2v.3c.2-.1.3 0 .4.1l.2.3.7.9c.2.1.3.2.2.5v.1l.1.3.2-.1c.1-.1.1-.1.2 0 .2.2.2.2 0 .3l.1.1.5.6.1.4.1-.1c.2.1.3.2.4.1.2-.1.2-.1 0-.2v-.2h.2v.2l.2-.1.2-.1.3-.3.5-.5.4-.3.2-.1.4-.1.1-.1c.3 0 .3 0 .2-.2l-.3-.2h.3v-.3c-.1-.1 0-.2.3-.2l.3-.2.1-.4h.8c.1.2.1.2.3 0h.1l.3-.3.3-.2.4-.6.1.1h.3V143.6l.3-.4c.2-.1.3 0 .4.2h.3l-.3-.3v-.1l.2-.3.6-.4.1-.2h.7l.1-.1c.1-.2.3-.3.4-.1-.1-.2.2-.4.6-.8h.1v-.2l.2-.3c0-.2 0-.2.1 0h.3l.1-.2h.2l.1-.5.9-.7h.2l.3-.2c.1 0 .2 0 0-.2.2.1.3 0 .4-.1v-.3c.3 0 .3 0 .4-.2v-.3h.1v-.4h.4l.5-.4.4-.3.3-.3.3-.2v-.1l.7-.5.5-.5.4-.3h.3l.3-.2c.1-.2.1-.2.4-.1l.1-.1.2-.2.2-.2.2-.1.1.1.4-.3.2-.1.1-.2c.1.2.1.2.3 0l.4-.3.1-.1.7-.6.2-.1.5-.5v-.2h.3l1.4-1.2.2-.1.4-.4.8-.7.2.2c0 .1.2.3.3.1l.3-.2-.1-.1.1-.1h.3l.6-.5-.1-.1v-.2c.2.2.2.2.3.1.2-.1.2-.1 0-.3l.2-.1.2-.1.5-.5.3-.2.6-.5.5-.5.5-.3c0-.3-.1-.4 0-.1h.4c-.2-.1-.2-.1 0-.3l1.8-1.5v-.2l.5.3.4-.4c.2 0 .2-.1.1-.2l.4-.1 1.8-1.6c-.1-.1-.1-.1 0-.2l.2-.1.1-.2.7-.5c.2-.2.2-.2.3 0l.1-.1c-.1-.2.2-.4.6-.8h.1c.2 0 .3 0 .3-.3l.4-.4h.3c-.1 0-.1 0 0-.2l.3-.2c.2-.2.2-.2.3 0l.1-.1.2-.2c-.2-.1-.2-.1 0-.2l.1-.1.1.1.5-.3.4-.4v-.3c.1.2.1.2.3 0 .2-.2.4-.3.3-.4l.1-.1h.3l.1-.1.1-.1v-.3h.3l.2-.1 1.4-1.2h.2v-.2l.3-.2v-.3h.3l1.9-1.5h.2v-.2l1.6-1.3h.3l.2-.2.6-.5.1-.1h.3c.1-.1.3-.2.2-.4v-.2l.1.1h.4c-.3-.1-.1-.2 0-.3l.2-.4.1-.1v-.3h.6l.1-.3.7-.6h.8c.2 0 .2 0 0-.2v-.5l.2-.1.2-.1-.1-.2.4-.3v.1h.4l.2.3.3-.2v-.3l-.1-.1-.1-.2c.1 0 .4 0 .6.2l-.1-.1v-.3l-.2-.3c0 .2 0 .2.3.2l.2-.1-.3-.3.2-.1h.2l.2.2h.2l.2-.1v-.3l-.1-.1.3-.3c.1-.4.1-.4.4-.3v.1l.1-.2c.2-.2.2-.2.3 0v.1c.2-.1.1-.2 0-.4l-.1-.1c.1-.1.2 0 .4.1h.1v-.3l.6-.5.3-.2v.1l.2.1.2.3h.2l-.1-.2.1-.1-.1-.2.1-.1.2-.1v.1l.2.2.7-.6h.3v-.3l.4-.3.6-.5-.1-.4.1-.1v-.5l.4-.2.1-.4c0-.3 0-.3.2-.4l.3-.2c-.2-.2-.2-.2 0-.3l.3-.2-.1-.2a.4.4 0 0 1 0-.5l.1-.1c.2-.1.2-.4 0-.5.3-.4.1-.5.3-.7l.3-.2c.4-.3.4-.6.2-.9l.5-.4V95c-.3 0-.3 0-.2-.4 0 0 .2-.1 0-.2v-.3c.2-.1.2-.1.1-.2v-.3c.2-.1.2-.4 0-.5v-.3c.2-.1.2-.1.1-.3l-.1-.1-.1-.4v-.3h.2v-.3l-.1-.2h.1l-.1-.2v-.3c-.2-.3-.2-.3 0-.4 0-.1.2-.2 0-.4l-.1-.2.1-.7.2-.4v-.2c0-.2 0-.3.2-.4 0-.2.2-.4-.1-.4l-.3-.4v-.1l.2-.1c.2-.2.2-.2.2.1v.1h.6l.1.2.4.4c0 .2.3.2 1 .4l.6.7c0 .1 0 .1.2 0l.1.2h.3l1.2 1.4v.1h.2l.7.8.3.3c0-.2 0-.2.2 0l.1.4.2.3v.5l.2.3v.2l.1.2.2-.2.3.5v.6c0 .1 0 .3.3.3s.3.3.1.4l.1.1c.1.2.1.2.3 0h.2v.4h-.1v.5c.3 0 .6.3.5.5l-.2.3v.1l-.2.2V98c-.2 0-.2 0 0 .2l.2.3v.5c-.2.1-.2.1-.1.3.1.1.1.1 0 .2h-.3l.1.2v.9l-.4.3v.3l.3.3-.3.2h-.4l-.2.2c.3.3.5.3.7.2l.1-.1v.2l-.9.7-.1.2h-.4l.1.2v.2l.1.2-.1.1-.3.2-.2.2c0-.2 0-.2-.2 0h-.2l.3.3-.3.3-.3.2v.3c-.1-.2-.1-.2-.4-.2l-.1.1v.7l-.5.4c-.1.1-.2.2-.2 0l-.1.3-.8.7-.3.2-.4.4-.2-.2h-.2c-.2.1-.2.1 0 .3v.2l-1.2 1-.2-.3-.3.2c-.2.1-.2.1 0 .3v.1l-.6.6c-.2.1-.2.1-.4 0h-.3l.1.5-.3.2c-.1.1-.1.1-.2 0l-.2-.2-.4.4c-.1.1-.1.1-.2 0l-1 .8-.2.1v-.1c-.5.3-.8.5-.7.7l-1 .8c.2.1.2.1 0 .3h-.4l-1.2 1.1-.2.1v.3l.1.1v.3l-.1-.2h-.3l-2 1.7h-.2l-.3.2h-.1v.2l-.5.5-.4-.2-.1.2v.4l.2-.2h.2v.3l-.6.6-.3-.3-.3.3c0 .2 0 .2-.1 0h-.3l-.8.8v.2l-.1-.1h-.2v.6l-.2-.1c0-.2-.5.2-1.2.8-.1 0-.1 0 0 .2v.2l-1.3 1.1-.1-.1h-.4v.2c.2.2.2.2 0 .3l-.4.3-.1.2-.3.2-.5.5h-.2l.1.2-.4.4-.1-.2c-.3 0-.3 0-.2.1v.3l-.3.2h-.2l-.6.2v-.1l-.2.1v.3h-.2v.3c0 .3 0 .3-.1.2h-.3l-.6.4.1.1.2.2-.9.7-.1.1h-.5c-.2-.2-.3 0-.3.2l-.7.6h-.2c0 .3 0 .3-.1.2h-.3l-.1.4c-.1-.2-.3 0-.3.2l-1.3 1c-.1.2-.1.2-.2 0l-.2.1-2.2 2h-.2l-.1.2h-.2l-.4.2v-.2c-.2-.1-.3 0-.6.5V133.5h-.3l-.9.6-.7.6v.5c-.3 0-.3 0-.3.3l-.3.2-.1.1-.1-.1-.3.2v.2l-.2.2-.1.1h-.3l-.1.1c-.2.1-.2.1 0 .3l-.3.2-.2.1-.3.2-2 1.8h-.3l-.3.2c-.2.1-.2.1 0 .3l-.5.3-.1.1-.1-.1-.4.4c-.2 0-.2 0 0 .2l-.5.4-.1-.2-.3.3c-.1 0-.1 0 0 .2l-.2.1v-.1l-.2.1v.3h-.4c-.2.2-.2.2 0 .3l-.5.4-.3.2-.1.1-.1.1-.2-.1-.8.7.1.1-.4.1-.8.7c-.2.2-.2.2 0 .3l-.2.1c-.1-.1-.4.1-1.1.7l.1.1-.3.3-.3.2.2.1-.2.2-.2-.3-.2.1v.3h-.2v.2l-.2.1h-.3v.2l-1 .9h-.2v.2l-.2.1v.3h-.2s-.2 0-.6.4l-.6.5-.1.1c-.2-.1-.3 0-.6.2l-.3.3-.5.4-.5.4-.2.2-.3.2c-.2.2-.2.2-.3 0l-.3.3c.2 0 .2 0 0 .2l-.5.5-.2.1-.3.2.2.2-.3.2h-.3l-.4.3-.3.3-.1-.2-.3.3-.3.2v.3l-.3.2-.3.2-.2.3h-.3l-.8.6h-.3l-.3.3-.2.3-.1.1c-.1.2-.3.3-.2.4l-.4.1-.5.5c-.2.1-.3.2-.4 0v.3l-.5.4-.3.2-.4.4h-.4v.6l-.3.2h-.3l-.3.5c0 .2 0 .2-.1.1l-.2-.3-.2.1c.1.2.3.3.1.4-.1.2-.1.2-.2 0v-.2l-.1-.2v.3h-.2l.2.4h-.4l-.5.5-.2.2v.2l-.3.2-.4.4v.3h-.2c-.2-.2-.2-.2-.3 0h-.2c.3 0 .3 0 .4.2l-.6.2-.8.7v.3l-.3.2h-.3l-.4.3-.1-.1-.3.2c-.1-.1-.1-.1-.2 0l-1.3 1c-.2.2-.2.2-.3 0l-.3.3v.2l-.1.1-.1-.1c-.2-.1-.2-.1-.2.1.1.2 0 .3-.4.6l-.4.1-.4.4-.9.7c-.1-.2-.2 0-.3.2 0 .3-.1.4-.3.2l-.4.4-.1.1v.3h-.2c-.1.2-.1.2-.2 0l-.4.2v.1c.2.1.2.1 0 .3l-.2.2h-.3l-.3.2v.3c-.1 0-.3.2-.2.3l-.4.1-.4.4-.1.1-.3.2-.4.1v.3l-.4.3-.5.4v.2l-.3.3.1.1-.1.1.1.2v.2l-.1.2h-.4v.3l-1 .8h-.6l.1.1c.2.2 0 .3-.1.4h-.4l.2.4h-.4v.3l-.2.1c-.2 0-.4.1-.5.3l-.6.4v.3h-.4v.3l-.1.1h-.2l-.4.3h-.1v.2c0-.1 0 0-.2 0l-1 .8.2.2-.3.2-.1-.1-.6.4.1.2H99l-.2.2c-.2 0-.4 0-.5.2H98c.2.1.2.1 0 .2-.1.2-.1.2-.2 0h-.3l-.4.3v.3l-.2.1h-.2v.3h-.3l-.6.4.1.1-.1.2c-.1-.2-.1-.2-.3 0h-.1v.3l-.2.1-.7.6-.1.1v.3l-1.2 1h-.1l-.2.2h-.2c-.1-.2-.1-.2-.3 0h-.1c-.2.1-.2.1 0 .3v.1l-.8.7v.3h-.3v.2l-.8.7H90l-1.1 1h-.3v-.2l-.1.2.1.2.1.1h-.2l-.2-.1-.8-.8-.4-.1v-.2l-.6-.5h-.2l-.1-.2.2-.2v-.2l-.2.1c-.2.2-.2.2-.3 0l-.3-.4c-.1-.2-.3-.3-.3-.7l-.3-.3-.3-.4-.2-.1-.4-.3-.3-.3h-.2c-.3 0-.3 0-.3-.3v-.4l-.8-.9h-.5l-.3-.4c-.2-.2-.2-.2-.1-.4l.1-.2.3-.2.1-.1.3-.3c.2 0 .2 0 .2-.3l.3-.3c.1 0 .1 0 0-.2l.4-.4.7-.6.3-.2v-.3h.3c.5-.1.7-.3.7-.5l.3-.2.4-.1.1-.2.3-.2.1-.1c.3 0 .3 0 .2-.1v-.3l3-2.4v-.2l.4-.2.3-.2.2-.3h.4c0-.2 0-.3.2-.4.1-.2.3-.3.2-.4l.4-.4.3-.2.1-.1.6-.5v-.5h.3v-.2l.1.1c0-.1.2-.4.6-.7.2-.1.2-.1 0-.3.2.2.4.2.7 0l.3-.3.1-.1c.4-.1.6-.2.6-.5v-.2l.1.1c.3 0 .2-.1.2-.4l.2-.3v.1l.2-.1v-.3h.4c0-.2 0-.3.5-.7.1-.1.1-.1.2 0 0-.2.2-.3.3-.4l.3-.3h.3l.7-.5.1-.2v-.1l.9-.8h.3c-.2-.1-.2-.1 0-.3l.3-.2c.1-.1.1-.1.2 0h.2l.1-.2-.1-.1v-.3c0-.3 0-.3.2-.1h.2l.4-.4h.2c.2 0 .2 0 .1-.2v-.2l1.9-1.6h.2c.2 0 .2 0 0-.2l.9-.7-.1-.1v-.3l.7-.6h.3v.2l.7-.5v-.3l-.3-.2-.2-.3h-.3v-.2c-.2-.1-.2-.1-.2-.4h-.2v-.3l-.2-.2c-.3 0-.3 0-.4-.2l-.2-.3-.6-.7-.3-.3-.4-.5v-.3c0-.3 0-.3-.1-.1h-.3l-.5-.6v-.4c-.3 0-.3 0-.4-.2l-.4-.4c0-.2 0-.2-.2 0h-.4c0 .3-.2.4-.3.5l-.6.5-.4.4-.1-.2-.2.1.1.4h-.2l-.9.7-.2-.3-.2.2c-.1 0 0 .2.3.2l-.7.6-.2-.1-.4.3.1.2c.2.1 0 .2-.4.3l-.3.3h-.1l-.1.2c-.3 0-.4 0-.7.3l-.3.3v.2l-.7.6-.2.1-.3-.4-.5.4h.2l-.2.2-.1-.1c0 .2 0 .2-.2.3h-.5c-.1.1 0 .3.4.4l-.3.3-.1-.2-.2.1v.3l-.6.5c0-.2 0-.2-.2 0h-.2v.3l-.7.6-.1-.1.2-.4h-.4v.7l-.1.1-.3.3-.1-.2v.3l-.9.7c-.2-.3-.4-.2-.4.1 0 .3 0 .3-.1.1h-.3l.1.1c.2.2 0 .3-.3.5l-.7.6c.1.2.1.2-.1.1v.3l-.2.4c0 .2 0 .2-.1 0h-.3l-.3.3v.2l.1.2-.1.1-.1-.1H86l-.6.4c-.1.1-.2.2-.4.1v.3l-.7.5h-.1c-.3.1-.4.3-.5.5l-.4.4H83l-.3.3-.1.1-.4.4c-.2.3-.4.3-.7 0l-.7-.8c-.1-.2-.2-.3-.4-.2l-.2-.3-.1.2-.1-.4-.3-.3-.9-1.1-.4-.2-1.4-1.7-.2-.3h-.3c-.2 0-.2 0-.1-.2V162.2l-.2-.2v-.4c0-.3 0-.3.2-.4l.1.1v-.5c.2.1.2.1.4 0V160.5h.1l.3-.3.3-.2.3-.3c0-.2 0-.2.1 0h.3l.1-.4.2-.2.4-.3.1-.1.2-.1.1-.4.2-.1.6-.1v-.3h.2l.3-.3h.2l.5-.3.4-.1-.2-.2c0-.2.2-.1.4 0v-.3l.5-.4.1.2.1-.2v-.2l.5-.4h.4l.1-.2c.2.2.2.2.3 0l-.1-.1.3-.2.1-.7c.2.2.2.2.3 0l1-.8c.1 0 .1 0 0-.2l.6-.5.2.3c0-.3 0-.3.2-.4l.7-.6-.1-.1-.1-.2h.4v-.2l.2.2.1-.1c.2-.2.2-.2 0-.3l1.3-1 .4-.1v-.4h.2l.1.1.2-.4.8-.7c.2.2.3 0 .3-.2l.2-.1h.2c0-.1-.1-.1 0-.2l.2-.2.3-.2 1-1c.2 0 .2 0 0 0l.1-.2h.3l.3-.2.1-.1-.1-.2.4-.3.1.1.7-.6v-.1l.3-.1.1-.1.2-.1-.1-.2h.1c.2-.2.2-.2.3 0l.1-.2v-.2l.3-.3h.4l.2-.2c0 .2 0 .2.1-.1l.4-.4.3-.2.1-.1.2.1.2-.2v-.4c-.2-.1-.2-.1 0-.3l-.3-.2c0-.3 0-.3-.2-.3l-.2-.3-.1-.1c-.2-.2-.2-.2-.1-.4H97c-.1.2-.1.2-.2 0l-.3-.2v-.2c0-.2 0-.2-.2-.1l-.4-.4v-.2h-.3c-.3-.3-.1-.4.1-.4v-.1h-.3c-.2-.2-.2-.2 0-.3.1-.1.1-.1-.1-.1l-.4-.5-.3-.4h-.3v-.3l-.1-.1-1-1.1v-.4h-.3l-.1-.2v-.3h.2l-.5-.6-.1-.2c-.1-.1-.3-.3-.4-.2l-.1.2c0-.3-.3-.6-.6-1l-.7-.8-.2-.6c0-.2-.1-.4-.4-.4l-.2-.5.2-.2-.2-.1-.2-.3-.1-.1H89h.1c.2-.2.2-.2 0-.3H89l-.1-.4-.3-.5-.3-.2h-.2c-.2-.2-.2-.2-.3 0v-.3l.2-.2c-.2-.1-.2-.1-.1-.4h-.3l-.2-.3h.1l-.3-.5-.3-.3v-.4h-.3l-.5-.6h.2c-.2 0-.3-.1-.4-.3l-.6-.7c-.1-.1-.2-.2-.1-.4l-.1-.1-.5-.6c.2 0 0-.2-.2-.5l-.1.1c-.2.1-.3 0-.4-.2l-.5-.5c-.1-.2-.1-.2 0-.4v-.3l-.5-.5h-.3c-.2 0-.4 0-.1-.2-.1-.1 0-.3 0-.4H82c-.2 0-.2 0 0-.2v-.2c-.2-.2-.2-.2-.1-.4l-.2-.2-.4-.5h-.2c-.2-.2-.2-.2-.2-.5v-.1l-.2.1c-.2.1-.2.1-.2 0V119.3h-.3l.1-.4v-.1H80l-.3-.3-.1.1-.2-.5.1-.1-.1-.2h-.3l-.2-.3-.6-.7-.1.4-.5.3-.4.1-.2.3c0 .2-.2.3-.4.4-.2 0-.2 0-.1.2.1.1.1.1 0 .2l-.4.4-.4-.2-.4.4c0 .2 0 .2-.2.3-.1-.1-.3 0-.5.2l-.3.3H74v.3l-.2.2h-.3v.2l.1.1c-.1.1-.1.1-.2 0a.4.4 0 0 0-.5 0v.2c-.2.1-.3.3-.2.4l-.1-.1h-.4l-.2.2c0 .2-.1.3-.3.5h-.4l-.3.3-.4.3-.1.2h-.4l-.2.2-.4.3-.3.2h-.5l-1.4 1.2-.4.3-.2.1-.1.2-.3.2.1.1-.1.2H66l-1.1.9h-.4l-.7.6v.3l-.2.1c0 .1-.3.1-.4 0v.1l-.4.4h-.2v.2l-.6.5-.2-.2-1.6 1.4H60l-.1-.1v.2l-.2.1h-.1c-.1-.2-.3-.1-.3.1l-.7.6h-.2l-.2.1-.5.2-.3.3H57c0-.2 0-.2-.1 0l-.2.4-.1.2-.1-.2-.2.1-.1.4-.2-.1v-.2l-.5.4-.3.2c-.1.1-.1.1-.2 0h-.3l-.6.4-.2.3h-.2c-.1.2-.1.2-.4.2l-.1.1h-.4l-.2.2-.4.4-.1-.2h-.3l-.3-.4-.4-.2c-.1.1-.1.1-.2 0l-.3-.3.3-.2-.1-.2-.3.3h-.3v-.3c0-.3 0-.3-.2-.3s-.2 0-.3-.2c-.4-.4-.5-.5-.7-.4v-.2c-.2-.1-.2-.1 0-.2l-.4-.4c-.1-.2-.1-.2-.3 0h-.1c-.1 0-.2-.2 0-.3 0-.3 0-.3-.3-.3h-.3l-.1-.2c-.1.1-.3 0-.4-.2l-.3-.4-.1-.1-.5-.6H46v-.1l-.8-.9h-.3c0 .1-.2 0-.2-.3-.5-.6-.7-.8-.8-.7l-.3-.3-.1.1c-.1.1-.1.1-.1-.1H43l-.1-.2v-.3l-.2-.2-.2-.3c-.2-.2-.2-.2-.3 0l-.2-.3-.2-.2v-.1l-.4-.4c-.3 0-.3 0-.4-.2l-.1-.1-.6-.7-.5-.6v-.3l-.3-.4h-.3l-.4-.6c-.1-.1-.1-.1 0-.2 0-.3-.1-.4-.4-.5h-.2l-.7-.8c-.1-.1-.1-.2 0-.2h-.1l-.4-.4v-.3l-.1.2-.4-.5v-.4l-.3-.2-.2-.3-.4-.4-.2-.3c-.3 0-.1-.2-.1-.4l-.1-.2-.2.2v-.2l-.4-.4-.1-.2c0-.2-.1-.4-.3-.5l-.2-.3-.5-.5v-.3c.2-.1 0-.3-.2-.3v-.4l-.4-.4-.3-.3-.3-.4v-.3l-.2-.2-.4-.5v-.4c-.4-.1-.6-.3-.5-.5l.1-.2v-.2l-1.1-1.4c-.2-.2-.2-.2-.1-.4 0-.3 0-.3-.1-.2h-.3c-.1-.1-.1-.1 0-.2.2-.2.2-.2 0-.3v-.1c-.2 0-.3 0-.3-.3-.3 0-.3 0-.1-.2v-.2h-.3v-.4l-.2-.2v-.2h-.2v-.3l-.1-.2-.1-.1-.3-.3-.2-.3v-.2l.2-.1v-.3c-.1.1-.1.1-.4 0h-.1c0-.3 0-.3-.2-.3l-.2-.2c.2 0 .2 0 0-.2l-.3-.5-.1-.1c.1-.1.3-.2.2-.4h-.3l-.1-.1.1-.2-.2-.2c-.3 0-.3 0-.3-.3l.2-.1-.1-.2v-.2l-.1-.4-.1-.2-.1-.1c-.1-.2-.3-.3-.1-.4l-.2-.6-.5-.5-.3-1.2v-.3c-.3-.4-.4-.5-.3-.7h.2l-.3-.4c.2 0 .2 0 0-.2l-.2-.3v-.4l-.2-.1-.1-.2-.1-.3v-.3c-.1-.2-.2-.3 0-.4 0-.2 0-.3-.3-.6-.3 0-.2-.3-.2-.5V93l-.2-.1v-.3l-.2-.3-.1-.1.1-.1-.3-.4-.1-.4.1-.2c.2 0 0-.2-.2-.5l-.1-.1v-.7c0-.3-.2-.4-.3-.5l-.1-.2h.1c.2-.2.2-.2 0-.4l-.2-.2.3-.3-.4-.4v-.4c.1-.1.1-.1 0-.2l-.1-.2c-.2-.1-.2-.1 0-.2-.2-.3-.2-.6 0-.7l-.3-.5c0-.4-.2-.6 0-.7V84.7l-.3-.2v-.3l.2-.1c-.1-.2-.2-.3-.1-.4l.4-.4h-.5l-.1-.2V83l-.1-.2c-.1-.1-.1-.1 0-.2l.2-.1-.2-.2-.3-.4.3-.2-.1-.2c-.2-.1-.2-.1-.1-.4v-.2l-.1-.2v-1.1l-.2-.2v-.2l-.2-.3-.1-.2v-.5c.2-.1 0-.2 0-.4-.2-.1-.2-.1 0-.2l-.3-.3v-.4l-.2-.2h.2l-.3-.4h.2l-.1-.2.1-.1v-.4l-.3-.8.2-.2-.4-.4c.1 0 .1 0 0-.2v-.7l-.2-.1.2-.2h-.1l-.1-.2c-.2-.2-.2-.2 0-.3l.1-.1-.2-.3v-.2l.1-.2-.3-.1.1-.1.2-.2-.1-.4-.1-.4-.2-.1V70l.1-.2c.1-.1 0-.3-.1-.4-.3 0-.3 0-.1-.2l-.1-.4-.1-.1.3-.2-.2-.2.2-.1v-.3l-.1-.1.1-.1-.3-.4c.1-.2.1-.4-.2-.8l-.1-.3v-.4c.2-.1 0-.2-.3-.4l.1-.1c.3 0 .3 0 .1-.1v-.4l-.3-.3-.2-.6c.2 0 0-.2 0-.4l-.4-.4c-.2-.1-.2-.1-.1-.4l-.1-.1.1-.2v-.2l-.5-.6v.1c-.3 0-.3 0-.2-.1v-.3l-.5-.5-.3-.4c-.1-.2-.1-.2-.3 0-.1 0-.1 0 0-.2h-.3l-.4-.5h-.2l-.3-.3c-.1.2-.3.3-.4.1-.1-.1-.1-.1-.2 0H13l-.1-.2c-.2.2-.3 0-.5-.3l-.2.2c0-.2-.2 0-.5 0h-.1l-.3.3H11l-.5.1-.2.1-.4.1h-.3l-.2.2-.3.3-.2.1v-.1h-.2v.3c0 .2 0 .2-.2.2h-.1c0 .3 0 .3-.3.3l-.1.1v.3h-.2c-.1.2-.1.2-.3 0L7 62l-.5.5c-.3 0-.2.1-.2.4 0 .2 0 .2-.2.3l-.1.2h-.2v.3l.1.4v1.2l.4.4v.7l.3.3c.1.1.1.1 0 .2l-.2.1c.6.8.7 1.2.6 1.3v.1l.5.6.3.3v.2l.5.7.2.2h.2l.1.1c.2.2.4.2.6 0h.4l.4-.4.1.2h.3V70h.4l.4-.4.3-.2v.2l.2-.2 1-.8.1-.1.3-.2.2-.4.5-.2c.3 0 .3 0 .2-.1l.5-.5h.6l-.2.2.1.1.7.8.2.2c0 .2 0 .4.2.5l-.2.1-.1.4.2.3v.5c0 .2.2.3-.1.5.1.2 0 .3 0 .4l.2.2v.2l-.3.3.1.1c.3 0 .3 0 .1.1l-.1.2v.4c.2.1.2.1 0 .2v.1l-.1.3c0 .3 0 .3-.1.1h-.3c-.1.1-.1.1 0 .2v.4l-.2.3-.1-.2-.2.4-.3.3h-.4l-.5.5-.2.1-.3.3-.5.4-.2.2c-.2 0-.4 0-.8.4l-.7-.8h-.7v-.1l-.4.2c0 .1 0 .1-.2 0l-.2.1v.1l-.2-.1-.3.2-.1-.1-.1.1-.2.1-.1-.1h-.4c-.1.2-.1.2-.3 0l-.2-.2h-.7V76l-.2-.2h-.3c0-.1 0-.1-.2 0H6l.2-.1v-.3l-.1.1h-.7v-.2l-.2-.3c-.3 0-.5 0-.8-.3-.2-.3-.3-.4-.5-.3h-.2l-.1-.2h.1c0-.3 0-.5-.3-.5l-.2-.1v-.3l-.8-1c0-.1 0-.1-.2 0l-.2.1v-.1l-.4-.4c.1-.2 0-.3-.1-.4v-.6l-.4-.5c-.2-.2-.2-.2-.1-.4l-.6-.7V69l-.2-.8v-.6c-.2-.2-.2-.2 0-.3l.1-.4-.2-.3c.1 0 0-.2 0-.4l-.1-.9v-1c.2-.1.2-.1 0-.3l.1-.2-.1-.2c-.1-.1-.1-.1 0-.2l.2-.1L0 63v-.4l.2-.2V62c-.2-.2-.2-.4.1-.7.3-.2.3-.4.2-.6v-.5l.2-.4v-.2l.2-.2V59c0-.2.2-.3.3-.4l.3-.3c.2-.1.2-.1 0-.3l1.7-1.4c.2.2.2.2.3 0l.3-.2c.1 0 .1 0 0-.2L4 56h.3l.3-.2v-.2h.3c.4-.3.5-.5.4-.6l.3-.2c.2 0 .4-.1.5-.3l.6-.4H7l.6-.3.3-.3h.2c.1-.2.1-.2.2 0l.2-.2v.2L9 53h.4l.4-.2h.4c.3-.3.3-.3.4-.2l.8-.1h.3v-.1c.2.1.2.1.4 0l.2-.2.3.2h.1c.1-.2.1-.2.1 0l.5.1c.2-.1.3-.2.4 0h.2c0 .2.3.2.5.1h.5l.2.3h.5l.3.4c.1-.2.1-.2.2 0l.2.1.3.2.1.1h.3l.6.8c.1.1.1.1.2 0h.3l.2.3c.2-.1.3 0 .7.4v.2l.2-.1.4.1.1.2.5.5v.2l.2-.1h.3c.1-.1.2 0 .4.1.2 0 .2 0 0 .2v.2l.4.5.1.4c.1-.2.1-.2.3 0l.4.6c.2-.2.3 0 .3.2l.4.6.2.1v.3l.2.3v.5l-.2.1v.2h.3l.2.1v.3l.9 1.1.1.1-.1.2v.4l-.1.3v.6c0 .2 0 .2.2.2v.2l-.2.2.2.3v.3h.1v.4h-.1v.5l.2.1-.3.2c-.1.2 0 .6.3 1l.1.4-.1.1.2.3v.2c0 .2 0 .4-.2.7V69.4c.2.2.2.2 0 .3-.1.1 0 .2.1.4l.1.1c.2.2.2.2 0 .3-.1.1-.1.1 0 .2-.2.2-.2.4.2.8l-.3.3.1.1.1.2c.1.1.3.2.1.4h-.1l.2.4V73.5c.2.1.3.3.2.4-.2.1 0 .3 0 .4l.2.2h-.2l.1.5v.5l.3.4.2.2c-.5.3-.5.8 0 1.4l-.3.2h.2c.2.2.3.3.1.4l-.1.2.2.2-.1.2c-.2 0 0 .2 0 .4.2.1.2.1.2.4v.9l.1.1v.3l.2.3-.2.2v.4c.2.1.2.1 0 .2l-.1.2.3.6.1.2c.2.1.2.1 0 .2l.1.4v.3l.1.1V84.5c-.2 0-.2 0 0 .2 0 .2 0 .2.2 0l.1.2-.1.1v.7c.2.1.2.1.1.4l.1.4.1.1.2.1v.6l-.1.2.1.2c.1 0 .1 0 0 .2-.2.1-.2.1 0 .3v.1l.2.2v.2l.2.3.2.3h-.1l.1.2.1.2v.2l.1.2v.2c-.1.2-.1.2.1.2.3 0 .4.1.4.4v.5l.3.4c-.2.2-.2.2 0 .3v.4l.3.3v.2l-.2.2c-.1 0-.1 0 0 .2l.2.3v.3c-.1 0-.1 0 0 .2v.4l.2.2h.2c.3 0 .3 0 .3.3v.2l-.2.1.5.6v.3c.3.1.3.1.2.2v.4c.4-.2.5 0 .6.3v.4c.2.2.2.2 0 .3l.3.3.1.1v.3c-.2.1 0 .2.3.7l.2.5.3.3v.2l.4.6.1.1v.3c0 .3 0 .4.2.5l.2.3.3.3.2.3.1.1v.3l.2.3.4.1c.3 0 .3 0 .1.2v.2l.4.5v.2c-.2.1-.2.1 0 .2l.2.1c-.2.1-.2.1 0 .3l.6.8c.2.1.2.1 0 .3l.8 1 .3.2v.3l.2.3.2.3h.1c.2.2.2.2 0 .4h.1l.1.2h.3l.3-.2h.1c0-.4 0-.4.2-.2h.2l.7-.6v-.4s.2-.2.3 0h.3l.1-.2 1-.8c.1 0 .2 0 0-.2h.6v.2l.1-.3.1-.1.2-.4.3-.2h.3l.4-.4.3-.2.4-.3c.1-.2.1-.2.2 0l.3-.3c0-.2.2-.3.3-.5h.3c.1.2.1.2.2 0 .2 0 .3-.1.4-.4 0-.3-.1-.4.2-.2h.3l.7-.6.4-.3.4-.4V101.7l1-.7v-.3l.4-.3.4-.3-.1-.2h.1l.1-.2.2.1c0 .2 0 .2.1 0l.3-.3v-.3c.3 0 .4 0 .6-.2l.7-.6.4-.3v-.3h.3l.4-.3-.1-.1.4-.1.4-.4 1-.8.4-.4v-.2l-.2-.3-.1-.1-.5-.6c0-.3 0-.3-.1-.1h-.3l-.2-.4-.6-.7-.2-.2c.1-.2 0-.3-.3-.3-.1 0-.1 0 0-.2-.2-.1-.3-.2-.5-.1l.2-.4h-.2l-.5-.6h-.3c-.2 0 0-.2 0-.4v-.3l-.1-.4-.4-.1V90l-.6-.7h-.2l-.2-.2c0-.2 0-.4-.3-.6l.2-.2-.2-.1-.2.2-.2-.1V88l-.9-1.1-.7-.6-.6-1v-.2h-.3c-.3-.2-.4-.3-.4-.6h-.2l-.1-.2-.2-.1.2-.1h-.3v-.4c-.2-.2-.2-.2-.3 0l-.2-.6-.2-.1h-.2l-.1-.2-.1-.2h-.2l-.2-.4c-.4-.1-.5-.3-.4-.4l.2-.1-.1-.2H43l-.1-.1-.1-.2-.3-.2-.3-.5-.1-.1V80L42 80h-.2l-.6-.6V79l-.2-.4-.4-.5.1-.2-.5-.3-.2-.2-.4-.5-.1-.1-.2-.3c-.2-.1-.2-.1 0-.3l-.6-.7-.2-.5h-.3l-.3-.4-.3-.3c-.2.2-.4 0-.3-.4l-.4-.5v-.1h-.3l-.3-.3v-.7c0-.2 0-.2-.2-.1H36l-.1-.2-.2.1-1.1-1.4-.2-.1.2-.1-.4-.5-.1.2-.1-.2-.1-.4c-.2.1-.3 0-.5-.3L32 68l-.1-.2h.1l.2-.2c-.3 0-.3 0-.2-.2l-.2-.5c0-.3 0-.5-.2-.5s-.2 0-.1-.2V66l-.4-.6-.2-.1c.2-.2.2-.2 0-.3l-.4-.6h-.3L30 64l-.3-.6-.5-.6v-.3c0-.2 0-.4-.3-.4l-.5-.6c-.1-.1-.1-.1 0-.2l.2-.1-.1-.2h-.3l-.1-.1-.2-.8-.6-.2c-.3-.3-.1-.7.3-1l-.2-.3v-.3h.1V58l-.4.2v-.7l-.1-.1c-.2-.1-.3-.3-.3-.5v-.2h-.3v-.5c-.1.1-.1.1-.2 0-.2-.2-.2-.2 0-.3.1-.1 0-.3-.2-.5v-.3l-.2-.3-.2-.1.2-.1-.4-.5v-.4c-.2 0-.2-.1-.2-.3v-.3l-.2-.3v-.4l-.4-.4c-.4-.4-.3-.7-.2-.8v-.7l-.7-.7V49.3c.1-.2 0-.3-.2-.6v-.5l.2-.1v-.3l-.1-.4h.1v-.2l-.3-.3.3-.2-.2-.2v-.9c-.1-.1-.2-.3-.1-.4v-.8l.1-.8v-.4l-.1-.6-.1-.2H23V42l.2-.3v-.4c-.2-.2 0-.3-.3-.6.3-.2 0-.5 0-.6l.1-.4c.2-.1 0-.3 0-.4l-.2-.1.2-.2v-.2l.1-.1-.2-.3.1-.1v-1.6c-.2-.1-.2-.1 0-.1v-.2c-.3-.2-.3-.5 0-.7v-.3l.2-.1v-1s.2-.2 0-.3l.3-.4c0-.2.1-.4.3-.5l-.2-.1V32l.3-.3v-.2l-.1-.2h.1V31l.3-.3h.2l.2-.7c-.3-.3-.1-.4.1-.4v-.3h.2V29l.2-.2-.1-.4.2-.2.2-.4c.1 0 .1 0 0-.2l.2-.1v-.3c0-.3 0-.5.3-.5l.1-.1.2-.4c-.1-.1-.1-.1 0-.2l.2-.2c-.1-.1-.1-.1 0-.2l.1-.1v-.3l.2-.1c.3-.2.4-.4.3-.5l-.1-.1.6-.5V23.8c.1 0 .3-.2.3-.5l.3-.2v-.5c-.1-.2-.2-.3 0-.4v-.3l.5-.4.2-.4.4-.4c-.1-.1-.1-.1 0-.2l.2-.1v.1l.2-.1.3-.3h.3c-.2 0-.3-.2-.1-.3l.1-.1h.3l.1-.1-.1-.2v-.2h.3l.4-.4c.1 0 .1 0 0-.2l.2-.1.1-.2.3-.2c.1-.1.3-.2.4 0l.1-.2-.1-.1v-.3l.6-.2.2-.3.3-.2.5-.3v-.3l-.1-.1v-.3l.1.1.1.2h.3l-.1-.4.5-.5V15h.3l.2-.1-.1-.1v-.2c.4 0 .5.2.5 0 0-.3 0-.3.1-.2.3 0 .3 0 .2-.1V14h.1l.2-.2-.1-.1.1-.1h.3l.2-.3h.2l.3-.3h.2v-.2l.3-.3v-.2h.3l.4-.4H39v-.4l.1-.2h.3c0-.2 0-.2.2-.3l.5-.5.9-.7.3-.2c.1-.1.1-.1.2 0l.1.2c.5-.4.7-.6.6-.8v-.2h.3v-.3h.2c.1-.2.1-.2.2 0h.1l1.3-1h.4l.2-.2c0 .2 0 .2.2 0 .2 0 .2 0 0-.2l.2-.1.1-.2c.1.2.1.2.3 0l.3-.2-.2-.1.2-.1.3-.3c0 .2 0 .2.2 0 .2 0 .2 0 0-.2l.2-.1.1-.1h.3l.5-.5.2.2.1-.1c-.1-.2 0-.3.4-.4l.9-.7.5-.2.7-.3c.3-.3.4-.4.4-.7h.4v-.3l.3-.2v-.3l.2.1c.1.2.1.2.2 0h.2l.3-.3.3-.2.1-.4v-.3h.3c.1.2.1.2.1 0 0-.3 0-.3.2-.2h.2l.3-.2.3-.2.1-.1.4.1c.2 0 .2 0 .2-.3l.2.2.4-.3.2.1h.1l.1-.2Zm48.9 95.5-.2.1c.1.2 0 .3-.3.3l-.4.3v.5l-1 .9-.3.2c0 .3 0 .3-.1.1h-.3l-.6.5-.8.7h-.3l-.1.3-.5.4-.1.3h-.1c-.2-.2-.3-.1-.5.3l-.7.5v-.1l-.6.2c0 .3 0 .3-.3.3l-.7.5-.2.2-.4.3c-.2 0-.5.2-1 .6l-.4.3c0-.1-.2 0-.2.3 0 .1 0 .1-.2 0-.1.2-.3.3-.3.6l-.6.4-.1.2c-.1 0-.3.2-.4 0l-.1.2-.2-.2-.1.1-.6.5v.3l.1.1-.4.4-.6.4c-.1.1-.2.3-.5.2l-.2.4c-.1.1-.2.2-.4.1v.3h-.1l-.3.3v.3l.3.1.3.3.2.3c.1.1.2.3.1.4h.3l.2.3.8 1v.3h.3v.1l1.2 1.4.1.4v.3l.5.6v.2l.4.6.2-.1v.1l.4.7.1.1-.1.1c-.1.1-.1.2 0 .2v.1c0 .1 0 .1.2 0l.3.3.2.3c.3 0 .4.1.5.3l.2.3.4.4v.1c0 .3 0 .3.2.4.1 0 .2 0 .2.3l.4.4h.2v.3l.7.9.6.7.4.4.2.3c0 .2 0 .2.2.3l.3.2.4.6.3.3.5.7c.2.1.3.3.1.4 0 .3 0 .3.2.1h.2l.4.5-.2.1c0 .3 0 .3.1.1h.3l.2.3.1.4.3.3c0 .2.2.3 0 .4h.2l.2.2h.3l.1.2.2.5.1.4h.3l.6.7-.2.1v.3l.1.1h.3l-.2.2.1.1.4.4c-.1.2 0 .3.3.7l.3.3.3.2.3.3v.4l.4.4.5.5c-.2.2-.2.2.1.2l.2.3h-.1l.3.5.3.3c.1.1.1.1 0 .2l.3.5h-.1l.2.1h.4V133.4c.4-.1.7-.1.7-.4v-.1c.2-.2.3-.4.5-.2v.1l.5-.3v-.3l-.1-.1.1-.2h.3c.1.2.1.2.3.1l1.4-1.2h.4l.7-.7.4-.3.1-.1.6-.5c.1-.1.1-.1-.1-.1l.4-.1.3-.3h.1c.1-.2.1-.2.3 0l.1-.2c-.1-.1 0-.2.2-.3l.7-.6-.1-.2h.5l.3-.2v-.2l.7-.6c.1-.1.3-.2.4-.1l.1-.4v-.2c.2.1.3 0 .4-.3.2 0 .6 0 .8-.4l.7-.3.8-.7.1-.2v-.2h.3l.2-.1c.2 0 .2 0 .2-.3l.9-.7h.1c.2-.2.2-.2.3 0v-.3l.6-.2h.3l.2-.2v-.3l.7-.3.1.1c.1.2.1.2.2 0l-.2-.2.5-.4c.1-.1.1-.1 0-.2-.1-.2-.1-.2-.3 0h-.1l-.1.2-.5-.6v-.3l-.1-.1-.2.1-.2-.3h.3c-.3 0-.4-.1-.8-.5.2-.1 0-.3 0-.4v-.3l-.1-.1-.5-.6h-.3l-.3-.4c.1-.2.1-.2-.1-.2l-.4-.1-.3-.3v-.2l-.5-.5v-.3l-.4-.1v-.3l-.3-.4c-.1-.2-.1-.2-.3 0v-.2c0-.3 0-.5-.3-.5l-.5-.6v-.1c-.3 0-.3 0-.5-.2v-.4l-.3-.3-.2-.3-.4-.4-.1-.1c0-.3 0-.3-.2-.3h-.3l-.1-.2c.1-.1 0-.2-.1-.4l-.1-.1-.3-.3v-.1l-.2-.2-.1.1-.1-.1-.2-.1.2-.2h-.3l-.3-.4-.3-.3v-.4l-1.1-1.3h-.3v-.1l-.2-.2h.1l-.2-.4-.5-.5v-.2l-.6-.5v-.4l-.3-.3v-.4c-.2-.2-.2-.2-.3 0h-.3l-.2-.6-.1-.1c0-.3 0-.3-.1-.2h-.3l-.2-.3-.4-.4-.2-.3.1-.1.2-.1-.4-.5c-.1-.1-.1-.1-.2 0l-.2.1c-.1-.1-.2-.2 0-.4l-.4-.4-.2-.1h-.2v-.3l-.1-.1-.5-.6-.3-.4-.4-.5-.3-.4-.1-.1H107.4l-.7-1-.3-.3-.4-.5-.2-.2-.1-.4c-.1-.2-.1-.2-.3 0V96l-.3-.3-.2-.3Zm-46.2 18 .4.2.6.1.3.6.4.2h.6l.3.5.5.3.5.1.4.4.4.3h.6l.3.5-.3.4-.3.5-.5.2-.4.5H62l-.5.3h-.4l-.5.4h-.5l-.5-.1h-.9l.1-.6v-1.6l-.3-.5.4-.6-.3-.5.2-.5-.1-.6v-.5Zm-1.4 0-.2.5v.6l.1.5v.6l.3.5-.4.6.2.5-.2.6.2.5-.4-.3-.6-.1-.5-.2-.2-.5-.4-.3-.5-.2-.2-.5-.5-.4.6-.2.4-.3.4-.2.2-.6.5-.2.5-.2.4-.3.3-.3Zm5.8-4.7.2.7.2.4.4.4v.6l.2.5.4.4v1l.3.5-.2.6-.1.5v.5l.2.6-.2-.1-.4-.3-.4-.3H63l-.4-.5-.4-.3-.5-.3-.4-.2-.4-.4-.5-.3-.5-.2-.4-.3-.7-.1.7-.2.2-.5.6-.1.3-.5.4-.3.4-.4.3-.4.6-.1.4-.4.3-.5Zm-11.2.5.4.4.4.3.5.3.4.3.4.3.4.3.5.2.5.3h.6l.1.4-.1.3-.6.2-.2.4-.5.3-.3.4-.3.4-.6.1-.3.3-.4-.3v-.6l-.2-.4-.3-.5v-.5l-.4-.4v-2.5Zm4.4-5 .5.2.6-.3v.8l-.1.5.3.5-.2.5v1l-.1.6-.1.5v1.5l.3.6-.2.3h-.4l-.3-.5H56l-.4-.4-.5-.2-.6-.1-.2-.5-.5-.2h-.6l-.3-.6-.4-.2-.5-.2.3-.5.2-.5.2-.6.5-.4.4-.4.3-.5h.6l.4-.2.4-.3.4-.3.5-.2Zm2.6.6.3.3.4.3h.6l.2.7.6.1.3.6.5.2.3.4-.4.4-.3.4-.6.2-.4.3-.3.5-.6.2-.4.3-.5.6.1-.7v-.5l.1-.6-.3-.5.2-.6.1-.5v-1.1l.1-.5v-.5ZM34 28.6c-.2.3-.5.4-.7.2l-.2.6h-.3l-.3.3.2.2c-.2.2-.3.2-.4.1l-.3.3-.1.2v.3c0 .3-.2.5-.3.6l-.5.6h-.3l-.1.1v.3l-.1.2-.2.1c-.1.2-.2.4 0 .5l-.2.1-.3.3-.1.2c-.1-.1-.3 0-.4.1-.2.2-.3.4-.1.5l-.2.4c0 .2 0 .4-.3.7-.1.1 0 .2.1.2l.2.1-.3.3v.3l.3.3-.4.4V39l-.1.7v.3l.1.1v.5l-.3.3.3.2c.2.2.3.2.4.1l.1-.1.2.1.4.4.3.3.2.1c0 .2 0 .3.3.3.3.1.4.2.4.4.2.3.4.5.7.5h.2l.2.1c.2.2.3.3.4.2h.5a.9.9 0 0 0-.3-.3l-.5-.3.1-.1a.9.9 0 0 0-.6-.6h-.3V42l.2-.2-.2-.1-.1-.2v-.2l-.4-.3.2-.4-.2-.2c-.2 0-.3 0-.4-.3a1 1 0 0 0-.2-.5v-.3l-.5-.4v-.3l.1-.1-.1-.2-.2-.4-.2-.4.4-.4c.2-.3.3-.4.2-.5v-.3l.2-.3h.3c0-.2 0-.3-.2-.4l.8-1H31h.5l.2-.2-.2-.2-.1-.1.5-.6v-.3l.1-.1.6-.6-.2-.2V32l.3-.3h.5v-.3s0-.2.3-.3c.2 0 .2 0 .1-.1v-.3h.7-.1l.1-.2.8-1h-.4l-.3-.3c0-.4-.2-.6-.4-.6ZM97.8 4.8l.1.1.6.7.2.1v.4l.5.6.1.2c-.1 0-.1 0 0 .2l.1.2.2.5.4.4.1.2.7.8.3.7c.3 0 .3 0 .2.1v.3l.8 1v.1l.2.2c.1 0 .1 0 0 .2v.2h.3c.2.1.2.1.1.4l.5.3c.1.1.3.3.1.4l.6.7-.1.1.2.3V14.8l.2.2-.6.5v.2l-.1.1c-.2.1-.3.3-.6.2-.2 0-.1.2-.1.4v.3h-.2l-.6.6c0 .2-.1.3-.4.6h-.2l.2.2h-.3l-.1.1-.2.4.1.1.1.4.5.6v.1l.4.5.7-.1c.4-.4.6-.5.7-.3v.1l.2.1h.4c.2-.2.3 0 .6.1h.2l.1-.2.3.3c.4-.4.6-.3.8-.2 0 .1 0 .1.2 0l.4.2.1.1H107.7c.3 0 .5 0 .5.3s.1.4.4.4c.2 0 .3.2.5.3v1l-.3.2-.1.3v.6l-.4.2-.1.1v.3l-.3.2c-.2.1-.2.1 0 .3l-.6.4c0 .3-.2.4-.3.5v.4l-.2.3-.4.6v.4c0 .2 0 .2 0 0h-.3c-.2.2-.2.2 0 .3v.2c.2.1.2.1 0 .2l-.1.1c0 .3-.2.2-.4.1l-.2.2v.2l.1.1s-.2 0-.5.3c-.1 0-.1 0 0 .2v.2l.4.4.3.3v.1l.2.2h-.1l-.2.2h-.6l-.2.2-.2.1-.2.1-.2.2-.2.1h-.5l-.2.2h-.3l-.1.3h-.3l-.2.1h-.3l-.2.2-.1.2h-.3l-.2.2h-.3l-.2.2h-.2l-.2.1-.3.1h-.5l-.1.3H99l-.2.3h-.3l-.2.1H98v.3h-.4l-.2.1-.2.1-.2.1-.2.1-.3.2-.3-.1-.2.2-.1.1h-.3l-.2.2h-.5l-.1.3h-.4l-.1.2h-.5l-.2.3h-.2l-.3.1-.2.1-.2.2-.3-.1h-.2l-.2.2-.2.1-.2.2h-.3l-.2.1-.2.1-.3.1-.2.1-.2.1h-.3l-.1.2-.3.1-.2.1H89l-.1.2h-.3l-.2.1H88l-.2.2h-.2l-.2.2h-.3l-.2.2h-.2l-.2.2H86l-.2.3-.3-.1h-.2l-.2.2-.3.1-.1.2h-.3l-.2.2-.2.1h-.5l-.2.2H83l-.2.1-.2.3h-.5l-.2.2-.2.1-.2.1h-.3l-.2.1-.2.2h-.5l-.2.2H80l-.3.1-.2.2h-.2l-.2.2-.2.1h-.5l-.2.3H78l-.3.1h-.2.1v-.5l-.2-.1.2-.1c-.2-.2-.2-.2-.3 0l-.1-.2c.1-.1.1-.1 0-.2l-.3-.5v-.2l-.1-.2-.7-.8v-.5l-.2-.3-.2-.1v-.4c-.2-.2-.2-.2 0-.3l-.1-.1-.4-.5-.1-.1v-.5l-.3-.4-.2-.6h-.3l-.1-.2.3-.2-.4-.2H74c-.3-.1-.4-.3-.4-.5v-.3l.1-.5-.1-.1V33l-.1-.1v-.4l-.2-.2-.1-.1v-.3c-.1-.1-.1-.1 0-.2l-.2-.3V31h.1c.2-.2.2-.2 0-.3-.2 0-.2 0-.3-.2l.3-.2c.1-.2 0-.3-.2-.6v-.2l.1-.2c.2 0 .2 0 .2-.3v-.6l.2-.3-.3-.5v-.2l.3-.2-.2-.2.2-.1-.1-.4v-.3c-.1-.1-.1-.1 0-.2v-.5l.2-.2V25h-.2l.3-.3.1-.1c.2-.2.2-.2 0-.3l.5-.4H74l-.1-.2v-.3l.8-.7v-.1c-.2-.2-.2-.2 0-.2h.2V22l.2-.1v-.6h.1c.2-.2.2-.2 0-.3l.2-.2.3-.2c.1.1.2 0 .2 0 .3-.2.3-.2.2-.3l.2-.2V20h.2l.2-.1-.1-.2h.2c0-.1 0-.2.3-.4l.3-.3-.1-.1c-.1-.1 0-.3.4-.4l.3-.2.1-.1.2-.1.7-.6.4-.4.3-.2.3-.2.1-.1.1-.2.3-.2.3-.2c.2-.1.2-.1.2-.4l.3-.2V15l.8-.7.2-.1.5-.5.3-.2v-.3c.4 0 .6-.2.7-.3l.4-.4 1.5-1.1.1-.2c.3 0 .7 0 1-.4l.6-.4.2-.2h.2l.3-.2h.2c.2 0 .4-.2.5-.3l.1-.1h.3l-.1-.1-.1-.2h.1c.1-.2.1-.2.3 0l.1-.2h.3l.4-.3.1-.1.1.1c.2.2.2.2.3 0L92 8l.2-.1.4-.1.1-.1h.4l.4-.5h.4L94 7 94 7v-.3c.2 0 .3 0 .4.2v-.3h.4l.2-.2.1.2h.3l.4-.4.4-.3c0-.3 0-.3.3-.2h.2c0 .2.3.3.7 0l.1-.2v-.1l-.2-.2h.3c-.2-.1 0-.2.1-.3ZM83.4 18.9v.2l-1.5 1.3h-.4l.2.2-.2.1-.1.1-.2.1s-.2 0-.2.3c-.3.2-.5.3-.4.5-.2.2-.2.2-.3.1v.2l-.4.3.2.1-.2.1c0 .3-.1.4-.3.5l-.3.5.1.1c.1.2 0 .3-.1.4l-.3.3-.2.3-.3.3h-.1l.1.2c.1.2.1.2.3 0v.2c.3 0 .5.2.6 0 .1 0 .4 0 .6.2h.2c.1-.2.1-.2.2 0l.1.3.5-.3.3-.1c.2-.1.3 0 .4.2l.4-.1.2-.2c0 .2 0 .2.2 0l.3.3c0 .2 0 .2.2 0l.3-.2h.3l.2-.2h.7l.1.1c.1-.1.2-.1.2 0 .2.2.2.2.3 0h.5c.3.1.3.1.2 0V25l.2-.1c0-.1 0-.1.2 0l.1.2.9-.7.3-.3-.2-.1c-.2 0-.2 0-.2-.3s0-.3-.1-.1h-.3v-.2h-.3l-.2-.2-.3-.1h-.3l-.2-.3H85l-.2-.3-.4-.5V22l-.2-.2v-.2L84 21v-.3l-.2-.5-.1-.7-.1-.1.1-.1V19h-.3Zm10-4-.2.1H93l-.4.3h-.2l-.2-.1-.3.2-.1.1-.2-.1h-.2c-.1-.2-.1-.2-.2 0l-.5.6h-.2c-.2-.2-.5-.2-.9.1l-.3.3-.5.4-.4.1H88l-.1.1h-.3l-.1.1c-.3.2-.4.4-.3.5l.6.2c0 .2-.2.4.2.3 0 0 .2-.2.3 0l.2.3v.2l-.1.1.2.3h.5c.1.2.3.4.2.6l.1.4.1.4.1.2.2.1v.7h-.1c-.2.2-.2.2 0 .3l.2.3.1-.1h.3l.1-.1.2-.1v-.5l.1.1h.3l.4-.3c.2-.1.2-.1 0-.3.2 0 .3-.2.2-.4h.2V20l.1-.2.3-.3.1-.1v-.1l.3-.4v-.2l.5-.4-.2-.8-.1-.1c.1-.2.4-.4.3-.8.2-.1.2-.4.3-.5v-.1c-.2-.2-.3-.3-.2-.4.3-.3.3-.5.2-.7l-.1-.1Z" transform="scale(-1 1) rotate(31 -36.2 -240.5)" id="skier" fill="#191919"/>
  </g>
</svg>
