<svg width="200" height="200" xmlns="http://www.w3.org/2000/svg" dragabble="true">
  <path 

    id="icon-cloud-outline"
    stroke="none" 
    stroke-width="1"
    fill="currentColor"
    fill-rule="evenodd"
    
    d="M114.6 133.5h-2.8l-.9-.3-1 .3-.7-1-1 .2-.9-.4h-1l-.9.2-.8-.7h-1.8l-.8-.7h-1l-.9-.3-.7-.7h-1l-1 .1-.5-1.2-.9-.3-1.2.4-.6-.8-.7-.7h-1l-.8-.6-.9-.3-.9-.2-.8-.5-.6-.7h-1l-1-.4-.6-.6-.6-1-.9-.3-.8-.3-.6-.9-.9-.3h-1l-.4-1.1-.7-.7-1.2.1-.5-.9-.8-.5-.6.8-.5.8-.1 1-1.2.2-.3.9-.8.5-.6.6-.6.7-.9.3-.3 1.1-1 .2-.8.4-.8.5-.8.5-.8.5-.7.6-1-.2-1 .2-.6 1.2-1-.4-1 .2-.9.3-.8.7-1-.1h-.9l-1 .2h-.8l-1-.1-.8.9-1-.7-1 .5H52l-.9-.6-1 .3-.9.6-.9-.3-.9-.6h-1l-.8-.3-1-.1-.9-.2-1 .7-.9-.4H41l-1-.2-.8-.5-1 .3h-1l-.8-.5-.8-.6-1 .2-.8-.4-.8-.4-1 .1h-1l-.9-.3-.5-1.2h-1l-.6-.7h-1l-1-.3-.7-.5-.6-.8-1.1.1-.4-1-.7-.6h-1.1l-1-.4-.5-.7-.5-.8-.8-.6-.7-.6-.5-.8-.5-.7-.5-.9-.8-.5.2-1.2-.7-.6-.7-.7-.5-.8-.4-.9-.7-.7.2-1.1-.9-.7-.4-.9.4-1v-1l-.4-.9-1-.7.6-1.1-.1-1-.7-.8.1-1-.1-.9-.5-.9.3-1-.1-.9v-1l-.3-.8v-1l.8-1-.5-.9.5-.9-.5-1-.1-1 .1-.9.5-.8-.3-1 .5-1 .5-.8-.6-1 .5-1 .8-.7.2-1-1.1-.6-.2-1.1-.6-.8-.9-.5-.5-.8-1-.4.1-1.3-.8-.6-.1-1-.7-.8-1-.5.1-1.1-.4-.9-.7-.7-.4-.9-.1-1-.4-.8-.8-.6.2-1-.3-1-.5-.8-.8-.7.3-1-.6-.8-.5-.9.3-1-.6-.8.7-1-.6-.9v-.9l-.2-1V55l.3-1-.2-.9-.2-1 .2-.9.1-.9.4-.8.1-1 .3-.9.4-.8-.1-1 .4-.8 1-.6v-1l.7-.7.4-.9.3-.8v-1.1L5 39l.8-.6.4-.9 1-.4.6-.6.4-.9 1-.4.1-1.2 1.2-.1.4-1 1.3.2.4-1 1-.2.5-1 .8-.6h2l.7-1 1 .3.8-.8.8-.6 1.1.5.7-1 1.1.6.9-.4.8-.7.9-.3h1l.9-.1 1 .2.9-.2.9-.3.9-.1 1 .3.9.2.9-.3.9-.6 1 .8.8-.3h1l.9-.2 1-.3.8.3.9.8H44l1.1.3.5-1.1v-1l.6-.7.8-.6.2-1 .4-.9.5-.7v-1l.5-.9.7-.6.6-.7.8-.6.2-1 .1-1 1-.4.6-.8.2-1 .5-.8.9-.5v-1.1l1.3-.2.3-.9.4-.9.5-.8.6-.7.9-.5.5-.7 1-.3 1-.4.7-.5.2-1.2 1-.2.7-.7h1l.7-.6.7-.8.9-.3 1 .3.8-.9h.9l1 .2h.9l.8-.8h1l.9.4.9-.5.9.4 1-.5.8.6 1-.5.9.3h.9l.8.8 1-.7 1 .2.7.7h1l.9.3h1l.5 1 .8.4 1.2-.4.7.8.5.8.8.5 1 .1.6.8.5.8.7.5.8.5.5.8.6.4.6-.4.8-.4.7-.7 1.2.4.8-.6.7-.5.8-.6.8-.5.8-.4h1l1-.3h.9l.8-.6 1 .1.8-.3 1-.2 1 .3.8-.6h1l.8-.3 1-.1.9.1.9-.2 1 .4.9.1.9-.2h1l.8.2h1.9l.9.4 1-.6.8.4 1-.1.9.5 1-.6h.9l.8.9.9.5 1-.2.8.4 1.1-.3.7 1 1-.3.9.5 1 .3.6.7.8.5.7.7 1 .1.7.7.8.5.6.7 1 .2.5.9.7.6 1.2.2.1 1.1.5.8.6.8.6.7 1.2.3.3 1v1l.8.6.8.7.6.7.4.9v1l.6.8.6.7-.1 1 .5.9.2.9.3.8.9.7v1l-.1 1 .6.8-.2 1 1 .7v1l-.2 1 .4.8.5.9-.2.8.5 1 1-.2h1l.9.4.7.7.9.2.9.3.5 1 1.1-.2.5 1.2.8.3 1 .3.5.7.8.5.8.4 1 .2.8.5.3 1.1 1 .2 1 .3.5.8.4 1 1 .3.6.7.5.8.8.5.5.8.5.8 1.1.2.7.7.1 1.1 1.2.2-.1 1.3.6.7 1.1.4.4.8.4.9v1l1 .6.2 1 .6.7-.3 1.1.2 1 .7.7.8.7.4.9v1.9l.1 1 .5.8v1l.4.8v1.9l-.5 1 .6.9-.6 1 .2.8.5 1 .2 1-.8.8v1l.4 1-.8.7.1 1 .2 1 .1 1-.4.8-.2.9-.5.8-.2 1-.6.7.2 1-.1 1-.7.7-.8.7.3 1-.3 1-.6.7-.8.6-.4.8-.6.7-.2 1-.4 1-.8.4-.9.4-.7.6v1.3l-1 .3-.8.6-.5.8H175l-.8.4-.7.6-.7.8-.7.7-1.2-.3-.9.1-.5 1.2-1 .3-.8.3h-1l-1-.4-.8.8-1 .2-1-.2-.8.3-1-.1-1-.4-.8 1h-1l-.9-.2h-1.9l-.8-.8-1 .1h-1l-.8-.3-1 .3-1 .1-.8-.6-.9-.4h-1l.3 1-.7.8.1 1 .2 1-1.2.5-.3.9.5 1.2-.7.7-.2 1-.5.8-.5.7-.4 1-1.2.2-.6.7-.4.9-.6.6-.8.5-.5.8-.7.7-.2 1h-1.3l-.4 1-.4 1-.7.6-1 .1-.5 1-.9.4-1 .2-.8.4-.6.8-.7.6-1.2-.2-.7.7-.9.2-.5 1.1-.9.3-1-.3-.9.4-.8.3-.9.4-.7.8-1 .2-.8.1-1 .4-.9-.3-.9.4-1-.7-.9.6h-.9Zm-38.7-21 .8.6.7.4.7.6.6.8 1 .2.2 1.2 1 .3.5.8 1 .3 1 .2.4 1 1 .1.8.5.5.8 1 .3.7.4.6.8 1 .2h1l.4 1.2.9.5 1.2-.4.6.9.7.7h1l.7.5 1 .3.9.1.8.4.7.7 1-.1 1 .2.8.4.7.7 1 .1.9.1.8.7h1l1-.4.7.9 1 .3 1-.6.8.5h1l.8.1h1l.9-.4 1 .7.8-.4h1.9l.9-.3h1l.7-.8 1 .1.9-.1.8-.4.9-.4.8-.4.7-.7h1l1-.3.3-1.3 1.1.1.8-.5.8-.5.4-1 1-.2.7-.6.8-.5.7-.5.9-.5.2-1.2h1.1l.4-1 .7-.7 1-.3.3-1 .1-1 .7-.7 1-.4.5-.8.6-.7.5-.9.4-.9-.4-1.1.6-.8v-1l.2-.8.4-.9-.4-1-.3-.8.2-1 .2-1.1-.5-1 1 .4.8.6 1.1-.1h1l1 .2.6 1.1 1-.2.9.6 1-.3h1l.8.2 1 .5 1-.6.9.6.9.2 1-.7.9-.2h1l.9.3.9-.2 1-.2h.8l1-.2h1l.7-.7 1.2.7.8-.6.8-.6.8-.4.9-.4.7-.7h1l.5-1 .8-.5h1.1l.9-.5.6-.8v-1.2l1.3-.2.6-.7.1-1 .8-.7.4-.9.1-1 .8-.6.3-1 .4-.8.1-1 .4-.8 1-.7-.3-1 .7-.8-.4-1v-1l.3-1 .4-.8-.2-1 .5-.9.3-.9-.6-1 .3-.9.7-.9v-1l-.6-.9.6-1-.2-.9-.4-.9V71l-.8-.8.6-1-.5-1 .2-1-.4-.8-.8-.7.3-1.1-.4-.9-.5-.8-.4-.8-.1-1-.5-.8-.8-.6v-1.1l-.5-.8-.7-.7-1-.4-.1-1.1-1-.5-.7-.6-.2-1-1-.4v-1.2l-1-.3-.7-.7-.7-.5-.8-.6-.5-.9-.8-.4-1-.3-.6-.6-.7-.5-.6-.7-.8-.5-.8-.5-.6-.6h-1l-.8-.7-.4-1h-1l-.7-.8-.8-.3-1-.3-1 .1-.7-.6-.7-.6h-1l-.6-.8-.9-.4h-1.2l.2-1.3-1-.8.6-1-.7-.8.7-1.1-.7-.8.2-1-.9-.7-.4-.9.3-1v-1l-.9-.7.4-1.1-.9-.7-.6-.7.4-1.2-1.2-.5.5-1.2-.6-.7-1-.6-.5-.7-.2-1-.6-.7-.2-1-.6-.6-.7-.6-.7-.6-.3-1-.4-.9-1-.4-1-.1-.1-1.3-1-.3-.7-.5-.9-.4-1-.2-.6-.6-.5-1-.8-.4-1-.3-.9-.1-.7-.6h-1l-1 .1-.8-.4-.8-.7-1 .2h-1l-.8-.2-1 .3h-.9l-.9-.4-.9-.2-.9-.5-1 .4-.9.4-.9-.7h-1l-.8.5h-1l-.9-.3-.9.7-1-.8-.8.4-1 .4-.8.3-.9.2h-1l-.8.3-1-.3h-1l-.9.2-.6 1h-1l-.8.5-1-.2-.8.6-.7.7-.9.3h-1l-.5 1-.8.5-.8.5-.7.5-.2 1.1-1 .8-.2-1.3-.8-.7.1-1-.8-.6v-1l-1-.5-.4-.9-.8-.5-.3-1.2-1.2.1-.8-.5-.5-.9-1-.2-.8-.4-1-.1-.6-1-1-.2-1 .5-.9-.5-.8-.6h-1l-1 .4-.9-.4-.9-.2-1 .1-.9.3h-.9l-.9.4h-1.9l-.9.5-.5-1-.2.2-1 .3-.7.5-.7.5-.7.5-1 .1-.7.5-1 .3-.4.9-.8.3-.6.7-.7.6-1 .3-.2 1-.8.6-.4.8-.6.7-.7.6-.5.8-.8.5-.7.7-.4.9-.5.7-.6.7-.6.7-.4.9-.8.6.2 1.2-.9.6-.2.9-.8.6.1 1.1-.3.9-1 .5-.8.6v1l-.6.8.2 1.1-1.1.5.2 1-.4.5h-.8l-.6-.4-.9-.3-.9-.4-1 .3-.9-.3h-.9l-.9-.2-1 .5-.9-.4h-.9l-1 .6-.8-.7-1-.1h-1.9l-.8.8-1-.2-1-.5-.8.4-.9.5-.9.4h-.9l-1-.3-.8.5-.9.4-1-.3-.8.4-1 .2-.8.3-.7.9-1 .1h-1l-.6.8h-1l-.5 1.1-.8.4-1 .2-.6.6-.5.9-.9.4-1.2.1-.3 1-.3 1-.6.7-.8.5-.4.8-.4.8-1 .5.2 1.2-1.1.5-.3.9-.1 1-.6.8-.2.9-.2 1 .2 1-.1.9-.8.8.3 1 .4 1-.3.9-.5 1 .4.8v2l.4.8v2l.9.7.4.8-.4 1.1 1.1.6-.4 1.2.4.8 1 .6.3 1 .4.8v1l1 .5.2 1 .6.7-.1 1.2.4.8.9.6 1 .5.5.7.4.9.4.9.5.7.9.5.4.8 1 .8-.3 1.1-.3.9-.8.8.3 1-.8.8v1l.4 1v1l-.8.8v.9l.4 1-.8.9.2 1 .3.9.3.9-.2 1v.9l-.3.9v1l-.2 1 .7.8.2.9-.2 1-.3 1 1 .8.3.8v1l-.1 1 .3.9.3.9.7.7.6.8v1l.2 1 .4.8 1.3.3.1 1 .5.8.9.6.1 1 .6.8.8.6 1 .3.9.4.2 1.2.7.7 1.3-.3.8.5.8.5.7.6.6 1 1-.2 1 .2.7.7 1 .1.8.5.8.6 1.1-.5 1 .1.8.4 1 .2h.8l.8 1h1.9l.9.3 1-.3.9-.2.9.6.9.3.9-.1 1-.3.8.6 1-.3.9-.4 1 1h.9l.8-1 1 .2.9-.3h.9l.9-.1.9-.3 1 .6 1-.1.8-.4 1-.2h.9l.8-.5.9-.4.6-.9 1.2.4.6-.8.6-.8.7-.6h1l.6-1 .7-.4 1-.3.7-.6.3-1 .5-.7 1.2-.3.3-1 .6-.7-.3-1.1.4-.8.9-.7-.2-1.1Z" transform="translate(6.6 33.4)" />
</svg>
